G75*
G70*
%OFA0B0*%
%FSLAX24Y24*%
%IPPOS*%
%LPD*%
%AMOC8*
5,1,8,0,0,1.08239X$1,22.5*
%
%ADD10C,0.0000*%
%ADD11R,0.0106X0.0591*%
%ADD12R,0.0591X0.0106*%
%ADD13R,0.0984X0.0197*%
%ADD14R,0.0984X0.0787*%
%ADD15R,0.0217X0.0472*%
%ADD16R,0.0276X0.0354*%
%ADD17R,0.0394X0.1811*%
%ADD18R,0.0630X0.1339*%
%ADD19R,0.0433X0.0394*%
%ADD20R,0.0472X0.0551*%
%ADD21R,0.0137X0.0550*%
%ADD22R,0.0315X0.0315*%
%ADD23R,0.0580X0.0110*%
%ADD24R,0.0110X0.0580*%
%ADD25R,0.0394X0.0433*%
%ADD26R,0.0157X0.0354*%
%ADD27R,0.0709X0.0354*%
%ADD28R,0.0787X0.0551*%
%ADD29R,0.0709X0.0433*%
%ADD30R,0.0354X0.0276*%
%ADD31R,0.0480X0.0880*%
%ADD32R,0.1417X0.0866*%
%ADD33R,0.0591X0.0157*%
D10*
X002141Y000100D02*
X051141Y000100D01*
X051141Y041100D01*
X002141Y041100D01*
X002141Y000100D01*
X003964Y008234D02*
X003966Y008260D01*
X003972Y008286D01*
X003982Y008311D01*
X003995Y008334D01*
X004011Y008354D01*
X004031Y008372D01*
X004053Y008387D01*
X004076Y008399D01*
X004102Y008407D01*
X004128Y008411D01*
X004154Y008411D01*
X004180Y008407D01*
X004206Y008399D01*
X004230Y008387D01*
X004251Y008372D01*
X004271Y008354D01*
X004287Y008334D01*
X004300Y008311D01*
X004310Y008286D01*
X004316Y008260D01*
X004318Y008234D01*
X004316Y008208D01*
X004310Y008182D01*
X004300Y008157D01*
X004287Y008134D01*
X004271Y008114D01*
X004251Y008096D01*
X004229Y008081D01*
X004206Y008069D01*
X004180Y008061D01*
X004154Y008057D01*
X004128Y008057D01*
X004102Y008061D01*
X004076Y008069D01*
X004052Y008081D01*
X004031Y008096D01*
X004011Y008114D01*
X003995Y008134D01*
X003982Y008157D01*
X003972Y008182D01*
X003966Y008208D01*
X003964Y008234D01*
X003964Y009966D02*
X003966Y009992D01*
X003972Y010018D01*
X003982Y010043D01*
X003995Y010066D01*
X004011Y010086D01*
X004031Y010104D01*
X004053Y010119D01*
X004076Y010131D01*
X004102Y010139D01*
X004128Y010143D01*
X004154Y010143D01*
X004180Y010139D01*
X004206Y010131D01*
X004230Y010119D01*
X004251Y010104D01*
X004271Y010086D01*
X004287Y010066D01*
X004300Y010043D01*
X004310Y010018D01*
X004316Y009992D01*
X004318Y009966D01*
X004316Y009940D01*
X004310Y009914D01*
X004300Y009889D01*
X004287Y009866D01*
X004271Y009846D01*
X004251Y009828D01*
X004229Y009813D01*
X004206Y009801D01*
X004180Y009793D01*
X004154Y009789D01*
X004128Y009789D01*
X004102Y009793D01*
X004076Y009801D01*
X004052Y009813D01*
X004031Y009828D01*
X004011Y009846D01*
X003995Y009866D01*
X003982Y009889D01*
X003972Y009914D01*
X003966Y009940D01*
X003964Y009966D01*
X004663Y013899D02*
X004665Y013934D01*
X004671Y013968D01*
X004681Y014001D01*
X004694Y014034D01*
X004711Y014064D01*
X004732Y014092D01*
X004755Y014118D01*
X004782Y014141D01*
X004810Y014160D01*
X004841Y014176D01*
X004874Y014189D01*
X004907Y014198D01*
X004942Y014203D01*
X004977Y014204D01*
X005011Y014201D01*
X005046Y014194D01*
X005079Y014183D01*
X005110Y014169D01*
X005140Y014151D01*
X005168Y014130D01*
X005193Y014105D01*
X005215Y014078D01*
X005234Y014049D01*
X005249Y014018D01*
X005261Y013985D01*
X005269Y013951D01*
X005273Y013916D01*
X005273Y013882D01*
X005269Y013847D01*
X005261Y013813D01*
X005249Y013780D01*
X005234Y013749D01*
X005215Y013720D01*
X005193Y013693D01*
X005168Y013668D01*
X005140Y013647D01*
X005110Y013629D01*
X005079Y013615D01*
X005046Y013604D01*
X005011Y013597D01*
X004977Y013594D01*
X004942Y013595D01*
X004907Y013600D01*
X004874Y013609D01*
X004841Y013622D01*
X004810Y013638D01*
X004782Y013657D01*
X004755Y013680D01*
X004732Y013706D01*
X004711Y013734D01*
X004694Y013764D01*
X004681Y013797D01*
X004671Y013830D01*
X004665Y013864D01*
X004663Y013899D01*
X004663Y023450D02*
X004665Y023485D01*
X004671Y023519D01*
X004681Y023552D01*
X004694Y023585D01*
X004711Y023615D01*
X004732Y023643D01*
X004755Y023669D01*
X004782Y023692D01*
X004810Y023711D01*
X004841Y023727D01*
X004874Y023740D01*
X004907Y023749D01*
X004942Y023754D01*
X004977Y023755D01*
X005011Y023752D01*
X005046Y023745D01*
X005079Y023734D01*
X005110Y023720D01*
X005140Y023702D01*
X005168Y023681D01*
X005193Y023656D01*
X005215Y023629D01*
X005234Y023600D01*
X005249Y023569D01*
X005261Y023536D01*
X005269Y023502D01*
X005273Y023467D01*
X005273Y023433D01*
X005269Y023398D01*
X005261Y023364D01*
X005249Y023331D01*
X005234Y023300D01*
X005215Y023271D01*
X005193Y023244D01*
X005168Y023219D01*
X005140Y023198D01*
X005110Y023180D01*
X005079Y023166D01*
X005046Y023155D01*
X005011Y023148D01*
X004977Y023145D01*
X004942Y023146D01*
X004907Y023151D01*
X004874Y023160D01*
X004841Y023173D01*
X004810Y023189D01*
X004782Y023208D01*
X004755Y023231D01*
X004732Y023257D01*
X004711Y023285D01*
X004694Y023315D01*
X004681Y023348D01*
X004671Y023381D01*
X004665Y023415D01*
X004663Y023450D01*
X019074Y027277D02*
X019076Y027304D01*
X019082Y027331D01*
X019091Y027357D01*
X019104Y027381D01*
X019120Y027404D01*
X019139Y027423D01*
X019161Y027440D01*
X019185Y027454D01*
X019210Y027464D01*
X019237Y027471D01*
X019264Y027474D01*
X019292Y027473D01*
X019319Y027468D01*
X019345Y027460D01*
X019369Y027448D01*
X019392Y027432D01*
X019413Y027414D01*
X019430Y027393D01*
X019445Y027369D01*
X019456Y027344D01*
X019464Y027318D01*
X019468Y027291D01*
X019468Y027263D01*
X019464Y027236D01*
X019456Y027210D01*
X019445Y027185D01*
X019430Y027161D01*
X019413Y027140D01*
X019392Y027122D01*
X019370Y027106D01*
X019345Y027094D01*
X019319Y027086D01*
X019292Y027081D01*
X019264Y027080D01*
X019237Y027083D01*
X019210Y027090D01*
X019185Y027100D01*
X019161Y027114D01*
X019139Y027131D01*
X019120Y027150D01*
X019104Y027173D01*
X019091Y027197D01*
X019082Y027223D01*
X019076Y027250D01*
X019074Y027277D01*
X019074Y011923D02*
X019076Y011950D01*
X019082Y011977D01*
X019091Y012003D01*
X019104Y012027D01*
X019120Y012050D01*
X019139Y012069D01*
X019161Y012086D01*
X019185Y012100D01*
X019210Y012110D01*
X019237Y012117D01*
X019264Y012120D01*
X019292Y012119D01*
X019319Y012114D01*
X019345Y012106D01*
X019369Y012094D01*
X019392Y012078D01*
X019413Y012060D01*
X019430Y012039D01*
X019445Y012015D01*
X019456Y011990D01*
X019464Y011964D01*
X019468Y011937D01*
X019468Y011909D01*
X019464Y011882D01*
X019456Y011856D01*
X019445Y011831D01*
X019430Y011807D01*
X019413Y011786D01*
X019392Y011768D01*
X019370Y011752D01*
X019345Y011740D01*
X019319Y011732D01*
X019292Y011727D01*
X019264Y011726D01*
X019237Y011729D01*
X019210Y011736D01*
X019185Y011746D01*
X019161Y011760D01*
X019139Y011777D01*
X019120Y011796D01*
X019104Y011819D01*
X019091Y011843D01*
X019082Y011869D01*
X019076Y011896D01*
X019074Y011923D01*
D11*
X029779Y011950D03*
X029975Y011950D03*
X030172Y011950D03*
X030369Y011950D03*
X030566Y011950D03*
X030763Y011950D03*
X030960Y011950D03*
X031156Y011950D03*
X031353Y011950D03*
X031550Y011950D03*
X031747Y011950D03*
X031944Y011950D03*
X032141Y011950D03*
X032338Y011950D03*
X032534Y011950D03*
X032731Y011950D03*
X032928Y011950D03*
X033125Y011950D03*
X033322Y011950D03*
X033519Y011950D03*
X033716Y011950D03*
X033912Y011950D03*
X034109Y011950D03*
X034306Y011950D03*
X034503Y011950D03*
X034503Y018250D03*
X034306Y018250D03*
X034109Y018250D03*
X033912Y018250D03*
X033716Y018250D03*
X033519Y018250D03*
X033322Y018250D03*
X033125Y018250D03*
X032928Y018250D03*
X032731Y018250D03*
X032534Y018250D03*
X032338Y018250D03*
X032141Y018250D03*
X031944Y018250D03*
X031747Y018250D03*
X031550Y018250D03*
X031353Y018250D03*
X031156Y018250D03*
X030960Y018250D03*
X030763Y018250D03*
X030566Y018250D03*
X030369Y018250D03*
X030172Y018250D03*
X029975Y018250D03*
X029779Y018250D03*
D12*
X028991Y017462D03*
X028991Y017265D03*
X028991Y017069D03*
X028991Y016872D03*
X028991Y016675D03*
X028991Y016478D03*
X028991Y016281D03*
X028991Y016084D03*
X028991Y015887D03*
X028991Y015691D03*
X028991Y015494D03*
X028991Y015297D03*
X028991Y015100D03*
X028991Y014903D03*
X028991Y014706D03*
X028991Y014509D03*
X028991Y014313D03*
X028991Y014116D03*
X028991Y013919D03*
X028991Y013722D03*
X028991Y013525D03*
X028991Y013328D03*
X028991Y013131D03*
X028991Y012935D03*
X028991Y012738D03*
X035290Y012738D03*
X035290Y012935D03*
X035290Y013131D03*
X035290Y013328D03*
X035290Y013525D03*
X035290Y013722D03*
X035290Y013919D03*
X035290Y014116D03*
X035290Y014313D03*
X035290Y014509D03*
X035290Y014706D03*
X035290Y014903D03*
X035290Y015100D03*
X035290Y015297D03*
X035290Y015494D03*
X035290Y015691D03*
X035290Y015887D03*
X035290Y016084D03*
X035290Y016281D03*
X035290Y016478D03*
X035290Y016675D03*
X035290Y016872D03*
X035290Y017069D03*
X035290Y017265D03*
X035290Y017462D03*
D13*
X005125Y009730D03*
X005125Y009415D03*
X005125Y009100D03*
X005125Y008785D03*
X005125Y008470D03*
D14*
X005125Y007328D03*
X002960Y007328D03*
X002960Y010872D03*
X005125Y010872D03*
D15*
X015267Y010612D03*
X015641Y010612D03*
X016015Y010612D03*
X016015Y009588D03*
X015267Y009588D03*
X023267Y009612D03*
X024015Y009612D03*
X024015Y008588D03*
X023641Y008588D03*
X023267Y008588D03*
D16*
X017397Y010600D03*
X016885Y010600D03*
X016147Y008850D03*
X015635Y008850D03*
X015885Y007850D03*
X016397Y007850D03*
X016385Y013100D03*
X016897Y013100D03*
X016897Y013850D03*
X016385Y013850D03*
X016385Y014850D03*
X016897Y014850D03*
X016147Y018100D03*
X015635Y018100D03*
X015885Y022600D03*
X016397Y022600D03*
X021885Y020350D03*
X022397Y020350D03*
X022397Y019600D03*
X021885Y019600D03*
X021885Y018850D03*
X022397Y018850D03*
X007897Y012100D03*
X007897Y011600D03*
X007385Y011600D03*
X007385Y012100D03*
X040385Y007350D03*
X040897Y007350D03*
X041135Y014600D03*
X041647Y014600D03*
X040897Y019850D03*
X040385Y019850D03*
D17*
X026534Y004643D03*
X025747Y004643D03*
D18*
X024802Y006691D03*
X027479Y006691D03*
D19*
X027725Y008100D03*
X027056Y008100D03*
X022475Y010600D03*
X021806Y010600D03*
X025306Y020100D03*
X025975Y020100D03*
X025975Y021600D03*
X025306Y021600D03*
X025306Y023100D03*
X025975Y023100D03*
X032806Y027850D03*
X033475Y027850D03*
X034806Y027850D03*
X035475Y027850D03*
X037056Y027850D03*
X037725Y027850D03*
X038556Y027850D03*
X039225Y027850D03*
X039806Y019100D03*
X040475Y019100D03*
X039975Y014350D03*
X039306Y014350D03*
X041056Y013850D03*
X041725Y013850D03*
X039975Y010100D03*
X039306Y010100D03*
X005475Y012100D03*
X004806Y012100D03*
D20*
X017050Y009350D03*
X018231Y009350D03*
D21*
X013804Y008661D03*
X013548Y008661D03*
X013292Y008661D03*
X013036Y008661D03*
X012781Y008661D03*
X012525Y008661D03*
X012269Y008661D03*
X012013Y008661D03*
X011757Y008661D03*
X011501Y008661D03*
X011245Y008661D03*
X010989Y008661D03*
X010733Y008661D03*
X010477Y008661D03*
X010477Y011539D03*
X010733Y011539D03*
X010989Y011539D03*
X011245Y011539D03*
X011501Y011539D03*
X011757Y011539D03*
X012013Y011539D03*
X012269Y011539D03*
X012525Y011539D03*
X012781Y011539D03*
X013036Y011539D03*
X013292Y011539D03*
X013548Y011539D03*
X013804Y011539D03*
D22*
X007436Y010600D03*
X007436Y010100D03*
X006845Y010100D03*
X006845Y010600D03*
D23*
X025021Y032520D03*
X025021Y032710D03*
X025021Y032910D03*
X025021Y033110D03*
X025021Y033300D03*
X025021Y033500D03*
X025021Y033700D03*
X025021Y033900D03*
X025021Y034090D03*
X025021Y034290D03*
X025021Y034490D03*
X025021Y034680D03*
X028261Y034680D03*
X028261Y034490D03*
X028261Y034290D03*
X028261Y034090D03*
X028261Y033900D03*
X028261Y033700D03*
X028261Y033500D03*
X028261Y033300D03*
X028261Y033110D03*
X028261Y032910D03*
X028261Y032710D03*
X028261Y032520D03*
D24*
X027721Y031980D03*
X027531Y031980D03*
X027331Y031980D03*
X027131Y031980D03*
X026941Y031980D03*
X026741Y031980D03*
X026541Y031980D03*
X026341Y031980D03*
X026151Y031980D03*
X025951Y031980D03*
X025751Y031980D03*
X025561Y031980D03*
X025561Y035220D03*
X025751Y035220D03*
X025951Y035220D03*
X026151Y035220D03*
X026341Y035220D03*
X026541Y035220D03*
X026741Y035220D03*
X026941Y035220D03*
X027131Y035220D03*
X027331Y035220D03*
X027531Y035220D03*
X027721Y035220D03*
D25*
X024641Y031935D03*
X024641Y031265D03*
X028641Y027435D03*
X028641Y026765D03*
X035141Y021435D03*
X035141Y020765D03*
X038641Y021015D03*
X038641Y021685D03*
X043141Y014935D03*
X043141Y014265D03*
X043141Y013685D03*
X043141Y013015D03*
X035391Y010435D03*
X035391Y009765D03*
X040141Y006185D03*
X040141Y005515D03*
X029141Y007015D03*
X029141Y007685D03*
X027391Y014765D03*
X027391Y015435D03*
X016641Y018765D03*
X016641Y019435D03*
D26*
X031046Y022364D03*
X031361Y022364D03*
X031676Y022364D03*
X031991Y022364D03*
X032306Y022364D03*
X032621Y022364D03*
X032936Y022364D03*
X033251Y022364D03*
X033566Y022364D03*
X033881Y022364D03*
X034196Y022364D03*
X034511Y022364D03*
X034826Y022364D03*
X035141Y022364D03*
X035456Y022364D03*
X035771Y022364D03*
X036086Y022364D03*
X036401Y022364D03*
X036716Y022364D03*
X037031Y022364D03*
X037345Y022364D03*
X037660Y022364D03*
X037975Y022364D03*
X038290Y022364D03*
X038605Y022364D03*
X038920Y022364D03*
X039235Y022364D03*
X039235Y026836D03*
X038920Y026836D03*
X038605Y026836D03*
X038290Y026836D03*
X037975Y026836D03*
X037660Y026836D03*
X037345Y026836D03*
X037031Y026836D03*
X036716Y026836D03*
X036401Y026836D03*
X036086Y026836D03*
X035771Y026836D03*
X035456Y026836D03*
X035141Y026836D03*
X034826Y026836D03*
X034511Y026836D03*
X034196Y026836D03*
X033881Y026836D03*
X033566Y026836D03*
X033251Y026836D03*
X032936Y026836D03*
X032621Y026836D03*
X032306Y026836D03*
X031991Y026836D03*
X031676Y026836D03*
X031361Y026836D03*
X031046Y026836D03*
D27*
X014534Y022478D03*
X014534Y021809D03*
X014534Y020856D03*
X014534Y019872D03*
X014534Y018887D03*
X014534Y018198D03*
X014534Y017608D03*
X014534Y016919D03*
X014534Y015935D03*
X014534Y014950D03*
D28*
X006267Y012793D03*
X005814Y024407D03*
D29*
X014534Y023718D03*
D30*
X024141Y016856D03*
X024141Y016344D03*
X025141Y016344D03*
X025141Y016856D03*
X015641Y015606D03*
X015641Y015094D03*
X017891Y008356D03*
X017891Y007844D03*
X018141Y037844D03*
X018141Y038356D03*
X019141Y038356D03*
X019141Y037844D03*
X020141Y037844D03*
X020141Y038356D03*
X021141Y038356D03*
X021141Y037844D03*
X022141Y037844D03*
X022141Y038356D03*
X023141Y038356D03*
X023141Y037844D03*
X024141Y037844D03*
X024141Y038356D03*
X025141Y038356D03*
X025141Y037844D03*
X026141Y037844D03*
X027141Y037844D03*
X027141Y038356D03*
X026141Y038356D03*
X028141Y038356D03*
X028141Y037844D03*
X029141Y037844D03*
X029141Y038356D03*
X030141Y038356D03*
X030141Y037844D03*
X031141Y037844D03*
X031141Y038356D03*
X032141Y038356D03*
X032141Y037844D03*
X033141Y037844D03*
X033141Y038356D03*
X034141Y038356D03*
X034141Y037844D03*
X017141Y037844D03*
X017141Y038356D03*
X016141Y038356D03*
X016141Y037844D03*
X015141Y037844D03*
X015141Y038356D03*
X014141Y038356D03*
X014141Y037844D03*
X013141Y037844D03*
X013141Y038356D03*
X012141Y038356D03*
X012141Y037844D03*
X011141Y037844D03*
X011141Y038356D03*
D31*
X021231Y017320D03*
X022141Y017320D03*
X023051Y017320D03*
D32*
X022141Y014880D03*
D33*
X037964Y015198D03*
X037964Y015454D03*
X037964Y015710D03*
X037964Y015966D03*
X037964Y016222D03*
X037964Y016478D03*
X037964Y016734D03*
X037964Y016990D03*
X037964Y017246D03*
X037964Y017502D03*
X040818Y017502D03*
X040818Y017246D03*
X040818Y016990D03*
X040818Y016734D03*
X040818Y016478D03*
X040818Y016222D03*
X040818Y015966D03*
X040818Y015710D03*
X040818Y015454D03*
X040818Y015198D03*
X040818Y013252D03*
X040818Y012996D03*
X040818Y012740D03*
X040818Y012484D03*
X040818Y012228D03*
X040818Y011972D03*
X040818Y011716D03*
X040818Y011460D03*
X040818Y011204D03*
X040818Y010948D03*
X037964Y010948D03*
X037964Y011204D03*
X037964Y011460D03*
X037964Y011716D03*
X037964Y011972D03*
X037964Y012228D03*
X037964Y012484D03*
X037964Y012740D03*
X037964Y012996D03*
X037964Y013252D03*
M02*
