%
M48
M72
T01C0.0236
T02C0.0240
T03C0.0320
T04C0.0354
T05C0.0360
T06C0.0394
T07C0.0400
T08C0.0610
T09C0.2165
%
T01
X8141Y8600
X9141Y8600
X10391Y9850
X9141Y10600
X8141Y10100
X11641Y7350
X12641Y8100
X14891Y8600
X13891Y10350
X12891Y10350
X12391Y10350
X15641Y12850
X14891Y13600
X14641Y14100
X15891Y14100
X18141Y14100
X18391Y13100
X18391Y12600
X17391Y12100
X16391Y11850
X19891Y10600
X19891Y10100
X19891Y9600
X19891Y9100
X19891Y8600
X19641Y7600
X20891Y7350
X21391Y7350
X21391Y8350
X22641Y8350
X23141Y7850
X24391Y7850
X25641Y8600
X26391Y7850
X25641Y9100
X24641Y10600
X24141Y11350
X23641Y12100
X23141Y13100
X21891Y11850
X21141Y11850
X21391Y13850
X22641Y15850
X23641Y16350
X23891Y15600
X24141Y14850
X23641Y14850
X26641Y14850
X26641Y15350
X26641Y15850
X26641Y16350
X26891Y16850
X27391Y16600
X28391Y16600
X27891Y15600
X28391Y14850
X28141Y14100
X27641Y14100
X27641Y13600
X26641Y13850
X26641Y14350
X26891Y12350
X27891Y12350
X29141Y11850
X29641Y13100
X30141Y13100
X30641Y12850
X30141Y14100
X29641Y14100
X30891Y14350
X32391Y14350
X32891Y14350
X33391Y14350
X33891Y14350
X34641Y13600
X33641Y13100
X33141Y13100
X32641Y13100
X32141Y12850
X31891Y11350
X32641Y10850
X33141Y11100
X33141Y9350
X32641Y8600
X31891Y8850
X30391Y8350
X28391Y8100
X32141Y6100
X32641Y6100
X35891Y8100
X36891Y8850
X37391Y9350
X37891Y9850
X39641Y9350
X40641Y10350
X41641Y9850
X41141Y9100
X40641Y8100
X42891Y10350
X41391Y11850
X41391Y12600
X40141Y12600
X39141Y12600
X39891Y13600
X38641Y14600
X37141Y13850
X37141Y12100
X35641Y12350
X33891Y14850
X33891Y15350
X33891Y15850
X34141Y16350
X34641Y16850
X34141Y17600
X33391Y17350
X32891Y17350
X32391Y17350
X32141Y16850
X31391Y16100
X30391Y16600
X29891Y16850
X29891Y17350
X30641Y17600
X31391Y19100
X31641Y19600
X32391Y20100
X32641Y19350
X34141Y19600
X34141Y20100
X34141Y20600
X33641Y21350
X35641Y19100
X35141Y18850
X34641Y18850
X33141Y16850
X30141Y19350
X29391Y19100
X28891Y19100
X28391Y18850
X28141Y18350
X28141Y17850
X26641Y17350
X26391Y17850
X26141Y18350
X26141Y18850
X26391Y19350
X25641Y19350
X27141Y20600
X23891Y21350
X23141Y19100
X21141Y18850
X21141Y19600
X21141Y20350
X20641Y20600
X21141Y21100
X20641Y21600
X18641Y20600
X17641Y19600
X17141Y20350
X15891Y21350
X15391Y20850
X15391Y20350
X16391Y22100
X14891Y23100
X12141Y23100
X12641Y19850
X13641Y17350
X15391Y16600
X15891Y16350
X15641Y17100
X16891Y17850
X18391Y17850
X18391Y18600
X18391Y16850
X17141Y16350
X20641Y16850
X30641Y20350
X30641Y22100
X32891Y24850
X33141Y25850
X33891Y26100
X34391Y26100
X34891Y26100
X35391Y26100
X36141Y26100
X35891Y27350
X36391Y28350
X34141Y27850
X31891Y28350
X30891Y27350
X29141Y26100
X28391Y28100
X28641Y29350
X28141Y29350
X27641Y29350
X27141Y29350
X26641Y29350
X29641Y29350
X29641Y29850
X29641Y30350
X29641Y30850
X29641Y31350
X30891Y31850
X34641Y31850
X36641Y30600
X37141Y30600
X34641Y34850
X34641Y37350
X33641Y37350
X32641Y37350
X31641Y37350
X30641Y37350
X29641Y37350
X28641Y37350
X27641Y37350
X26641Y37350
X25641Y37350
X24641Y37350
X23641Y37350
X22641Y37350
X21641Y37600
X20641Y37350
X19641Y37350
X18641Y37350
X17641Y37350
X16641Y37350
X15641Y37350
X14641Y37350
X13641Y37350
X12641Y37350
X11641Y37350
X26641Y33600
X27141Y34100
X37891Y26100
X37891Y24350
X37641Y23100
X37641Y21600
X37141Y20350
X37641Y19850
X38141Y18100
X39141Y16850
X40141Y16850
X41391Y16850
X41891Y16350
X41391Y15100
X41516Y17725
X40891Y20350
X26141Y24850
X24641Y24850
X7641Y13850
X43141Y3600
T02
X33141Y8100
X31141Y8100
T03
X43641Y18350
X44641Y18350
T04
X4141Y9966
X4141Y8234
T05
X12641Y6100
X12641Y5100
X14141Y5100
X14141Y6100
T06
X19271Y11923
X19271Y27277
T07
X19141Y39600
X20141Y39600
X21141Y39600
X22141Y39600
X23141Y39600
X24141Y39600
X25141Y39600
X26141Y39600
X27141Y39600
X28141Y39600
X29141Y39600
X30141Y39600
X31141Y39600
X32141Y39600
X33141Y39600
X34141Y39600
X35141Y39600
X36141Y39600
X37141Y39600
X38141Y39600
X39141Y39600
X40141Y39600
X40141Y36100
X39141Y36100
X38141Y36100
X37141Y36100
X42611Y22240
X42611Y20460
X45171Y20460
X45171Y22240
X38891Y7100
X38891Y6100
X38891Y5100
X37141Y5600
X36141Y5600
X35141Y5600
X35141Y6600
X36141Y6600
X37141Y6600
X19141Y6600
X18141Y6600
X18141Y39600
X17141Y39600
X16141Y39600
X15141Y39600
X14141Y39600
X13141Y39600
X12141Y39600
X11141Y39600
T08
X4968Y23450
X4968Y13899
T09
X7141Y4100
X7141Y34100
X47141Y4100
M30
