G75*
G70*
%OFA0B0*%
%FSLAX24Y24*%
%IPPOS*%
%LPD*%
%AMOC8*
5,1,8,0,0,1.08239X$1,22.5*
%
%ADD10C,0.0060*%
%ADD11C,0.0000*%
%ADD12C,0.0010*%
%ADD13C,0.0100*%
%ADD14C,0.0050*%
%ADD15C,0.0080*%
%ADD16C,0.0240*%
%ADD17R,0.0280X0.0160*%
D10*
X009173Y029880D02*
X009066Y029987D01*
X009066Y030414D01*
X009173Y030521D01*
X009493Y030521D01*
X009493Y029880D01*
X009173Y029880D01*
X009711Y029987D02*
X009818Y029880D01*
X010031Y029880D01*
X010138Y029987D01*
X010138Y030414D01*
X010031Y030521D01*
X009818Y030521D01*
X009711Y030414D01*
X010356Y029880D02*
X010783Y029880D01*
X010783Y030521D01*
X011645Y030521D02*
X012072Y030521D01*
X011858Y030521D02*
X011858Y029880D01*
X012503Y030200D02*
X012716Y030200D01*
X012716Y029880D02*
X012716Y030521D01*
X012289Y030521D01*
X012934Y030521D02*
X013361Y030521D01*
X013147Y030521D02*
X013147Y029880D01*
X012941Y033630D02*
X013155Y033844D01*
X013048Y033844D02*
X013368Y033844D01*
X013368Y033630D02*
X013368Y034271D01*
X013048Y034271D01*
X012941Y034164D01*
X012941Y033950D01*
X013048Y033844D01*
X012724Y033844D02*
X012297Y033844D01*
X012297Y033950D01*
X012403Y034057D01*
X012617Y034057D01*
X012724Y033950D01*
X012724Y033737D01*
X012617Y033630D01*
X012403Y033630D01*
X012079Y034057D02*
X011866Y033630D01*
X011652Y034057D01*
X010790Y034057D02*
X010790Y033630D01*
X010790Y033950D02*
X010363Y033950D01*
X010363Y034057D02*
X010363Y033630D01*
X010363Y034057D02*
X010577Y034271D01*
X010790Y034057D01*
X014229Y033630D02*
X014443Y033630D01*
X014336Y033630D02*
X014336Y034271D01*
X014443Y034271D01*
X014659Y034057D02*
X014766Y034057D01*
X014980Y033844D01*
X014980Y034057D02*
X014980Y033630D01*
X015196Y033630D02*
X015303Y033737D01*
X015303Y034164D01*
X015409Y034057D02*
X015196Y034057D01*
X015627Y034164D02*
X015734Y034271D01*
X015947Y034271D01*
X016054Y034164D01*
X016054Y033737D01*
X015947Y033630D01*
X015734Y033630D01*
X015627Y033737D01*
X016916Y033737D02*
X017023Y033630D01*
X017236Y033630D01*
X017343Y033737D01*
X016916Y034164D01*
X016916Y033737D01*
X016916Y034164D02*
X017023Y034271D01*
X017236Y034271D01*
X017343Y034164D01*
X017343Y033737D01*
X017558Y033737D02*
X017558Y033630D01*
X017665Y033630D01*
X017665Y033737D01*
X017558Y033737D01*
X017883Y033630D02*
X018310Y033630D01*
X018096Y033630D02*
X018096Y034271D01*
X018310Y034057D01*
X018527Y034057D02*
X018741Y033630D01*
X018954Y034057D01*
X019816Y034164D02*
X019923Y034271D01*
X020137Y034271D01*
X020243Y034164D01*
X020243Y033737D01*
X020137Y033630D01*
X019923Y033630D01*
X019816Y033737D01*
X020461Y034271D02*
X020888Y034271D01*
X020888Y033630D01*
X021106Y033630D02*
X021533Y033630D01*
X021533Y034271D01*
X022395Y034164D02*
X022395Y033950D01*
X022501Y033844D01*
X022822Y033844D01*
X022822Y033630D02*
X022822Y034271D01*
X022501Y034271D01*
X022395Y034164D01*
X023039Y034164D02*
X023146Y034271D01*
X023359Y034271D01*
X023466Y034164D01*
X023466Y034057D01*
X023359Y033950D01*
X023146Y033950D01*
X023039Y033844D01*
X023039Y033737D01*
X023146Y033630D01*
X023359Y033630D01*
X023466Y033737D01*
X023684Y033630D02*
X023684Y034057D01*
X023897Y034271D01*
X024111Y034057D01*
X024111Y033630D01*
X024111Y033950D02*
X023684Y033950D01*
X020888Y033950D02*
X020674Y033950D01*
X042356Y024521D02*
X042783Y024521D01*
X042569Y024521D02*
X042569Y023880D01*
X043000Y023880D02*
X043427Y023880D01*
X043427Y024521D01*
X043000Y024521D01*
X043214Y024200D02*
X043427Y024200D01*
X043645Y024094D02*
X043645Y023987D01*
X043751Y023880D01*
X043965Y023880D01*
X044072Y023987D01*
X043965Y024200D02*
X044072Y024307D01*
X044072Y024414D01*
X043965Y024521D01*
X043751Y024521D01*
X043645Y024414D01*
X043751Y024200D02*
X043645Y024094D01*
X043751Y024200D02*
X043965Y024200D01*
X044289Y023880D02*
X044716Y023880D01*
X044716Y024521D01*
X044289Y024521D01*
X044503Y024200D02*
X044716Y024200D01*
X044934Y024200D02*
X045040Y024094D01*
X045361Y024094D01*
X045147Y024094D02*
X044934Y023880D01*
X044934Y024200D02*
X044934Y024414D01*
X045040Y024521D01*
X045361Y024521D01*
X045361Y023880D01*
D11*
X051141Y000100D02*
X002141Y000100D01*
X002141Y041100D01*
X051141Y041100D01*
X051141Y000100D01*
X019074Y011923D02*
X019076Y011950D01*
X019082Y011977D01*
X019091Y012003D01*
X019104Y012027D01*
X019120Y012050D01*
X019139Y012069D01*
X019161Y012086D01*
X019185Y012100D01*
X019210Y012110D01*
X019237Y012117D01*
X019264Y012120D01*
X019292Y012119D01*
X019319Y012114D01*
X019345Y012106D01*
X019369Y012094D01*
X019392Y012078D01*
X019413Y012060D01*
X019430Y012039D01*
X019445Y012015D01*
X019456Y011990D01*
X019464Y011964D01*
X019468Y011937D01*
X019468Y011909D01*
X019464Y011882D01*
X019456Y011856D01*
X019445Y011831D01*
X019430Y011807D01*
X019413Y011786D01*
X019392Y011768D01*
X019370Y011752D01*
X019345Y011740D01*
X019319Y011732D01*
X019292Y011727D01*
X019264Y011726D01*
X019237Y011729D01*
X019210Y011736D01*
X019185Y011746D01*
X019161Y011760D01*
X019139Y011777D01*
X019120Y011796D01*
X019104Y011819D01*
X019091Y011843D01*
X019082Y011869D01*
X019076Y011896D01*
X019074Y011923D01*
X004663Y013899D02*
X004665Y013934D01*
X004671Y013968D01*
X004681Y014001D01*
X004694Y014034D01*
X004711Y014064D01*
X004732Y014092D01*
X004755Y014118D01*
X004782Y014141D01*
X004810Y014160D01*
X004841Y014176D01*
X004874Y014189D01*
X004907Y014198D01*
X004942Y014203D01*
X004977Y014204D01*
X005011Y014201D01*
X005046Y014194D01*
X005079Y014183D01*
X005110Y014169D01*
X005140Y014151D01*
X005168Y014130D01*
X005193Y014105D01*
X005215Y014078D01*
X005234Y014049D01*
X005249Y014018D01*
X005261Y013985D01*
X005269Y013951D01*
X005273Y013916D01*
X005273Y013882D01*
X005269Y013847D01*
X005261Y013813D01*
X005249Y013780D01*
X005234Y013749D01*
X005215Y013720D01*
X005193Y013693D01*
X005168Y013668D01*
X005140Y013647D01*
X005110Y013629D01*
X005079Y013615D01*
X005046Y013604D01*
X005011Y013597D01*
X004977Y013594D01*
X004942Y013595D01*
X004907Y013600D01*
X004874Y013609D01*
X004841Y013622D01*
X004810Y013638D01*
X004782Y013657D01*
X004755Y013680D01*
X004732Y013706D01*
X004711Y013734D01*
X004694Y013764D01*
X004681Y013797D01*
X004671Y013830D01*
X004665Y013864D01*
X004663Y013899D01*
X003964Y009966D02*
X003966Y009992D01*
X003972Y010018D01*
X003982Y010043D01*
X003995Y010066D01*
X004011Y010086D01*
X004031Y010104D01*
X004053Y010119D01*
X004076Y010131D01*
X004102Y010139D01*
X004128Y010143D01*
X004154Y010143D01*
X004180Y010139D01*
X004206Y010131D01*
X004230Y010119D01*
X004251Y010104D01*
X004271Y010086D01*
X004287Y010066D01*
X004300Y010043D01*
X004310Y010018D01*
X004316Y009992D01*
X004318Y009966D01*
X004316Y009940D01*
X004310Y009914D01*
X004300Y009889D01*
X004287Y009866D01*
X004271Y009846D01*
X004251Y009828D01*
X004229Y009813D01*
X004206Y009801D01*
X004180Y009793D01*
X004154Y009789D01*
X004128Y009789D01*
X004102Y009793D01*
X004076Y009801D01*
X004052Y009813D01*
X004031Y009828D01*
X004011Y009846D01*
X003995Y009866D01*
X003982Y009889D01*
X003972Y009914D01*
X003966Y009940D01*
X003964Y009966D01*
X003964Y008234D02*
X003966Y008260D01*
X003972Y008286D01*
X003982Y008311D01*
X003995Y008334D01*
X004011Y008354D01*
X004031Y008372D01*
X004053Y008387D01*
X004076Y008399D01*
X004102Y008407D01*
X004128Y008411D01*
X004154Y008411D01*
X004180Y008407D01*
X004206Y008399D01*
X004230Y008387D01*
X004251Y008372D01*
X004271Y008354D01*
X004287Y008334D01*
X004300Y008311D01*
X004310Y008286D01*
X004316Y008260D01*
X004318Y008234D01*
X004316Y008208D01*
X004310Y008182D01*
X004300Y008157D01*
X004287Y008134D01*
X004271Y008114D01*
X004251Y008096D01*
X004229Y008081D01*
X004206Y008069D01*
X004180Y008061D01*
X004154Y008057D01*
X004128Y008057D01*
X004102Y008061D01*
X004076Y008069D01*
X004052Y008081D01*
X004031Y008096D01*
X004011Y008114D01*
X003995Y008134D01*
X003982Y008157D01*
X003972Y008182D01*
X003966Y008208D01*
X003964Y008234D01*
X004663Y023450D02*
X004665Y023485D01*
X004671Y023519D01*
X004681Y023552D01*
X004694Y023585D01*
X004711Y023615D01*
X004732Y023643D01*
X004755Y023669D01*
X004782Y023692D01*
X004810Y023711D01*
X004841Y023727D01*
X004874Y023740D01*
X004907Y023749D01*
X004942Y023754D01*
X004977Y023755D01*
X005011Y023752D01*
X005046Y023745D01*
X005079Y023734D01*
X005110Y023720D01*
X005140Y023702D01*
X005168Y023681D01*
X005193Y023656D01*
X005215Y023629D01*
X005234Y023600D01*
X005249Y023569D01*
X005261Y023536D01*
X005269Y023502D01*
X005273Y023467D01*
X005273Y023433D01*
X005269Y023398D01*
X005261Y023364D01*
X005249Y023331D01*
X005234Y023300D01*
X005215Y023271D01*
X005193Y023244D01*
X005168Y023219D01*
X005140Y023198D01*
X005110Y023180D01*
X005079Y023166D01*
X005046Y023155D01*
X005011Y023148D01*
X004977Y023145D01*
X004942Y023146D01*
X004907Y023151D01*
X004874Y023160D01*
X004841Y023173D01*
X004810Y023189D01*
X004782Y023208D01*
X004755Y023231D01*
X004732Y023257D01*
X004711Y023285D01*
X004694Y023315D01*
X004681Y023348D01*
X004671Y023381D01*
X004665Y023415D01*
X004663Y023450D01*
X019074Y027277D02*
X019076Y027304D01*
X019082Y027331D01*
X019091Y027357D01*
X019104Y027381D01*
X019120Y027404D01*
X019139Y027423D01*
X019161Y027440D01*
X019185Y027454D01*
X019210Y027464D01*
X019237Y027471D01*
X019264Y027474D01*
X019292Y027473D01*
X019319Y027468D01*
X019345Y027460D01*
X019369Y027448D01*
X019392Y027432D01*
X019413Y027414D01*
X019430Y027393D01*
X019445Y027369D01*
X019456Y027344D01*
X019464Y027318D01*
X019468Y027291D01*
X019468Y027263D01*
X019464Y027236D01*
X019456Y027210D01*
X019445Y027185D01*
X019430Y027161D01*
X019413Y027140D01*
X019392Y027122D01*
X019370Y027106D01*
X019345Y027094D01*
X019319Y027086D01*
X019292Y027081D01*
X019264Y027080D01*
X019237Y027083D01*
X019210Y027090D01*
X019185Y027100D01*
X019161Y027114D01*
X019139Y027131D01*
X019120Y027150D01*
X019104Y027173D01*
X019091Y027197D01*
X019082Y027223D01*
X019076Y027250D01*
X019074Y027277D01*
D12*
X019196Y035930D02*
X019196Y036030D01*
X019196Y035980D02*
X019346Y035980D01*
X019296Y035930D01*
X019321Y036077D02*
X019346Y036102D01*
X019346Y036152D01*
X019321Y036177D01*
X019221Y036077D01*
X019196Y036102D01*
X019196Y036152D01*
X019221Y036177D01*
X019321Y036177D01*
X019321Y036225D02*
X019346Y036250D01*
X019346Y036300D01*
X019321Y036325D01*
X019221Y036225D01*
X019196Y036250D01*
X019196Y036300D01*
X019221Y036325D01*
X019321Y036325D01*
X019321Y036225D02*
X019221Y036225D01*
X019221Y036077D02*
X019321Y036077D01*
X019071Y036080D02*
X019046Y036105D01*
X018996Y036105D01*
X018971Y036080D01*
X018971Y036005D01*
X018971Y036055D02*
X018921Y036105D01*
X018946Y036152D02*
X018921Y036177D01*
X018921Y036227D01*
X018946Y036252D01*
X018996Y036252D01*
X019021Y036227D01*
X019021Y036202D01*
X018996Y036152D01*
X019071Y036152D01*
X019071Y036252D01*
X019046Y036300D02*
X019071Y036325D01*
X019071Y036375D01*
X019046Y036400D01*
X019021Y036400D01*
X018921Y036300D01*
X018921Y036400D01*
X019071Y036080D02*
X019071Y036005D01*
X018921Y036005D01*
X018346Y035980D02*
X018196Y035980D01*
X018196Y035930D02*
X018196Y036030D01*
X018221Y036077D02*
X018321Y036177D01*
X018221Y036177D01*
X018196Y036152D01*
X018196Y036102D01*
X018221Y036077D01*
X018321Y036077D01*
X018346Y036102D01*
X018346Y036152D01*
X018321Y036177D01*
X018321Y036225D02*
X018346Y036250D01*
X018346Y036300D01*
X018321Y036325D01*
X018221Y036225D01*
X018196Y036250D01*
X018196Y036300D01*
X018221Y036325D01*
X018321Y036325D01*
X018321Y036225D02*
X018221Y036225D01*
X018071Y036252D02*
X018071Y036152D01*
X017996Y036152D01*
X018021Y036202D01*
X018021Y036227D01*
X017996Y036252D01*
X017946Y036252D01*
X017921Y036227D01*
X017921Y036177D01*
X017946Y036152D01*
X017921Y036105D02*
X017971Y036055D01*
X017971Y036080D02*
X017971Y036005D01*
X017921Y036005D02*
X018071Y036005D01*
X018071Y036080D01*
X018046Y036105D01*
X017996Y036105D01*
X017971Y036080D01*
X018021Y036300D02*
X018071Y036350D01*
X017921Y036350D01*
X017921Y036300D02*
X017921Y036400D01*
X017346Y036300D02*
X017346Y036250D01*
X017321Y036225D01*
X017221Y036225D01*
X017321Y036325D01*
X017221Y036325D01*
X017196Y036300D01*
X017196Y036250D01*
X017221Y036225D01*
X017221Y036177D02*
X017196Y036152D01*
X017196Y036102D01*
X017221Y036077D01*
X017321Y036177D01*
X017221Y036177D01*
X017221Y036077D02*
X017321Y036077D01*
X017346Y036102D01*
X017346Y036152D01*
X017321Y036177D01*
X017346Y036300D02*
X017321Y036325D01*
X017071Y036325D02*
X017071Y036375D01*
X017046Y036400D01*
X016946Y036300D01*
X016921Y036325D01*
X016921Y036375D01*
X016946Y036400D01*
X017046Y036400D01*
X017071Y036325D02*
X017046Y036300D01*
X016946Y036300D01*
X016946Y036252D02*
X016921Y036227D01*
X016921Y036177D01*
X016946Y036152D01*
X016996Y036152D02*
X017021Y036202D01*
X017021Y036227D01*
X016996Y036252D01*
X016946Y036252D01*
X016996Y036152D02*
X017071Y036152D01*
X017071Y036252D01*
X017046Y036105D02*
X016996Y036105D01*
X016971Y036080D01*
X016971Y036005D01*
X016971Y036055D02*
X016921Y036105D01*
X016921Y036005D02*
X017071Y036005D01*
X017071Y036080D01*
X017046Y036105D01*
X017196Y036030D02*
X017196Y035930D01*
X017196Y035980D02*
X017346Y035980D01*
X017296Y035930D01*
X016346Y035980D02*
X016196Y035980D01*
X016196Y035930D02*
X016196Y036030D01*
X016221Y036077D02*
X016321Y036177D01*
X016221Y036177D01*
X016196Y036152D01*
X016196Y036102D01*
X016221Y036077D01*
X016321Y036077D01*
X016346Y036102D01*
X016346Y036152D01*
X016321Y036177D01*
X016321Y036225D02*
X016346Y036250D01*
X016346Y036300D01*
X016321Y036325D01*
X016221Y036225D01*
X016196Y036250D01*
X016196Y036300D01*
X016221Y036325D01*
X016321Y036325D01*
X016321Y036225D02*
X016221Y036225D01*
X016071Y036227D02*
X015996Y036152D01*
X015996Y036252D01*
X016021Y036300D02*
X015996Y036325D01*
X015996Y036400D01*
X016046Y036400D02*
X016071Y036375D01*
X016071Y036325D01*
X016046Y036300D01*
X016021Y036300D01*
X015946Y036300D02*
X015921Y036325D01*
X015921Y036375D01*
X015946Y036400D01*
X016046Y036400D01*
X016071Y036227D02*
X015921Y036227D01*
X015921Y036105D02*
X015971Y036055D01*
X015971Y036080D02*
X015971Y036005D01*
X015921Y036005D02*
X016071Y036005D01*
X016071Y036080D01*
X016046Y036105D01*
X015996Y036105D01*
X015971Y036080D01*
X016296Y035930D02*
X016346Y035980D01*
X015346Y035980D02*
X015196Y035980D01*
X015196Y035930D02*
X015196Y036030D01*
X015221Y036077D02*
X015321Y036177D01*
X015221Y036177D01*
X015196Y036152D01*
X015196Y036102D01*
X015221Y036077D01*
X015321Y036077D01*
X015346Y036102D01*
X015346Y036152D01*
X015321Y036177D01*
X015321Y036225D02*
X015346Y036250D01*
X015346Y036300D01*
X015321Y036325D01*
X015221Y036225D01*
X015196Y036250D01*
X015196Y036300D01*
X015221Y036325D01*
X015321Y036325D01*
X015321Y036225D02*
X015221Y036225D01*
X015071Y036227D02*
X014996Y036152D01*
X014996Y036252D01*
X015021Y036300D02*
X015046Y036300D01*
X015071Y036325D01*
X015071Y036375D01*
X015046Y036400D01*
X015021Y036400D01*
X014996Y036375D01*
X014996Y036325D01*
X015021Y036300D01*
X014996Y036325D02*
X014971Y036300D01*
X014946Y036300D01*
X014921Y036325D01*
X014921Y036375D01*
X014946Y036400D01*
X014971Y036400D01*
X014996Y036375D01*
X014921Y036227D02*
X015071Y036227D01*
X015046Y036105D02*
X014996Y036105D01*
X014971Y036080D01*
X014971Y036005D01*
X014971Y036055D02*
X014921Y036105D01*
X014921Y036005D02*
X015071Y036005D01*
X015071Y036080D01*
X015046Y036105D01*
X015296Y035930D02*
X015346Y035980D01*
X014346Y035980D02*
X014196Y035980D01*
X014196Y035930D02*
X014196Y036030D01*
X014221Y036077D02*
X014321Y036177D01*
X014221Y036177D01*
X014196Y036152D01*
X014196Y036102D01*
X014221Y036077D01*
X014321Y036077D01*
X014346Y036102D01*
X014346Y036152D01*
X014321Y036177D01*
X014321Y036225D02*
X014346Y036250D01*
X014346Y036300D01*
X014321Y036325D01*
X014221Y036225D01*
X014196Y036250D01*
X014196Y036300D01*
X014221Y036325D01*
X014321Y036325D01*
X014321Y036225D02*
X014221Y036225D01*
X014071Y036227D02*
X013996Y036152D01*
X013996Y036252D01*
X013946Y036300D02*
X013921Y036300D01*
X013946Y036300D02*
X014046Y036400D01*
X014071Y036400D01*
X014071Y036300D01*
X014071Y036227D02*
X013921Y036227D01*
X013921Y036105D02*
X013971Y036055D01*
X013971Y036080D02*
X013971Y036005D01*
X013921Y036005D02*
X014071Y036005D01*
X014071Y036080D01*
X014046Y036105D01*
X013996Y036105D01*
X013971Y036080D01*
X014296Y035930D02*
X014346Y035980D01*
X013346Y035980D02*
X013196Y035980D01*
X013196Y035930D02*
X013196Y036030D01*
X013221Y036077D02*
X013321Y036177D01*
X013221Y036177D01*
X013196Y036152D01*
X013196Y036102D01*
X013221Y036077D01*
X013321Y036077D01*
X013346Y036102D01*
X013346Y036152D01*
X013321Y036177D01*
X013321Y036225D02*
X013346Y036250D01*
X013346Y036300D01*
X013321Y036325D01*
X013221Y036225D01*
X013196Y036250D01*
X013196Y036300D01*
X013221Y036325D01*
X013321Y036325D01*
X013321Y036225D02*
X013221Y036225D01*
X013071Y036227D02*
X012996Y036152D01*
X012996Y036252D01*
X012996Y036300D02*
X012996Y036375D01*
X012971Y036400D01*
X012946Y036400D01*
X012921Y036375D01*
X012921Y036325D01*
X012946Y036300D01*
X012996Y036300D01*
X013046Y036350D01*
X013071Y036400D01*
X013071Y036227D02*
X012921Y036227D01*
X012921Y036105D02*
X012971Y036055D01*
X012971Y036080D02*
X012971Y036005D01*
X012921Y036005D02*
X013071Y036005D01*
X013071Y036080D01*
X013046Y036105D01*
X012996Y036105D01*
X012971Y036080D01*
X013296Y035930D02*
X013346Y035980D01*
X012346Y035980D02*
X012196Y035980D01*
X012196Y035930D02*
X012196Y036030D01*
X012221Y036077D02*
X012321Y036177D01*
X012221Y036177D01*
X012196Y036152D01*
X012196Y036102D01*
X012221Y036077D01*
X012321Y036077D01*
X012346Y036102D01*
X012346Y036152D01*
X012321Y036177D01*
X012321Y036225D02*
X012346Y036250D01*
X012346Y036300D01*
X012321Y036325D01*
X012221Y036225D01*
X012196Y036250D01*
X012196Y036300D01*
X012221Y036325D01*
X012321Y036325D01*
X012321Y036225D02*
X012221Y036225D01*
X012071Y036227D02*
X011996Y036152D01*
X011996Y036252D01*
X011996Y036300D02*
X012021Y036350D01*
X012021Y036375D01*
X011996Y036400D01*
X011946Y036400D01*
X011921Y036375D01*
X011921Y036325D01*
X011946Y036300D01*
X011996Y036300D02*
X012071Y036300D01*
X012071Y036400D01*
X012071Y036227D02*
X011921Y036227D01*
X011921Y036105D02*
X011971Y036055D01*
X011971Y036080D02*
X011971Y036005D01*
X011921Y036005D02*
X012071Y036005D01*
X012071Y036080D01*
X012046Y036105D01*
X011996Y036105D01*
X011971Y036080D01*
X012296Y035930D02*
X012346Y035980D01*
X011346Y035980D02*
X011196Y035980D01*
X011196Y035930D02*
X011196Y036030D01*
X011221Y036077D02*
X011321Y036177D01*
X011221Y036177D01*
X011196Y036152D01*
X011196Y036102D01*
X011221Y036077D01*
X011321Y036077D01*
X011346Y036102D01*
X011346Y036152D01*
X011321Y036177D01*
X011321Y036225D02*
X011346Y036250D01*
X011346Y036300D01*
X011321Y036325D01*
X011221Y036225D01*
X011196Y036250D01*
X011196Y036300D01*
X011221Y036325D01*
X011321Y036325D01*
X011321Y036225D02*
X011221Y036225D01*
X011346Y035980D02*
X011296Y035930D01*
X018296Y035930D02*
X018346Y035980D01*
X019921Y036005D02*
X020071Y036005D01*
X020071Y036080D01*
X020046Y036105D01*
X019996Y036105D01*
X019971Y036080D01*
X019971Y036005D01*
X019971Y036055D02*
X019921Y036105D01*
X019946Y036152D02*
X019921Y036177D01*
X019921Y036227D01*
X019946Y036252D01*
X019996Y036252D01*
X020021Y036227D01*
X020021Y036202D01*
X019996Y036152D01*
X020071Y036152D01*
X020071Y036252D01*
X020046Y036300D02*
X020071Y036325D01*
X020071Y036375D01*
X020046Y036400D01*
X020021Y036400D01*
X019996Y036375D01*
X019971Y036400D01*
X019946Y036400D01*
X019921Y036375D01*
X019921Y036325D01*
X019946Y036300D01*
X019996Y036350D02*
X019996Y036375D01*
X020196Y036300D02*
X020196Y036250D01*
X020221Y036225D01*
X020321Y036325D01*
X020221Y036325D01*
X020196Y036300D01*
X020221Y036225D02*
X020321Y036225D01*
X020346Y036250D01*
X020346Y036300D01*
X020321Y036325D01*
X020321Y036177D02*
X020221Y036077D01*
X020196Y036102D01*
X020196Y036152D01*
X020221Y036177D01*
X020321Y036177D01*
X020346Y036152D01*
X020346Y036102D01*
X020321Y036077D01*
X020221Y036077D01*
X020196Y036030D02*
X020196Y035930D01*
X020196Y035980D02*
X020346Y035980D01*
X020296Y035930D01*
X020921Y036005D02*
X021071Y036005D01*
X021071Y036080D01*
X021046Y036105D01*
X020996Y036105D01*
X020971Y036080D01*
X020971Y036005D01*
X020971Y036055D02*
X020921Y036105D01*
X020946Y036152D02*
X020921Y036177D01*
X020921Y036227D01*
X020946Y036252D01*
X020996Y036252D01*
X021021Y036227D01*
X021021Y036202D01*
X020996Y036152D01*
X021071Y036152D01*
X021071Y036252D01*
X020996Y036300D02*
X020996Y036400D01*
X021071Y036375D02*
X020996Y036300D01*
X020921Y036375D02*
X021071Y036375D01*
X021196Y036300D02*
X021196Y036250D01*
X021221Y036225D01*
X021321Y036325D01*
X021221Y036325D01*
X021196Y036300D01*
X021221Y036225D02*
X021321Y036225D01*
X021346Y036250D01*
X021346Y036300D01*
X021321Y036325D01*
X021321Y036177D02*
X021221Y036077D01*
X021196Y036102D01*
X021196Y036152D01*
X021221Y036177D01*
X021321Y036177D01*
X021346Y036152D01*
X021346Y036102D01*
X021321Y036077D01*
X021221Y036077D01*
X021196Y036030D02*
X021196Y035930D01*
X021196Y035980D02*
X021346Y035980D01*
X021296Y035930D01*
X021921Y036005D02*
X022071Y036005D01*
X022071Y036080D01*
X022046Y036105D01*
X021996Y036105D01*
X021971Y036080D01*
X021971Y036005D01*
X021971Y036055D02*
X021921Y036105D01*
X021946Y036152D02*
X021921Y036177D01*
X021921Y036227D01*
X021946Y036252D01*
X021996Y036252D01*
X022021Y036227D01*
X022021Y036202D01*
X021996Y036152D01*
X022071Y036152D01*
X022071Y036252D01*
X022071Y036300D02*
X021996Y036300D01*
X022021Y036350D01*
X022021Y036375D01*
X021996Y036400D01*
X021946Y036400D01*
X021921Y036375D01*
X021921Y036325D01*
X021946Y036300D01*
X022071Y036300D02*
X022071Y036400D01*
X022196Y036300D02*
X022196Y036250D01*
X022221Y036225D01*
X022321Y036325D01*
X022221Y036325D01*
X022196Y036300D01*
X022221Y036225D02*
X022321Y036225D01*
X022346Y036250D01*
X022346Y036300D01*
X022321Y036325D01*
X022321Y036177D02*
X022221Y036077D01*
X022196Y036102D01*
X022196Y036152D01*
X022221Y036177D01*
X022321Y036177D01*
X022346Y036152D01*
X022346Y036102D01*
X022321Y036077D01*
X022221Y036077D01*
X022196Y036030D02*
X022196Y035930D01*
X022196Y035980D02*
X022346Y035980D01*
X022296Y035930D01*
X022921Y036005D02*
X023071Y036005D01*
X023071Y036080D01*
X023046Y036105D01*
X022996Y036105D01*
X022971Y036080D01*
X022971Y036005D01*
X022971Y036055D02*
X022921Y036105D01*
X022946Y036152D02*
X022921Y036177D01*
X022921Y036227D01*
X022946Y036252D01*
X022996Y036252D01*
X023021Y036227D01*
X023021Y036202D01*
X022996Y036152D01*
X023071Y036152D01*
X023071Y036252D01*
X022996Y036300D02*
X022996Y036375D01*
X022971Y036400D01*
X022946Y036400D01*
X022921Y036375D01*
X022921Y036325D01*
X022946Y036300D01*
X022996Y036300D01*
X023046Y036350D01*
X023071Y036400D01*
X023196Y036300D02*
X023196Y036250D01*
X023221Y036225D01*
X023321Y036325D01*
X023221Y036325D01*
X023196Y036300D01*
X023221Y036225D02*
X023321Y036225D01*
X023346Y036250D01*
X023346Y036300D01*
X023321Y036325D01*
X023321Y036177D02*
X023221Y036077D01*
X023196Y036102D01*
X023196Y036152D01*
X023221Y036177D01*
X023321Y036177D01*
X023346Y036152D01*
X023346Y036102D01*
X023321Y036077D01*
X023221Y036077D01*
X023196Y036030D02*
X023196Y035930D01*
X023196Y035980D02*
X023346Y035980D01*
X023296Y035930D01*
X023921Y036005D02*
X024071Y036005D01*
X024071Y036080D01*
X024046Y036105D01*
X023996Y036105D01*
X023971Y036080D01*
X023971Y036005D01*
X023971Y036055D02*
X023921Y036105D01*
X023946Y036152D02*
X023921Y036177D01*
X023921Y036227D01*
X023946Y036252D01*
X023996Y036252D01*
X024021Y036227D01*
X024021Y036202D01*
X023996Y036152D01*
X024071Y036152D01*
X024071Y036252D01*
X024071Y036300D02*
X024071Y036400D01*
X024046Y036400D01*
X023946Y036300D01*
X023921Y036300D01*
X024196Y036300D02*
X024196Y036250D01*
X024221Y036225D01*
X024321Y036325D01*
X024221Y036325D01*
X024196Y036300D01*
X024221Y036225D02*
X024321Y036225D01*
X024346Y036250D01*
X024346Y036300D01*
X024321Y036325D01*
X024321Y036177D02*
X024221Y036077D01*
X024196Y036102D01*
X024196Y036152D01*
X024221Y036177D01*
X024321Y036177D01*
X024346Y036152D01*
X024346Y036102D01*
X024321Y036077D01*
X024221Y036077D01*
X024196Y036030D02*
X024196Y035930D01*
X024196Y035980D02*
X024346Y035980D01*
X024296Y035930D01*
X024921Y036005D02*
X025071Y036005D01*
X025071Y036080D01*
X025046Y036105D01*
X024996Y036105D01*
X024971Y036080D01*
X024971Y036005D01*
X024971Y036055D02*
X024921Y036105D01*
X024946Y036152D02*
X024921Y036177D01*
X024921Y036227D01*
X024946Y036252D01*
X024996Y036252D01*
X025021Y036227D01*
X025021Y036202D01*
X024996Y036152D01*
X025071Y036152D01*
X025071Y036252D01*
X025046Y036300D02*
X025021Y036300D01*
X024996Y036325D01*
X024996Y036375D01*
X024971Y036400D01*
X024946Y036400D01*
X024921Y036375D01*
X024921Y036325D01*
X024946Y036300D01*
X024971Y036300D01*
X024996Y036325D01*
X024996Y036375D02*
X025021Y036400D01*
X025046Y036400D01*
X025071Y036375D01*
X025071Y036325D01*
X025046Y036300D01*
X025196Y036300D02*
X025196Y036250D01*
X025221Y036225D01*
X025321Y036325D01*
X025221Y036325D01*
X025196Y036300D01*
X025221Y036225D02*
X025321Y036225D01*
X025346Y036250D01*
X025346Y036300D01*
X025321Y036325D01*
X025321Y036177D02*
X025221Y036077D01*
X025196Y036102D01*
X025196Y036152D01*
X025221Y036177D01*
X025321Y036177D01*
X025346Y036152D01*
X025346Y036102D01*
X025321Y036077D01*
X025221Y036077D01*
X025196Y036030D02*
X025196Y035930D01*
X025196Y035980D02*
X025346Y035980D01*
X025296Y035930D01*
X025921Y036005D02*
X026071Y036005D01*
X026071Y036080D01*
X026046Y036105D01*
X025996Y036105D01*
X025971Y036080D01*
X025971Y036005D01*
X025971Y036055D02*
X025921Y036105D01*
X025946Y036152D02*
X025921Y036177D01*
X025921Y036227D01*
X025946Y036252D01*
X025996Y036252D01*
X026021Y036227D01*
X026021Y036202D01*
X025996Y036152D01*
X026071Y036152D01*
X026071Y036252D01*
X026046Y036300D02*
X026021Y036300D01*
X025996Y036325D01*
X025996Y036400D01*
X026046Y036400D02*
X026071Y036375D01*
X026071Y036325D01*
X026046Y036300D01*
X026046Y036400D02*
X025946Y036400D01*
X025921Y036375D01*
X025921Y036325D01*
X025946Y036300D01*
X026196Y036300D02*
X026196Y036250D01*
X026221Y036225D01*
X026321Y036325D01*
X026221Y036325D01*
X026196Y036300D01*
X026221Y036225D02*
X026321Y036225D01*
X026346Y036250D01*
X026346Y036300D01*
X026321Y036325D01*
X026321Y036177D02*
X026221Y036077D01*
X026196Y036102D01*
X026196Y036152D01*
X026221Y036177D01*
X026321Y036177D01*
X026346Y036152D01*
X026346Y036102D01*
X026321Y036077D01*
X026221Y036077D01*
X026196Y036030D02*
X026196Y035930D01*
X026196Y035980D02*
X026346Y035980D01*
X026296Y035930D01*
X026921Y036005D02*
X027071Y036005D01*
X027071Y036080D01*
X027046Y036105D01*
X026996Y036105D01*
X026971Y036080D01*
X026971Y036005D01*
X026971Y036055D02*
X026921Y036105D01*
X026946Y036152D02*
X026921Y036177D01*
X026921Y036227D01*
X026946Y036252D01*
X026971Y036252D01*
X026996Y036227D01*
X026996Y036152D01*
X026946Y036152D01*
X026996Y036152D02*
X027046Y036202D01*
X027071Y036252D01*
X027046Y036300D02*
X027071Y036325D01*
X027071Y036375D01*
X027046Y036400D01*
X026946Y036300D01*
X026921Y036325D01*
X026921Y036375D01*
X026946Y036400D01*
X027046Y036400D01*
X027046Y036300D02*
X026946Y036300D01*
X027196Y036300D02*
X027196Y036250D01*
X027221Y036225D01*
X027321Y036325D01*
X027221Y036325D01*
X027196Y036300D01*
X027221Y036225D02*
X027321Y036225D01*
X027346Y036250D01*
X027346Y036300D01*
X027321Y036325D01*
X027321Y036177D02*
X027221Y036077D01*
X027196Y036102D01*
X027196Y036152D01*
X027221Y036177D01*
X027321Y036177D01*
X027346Y036152D01*
X027346Y036102D01*
X027321Y036077D01*
X027221Y036077D01*
X027196Y036030D02*
X027196Y035930D01*
X027196Y035980D02*
X027346Y035980D01*
X027296Y035930D01*
X027921Y036005D02*
X028071Y036005D01*
X028071Y036080D01*
X028046Y036105D01*
X027996Y036105D01*
X027971Y036080D01*
X027971Y036005D01*
X027971Y036055D02*
X027921Y036105D01*
X027946Y036152D02*
X027921Y036177D01*
X027921Y036227D01*
X027946Y036252D01*
X027971Y036252D01*
X027996Y036227D01*
X027996Y036152D01*
X027946Y036152D01*
X027996Y036152D02*
X028046Y036202D01*
X028071Y036252D01*
X028021Y036300D02*
X028071Y036350D01*
X027921Y036350D01*
X027921Y036300D02*
X027921Y036400D01*
X028196Y036300D02*
X028196Y036250D01*
X028221Y036225D01*
X028321Y036325D01*
X028221Y036325D01*
X028196Y036300D01*
X028221Y036225D02*
X028321Y036225D01*
X028346Y036250D01*
X028346Y036300D01*
X028321Y036325D01*
X028321Y036177D02*
X028221Y036077D01*
X028196Y036102D01*
X028196Y036152D01*
X028221Y036177D01*
X028321Y036177D01*
X028346Y036152D01*
X028346Y036102D01*
X028321Y036077D01*
X028221Y036077D01*
X028196Y036030D02*
X028196Y035930D01*
X028196Y035980D02*
X028346Y035980D01*
X028296Y035930D01*
X028921Y036005D02*
X029071Y036005D01*
X029071Y036080D01*
X029046Y036105D01*
X028996Y036105D01*
X028971Y036080D01*
X028971Y036005D01*
X028971Y036055D02*
X028921Y036105D01*
X028946Y036152D02*
X028921Y036177D01*
X028921Y036227D01*
X028946Y036252D01*
X028971Y036252D01*
X028996Y036227D01*
X028996Y036152D01*
X028946Y036152D01*
X028996Y036152D02*
X029046Y036202D01*
X029071Y036252D01*
X029046Y036300D02*
X029071Y036325D01*
X029071Y036375D01*
X029046Y036400D01*
X029021Y036400D01*
X028921Y036300D01*
X028921Y036400D01*
X029196Y036300D02*
X029196Y036250D01*
X029221Y036225D01*
X029321Y036325D01*
X029221Y036325D01*
X029196Y036300D01*
X029221Y036225D02*
X029321Y036225D01*
X029346Y036250D01*
X029346Y036300D01*
X029321Y036325D01*
X029321Y036177D02*
X029221Y036077D01*
X029196Y036102D01*
X029196Y036152D01*
X029221Y036177D01*
X029321Y036177D01*
X029346Y036152D01*
X029346Y036102D01*
X029321Y036077D01*
X029221Y036077D01*
X029196Y036030D02*
X029196Y035930D01*
X029196Y035980D02*
X029346Y035980D01*
X029296Y035930D01*
X029921Y036005D02*
X030071Y036005D01*
X030071Y036080D01*
X030046Y036105D01*
X029996Y036105D01*
X029971Y036080D01*
X029971Y036005D01*
X029971Y036055D02*
X029921Y036105D01*
X029946Y036152D02*
X029921Y036177D01*
X029921Y036227D01*
X029946Y036252D01*
X029971Y036252D01*
X029996Y036227D01*
X029996Y036152D01*
X029946Y036152D01*
X029996Y036152D02*
X030046Y036202D01*
X030071Y036252D01*
X030046Y036300D02*
X030071Y036325D01*
X030071Y036375D01*
X030046Y036400D01*
X030021Y036400D01*
X029996Y036375D01*
X029971Y036400D01*
X029946Y036400D01*
X029921Y036375D01*
X029921Y036325D01*
X029946Y036300D01*
X029996Y036350D02*
X029996Y036375D01*
X030196Y036300D02*
X030196Y036250D01*
X030221Y036225D01*
X030321Y036325D01*
X030221Y036325D01*
X030196Y036300D01*
X030221Y036225D02*
X030321Y036225D01*
X030346Y036250D01*
X030346Y036300D01*
X030321Y036325D01*
X030321Y036177D02*
X030221Y036077D01*
X030196Y036102D01*
X030196Y036152D01*
X030221Y036177D01*
X030321Y036177D01*
X030346Y036152D01*
X030346Y036102D01*
X030321Y036077D01*
X030221Y036077D01*
X030196Y036030D02*
X030196Y035930D01*
X030196Y035980D02*
X030346Y035980D01*
X030296Y035930D01*
X030921Y036005D02*
X031071Y036005D01*
X031071Y036080D01*
X031046Y036105D01*
X030996Y036105D01*
X030971Y036080D01*
X030971Y036005D01*
X030971Y036055D02*
X030921Y036105D01*
X030946Y036152D02*
X030921Y036177D01*
X030921Y036227D01*
X030946Y036252D01*
X030971Y036252D01*
X030996Y036227D01*
X030996Y036152D01*
X030946Y036152D01*
X030996Y036152D02*
X031046Y036202D01*
X031071Y036252D01*
X030996Y036300D02*
X030996Y036400D01*
X031071Y036375D02*
X030996Y036300D01*
X030921Y036375D02*
X031071Y036375D01*
X031196Y036300D02*
X031196Y036250D01*
X031221Y036225D01*
X031321Y036325D01*
X031221Y036325D01*
X031196Y036300D01*
X031221Y036225D02*
X031321Y036225D01*
X031346Y036250D01*
X031346Y036300D01*
X031321Y036325D01*
X031321Y036177D02*
X031221Y036077D01*
X031196Y036102D01*
X031196Y036152D01*
X031221Y036177D01*
X031321Y036177D01*
X031346Y036152D01*
X031346Y036102D01*
X031321Y036077D01*
X031221Y036077D01*
X031196Y036030D02*
X031196Y035930D01*
X031196Y035980D02*
X031346Y035980D01*
X031296Y035930D01*
X031921Y036005D02*
X032071Y036005D01*
X032071Y036080D01*
X032046Y036105D01*
X031996Y036105D01*
X031971Y036080D01*
X031971Y036005D01*
X031971Y036055D02*
X031921Y036105D01*
X031946Y036152D02*
X031921Y036177D01*
X031921Y036227D01*
X031946Y036252D01*
X031971Y036252D01*
X031996Y036227D01*
X031996Y036152D01*
X031946Y036152D01*
X031996Y036152D02*
X032046Y036202D01*
X032071Y036252D01*
X032071Y036300D02*
X031996Y036300D01*
X032021Y036350D01*
X032021Y036375D01*
X031996Y036400D01*
X031946Y036400D01*
X031921Y036375D01*
X031921Y036325D01*
X031946Y036300D01*
X032071Y036300D02*
X032071Y036400D01*
X032196Y036300D02*
X032196Y036250D01*
X032221Y036225D01*
X032321Y036325D01*
X032221Y036325D01*
X032196Y036300D01*
X032221Y036225D02*
X032321Y036225D01*
X032346Y036250D01*
X032346Y036300D01*
X032321Y036325D01*
X032321Y036177D02*
X032221Y036077D01*
X032196Y036102D01*
X032196Y036152D01*
X032221Y036177D01*
X032321Y036177D01*
X032346Y036152D01*
X032346Y036102D01*
X032321Y036077D01*
X032221Y036077D01*
X032196Y036030D02*
X032196Y035930D01*
X032196Y035980D02*
X032346Y035980D01*
X032296Y035930D01*
X032921Y036005D02*
X033071Y036005D01*
X033071Y036080D01*
X033046Y036105D01*
X032996Y036105D01*
X032971Y036080D01*
X032971Y036005D01*
X032971Y036055D02*
X032921Y036105D01*
X032946Y036152D02*
X032921Y036177D01*
X032921Y036227D01*
X032946Y036252D01*
X032971Y036252D01*
X032996Y036227D01*
X032996Y036152D01*
X032946Y036152D01*
X032996Y036152D02*
X033046Y036202D01*
X033071Y036252D01*
X032996Y036300D02*
X032996Y036375D01*
X032971Y036400D01*
X032946Y036400D01*
X032921Y036375D01*
X032921Y036325D01*
X032946Y036300D01*
X032996Y036300D01*
X033046Y036350D01*
X033071Y036400D01*
X033196Y036300D02*
X033196Y036250D01*
X033221Y036225D01*
X033321Y036325D01*
X033221Y036325D01*
X033196Y036300D01*
X033221Y036225D02*
X033321Y036225D01*
X033346Y036250D01*
X033346Y036300D01*
X033321Y036325D01*
X033321Y036177D02*
X033221Y036077D01*
X033196Y036102D01*
X033196Y036152D01*
X033221Y036177D01*
X033321Y036177D01*
X033346Y036152D01*
X033346Y036102D01*
X033321Y036077D01*
X033221Y036077D01*
X033196Y036030D02*
X033196Y035930D01*
X033196Y035980D02*
X033346Y035980D01*
X033296Y035930D01*
X033921Y036005D02*
X034071Y036005D01*
X034071Y036080D01*
X034046Y036105D01*
X033996Y036105D01*
X033971Y036080D01*
X033971Y036005D01*
X033971Y036055D02*
X033921Y036105D01*
X033946Y036152D02*
X033921Y036177D01*
X033921Y036227D01*
X033946Y036252D01*
X033971Y036252D01*
X033996Y036227D01*
X033996Y036152D01*
X033946Y036152D01*
X033996Y036152D02*
X034046Y036202D01*
X034071Y036252D01*
X034071Y036300D02*
X034071Y036400D01*
X034046Y036400D01*
X033946Y036300D01*
X033921Y036300D01*
X034196Y036300D02*
X034196Y036250D01*
X034221Y036225D01*
X034321Y036325D01*
X034221Y036325D01*
X034196Y036300D01*
X034221Y036225D02*
X034321Y036225D01*
X034346Y036250D01*
X034346Y036300D01*
X034321Y036325D01*
X034321Y036177D02*
X034221Y036077D01*
X034196Y036102D01*
X034196Y036152D01*
X034221Y036177D01*
X034321Y036177D01*
X034346Y036152D01*
X034346Y036102D01*
X034321Y036077D01*
X034221Y036077D01*
X034196Y036030D02*
X034196Y035930D01*
X034196Y035980D02*
X034346Y035980D01*
X034296Y035930D01*
X034921Y036005D02*
X035071Y036005D01*
X035071Y036080D01*
X035046Y036105D01*
X034996Y036105D01*
X034971Y036080D01*
X034971Y036005D01*
X034971Y036055D02*
X034921Y036105D01*
X034946Y036152D02*
X034921Y036177D01*
X034921Y036227D01*
X034946Y036252D01*
X034971Y036252D01*
X034996Y036227D01*
X034996Y036152D01*
X034946Y036152D01*
X034996Y036152D02*
X035046Y036202D01*
X035071Y036252D01*
X035046Y036300D02*
X035021Y036300D01*
X034996Y036325D01*
X034996Y036375D01*
X034971Y036400D01*
X034946Y036400D01*
X034921Y036375D01*
X034921Y036325D01*
X034946Y036300D01*
X034971Y036300D01*
X034996Y036325D01*
X034996Y036375D02*
X035021Y036400D01*
X035046Y036400D01*
X035071Y036375D01*
X035071Y036325D01*
X035046Y036300D01*
X044884Y018752D02*
X044804Y018709D01*
X044805Y018710D02*
X044778Y018756D01*
X044747Y018800D01*
X044714Y018842D01*
X044677Y018882D01*
X044638Y018918D01*
X044596Y018952D01*
X044552Y018983D01*
X044506Y019011D01*
X044458Y019035D01*
X044409Y019056D01*
X044358Y019073D01*
X044306Y019087D01*
X044253Y019097D01*
X044200Y019103D01*
X044146Y019105D01*
X044146Y019194D01*
X044146Y019195D01*
X044202Y019193D01*
X044259Y019187D01*
X044314Y019177D01*
X044369Y019164D01*
X044423Y019147D01*
X044475Y019126D01*
X044526Y019102D01*
X044576Y019075D01*
X044623Y019044D01*
X044668Y019010D01*
X044711Y018974D01*
X044752Y018934D01*
X044789Y018892D01*
X044824Y018847D01*
X044856Y018801D01*
X044884Y018752D01*
X044876Y018748D01*
X044848Y018796D01*
X044817Y018842D01*
X044782Y018886D01*
X044745Y018928D01*
X044705Y018967D01*
X044663Y019003D01*
X044618Y019037D01*
X044571Y019067D01*
X044522Y019094D01*
X044472Y019118D01*
X044420Y019138D01*
X044367Y019155D01*
X044312Y019168D01*
X044257Y019178D01*
X044202Y019184D01*
X044146Y019186D01*
X044146Y019177D01*
X044201Y019175D01*
X044256Y019169D01*
X044311Y019159D01*
X044364Y019146D01*
X044417Y019130D01*
X044468Y019109D01*
X044518Y019086D01*
X044567Y019059D01*
X044613Y019029D01*
X044657Y018996D01*
X044699Y018960D01*
X044739Y018922D01*
X044775Y018880D01*
X044809Y018837D01*
X044840Y018791D01*
X044868Y018744D01*
X044860Y018739D01*
X044833Y018786D01*
X044802Y018832D01*
X044769Y018875D01*
X044732Y018915D01*
X044693Y018954D01*
X044652Y018989D01*
X044608Y019022D01*
X044562Y019051D01*
X044514Y019078D01*
X044465Y019101D01*
X044414Y019121D01*
X044362Y019138D01*
X044309Y019151D01*
X044255Y019160D01*
X044201Y019166D01*
X044146Y019168D01*
X044146Y019159D01*
X044200Y019157D01*
X044254Y019151D01*
X044307Y019142D01*
X044359Y019129D01*
X044411Y019113D01*
X044461Y019093D01*
X044510Y019070D01*
X044557Y019044D01*
X044603Y019014D01*
X044646Y018982D01*
X044687Y018947D01*
X044726Y018909D01*
X044762Y018869D01*
X044795Y018826D01*
X044825Y018782D01*
X044852Y018735D01*
X044845Y018731D01*
X044818Y018777D01*
X044788Y018821D01*
X044755Y018863D01*
X044719Y018903D01*
X044681Y018940D01*
X044640Y018975D01*
X044597Y019007D01*
X044553Y019036D01*
X044506Y019062D01*
X044458Y019085D01*
X044408Y019104D01*
X044357Y019120D01*
X044305Y019133D01*
X044252Y019142D01*
X044199Y019148D01*
X044146Y019150D01*
X044146Y019141D01*
X044199Y019139D01*
X044251Y019133D01*
X044303Y019124D01*
X044355Y019112D01*
X044405Y019096D01*
X044454Y019076D01*
X044502Y019054D01*
X044548Y019028D01*
X044592Y019000D01*
X044635Y018968D01*
X044675Y018934D01*
X044713Y018897D01*
X044748Y018857D01*
X044780Y018816D01*
X044810Y018772D01*
X044837Y018727D01*
X044829Y018722D01*
X044800Y018770D01*
X044769Y018816D01*
X044734Y018860D01*
X044696Y018901D01*
X044656Y018939D01*
X044613Y018974D01*
X044567Y019006D01*
X044519Y019034D01*
X044470Y019060D01*
X044418Y019081D01*
X044366Y019099D01*
X044312Y019113D01*
X044257Y019123D01*
X044202Y019130D01*
X044146Y019132D01*
X044146Y019123D01*
X044201Y019121D01*
X044256Y019114D01*
X044310Y019104D01*
X044363Y019090D01*
X044415Y019073D01*
X044466Y019051D01*
X044515Y019027D01*
X044562Y018998D01*
X044607Y018967D01*
X044650Y018932D01*
X044690Y018894D01*
X044727Y018854D01*
X044762Y018811D01*
X044793Y018766D01*
X044821Y018718D01*
X044813Y018714D01*
X044785Y018761D01*
X044754Y018806D01*
X044720Y018848D01*
X044683Y018888D01*
X044644Y018925D01*
X044602Y018959D01*
X044557Y018991D01*
X044511Y019019D01*
X044462Y019043D01*
X044412Y019064D01*
X044360Y019082D01*
X044308Y019096D01*
X044254Y019106D01*
X044200Y019112D01*
X044146Y019114D01*
X044145Y017506D02*
X044145Y017596D01*
X044146Y017595D02*
X044198Y017597D01*
X044250Y017603D01*
X044302Y017612D01*
X044352Y017625D01*
X044402Y017641D01*
X044450Y017661D01*
X044497Y017684D01*
X044542Y017710D01*
X044586Y017740D01*
X044627Y017772D01*
X044666Y017807D01*
X044702Y017845D01*
X044735Y017885D01*
X044766Y017927D01*
X044794Y017971D01*
X044872Y017927D01*
X044872Y017926D01*
X044843Y017880D01*
X044811Y017835D01*
X044776Y017793D01*
X044739Y017753D01*
X044699Y017715D01*
X044656Y017680D01*
X044612Y017648D01*
X044565Y017619D01*
X044517Y017593D01*
X044467Y017570D01*
X044415Y017551D01*
X044363Y017535D01*
X044310Y017522D01*
X044255Y017513D01*
X044201Y017507D01*
X044146Y017505D01*
X044146Y017514D01*
X044200Y017516D01*
X044254Y017522D01*
X044308Y017531D01*
X044361Y017543D01*
X044413Y017559D01*
X044463Y017579D01*
X044513Y017601D01*
X044561Y017627D01*
X044607Y017656D01*
X044651Y017687D01*
X044693Y017722D01*
X044732Y017759D01*
X044769Y017799D01*
X044804Y017841D01*
X044836Y017885D01*
X044864Y017931D01*
X044857Y017935D01*
X044828Y017890D01*
X044797Y017846D01*
X044763Y017805D01*
X044726Y017765D01*
X044687Y017729D01*
X044645Y017695D01*
X044602Y017663D01*
X044556Y017635D01*
X044509Y017609D01*
X044460Y017587D01*
X044410Y017568D01*
X044358Y017552D01*
X044306Y017540D01*
X044253Y017531D01*
X044200Y017525D01*
X044146Y017523D01*
X044146Y017532D01*
X044203Y017534D01*
X044259Y017541D01*
X044315Y017551D01*
X044370Y017565D01*
X044423Y017582D01*
X044476Y017604D01*
X044527Y017629D01*
X044576Y017657D01*
X044623Y017689D01*
X044667Y017724D01*
X044709Y017762D01*
X044749Y017803D01*
X044785Y017846D01*
X044819Y017892D01*
X044849Y017940D01*
X044841Y017944D01*
X044811Y017897D01*
X044778Y017851D01*
X044742Y017809D01*
X044703Y017768D01*
X044662Y017731D01*
X044617Y017696D01*
X044571Y017665D01*
X044523Y017637D01*
X044472Y017612D01*
X044420Y017591D01*
X044367Y017573D01*
X044313Y017559D01*
X044258Y017549D01*
X044202Y017543D01*
X044146Y017541D01*
X044146Y017550D01*
X044201Y017552D01*
X044256Y017558D01*
X044311Y017568D01*
X044365Y017582D01*
X044417Y017599D01*
X044469Y017620D01*
X044518Y017645D01*
X044566Y017672D01*
X044612Y017703D01*
X044656Y017738D01*
X044697Y017775D01*
X044735Y017815D01*
X044771Y017857D01*
X044804Y017902D01*
X044833Y017949D01*
X044825Y017953D01*
X044796Y017907D01*
X044764Y017863D01*
X044729Y017821D01*
X044691Y017781D01*
X044650Y017744D01*
X044607Y017711D01*
X044561Y017680D01*
X044514Y017653D01*
X044465Y017628D01*
X044414Y017608D01*
X044362Y017591D01*
X044309Y017577D01*
X044255Y017567D01*
X044201Y017561D01*
X044146Y017559D01*
X044146Y017568D01*
X044200Y017570D01*
X044254Y017576D01*
X044307Y017586D01*
X044360Y017599D01*
X044411Y017616D01*
X044461Y017637D01*
X044510Y017660D01*
X044557Y017688D01*
X044602Y017718D01*
X044644Y017751D01*
X044684Y017788D01*
X044722Y017827D01*
X044757Y017868D01*
X044789Y017912D01*
X044817Y017958D01*
X044810Y017962D01*
X044781Y017917D01*
X044750Y017874D01*
X044715Y017833D01*
X044678Y017794D01*
X044638Y017758D01*
X044596Y017725D01*
X044552Y017695D01*
X044506Y017668D01*
X044458Y017645D01*
X044408Y017625D01*
X044357Y017608D01*
X044305Y017595D01*
X044253Y017585D01*
X044199Y017579D01*
X044146Y017577D01*
X044146Y017586D01*
X044199Y017588D01*
X044251Y017594D01*
X044303Y017603D01*
X044355Y017616D01*
X044405Y017633D01*
X044454Y017653D01*
X044501Y017676D01*
X044547Y017703D01*
X044591Y017733D01*
X044633Y017765D01*
X044672Y017801D01*
X044709Y017839D01*
X044743Y017879D01*
X044774Y017922D01*
X044802Y017967D01*
X044137Y019194D02*
X044137Y019104D01*
X044136Y019105D02*
X044082Y019103D01*
X044028Y019096D01*
X043975Y019086D01*
X043922Y019073D01*
X043871Y019055D01*
X043821Y019034D01*
X043772Y019009D01*
X043726Y018981D01*
X043682Y018949D01*
X043640Y018915D01*
X043601Y018877D01*
X043564Y018837D01*
X043496Y018894D01*
X043495Y018895D01*
X043533Y018937D01*
X043573Y018976D01*
X043616Y019012D01*
X043661Y019045D01*
X043708Y019076D01*
X043757Y019103D01*
X043808Y019127D01*
X043861Y019147D01*
X043914Y019164D01*
X043969Y019177D01*
X044024Y019187D01*
X044080Y019193D01*
X044136Y019195D01*
X044136Y019186D01*
X044080Y019184D01*
X044025Y019178D01*
X043971Y019168D01*
X043917Y019155D01*
X043864Y019139D01*
X043812Y019118D01*
X043761Y019095D01*
X043713Y019068D01*
X043666Y019038D01*
X043621Y019005D01*
X043579Y018969D01*
X043539Y018930D01*
X043502Y018889D01*
X043509Y018883D01*
X043546Y018924D01*
X043585Y018962D01*
X043627Y018998D01*
X043671Y019031D01*
X043717Y019060D01*
X043766Y019087D01*
X043815Y019110D01*
X043867Y019130D01*
X043919Y019147D01*
X043972Y019160D01*
X044026Y019169D01*
X044081Y019175D01*
X044136Y019177D01*
X044136Y019168D01*
X044082Y019166D01*
X044028Y019160D01*
X043974Y019151D01*
X043921Y019138D01*
X043869Y019122D01*
X043819Y019102D01*
X043770Y019079D01*
X043722Y019053D01*
X043676Y019023D01*
X043633Y018991D01*
X043591Y018956D01*
X043552Y018918D01*
X043516Y018878D01*
X043523Y018872D01*
X043559Y018912D01*
X043597Y018949D01*
X043638Y018984D01*
X043681Y019016D01*
X043727Y019045D01*
X043774Y019071D01*
X043822Y019094D01*
X043872Y019113D01*
X043924Y019129D01*
X043976Y019142D01*
X044029Y019151D01*
X044082Y019157D01*
X044136Y019159D01*
X044136Y019150D01*
X044083Y019148D01*
X044030Y019142D01*
X043978Y019133D01*
X043926Y019121D01*
X043875Y019105D01*
X043826Y019085D01*
X043778Y019063D01*
X043731Y019037D01*
X043687Y019008D01*
X043644Y018977D01*
X043603Y018942D01*
X043565Y018905D01*
X043530Y018866D01*
X043537Y018860D01*
X043572Y018899D01*
X043609Y018936D01*
X043650Y018970D01*
X043692Y019001D01*
X043736Y019029D01*
X043782Y019055D01*
X043829Y019077D01*
X043878Y019096D01*
X043929Y019112D01*
X043980Y019124D01*
X044031Y019133D01*
X044084Y019139D01*
X044136Y019141D01*
X044136Y019132D01*
X044084Y019130D01*
X044033Y019124D01*
X043981Y019116D01*
X043931Y019103D01*
X043881Y019088D01*
X043833Y019069D01*
X043786Y019047D01*
X043741Y019022D01*
X043697Y018994D01*
X043655Y018963D01*
X043616Y018929D01*
X043578Y018893D01*
X043543Y018854D01*
X043550Y018849D01*
X043585Y018887D01*
X043622Y018923D01*
X043661Y018956D01*
X043702Y018986D01*
X043745Y019014D01*
X043790Y019039D01*
X043837Y019061D01*
X043884Y019079D01*
X043933Y019095D01*
X043983Y019107D01*
X044034Y019116D01*
X044085Y019121D01*
X044136Y019123D01*
X044136Y019114D01*
X044081Y019112D01*
X044027Y019105D01*
X043973Y019095D01*
X043919Y019081D01*
X043868Y019063D01*
X043817Y019042D01*
X043768Y019017D01*
X043721Y018988D01*
X043676Y018956D01*
X043634Y018922D01*
X043594Y018884D01*
X043557Y018843D01*
X043500Y017801D02*
X043568Y017859D01*
X043568Y017858D02*
X043604Y017819D01*
X043644Y017782D01*
X043685Y017748D01*
X043729Y017717D01*
X043775Y017689D01*
X043823Y017665D01*
X043873Y017644D01*
X043924Y017627D01*
X043976Y017613D01*
X044029Y017603D01*
X044082Y017597D01*
X044136Y017595D01*
X044137Y017506D01*
X044136Y017505D01*
X044080Y017507D01*
X044025Y017513D01*
X043970Y017522D01*
X043916Y017536D01*
X043863Y017552D01*
X043811Y017572D01*
X043760Y017596D01*
X043712Y017622D01*
X043665Y017652D01*
X043620Y017685D01*
X043577Y017721D01*
X043537Y017759D01*
X043499Y017800D01*
X043506Y017806D01*
X043543Y017766D01*
X043583Y017727D01*
X043625Y017692D01*
X043670Y017660D01*
X043716Y017630D01*
X043764Y017604D01*
X043814Y017580D01*
X043866Y017561D01*
X043918Y017544D01*
X043972Y017531D01*
X044026Y017522D01*
X044081Y017516D01*
X044136Y017514D01*
X044136Y017523D01*
X044082Y017525D01*
X044027Y017531D01*
X043974Y017540D01*
X043921Y017553D01*
X043869Y017569D01*
X043818Y017589D01*
X043769Y017612D01*
X043721Y017638D01*
X043675Y017667D01*
X043631Y017699D01*
X043589Y017734D01*
X043550Y017772D01*
X043513Y017812D01*
X043520Y017818D01*
X043556Y017778D01*
X043595Y017741D01*
X043636Y017706D01*
X043680Y017674D01*
X043725Y017645D01*
X043773Y017620D01*
X043821Y017597D01*
X043872Y017578D01*
X043923Y017562D01*
X043976Y017549D01*
X044029Y017540D01*
X044082Y017534D01*
X044136Y017532D01*
X044136Y017541D01*
X044083Y017543D01*
X044030Y017549D01*
X043977Y017558D01*
X043926Y017570D01*
X043875Y017586D01*
X043825Y017605D01*
X043777Y017628D01*
X043730Y017653D01*
X043685Y017682D01*
X043642Y017713D01*
X043601Y017747D01*
X043563Y017784D01*
X043527Y017824D01*
X043534Y017829D01*
X043569Y017791D01*
X043607Y017754D01*
X043648Y017720D01*
X043690Y017689D01*
X043734Y017661D01*
X043781Y017636D01*
X043828Y017614D01*
X043878Y017595D01*
X043928Y017579D01*
X043979Y017567D01*
X044031Y017558D01*
X044083Y017552D01*
X044136Y017550D01*
X044136Y017559D01*
X044084Y017561D01*
X044032Y017567D01*
X043981Y017575D01*
X043930Y017588D01*
X043881Y017603D01*
X043832Y017622D01*
X043785Y017644D01*
X043739Y017669D01*
X043695Y017697D01*
X043653Y017727D01*
X043613Y017761D01*
X043576Y017797D01*
X043540Y017835D01*
X043547Y017841D01*
X043585Y017800D01*
X043626Y017762D01*
X043669Y017727D01*
X043714Y017695D01*
X043762Y017666D01*
X043812Y017641D01*
X043863Y017619D01*
X043916Y017601D01*
X043970Y017587D01*
X044025Y017577D01*
X044080Y017570D01*
X044136Y017568D01*
X044136Y017577D01*
X044081Y017579D01*
X044026Y017586D01*
X043972Y017596D01*
X043919Y017610D01*
X043867Y017627D01*
X043816Y017649D01*
X043767Y017674D01*
X043719Y017702D01*
X043674Y017734D01*
X043632Y017769D01*
X043591Y017806D01*
X043554Y017847D01*
X043561Y017853D01*
X043598Y017813D01*
X043638Y017775D01*
X043680Y017741D01*
X043724Y017710D01*
X043771Y017682D01*
X043820Y017657D01*
X043870Y017636D01*
X043921Y017618D01*
X043974Y017604D01*
X044028Y017594D01*
X044082Y017588D01*
X044136Y017586D01*
D13*
X043521Y017840D02*
X043521Y018020D01*
X043521Y018660D02*
X043521Y018860D01*
D14*
X043366Y018975D02*
X043366Y018525D01*
X043065Y018525D01*
X042905Y018525D02*
X042605Y018525D01*
X042445Y018525D02*
X042220Y018525D01*
X042145Y018600D01*
X042145Y018900D01*
X042220Y018975D01*
X042445Y018975D01*
X042445Y018525D01*
X042755Y018750D02*
X042905Y018750D01*
X042905Y018975D02*
X042905Y018525D01*
X042905Y018975D02*
X042605Y018975D01*
X041985Y018900D02*
X041910Y018975D01*
X041759Y018975D01*
X041684Y018900D01*
X041684Y018825D01*
X041985Y018525D01*
X041684Y018525D01*
X044105Y022875D02*
X044405Y022875D01*
X044255Y022875D02*
X044255Y023325D01*
X044405Y023175D01*
X044565Y023250D02*
X044641Y023325D01*
X044791Y023325D01*
X044866Y023250D01*
X044866Y023175D01*
X044791Y023100D01*
X044641Y023100D01*
X044565Y023025D01*
X044565Y022950D01*
X044641Y022875D01*
X044791Y022875D01*
X044866Y022950D01*
X036200Y029443D02*
X008641Y029443D01*
X008641Y027592D01*
X008641Y011569D01*
X008641Y009757D01*
X036200Y009757D01*
X036200Y029443D01*
X019541Y027631D02*
X019541Y011569D01*
X008641Y011569D01*
X008641Y027592D02*
X019541Y027631D01*
D15*
X042691Y021743D02*
X042691Y020950D01*
X043041Y020150D02*
X044741Y020150D01*
X045091Y020950D02*
X045091Y021755D01*
X044741Y022550D02*
X043041Y022550D01*
X043191Y021350D02*
X043193Y021402D01*
X043199Y021454D01*
X043209Y021506D01*
X043222Y021556D01*
X043239Y021606D01*
X043260Y021654D01*
X043285Y021700D01*
X043313Y021744D01*
X043344Y021786D01*
X043378Y021826D01*
X043415Y021863D01*
X043455Y021897D01*
X043497Y021928D01*
X043541Y021956D01*
X043587Y021981D01*
X043635Y022002D01*
X043685Y022019D01*
X043735Y022032D01*
X043787Y022042D01*
X043839Y022048D01*
X043891Y022050D01*
X043943Y022048D01*
X043995Y022042D01*
X044047Y022032D01*
X044097Y022019D01*
X044147Y022002D01*
X044195Y021981D01*
X044241Y021956D01*
X044285Y021928D01*
X044327Y021897D01*
X044367Y021863D01*
X044404Y021826D01*
X044438Y021786D01*
X044469Y021744D01*
X044497Y021700D01*
X044522Y021654D01*
X044543Y021606D01*
X044560Y021556D01*
X044573Y021506D01*
X044583Y021454D01*
X044589Y021402D01*
X044591Y021350D01*
X044589Y021298D01*
X044583Y021246D01*
X044573Y021194D01*
X044560Y021144D01*
X044543Y021094D01*
X044522Y021046D01*
X044497Y021000D01*
X044469Y020956D01*
X044438Y020914D01*
X044404Y020874D01*
X044367Y020837D01*
X044327Y020803D01*
X044285Y020772D01*
X044241Y020744D01*
X044195Y020719D01*
X044147Y020698D01*
X044097Y020681D01*
X044047Y020668D01*
X043995Y020658D01*
X043943Y020652D01*
X043891Y020650D01*
X043839Y020652D01*
X043787Y020658D01*
X043735Y020668D01*
X043685Y020681D01*
X043635Y020698D01*
X043587Y020719D01*
X043541Y020744D01*
X043497Y020772D01*
X043455Y020803D01*
X043415Y020837D01*
X043378Y020874D01*
X043344Y020914D01*
X043313Y020956D01*
X043285Y021000D01*
X043260Y021046D01*
X043239Y021094D01*
X043222Y021144D01*
X043209Y021194D01*
X043199Y021246D01*
X043193Y021298D01*
X043191Y021350D01*
D16*
X020373Y011909D02*
X020375Y011929D01*
X020381Y011947D01*
X020390Y011965D01*
X020402Y011980D01*
X020417Y011992D01*
X020435Y012001D01*
X020453Y012007D01*
X020473Y012009D01*
X020493Y012007D01*
X020511Y012001D01*
X020529Y011992D01*
X020544Y011980D01*
X020556Y011965D01*
X020565Y011947D01*
X020571Y011929D01*
X020573Y011909D01*
X020571Y011889D01*
X020565Y011871D01*
X020556Y011853D01*
X020544Y011838D01*
X020529Y011826D01*
X020511Y011817D01*
X020493Y011811D01*
X020473Y011809D01*
X020453Y011811D01*
X020435Y011817D01*
X020417Y011826D01*
X020402Y011838D01*
X020390Y011853D01*
X020381Y011871D01*
X020375Y011889D01*
X020373Y011909D01*
D17*
X020641Y036350D03*
X021641Y036350D03*
X022641Y036350D03*
X023641Y036350D03*
X024641Y036350D03*
X025641Y036350D03*
X026641Y036350D03*
X027641Y036350D03*
X028641Y036350D03*
X029641Y036350D03*
X030641Y036350D03*
X031641Y036350D03*
X032641Y036350D03*
X033641Y036350D03*
X034641Y036350D03*
X019641Y036350D03*
X018641Y036350D03*
X017641Y036350D03*
X016641Y036350D03*
X015641Y036350D03*
X014641Y036350D03*
X013641Y036350D03*
X012641Y036350D03*
X011641Y036350D03*
M02*
