G75*
G70*
%OFA0B0*%
%FSLAX24Y24*%
%IPPOS*%
%LPD*%
%AMOC8*
5,1,8,0,0,1.08239X$1,22.5*
%
%ADD10C,0.0000*%
%ADD11C,0.0434*%
%ADD12C,0.0820*%
%ADD13C,0.0680*%
%ADD14C,0.0640*%
%ADD15OC8,0.0680*%
%ADD16C,0.3623*%
%ADD17C,0.0690*%
%ADD18R,0.1261X0.0277*%
%ADD19R,0.2000X0.1000*%
%ADD20C,0.0474*%
%ADD21C,0.0520*%
%ADD22R,0.0434X0.0356*%
%ADD23C,0.0476*%
D10*
X002141Y000100D02*
X051141Y000100D01*
X051141Y041100D01*
X002141Y041100D01*
X002141Y000100D01*
X003964Y008234D02*
X003966Y008260D01*
X003972Y008286D01*
X003982Y008311D01*
X003995Y008334D01*
X004011Y008354D01*
X004031Y008372D01*
X004053Y008387D01*
X004076Y008399D01*
X004102Y008407D01*
X004128Y008411D01*
X004154Y008411D01*
X004180Y008407D01*
X004206Y008399D01*
X004230Y008387D01*
X004251Y008372D01*
X004271Y008354D01*
X004287Y008334D01*
X004300Y008311D01*
X004310Y008286D01*
X004316Y008260D01*
X004318Y008234D01*
X004316Y008208D01*
X004310Y008182D01*
X004300Y008157D01*
X004287Y008134D01*
X004271Y008114D01*
X004251Y008096D01*
X004229Y008081D01*
X004206Y008069D01*
X004180Y008061D01*
X004154Y008057D01*
X004128Y008057D01*
X004102Y008061D01*
X004076Y008069D01*
X004052Y008081D01*
X004031Y008096D01*
X004011Y008114D01*
X003995Y008134D01*
X003982Y008157D01*
X003972Y008182D01*
X003966Y008208D01*
X003964Y008234D01*
X003964Y009966D02*
X003966Y009992D01*
X003972Y010018D01*
X003982Y010043D01*
X003995Y010066D01*
X004011Y010086D01*
X004031Y010104D01*
X004053Y010119D01*
X004076Y010131D01*
X004102Y010139D01*
X004128Y010143D01*
X004154Y010143D01*
X004180Y010139D01*
X004206Y010131D01*
X004230Y010119D01*
X004251Y010104D01*
X004271Y010086D01*
X004287Y010066D01*
X004300Y010043D01*
X004310Y010018D01*
X004316Y009992D01*
X004318Y009966D01*
X004316Y009940D01*
X004310Y009914D01*
X004300Y009889D01*
X004287Y009866D01*
X004271Y009846D01*
X004251Y009828D01*
X004229Y009813D01*
X004206Y009801D01*
X004180Y009793D01*
X004154Y009789D01*
X004128Y009789D01*
X004102Y009793D01*
X004076Y009801D01*
X004052Y009813D01*
X004031Y009828D01*
X004011Y009846D01*
X003995Y009866D01*
X003982Y009889D01*
X003972Y009914D01*
X003966Y009940D01*
X003964Y009966D01*
X004663Y013899D02*
X004665Y013934D01*
X004671Y013968D01*
X004681Y014001D01*
X004694Y014034D01*
X004711Y014064D01*
X004732Y014092D01*
X004755Y014118D01*
X004782Y014141D01*
X004810Y014160D01*
X004841Y014176D01*
X004874Y014189D01*
X004907Y014198D01*
X004942Y014203D01*
X004977Y014204D01*
X005011Y014201D01*
X005046Y014194D01*
X005079Y014183D01*
X005110Y014169D01*
X005140Y014151D01*
X005168Y014130D01*
X005193Y014105D01*
X005215Y014078D01*
X005234Y014049D01*
X005249Y014018D01*
X005261Y013985D01*
X005269Y013951D01*
X005273Y013916D01*
X005273Y013882D01*
X005269Y013847D01*
X005261Y013813D01*
X005249Y013780D01*
X005234Y013749D01*
X005215Y013720D01*
X005193Y013693D01*
X005168Y013668D01*
X005140Y013647D01*
X005110Y013629D01*
X005079Y013615D01*
X005046Y013604D01*
X005011Y013597D01*
X004977Y013594D01*
X004942Y013595D01*
X004907Y013600D01*
X004874Y013609D01*
X004841Y013622D01*
X004810Y013638D01*
X004782Y013657D01*
X004755Y013680D01*
X004732Y013706D01*
X004711Y013734D01*
X004694Y013764D01*
X004681Y013797D01*
X004671Y013830D01*
X004665Y013864D01*
X004663Y013899D01*
X004663Y023450D02*
X004665Y023485D01*
X004671Y023519D01*
X004681Y023552D01*
X004694Y023585D01*
X004711Y023615D01*
X004732Y023643D01*
X004755Y023669D01*
X004782Y023692D01*
X004810Y023711D01*
X004841Y023727D01*
X004874Y023740D01*
X004907Y023749D01*
X004942Y023754D01*
X004977Y023755D01*
X005011Y023752D01*
X005046Y023745D01*
X005079Y023734D01*
X005110Y023720D01*
X005140Y023702D01*
X005168Y023681D01*
X005193Y023656D01*
X005215Y023629D01*
X005234Y023600D01*
X005249Y023569D01*
X005261Y023536D01*
X005269Y023502D01*
X005273Y023467D01*
X005273Y023433D01*
X005269Y023398D01*
X005261Y023364D01*
X005249Y023331D01*
X005234Y023300D01*
X005215Y023271D01*
X005193Y023244D01*
X005168Y023219D01*
X005140Y023198D01*
X005110Y023180D01*
X005079Y023166D01*
X005046Y023155D01*
X005011Y023148D01*
X004977Y023145D01*
X004942Y023146D01*
X004907Y023151D01*
X004874Y023160D01*
X004841Y023173D01*
X004810Y023189D01*
X004782Y023208D01*
X004755Y023231D01*
X004732Y023257D01*
X004711Y023285D01*
X004694Y023315D01*
X004681Y023348D01*
X004671Y023381D01*
X004665Y023415D01*
X004663Y023450D01*
X019074Y027277D02*
X019076Y027304D01*
X019082Y027331D01*
X019091Y027357D01*
X019104Y027381D01*
X019120Y027404D01*
X019139Y027423D01*
X019161Y027440D01*
X019185Y027454D01*
X019210Y027464D01*
X019237Y027471D01*
X019264Y027474D01*
X019292Y027473D01*
X019319Y027468D01*
X019345Y027460D01*
X019369Y027448D01*
X019392Y027432D01*
X019413Y027414D01*
X019430Y027393D01*
X019445Y027369D01*
X019456Y027344D01*
X019464Y027318D01*
X019468Y027291D01*
X019468Y027263D01*
X019464Y027236D01*
X019456Y027210D01*
X019445Y027185D01*
X019430Y027161D01*
X019413Y027140D01*
X019392Y027122D01*
X019370Y027106D01*
X019345Y027094D01*
X019319Y027086D01*
X019292Y027081D01*
X019264Y027080D01*
X019237Y027083D01*
X019210Y027090D01*
X019185Y027100D01*
X019161Y027114D01*
X019139Y027131D01*
X019120Y027150D01*
X019104Y027173D01*
X019091Y027197D01*
X019082Y027223D01*
X019076Y027250D01*
X019074Y027277D01*
X019074Y011923D02*
X019076Y011950D01*
X019082Y011977D01*
X019091Y012003D01*
X019104Y012027D01*
X019120Y012050D01*
X019139Y012069D01*
X019161Y012086D01*
X019185Y012100D01*
X019210Y012110D01*
X019237Y012117D01*
X019264Y012120D01*
X019292Y012119D01*
X019319Y012114D01*
X019345Y012106D01*
X019369Y012094D01*
X019392Y012078D01*
X019413Y012060D01*
X019430Y012039D01*
X019445Y012015D01*
X019456Y011990D01*
X019464Y011964D01*
X019468Y011937D01*
X019468Y011909D01*
X019464Y011882D01*
X019456Y011856D01*
X019445Y011831D01*
X019430Y011807D01*
X019413Y011786D01*
X019392Y011768D01*
X019370Y011752D01*
X019345Y011740D01*
X019319Y011732D01*
X019292Y011727D01*
X019264Y011726D01*
X019237Y011729D01*
X019210Y011736D01*
X019185Y011746D01*
X019161Y011760D01*
X019139Y011777D01*
X019120Y011796D01*
X019104Y011819D01*
X019091Y011843D01*
X019082Y011869D01*
X019076Y011896D01*
X019074Y011923D01*
D11*
X004141Y009966D03*
X004141Y008234D03*
D12*
X042611Y020460D03*
X042611Y022240D03*
X045171Y022240D03*
X045171Y020460D03*
X044641Y018350D03*
X043641Y018350D03*
D13*
X039191Y007100D02*
X038591Y007100D01*
X038591Y006100D02*
X039191Y006100D01*
X039191Y005100D02*
X038591Y005100D01*
X019141Y006300D02*
X019141Y006900D01*
X018141Y006900D02*
X018141Y006300D01*
X037141Y035800D02*
X037141Y036400D01*
X038141Y036400D02*
X038141Y035800D01*
X039141Y035800D02*
X039141Y036400D01*
X040141Y036400D02*
X040141Y035800D01*
X040141Y039300D02*
X040141Y039900D01*
X039141Y039900D02*
X039141Y039300D01*
X038141Y039300D02*
X038141Y039900D01*
X037141Y039900D02*
X037141Y039300D01*
X036141Y039300D02*
X036141Y039900D01*
X035141Y039900D02*
X035141Y039300D01*
X034141Y039300D02*
X034141Y039900D01*
X033141Y039900D02*
X033141Y039300D01*
X032141Y039300D02*
X032141Y039900D01*
X031141Y039900D02*
X031141Y039300D01*
X030141Y039300D02*
X030141Y039900D01*
X029141Y039900D02*
X029141Y039300D01*
X028141Y039300D02*
X028141Y039900D01*
X027141Y039900D02*
X027141Y039300D01*
X026141Y039300D02*
X026141Y039900D01*
X025141Y039900D02*
X025141Y039300D01*
X024141Y039300D02*
X024141Y039900D01*
X023141Y039900D02*
X023141Y039300D01*
X022141Y039300D02*
X022141Y039900D01*
X021141Y039900D02*
X021141Y039300D01*
X020141Y039300D02*
X020141Y039900D01*
X019141Y039900D02*
X019141Y039300D01*
X018141Y039300D02*
X018141Y039900D01*
X017141Y039900D02*
X017141Y039300D01*
X016141Y039300D02*
X016141Y039900D01*
X015141Y039900D02*
X015141Y039300D01*
X014141Y039300D02*
X014141Y039900D01*
X013141Y039900D02*
X013141Y039300D01*
X012141Y039300D02*
X012141Y039900D01*
X011141Y039900D02*
X011141Y039300D01*
D14*
X012361Y006100D02*
X012921Y006100D01*
X013861Y006100D02*
X014421Y006100D01*
X014421Y005100D02*
X013861Y005100D01*
X012921Y005100D02*
X012361Y005100D01*
D15*
X035141Y005600D03*
X036141Y005600D03*
X037141Y005600D03*
X037141Y006600D03*
X036141Y006600D03*
X035141Y006600D03*
D16*
X047141Y004100D03*
X007141Y004100D03*
X007141Y034100D03*
D17*
X004968Y023450D03*
X004968Y013899D03*
D18*
X019574Y014088D03*
X019574Y013694D03*
X019574Y013301D03*
X019574Y012907D03*
X019574Y012513D03*
X019574Y014482D03*
X019574Y014876D03*
X019574Y015269D03*
X019574Y015663D03*
X019574Y016057D03*
X019574Y016450D03*
X019574Y016844D03*
X019574Y017238D03*
X019574Y017631D03*
X019574Y018025D03*
X019574Y018419D03*
X019574Y018813D03*
X019574Y019206D03*
X019574Y019600D03*
X019574Y019994D03*
X019574Y020387D03*
X019574Y020781D03*
X019574Y021175D03*
X019574Y021569D03*
X019574Y021962D03*
X019574Y022356D03*
X019574Y022750D03*
X019574Y023143D03*
X019574Y023537D03*
X019574Y023931D03*
X019574Y024324D03*
X019574Y024718D03*
X019574Y025112D03*
X019574Y025506D03*
X019574Y025899D03*
X019574Y026293D03*
X019574Y026687D03*
D19*
X019141Y027600D03*
X019141Y011600D03*
D20*
X019271Y011923D03*
X019271Y027277D03*
D21*
X031141Y008320D02*
X031141Y007880D01*
X033141Y007880D02*
X033141Y008320D01*
D22*
X033641Y036094D03*
X033641Y036606D03*
X034641Y036606D03*
X034641Y036094D03*
X032641Y036094D03*
X032641Y036606D03*
X031641Y036606D03*
X031641Y036094D03*
X030641Y036094D03*
X030641Y036606D03*
X029641Y036606D03*
X029641Y036094D03*
X028641Y036094D03*
X028641Y036606D03*
X027641Y036606D03*
X027641Y036094D03*
X026641Y036094D03*
X026641Y036606D03*
X025641Y036606D03*
X025641Y036094D03*
X024641Y036094D03*
X024641Y036606D03*
X023641Y036606D03*
X023641Y036094D03*
X022641Y036094D03*
X022641Y036606D03*
X021641Y036606D03*
X021641Y036094D03*
X020641Y036094D03*
X020641Y036606D03*
X019641Y036606D03*
X019641Y036094D03*
X018641Y036094D03*
X018641Y036606D03*
X017641Y036606D03*
X017641Y036094D03*
X016641Y036094D03*
X016641Y036606D03*
X015641Y036606D03*
X015641Y036094D03*
X014641Y036094D03*
X014641Y036606D03*
X013641Y036606D03*
X013641Y036094D03*
X012641Y036094D03*
X012641Y036606D03*
X011641Y036606D03*
X011641Y036094D03*
D23*
X011641Y037350D03*
X012641Y037350D03*
X013641Y037350D03*
X014641Y037350D03*
X015641Y037350D03*
X016641Y037350D03*
X017641Y037350D03*
X018641Y037350D03*
X019641Y037350D03*
X020641Y037350D03*
X021641Y037600D03*
X022641Y037350D03*
X023641Y037350D03*
X024641Y037350D03*
X025641Y037350D03*
X026641Y037350D03*
X027641Y037350D03*
X028641Y037350D03*
X029641Y037350D03*
X030641Y037350D03*
X031641Y037350D03*
X032641Y037350D03*
X033641Y037350D03*
X034641Y037350D03*
X034641Y034850D03*
X034641Y031850D03*
X036641Y030600D03*
X037141Y030600D03*
X036391Y028350D03*
X035891Y027350D03*
X036141Y026100D03*
X035391Y026100D03*
X034891Y026100D03*
X034391Y026100D03*
X033891Y026100D03*
X033141Y025850D03*
X032891Y024850D03*
X030891Y027350D03*
X031891Y028350D03*
X034141Y027850D03*
X037891Y026100D03*
X037891Y024350D03*
X037641Y023100D03*
X037641Y021600D03*
X037141Y020350D03*
X037641Y019850D03*
X035641Y019100D03*
X035141Y018850D03*
X034641Y018850D03*
X034141Y019600D03*
X034141Y020100D03*
X034141Y020600D03*
X033641Y021350D03*
X032391Y020100D03*
X032641Y019350D03*
X031641Y019600D03*
X031391Y019100D03*
X030141Y019350D03*
X029391Y019100D03*
X028891Y019100D03*
X028391Y018850D03*
X028141Y018350D03*
X028141Y017850D03*
X028391Y016600D03*
X027391Y016600D03*
X026891Y016850D03*
X026641Y016350D03*
X026641Y015850D03*
X026641Y015350D03*
X026641Y014850D03*
X026641Y014350D03*
X026641Y013850D03*
X027641Y013600D03*
X027641Y014100D03*
X028141Y014100D03*
X028391Y014850D03*
X027891Y015600D03*
X029641Y014100D03*
X030141Y014100D03*
X030891Y014350D03*
X030141Y013100D03*
X029641Y013100D03*
X030641Y012850D03*
X032141Y012850D03*
X032641Y013100D03*
X033141Y013100D03*
X033641Y013100D03*
X034641Y013600D03*
X033891Y014350D03*
X033391Y014350D03*
X032891Y014350D03*
X032391Y014350D03*
X033891Y014850D03*
X033891Y015350D03*
X033891Y015850D03*
X034141Y016350D03*
X034641Y016850D03*
X034141Y017600D03*
X033391Y017350D03*
X032891Y017350D03*
X032391Y017350D03*
X032141Y016850D03*
X031391Y016100D03*
X030391Y016600D03*
X029891Y016850D03*
X029891Y017350D03*
X030641Y017600D03*
X033141Y016850D03*
X037141Y013850D03*
X038641Y014600D03*
X039891Y013600D03*
X040141Y012600D03*
X039141Y012600D03*
X037141Y012100D03*
X035641Y012350D03*
X033141Y011100D03*
X032641Y010850D03*
X031891Y011350D03*
X033141Y009350D03*
X032641Y008600D03*
X031891Y008850D03*
X030391Y008350D03*
X028391Y008100D03*
X026391Y007850D03*
X025641Y008600D03*
X025641Y009100D03*
X024391Y007850D03*
X023141Y007850D03*
X022641Y008350D03*
X021391Y008350D03*
X021391Y007350D03*
X020891Y007350D03*
X019641Y007600D03*
X019891Y008600D03*
X019891Y009100D03*
X019891Y009600D03*
X019891Y010100D03*
X019891Y010600D03*
X021141Y011850D03*
X021891Y011850D03*
X023141Y013100D03*
X023641Y012100D03*
X024141Y011350D03*
X024641Y010600D03*
X026891Y012350D03*
X027891Y012350D03*
X029141Y011850D03*
X024141Y014850D03*
X023641Y014850D03*
X023891Y015600D03*
X023641Y016350D03*
X022641Y015850D03*
X020641Y016850D03*
X021141Y018850D03*
X021141Y019600D03*
X021141Y020350D03*
X020641Y020600D03*
X021141Y021100D03*
X020641Y021600D03*
X018641Y020600D03*
X017641Y019600D03*
X017141Y020350D03*
X015891Y021350D03*
X015391Y020850D03*
X015391Y020350D03*
X016391Y022100D03*
X014891Y023100D03*
X012141Y023100D03*
X012641Y019850D03*
X013641Y017350D03*
X015391Y016600D03*
X015891Y016350D03*
X015641Y017100D03*
X016891Y017850D03*
X018391Y017850D03*
X018391Y018600D03*
X018391Y016850D03*
X017141Y016350D03*
X018141Y014100D03*
X018391Y013100D03*
X018391Y012600D03*
X017391Y012100D03*
X016391Y011850D03*
X015641Y012850D03*
X014891Y013600D03*
X014641Y014100D03*
X015891Y014100D03*
X013891Y010350D03*
X012891Y010350D03*
X012391Y010350D03*
X010391Y009850D03*
X009141Y010600D03*
X008141Y010100D03*
X008141Y008600D03*
X009141Y008600D03*
X011641Y007350D03*
X012641Y008100D03*
X014891Y008600D03*
X021391Y013850D03*
X026641Y017350D03*
X026391Y017850D03*
X026141Y018350D03*
X026141Y018850D03*
X026391Y019350D03*
X025641Y019350D03*
X027141Y020600D03*
X023891Y021350D03*
X023141Y019100D03*
X024641Y024850D03*
X026141Y024850D03*
X029141Y026100D03*
X028391Y028100D03*
X028641Y029350D03*
X028141Y029350D03*
X027641Y029350D03*
X027141Y029350D03*
X026641Y029350D03*
X029641Y029350D03*
X029641Y029850D03*
X029641Y030350D03*
X029641Y030850D03*
X029641Y031350D03*
X030891Y031850D03*
X027141Y034100D03*
X026641Y033600D03*
X030641Y022100D03*
X030641Y020350D03*
X038141Y018100D03*
X039141Y016850D03*
X040141Y016850D03*
X041391Y016850D03*
X041891Y016350D03*
X041391Y015100D03*
X041391Y012600D03*
X041391Y011850D03*
X040641Y010350D03*
X041641Y009850D03*
X041141Y009100D03*
X040641Y008100D03*
X039641Y009350D03*
X037891Y009850D03*
X037391Y009350D03*
X036891Y008850D03*
X035891Y008100D03*
X032641Y006100D03*
X032141Y006100D03*
X042891Y010350D03*
X043141Y003600D03*
X041516Y017725D03*
X040891Y020350D03*
X007641Y013850D03*
M02*
