%
M48
M72
T01C0.0197
T02C0.0220
T03C0.1730
%
T01
X7304Y16807
X8304Y17807
X9304Y18807
X20304Y17807
X21304Y16807
X22804Y18807
X23804Y18807
X24804Y19307
X22804Y21307
X21804Y20307
X21804Y19307
X24304Y22307
X22804Y23307
X24304Y24307
X23804Y25807
X22804Y26807
X21804Y26807
X21804Y28307
X22804Y28307
X23804Y27307
X25804Y27307
X25804Y25807
X27804Y25807
X27804Y27307
X27304Y24307
X29304Y23307
X30804Y24307
X30804Y22307
X31804Y22307
X31804Y21307
X30304Y21307
X29304Y21307
X30304Y20307
X29804Y18807
X30804Y18807
X32304Y16807
X33304Y17807
X28304Y19307
X27304Y22307
X31304Y26807
X31804Y27307
X31304Y27807
X31304Y28307
X35304Y34307
X36304Y35307
X39304Y32807
X39804Y32307
X40554Y32307
X39304Y31057
X40554Y29807
X41554Y28807
X42304Y28807
X42804Y28307
X43804Y28307
X42804Y27307
X42804Y30057
X41804Y31057
X47304Y25307
X50804Y23307
X47304Y21807
X46804Y21807
X48804Y19307
X48804Y18807
X46804Y16807
X44804Y16807
X44304Y18807
X46304Y18807
X48804Y15807
X48804Y15307
X41804Y14307
X40304Y14307
X40304Y17807
X41804Y17807
X39304Y23807
X38304Y23807
X34804Y12807
X35304Y11807
X36304Y10307
X37804Y9307
X37804Y8307
X13304Y29307
X12304Y29307
X32804Y36307
X42304Y37307
X43304Y38307
X44304Y39307
X43304Y40307
T02
X48804Y40557
X48804Y40057
X48804Y39557
X48804Y39057
X48804Y38557
X48804Y38057
X48804Y37557
X48804Y37057
X48804Y36557
X48804Y36057
X48804Y35557
X48804Y35057
X48804Y34557
X48804Y34057
X48804Y33557
X48804Y33057
X48804Y32557
X48804Y32057
X48804Y31557
X48804Y31057
X48804Y30557
X48804Y30057
X48804Y29557
X48804Y29057
X48804Y28557
X48804Y28057
X48804Y27557
X48804Y27057
X48804Y26557
X48804Y26057
X49804Y26057
X49804Y26557
X49804Y27057
X49804Y27557
X49804Y28057
X49804Y28557
X49804Y29057
X49804Y29557
X49804Y30057
X49804Y30557
X49804Y31057
X49804Y31557
X49804Y32057
X49804Y32557
X49804Y33057
X49804Y33557
X49804Y34057
X49804Y34557
X49804Y35057
X49804Y35557
X49804Y36057
X49804Y36557
X49804Y37057
X49804Y37557
X49804Y38057
X49804Y38557
X49804Y39057
X49804Y39557
X49804Y40057
X49804Y40557
X36554Y40307
X36054Y40307
X35554Y40307
X35054Y40307
X34554Y40307
X34054Y40307
X33554Y40307
X33054Y40307
X32554Y40307
X32054Y40307
X31554Y40307
X31054Y40307
X30554Y40307
X30054Y40307
X29554Y40307
X29054Y40307
X28554Y40307
X28054Y40307
X27554Y40307
X27054Y40307
X26554Y40307
X26054Y40307
X25554Y40307
X25054Y40307
X24554Y40307
X24054Y40307
X23554Y40307
X23054Y40307
X22554Y40307
X22054Y40307
X21554Y40307
X21054Y40307
X20554Y40307
X20054Y40307
X19554Y40307
X19054Y40307
X18554Y40307
X18054Y40307
X17554Y40307
X17054Y40307
X17054Y41307
X17554Y41307
X18054Y41307
X18554Y41307
X19054Y41307
X19554Y41307
X20054Y41307
X20554Y41307
X21054Y41307
X21554Y41307
X22054Y41307
X22554Y41307
X23054Y41307
X23554Y41307
X24054Y41307
X24554Y41307
X25054Y41307
X25554Y41307
X26054Y41307
X26554Y41307
X27054Y41307
X27554Y41307
X28054Y41307
X28554Y41307
X29054Y41307
X29554Y41307
X30054Y41307
X30554Y41307
X31054Y41307
X31554Y41307
X32054Y41307
X32554Y41307
X33054Y41307
X33554Y41307
X34054Y41307
X34554Y41307
X35054Y41307
X35554Y41307
X36054Y41307
X36554Y41307
X4804Y33057
X4804Y32557
X4804Y32057
X4804Y31557
X4804Y31057
X4804Y30557
X4804Y30057
X4804Y29557
X4804Y29057
X4804Y28557
X4804Y28057
X4804Y27557
X4804Y27057
X4804Y26557
X4804Y26057
X4804Y25557
X4804Y25057
X4804Y24557
X4804Y24057
X4804Y23557
X4804Y23057
X4804Y22557
X4804Y22057
X4804Y21557
X4804Y21057
X4804Y20557
X4804Y20057
X4804Y19557
X4804Y19057
X4804Y18557
X4804Y18057
X4804Y17557
X4804Y17057
X4804Y16557
X4804Y16057
X4804Y15557
X4804Y15057
X4804Y14557
X4804Y14057
X4804Y13557
X3804Y13557
X3804Y14057
X3804Y14557
X3804Y15057
X3804Y15557
X3804Y16057
X3804Y16557
X3804Y17057
X3804Y17557
X3804Y18057
X3804Y18557
X3804Y19057
X3804Y19557
X3804Y20057
X3804Y20557
X3804Y21057
X3804Y21557
X3804Y22057
X3804Y22557
X3804Y23057
X3804Y23557
X3804Y24057
X3804Y24557
X3804Y25057
X3804Y25557
X3804Y26057
X3804Y26557
X3804Y27057
X3804Y27557
X3804Y28057
X3804Y28557
X3804Y29057
X3804Y29557
X3804Y30057
X3804Y30557
X3804Y31057
X3804Y31557
X3804Y32057
X3804Y32557
X3804Y33057
X17054Y6307
X17554Y6307
X18054Y6307
X18554Y6307
X19054Y6307
X19554Y6307
X20054Y6307
X20554Y6307
X21054Y6307
X21554Y6307
X22054Y6307
X22554Y6307
X23054Y6307
X23554Y6307
X24054Y6307
X24554Y6307
X25054Y6307
X25554Y6307
X26054Y6307
X26554Y6307
X27054Y6307
X27554Y6307
X28054Y6307
X28554Y6307
X29054Y6307
X29554Y6307
X30054Y6307
X30554Y6307
X31054Y6307
X31554Y6307
X32054Y6307
X32554Y6307
X33054Y6307
X33554Y6307
X34054Y6307
X34554Y6307
X35054Y6307
X35554Y6307
X36054Y6307
X36554Y6307
X37054Y6307
X37554Y6307
X38054Y6307
X38554Y6307
X39054Y6307
X39554Y6307
X40054Y6307
X40554Y6307
X41054Y6307
X41554Y6307
X41554Y5307
X41054Y5307
X40554Y5307
X40054Y5307
X39554Y5307
X39054Y5307
X38554Y5307
X38054Y5307
X37554Y5307
X37054Y5307
X36554Y5307
X36054Y5307
X35554Y5307
X35054Y5307
X34554Y5307
X34054Y5307
X33554Y5307
X33054Y5307
X32554Y5307
X32054Y5307
X31554Y5307
X31054Y5307
X30554Y5307
X30054Y5307
X29554Y5307
X29054Y5307
X28554Y5307
X28054Y5307
X27554Y5307
X27054Y5307
X26554Y5307
X26054Y5307
X25554Y5307
X25054Y5307
X24554Y5307
X24054Y5307
X23554Y5307
X23054Y5307
X22554Y5307
X22054Y5307
X21554Y5307
X21054Y5307
X20554Y5307
X20054Y5307
X19554Y5307
X19054Y5307
X18554Y5307
X18054Y5307
X17554Y5307
X17054Y5307
T03
X6804Y8307
X19304Y15807
X34304Y15807
X46804Y8307
X34304Y30807
X19304Y30807
X6804Y38307
M30
