G75*
G70*
%OFA0B0*%
%FSLAX24Y24*%
%IPPOS*%
%LPD*%
%AMOC8*
5,1,8,0,0,1.08239X$1,22.5*
%
%ADD10R,0.0200X0.2080*%
%ADD11R,0.2080X0.0200*%
%ADD12R,0.2080X0.1080*%
%ADD13R,0.3080X0.0980*%
%ADD14R,0.0218X0.0395*%
%ADD15R,0.0513X0.0474*%
%ADD16R,0.0474X0.0513*%
%ADD17C,0.0500*%
%ADD18R,0.1812X0.1084*%
%ADD19R,0.1064X0.1084*%
%ADD20R,0.1143X0.0710*%
%ADD21R,0.0790X0.0710*%
%ADD22R,0.1084X0.1812*%
%ADD23R,0.1084X0.1064*%
%ADD24R,0.0710X0.1143*%
%ADD25R,0.0710X0.0790*%
%ADD26R,0.0178X0.0710*%
%ADD27C,0.0437*%
%ADD28C,0.2620*%
D10*
X021924Y016807D03*
X022174Y016807D03*
X022424Y016807D03*
X022674Y016807D03*
X022924Y016807D03*
X023174Y016807D03*
X023424Y016807D03*
X023674Y016807D03*
X023924Y016807D03*
X024174Y016807D03*
X024424Y016807D03*
X024674Y016807D03*
X024924Y016807D03*
X025174Y016807D03*
X025424Y016807D03*
X025674Y016807D03*
X025924Y016807D03*
X026174Y016807D03*
X026424Y016807D03*
X026674Y016807D03*
X026924Y016807D03*
X027174Y016807D03*
X027424Y016807D03*
X027674Y016807D03*
X027924Y016807D03*
X028174Y016807D03*
X028424Y016807D03*
X028674Y016807D03*
X028924Y016807D03*
X029174Y016807D03*
X029424Y016807D03*
X029674Y016807D03*
X029924Y016807D03*
X030174Y016807D03*
X030424Y016807D03*
X030674Y016807D03*
X030924Y016807D03*
X031174Y016807D03*
X031424Y016807D03*
X031674Y016807D03*
X031684Y029807D03*
X031434Y029807D03*
X031184Y029807D03*
X030934Y029807D03*
X030684Y029807D03*
X030434Y029807D03*
X030184Y029807D03*
X029934Y029807D03*
X029684Y029807D03*
X029434Y029807D03*
X029184Y029807D03*
X028934Y029807D03*
X028684Y029807D03*
X028434Y029807D03*
X028184Y029807D03*
X027934Y029807D03*
X027684Y029807D03*
X027434Y029807D03*
X027184Y029807D03*
X026934Y029807D03*
X026684Y029807D03*
X026434Y029807D03*
X026184Y029807D03*
X025934Y029807D03*
X025684Y029807D03*
X025434Y029807D03*
X025184Y029807D03*
X024934Y029807D03*
X024684Y029807D03*
X024434Y029807D03*
X024184Y029807D03*
X023934Y029807D03*
X023684Y029807D03*
X023434Y029807D03*
X023184Y029807D03*
X022934Y029807D03*
X022684Y029807D03*
X022434Y029807D03*
X022184Y029807D03*
X021934Y029807D03*
D11*
X020304Y028187D03*
X020304Y027937D03*
X020304Y027687D03*
X020304Y027437D03*
X020304Y027187D03*
X020304Y026937D03*
X020304Y026687D03*
X020304Y026437D03*
X020304Y026187D03*
X020304Y025937D03*
X020304Y025687D03*
X020304Y025437D03*
X020304Y025187D03*
X020304Y024937D03*
X020304Y024687D03*
X020304Y024437D03*
X020304Y024187D03*
X020304Y023937D03*
X020304Y023687D03*
X020304Y023437D03*
X020304Y023187D03*
X020304Y022937D03*
X020304Y022687D03*
X020304Y022437D03*
X020304Y022187D03*
X020304Y021937D03*
X020304Y021687D03*
X020304Y021437D03*
X020304Y021187D03*
X020304Y020937D03*
X020304Y020687D03*
X020304Y020437D03*
X020304Y020187D03*
X020304Y019937D03*
X020304Y019687D03*
X020304Y019437D03*
X020304Y019187D03*
X020304Y018937D03*
X020304Y018687D03*
X020304Y018437D03*
X033304Y018427D03*
X033304Y018677D03*
X033304Y018927D03*
X033304Y019177D03*
X033304Y019427D03*
X033304Y019677D03*
X033304Y019927D03*
X033304Y020177D03*
X033304Y020427D03*
X033304Y020677D03*
X033304Y020927D03*
X033304Y021177D03*
X033304Y021427D03*
X033304Y021677D03*
X033304Y021927D03*
X033304Y022177D03*
X033304Y022427D03*
X033304Y022677D03*
X033304Y022927D03*
X033304Y023177D03*
X033304Y023427D03*
X033304Y023677D03*
X033304Y023927D03*
X033304Y024177D03*
X033304Y024427D03*
X033304Y024677D03*
X033304Y024927D03*
X033304Y025177D03*
X033304Y025427D03*
X033304Y025677D03*
X033304Y025927D03*
X033304Y026177D03*
X033304Y026427D03*
X033304Y026677D03*
X033304Y026927D03*
X033304Y027177D03*
X033304Y027427D03*
X033304Y027677D03*
X033304Y027927D03*
X033304Y028177D03*
D12*
X050804Y019007D03*
X050804Y015607D03*
D13*
X050304Y017307D03*
D14*
X046560Y017472D03*
X046304Y017472D03*
X046048Y017472D03*
X046048Y018141D03*
X046304Y018141D03*
X046560Y018141D03*
X044560Y018141D03*
X044304Y018141D03*
X044048Y018141D03*
X044048Y017472D03*
X044304Y017472D03*
X044560Y017472D03*
D15*
X044804Y016141D03*
X044804Y015472D03*
X045804Y015472D03*
X045804Y016141D03*
X046804Y016141D03*
X046804Y015472D03*
X047804Y016972D03*
X047804Y017641D03*
X046804Y019472D03*
X046804Y020141D03*
X045804Y020141D03*
X044804Y020141D03*
X044804Y019472D03*
X045804Y019472D03*
X043804Y019472D03*
X043804Y020141D03*
X043469Y021807D03*
X044139Y021807D03*
X044469Y022807D03*
X045139Y022807D03*
X045969Y022807D03*
X046639Y022807D03*
X042139Y018807D03*
X041469Y018807D03*
X040639Y018807D03*
X039969Y018807D03*
X039969Y016807D03*
X040639Y016807D03*
X041469Y016807D03*
X042139Y016807D03*
X043804Y016141D03*
X043804Y015472D03*
X038639Y010807D03*
X037969Y010807D03*
X038969Y009807D03*
X039639Y009807D03*
X036639Y012807D03*
X035969Y012807D03*
X035969Y013807D03*
X036639Y013807D03*
X034639Y010807D03*
X033969Y010807D03*
X034469Y009807D03*
X035139Y009807D03*
X032639Y012807D03*
X031969Y012807D03*
X031969Y013807D03*
X032639Y013807D03*
X021639Y013807D03*
X020969Y013807D03*
X020969Y012807D03*
X021639Y012807D03*
G36*
X039415Y024583D02*
X039054Y024222D01*
X038719Y024557D01*
X039080Y024918D01*
X039415Y024583D01*
G37*
G36*
X039889Y025056D02*
X039528Y024695D01*
X039193Y025030D01*
X039554Y025391D01*
X039889Y025056D01*
G37*
G36*
X045415Y030083D02*
X045054Y029722D01*
X044719Y030057D01*
X045080Y030418D01*
X045415Y030083D01*
G37*
G36*
X045889Y030556D02*
X045528Y030195D01*
X045193Y030530D01*
X045554Y030891D01*
X045889Y030556D01*
G37*
G36*
X041415Y035083D02*
X041054Y034722D01*
X040719Y035057D01*
X041080Y035418D01*
X041415Y035083D01*
G37*
G36*
X041889Y035556D02*
X041528Y035195D01*
X041193Y035530D01*
X041554Y035891D01*
X041889Y035556D01*
G37*
G36*
X036693Y033530D02*
X037054Y033891D01*
X037389Y033556D01*
X037028Y033195D01*
X036693Y033530D01*
G37*
G36*
X036219Y033057D02*
X036580Y033418D01*
X036915Y033083D01*
X036554Y032722D01*
X036219Y033057D01*
G37*
X032639Y032807D03*
X031969Y032807D03*
X031969Y033807D03*
X032639Y033807D03*
D16*
G36*
X038415Y034557D02*
X038080Y034222D01*
X037719Y034583D01*
X038054Y034918D01*
X038415Y034557D01*
G37*
G36*
X038889Y035030D02*
X038554Y034695D01*
X038193Y035056D01*
X038528Y035391D01*
X038889Y035030D01*
G37*
G36*
X039415Y035557D02*
X039080Y035222D01*
X038719Y035583D01*
X039054Y035918D01*
X039415Y035557D01*
G37*
G36*
X039889Y036030D02*
X039554Y035695D01*
X039193Y036056D01*
X039528Y036391D01*
X039889Y036030D01*
G37*
G36*
X041693Y026556D02*
X042028Y026891D01*
X042389Y026530D01*
X042054Y026195D01*
X041693Y026556D01*
G37*
G36*
X041219Y026083D02*
X041554Y026418D01*
X041915Y026057D01*
X041580Y025722D01*
X041219Y026083D01*
G37*
G36*
X040693Y025556D02*
X041028Y025891D01*
X041389Y025530D01*
X041054Y025195D01*
X040693Y025556D01*
G37*
G36*
X040219Y025083D02*
X040554Y025418D01*
X040915Y025057D01*
X040580Y024722D01*
X040219Y025083D01*
G37*
X040469Y019807D03*
X041139Y019807D03*
X041969Y019807D03*
X042639Y019807D03*
X039639Y019807D03*
X038969Y019807D03*
X038969Y015807D03*
X039639Y015807D03*
X040469Y015807D03*
X041139Y015807D03*
X041969Y015807D03*
X042639Y015807D03*
X047804Y016141D03*
X047804Y015472D03*
X047804Y018472D03*
X047804Y019141D03*
X017304Y018141D03*
X017304Y017472D03*
X016304Y017472D03*
X016304Y018141D03*
X015304Y027222D03*
X015304Y027891D03*
X016304Y027972D03*
X016304Y028641D03*
X017304Y028641D03*
X017304Y027972D03*
X014304Y027891D03*
X014304Y027222D03*
D17*
X005014Y027057D02*
X004594Y027057D01*
X004594Y027557D02*
X005014Y027557D01*
X005014Y028057D02*
X004594Y028057D01*
X004594Y028557D02*
X005014Y028557D01*
X005014Y029057D02*
X004594Y029057D01*
X004594Y029557D02*
X005014Y029557D01*
X005014Y030057D02*
X004594Y030057D01*
X004594Y030557D02*
X005014Y030557D01*
X005014Y031057D02*
X004594Y031057D01*
X004594Y031557D02*
X005014Y031557D01*
X005014Y032057D02*
X004594Y032057D01*
X004594Y032557D02*
X005014Y032557D01*
X005014Y033057D02*
X004594Y033057D01*
X004014Y033057D02*
X003594Y033057D01*
X003594Y032557D02*
X004014Y032557D01*
X004014Y032057D02*
X003594Y032057D01*
X003594Y031557D02*
X004014Y031557D01*
X004014Y031057D02*
X003594Y031057D01*
X003594Y030557D02*
X004014Y030557D01*
X004014Y030057D02*
X003594Y030057D01*
X003594Y029557D02*
X004014Y029557D01*
X004014Y029057D02*
X003594Y029057D01*
X003594Y028557D02*
X004014Y028557D01*
X004014Y028057D02*
X003594Y028057D01*
X003594Y027557D02*
X004014Y027557D01*
X004014Y027057D02*
X003594Y027057D01*
X003594Y026557D02*
X004014Y026557D01*
X004014Y026057D02*
X003594Y026057D01*
X003594Y025557D02*
X004014Y025557D01*
X004014Y025057D02*
X003594Y025057D01*
X003594Y024557D02*
X004014Y024557D01*
X004014Y024057D02*
X003594Y024057D01*
X003594Y023557D02*
X004014Y023557D01*
X004014Y023057D02*
X003594Y023057D01*
X003594Y022557D02*
X004014Y022557D01*
X004014Y022057D02*
X003594Y022057D01*
X003594Y021557D02*
X004014Y021557D01*
X004014Y021057D02*
X003594Y021057D01*
X003594Y020557D02*
X004014Y020557D01*
X004014Y020057D02*
X003594Y020057D01*
X003594Y019557D02*
X004014Y019557D01*
X004014Y019057D02*
X003594Y019057D01*
X003594Y018557D02*
X004014Y018557D01*
X004014Y018057D02*
X003594Y018057D01*
X003594Y017557D02*
X004014Y017557D01*
X004014Y017057D02*
X003594Y017057D01*
X003594Y016557D02*
X004014Y016557D01*
X004014Y016057D02*
X003594Y016057D01*
X003594Y015557D02*
X004014Y015557D01*
X004014Y015057D02*
X003594Y015057D01*
X003594Y014557D02*
X004014Y014557D01*
X004014Y014057D02*
X003594Y014057D01*
X003594Y013557D02*
X004014Y013557D01*
X004594Y013557D02*
X005014Y013557D01*
X005014Y014057D02*
X004594Y014057D01*
X004594Y014557D02*
X005014Y014557D01*
X005014Y015057D02*
X004594Y015057D01*
X004594Y015557D02*
X005014Y015557D01*
X005014Y016057D02*
X004594Y016057D01*
X004594Y016557D02*
X005014Y016557D01*
X005014Y017057D02*
X004594Y017057D01*
X004594Y017557D02*
X005014Y017557D01*
X005014Y018057D02*
X004594Y018057D01*
X004594Y018557D02*
X005014Y018557D01*
X005014Y019057D02*
X004594Y019057D01*
X004594Y019557D02*
X005014Y019557D01*
X005014Y020057D02*
X004594Y020057D01*
X004594Y020557D02*
X005014Y020557D01*
X005014Y021057D02*
X004594Y021057D01*
X004594Y021557D02*
X005014Y021557D01*
X005014Y022057D02*
X004594Y022057D01*
X004594Y022557D02*
X005014Y022557D01*
X005014Y023057D02*
X004594Y023057D01*
X004594Y023557D02*
X005014Y023557D01*
X005014Y024057D02*
X004594Y024057D01*
X004594Y024557D02*
X005014Y024557D01*
X005014Y025057D02*
X004594Y025057D01*
X004594Y025557D02*
X005014Y025557D01*
X005014Y026057D02*
X004594Y026057D01*
X004594Y026557D02*
X005014Y026557D01*
X017054Y040097D02*
X017054Y040517D01*
X017554Y040517D02*
X017554Y040097D01*
X018054Y040097D02*
X018054Y040517D01*
X018554Y040517D02*
X018554Y040097D01*
X019054Y040097D02*
X019054Y040517D01*
X019554Y040517D02*
X019554Y040097D01*
X020054Y040097D02*
X020054Y040517D01*
X020554Y040517D02*
X020554Y040097D01*
X021054Y040097D02*
X021054Y040517D01*
X021554Y040517D02*
X021554Y040097D01*
X022054Y040097D02*
X022054Y040517D01*
X022554Y040517D02*
X022554Y040097D01*
X023054Y040097D02*
X023054Y040517D01*
X023554Y040517D02*
X023554Y040097D01*
X024054Y040097D02*
X024054Y040517D01*
X024554Y040517D02*
X024554Y040097D01*
X025054Y040097D02*
X025054Y040517D01*
X025554Y040517D02*
X025554Y040097D01*
X026054Y040097D02*
X026054Y040517D01*
X026554Y040517D02*
X026554Y040097D01*
X027054Y040097D02*
X027054Y040517D01*
X027554Y040517D02*
X027554Y040097D01*
X028054Y040097D02*
X028054Y040517D01*
X028554Y040517D02*
X028554Y040097D01*
X029054Y040097D02*
X029054Y040517D01*
X029554Y040517D02*
X029554Y040097D01*
X030054Y040097D02*
X030054Y040517D01*
X030554Y040517D02*
X030554Y040097D01*
X031054Y040097D02*
X031054Y040517D01*
X031554Y040517D02*
X031554Y040097D01*
X032054Y040097D02*
X032054Y040517D01*
X032554Y040517D02*
X032554Y040097D01*
X033054Y040097D02*
X033054Y040517D01*
X033554Y040517D02*
X033554Y040097D01*
X034054Y040097D02*
X034054Y040517D01*
X034554Y040517D02*
X034554Y040097D01*
X035054Y040097D02*
X035054Y040517D01*
X035554Y040517D02*
X035554Y040097D01*
X036054Y040097D02*
X036054Y040517D01*
X036554Y040517D02*
X036554Y040097D01*
X036554Y041097D02*
X036554Y041517D01*
X036054Y041517D02*
X036054Y041097D01*
X035554Y041097D02*
X035554Y041517D01*
X035054Y041517D02*
X035054Y041097D01*
X034554Y041097D02*
X034554Y041517D01*
X034054Y041517D02*
X034054Y041097D01*
X033554Y041097D02*
X033554Y041517D01*
X033054Y041517D02*
X033054Y041097D01*
X032554Y041097D02*
X032554Y041517D01*
X032054Y041517D02*
X032054Y041097D01*
X031554Y041097D02*
X031554Y041517D01*
X031054Y041517D02*
X031054Y041097D01*
X030554Y041097D02*
X030554Y041517D01*
X030054Y041517D02*
X030054Y041097D01*
X029554Y041097D02*
X029554Y041517D01*
X029054Y041517D02*
X029054Y041097D01*
X028554Y041097D02*
X028554Y041517D01*
X028054Y041517D02*
X028054Y041097D01*
X027554Y041097D02*
X027554Y041517D01*
X027054Y041517D02*
X027054Y041097D01*
X026554Y041097D02*
X026554Y041517D01*
X026054Y041517D02*
X026054Y041097D01*
X025554Y041097D02*
X025554Y041517D01*
X025054Y041517D02*
X025054Y041097D01*
X024554Y041097D02*
X024554Y041517D01*
X024054Y041517D02*
X024054Y041097D01*
X023554Y041097D02*
X023554Y041517D01*
X023054Y041517D02*
X023054Y041097D01*
X022554Y041097D02*
X022554Y041517D01*
X022054Y041517D02*
X022054Y041097D01*
X021554Y041097D02*
X021554Y041517D01*
X021054Y041517D02*
X021054Y041097D01*
X020554Y041097D02*
X020554Y041517D01*
X020054Y041517D02*
X020054Y041097D01*
X019554Y041097D02*
X019554Y041517D01*
X019054Y041517D02*
X019054Y041097D01*
X018554Y041097D02*
X018554Y041517D01*
X018054Y041517D02*
X018054Y041097D01*
X017554Y041097D02*
X017554Y041517D01*
X017054Y041517D02*
X017054Y041097D01*
X048594Y040557D02*
X049014Y040557D01*
X049594Y040557D02*
X050014Y040557D01*
X050014Y040057D02*
X049594Y040057D01*
X049594Y039557D02*
X050014Y039557D01*
X050014Y039057D02*
X049594Y039057D01*
X049594Y038557D02*
X050014Y038557D01*
X050014Y038057D02*
X049594Y038057D01*
X049594Y037557D02*
X050014Y037557D01*
X050014Y037057D02*
X049594Y037057D01*
X049594Y036557D02*
X050014Y036557D01*
X050014Y036057D02*
X049594Y036057D01*
X049594Y035557D02*
X050014Y035557D01*
X050014Y035057D02*
X049594Y035057D01*
X049594Y034557D02*
X050014Y034557D01*
X050014Y034057D02*
X049594Y034057D01*
X049014Y034057D02*
X048594Y034057D01*
X048594Y034557D02*
X049014Y034557D01*
X049014Y035057D02*
X048594Y035057D01*
X048594Y035557D02*
X049014Y035557D01*
X049014Y036057D02*
X048594Y036057D01*
X048594Y036557D02*
X049014Y036557D01*
X049014Y037057D02*
X048594Y037057D01*
X048594Y037557D02*
X049014Y037557D01*
X049014Y038057D02*
X048594Y038057D01*
X048594Y038557D02*
X049014Y038557D01*
X049014Y039057D02*
X048594Y039057D01*
X048594Y039557D02*
X049014Y039557D01*
X049014Y040057D02*
X048594Y040057D01*
X048594Y033557D02*
X049014Y033557D01*
X049014Y033057D02*
X048594Y033057D01*
X048594Y032557D02*
X049014Y032557D01*
X049014Y032057D02*
X048594Y032057D01*
X048594Y031557D02*
X049014Y031557D01*
X049014Y031057D02*
X048594Y031057D01*
X048594Y030557D02*
X049014Y030557D01*
X049014Y030057D02*
X048594Y030057D01*
X048594Y029557D02*
X049014Y029557D01*
X049014Y029057D02*
X048594Y029057D01*
X048594Y028557D02*
X049014Y028557D01*
X049014Y028057D02*
X048594Y028057D01*
X048594Y027557D02*
X049014Y027557D01*
X049014Y027057D02*
X048594Y027057D01*
X048594Y026557D02*
X049014Y026557D01*
X049014Y026057D02*
X048594Y026057D01*
X049594Y026057D02*
X050014Y026057D01*
X050014Y026557D02*
X049594Y026557D01*
X049594Y027057D02*
X050014Y027057D01*
X050014Y027557D02*
X049594Y027557D01*
X049594Y028057D02*
X050014Y028057D01*
X050014Y028557D02*
X049594Y028557D01*
X049594Y029057D02*
X050014Y029057D01*
X050014Y029557D02*
X049594Y029557D01*
X049594Y030057D02*
X050014Y030057D01*
X050014Y030557D02*
X049594Y030557D01*
X049594Y031057D02*
X050014Y031057D01*
X050014Y031557D02*
X049594Y031557D01*
X049594Y032057D02*
X050014Y032057D01*
X050014Y032557D02*
X049594Y032557D01*
X049594Y033057D02*
X050014Y033057D01*
X050014Y033557D02*
X049594Y033557D01*
X041554Y006517D02*
X041554Y006097D01*
X041054Y006097D02*
X041054Y006517D01*
X040554Y006517D02*
X040554Y006097D01*
X040054Y006097D02*
X040054Y006517D01*
X039554Y006517D02*
X039554Y006097D01*
X039054Y006097D02*
X039054Y006517D01*
X038554Y006517D02*
X038554Y006097D01*
X038054Y006097D02*
X038054Y006517D01*
X037554Y006517D02*
X037554Y006097D01*
X037054Y006097D02*
X037054Y006517D01*
X036554Y006517D02*
X036554Y006097D01*
X036054Y006097D02*
X036054Y006517D01*
X035554Y006517D02*
X035554Y006097D01*
X035054Y006097D02*
X035054Y006517D01*
X034554Y006517D02*
X034554Y006097D01*
X034054Y006097D02*
X034054Y006517D01*
X033554Y006517D02*
X033554Y006097D01*
X033054Y006097D02*
X033054Y006517D01*
X032554Y006517D02*
X032554Y006097D01*
X032054Y006097D02*
X032054Y006517D01*
X031554Y006517D02*
X031554Y006097D01*
X031054Y006097D02*
X031054Y006517D01*
X030554Y006517D02*
X030554Y006097D01*
X030054Y006097D02*
X030054Y006517D01*
X029554Y006517D02*
X029554Y006097D01*
X029054Y006097D02*
X029054Y006517D01*
X028554Y006517D02*
X028554Y006097D01*
X028054Y006097D02*
X028054Y006517D01*
X027554Y006517D02*
X027554Y006097D01*
X027054Y006097D02*
X027054Y006517D01*
X026554Y006517D02*
X026554Y006097D01*
X026054Y006097D02*
X026054Y006517D01*
X025554Y006517D02*
X025554Y006097D01*
X025054Y006097D02*
X025054Y006517D01*
X024554Y006517D02*
X024554Y006097D01*
X024054Y006097D02*
X024054Y006517D01*
X023554Y006517D02*
X023554Y006097D01*
X023054Y006097D02*
X023054Y006517D01*
X022554Y006517D02*
X022554Y006097D01*
X022054Y006097D02*
X022054Y006517D01*
X021554Y006517D02*
X021554Y006097D01*
X021054Y006097D02*
X021054Y006517D01*
X020554Y006517D02*
X020554Y006097D01*
X020054Y006097D02*
X020054Y006517D01*
X019554Y006517D02*
X019554Y006097D01*
X019054Y006097D02*
X019054Y006517D01*
X018554Y006517D02*
X018554Y006097D01*
X018054Y006097D02*
X018054Y006517D01*
X017554Y006517D02*
X017554Y006097D01*
X017054Y006097D02*
X017054Y006517D01*
X017054Y005517D02*
X017054Y005097D01*
X017554Y005097D02*
X017554Y005517D01*
X018054Y005517D02*
X018054Y005097D01*
X018554Y005097D02*
X018554Y005517D01*
X019054Y005517D02*
X019054Y005097D01*
X019554Y005097D02*
X019554Y005517D01*
X020054Y005517D02*
X020054Y005097D01*
X020554Y005097D02*
X020554Y005517D01*
X021054Y005517D02*
X021054Y005097D01*
X021554Y005097D02*
X021554Y005517D01*
X022054Y005517D02*
X022054Y005097D01*
X022554Y005097D02*
X022554Y005517D01*
X023054Y005517D02*
X023054Y005097D01*
X023554Y005097D02*
X023554Y005517D01*
X024054Y005517D02*
X024054Y005097D01*
X024554Y005097D02*
X024554Y005517D01*
X025054Y005517D02*
X025054Y005097D01*
X025554Y005097D02*
X025554Y005517D01*
X026054Y005517D02*
X026054Y005097D01*
X026554Y005097D02*
X026554Y005517D01*
X027054Y005517D02*
X027054Y005097D01*
X027554Y005097D02*
X027554Y005517D01*
X028054Y005517D02*
X028054Y005097D01*
X028554Y005097D02*
X028554Y005517D01*
X029054Y005517D02*
X029054Y005097D01*
X029554Y005097D02*
X029554Y005517D01*
X030054Y005517D02*
X030054Y005097D01*
X030554Y005097D02*
X030554Y005517D01*
X031054Y005517D02*
X031054Y005097D01*
X031554Y005097D02*
X031554Y005517D01*
X032054Y005517D02*
X032054Y005097D01*
X032554Y005097D02*
X032554Y005517D01*
X033054Y005517D02*
X033054Y005097D01*
X033554Y005097D02*
X033554Y005517D01*
X034054Y005517D02*
X034054Y005097D01*
X034554Y005097D02*
X034554Y005517D01*
X035054Y005517D02*
X035054Y005097D01*
X035554Y005097D02*
X035554Y005517D01*
X036054Y005517D02*
X036054Y005097D01*
X036554Y005097D02*
X036554Y005517D01*
X037054Y005517D02*
X037054Y005097D01*
X037554Y005097D02*
X037554Y005517D01*
X038054Y005517D02*
X038054Y005097D01*
X038554Y005097D02*
X038554Y005517D01*
X039054Y005517D02*
X039054Y005097D01*
X039554Y005097D02*
X039554Y005517D01*
X040054Y005517D02*
X040054Y005097D01*
X040554Y005097D02*
X040554Y005517D01*
X041054Y005517D02*
X041054Y005097D01*
X041554Y005097D02*
X041554Y005517D01*
D18*
X008804Y012057D03*
X008804Y014557D03*
X008804Y030557D03*
X008804Y033057D03*
D19*
X011304Y032801D03*
X011304Y030813D03*
X011304Y015301D03*
X011304Y013313D03*
D20*
X013304Y014756D03*
X013304Y015858D03*
X010304Y027756D03*
X010304Y028858D03*
X013304Y030756D03*
X013304Y031858D03*
D21*
X015304Y030867D03*
X015304Y029747D03*
X015304Y017367D03*
X015304Y016247D03*
D22*
X038554Y040807D03*
X041054Y040807D03*
D23*
X039798Y038307D03*
X037810Y038307D03*
X048310Y024307D03*
X050298Y024307D03*
X050298Y022307D03*
X048310Y022307D03*
X017798Y010307D03*
X015810Y010307D03*
X015810Y008307D03*
X017798Y008307D03*
D24*
X017253Y012307D03*
X018355Y012307D03*
X035503Y008557D03*
X036605Y008557D03*
X039503Y008557D03*
X040605Y008557D03*
X035355Y036307D03*
X034253Y036307D03*
D25*
X033864Y034807D03*
X032744Y034807D03*
X045244Y023807D03*
X046364Y023807D03*
X037864Y011807D03*
X036744Y011807D03*
X033864Y011807D03*
X032744Y011807D03*
X020864Y011807D03*
X019744Y011807D03*
X012864Y027307D03*
X011744Y027307D03*
D26*
G36*
X037721Y032164D02*
X037846Y032039D01*
X037345Y031538D01*
X037220Y031663D01*
X037721Y032164D01*
G37*
G36*
X037860Y032024D02*
X037985Y031899D01*
X037484Y031398D01*
X037359Y031523D01*
X037860Y032024D01*
G37*
G36*
X037999Y031885D02*
X038124Y031760D01*
X037623Y031259D01*
X037498Y031384D01*
X037999Y031885D01*
G37*
G36*
X038139Y031746D02*
X038264Y031621D01*
X037763Y031120D01*
X037638Y031245D01*
X038139Y031746D01*
G37*
G36*
X038278Y031607D02*
X038403Y031482D01*
X037902Y030981D01*
X037777Y031106D01*
X038278Y031607D01*
G37*
G36*
X038417Y031468D02*
X038542Y031343D01*
X038041Y030842D01*
X037916Y030967D01*
X038417Y031468D01*
G37*
G36*
X038556Y031329D02*
X038681Y031204D01*
X038180Y030703D01*
X038055Y030828D01*
X038556Y031329D01*
G37*
G36*
X038695Y031189D02*
X038820Y031064D01*
X038319Y030563D01*
X038194Y030688D01*
X038695Y031189D01*
G37*
G36*
X038835Y031050D02*
X038960Y030925D01*
X038459Y030424D01*
X038334Y030549D01*
X038835Y031050D01*
G37*
G36*
X038974Y030911D02*
X039099Y030786D01*
X038598Y030285D01*
X038473Y030410D01*
X038974Y030911D01*
G37*
G36*
X039113Y030772D02*
X039238Y030647D01*
X038737Y030146D01*
X038612Y030271D01*
X039113Y030772D01*
G37*
G36*
X039252Y030633D02*
X039377Y030508D01*
X038876Y030007D01*
X038751Y030132D01*
X039252Y030633D01*
G37*
G36*
X039391Y030493D02*
X039516Y030368D01*
X039015Y029867D01*
X038890Y029992D01*
X039391Y030493D01*
G37*
G36*
X039531Y030354D02*
X039656Y030229D01*
X039155Y029728D01*
X039030Y029853D01*
X039531Y030354D01*
G37*
G36*
X039670Y030215D02*
X039795Y030090D01*
X039294Y029589D01*
X039169Y029714D01*
X039670Y030215D01*
G37*
G36*
X039809Y030076D02*
X039934Y029951D01*
X039433Y029450D01*
X039308Y029575D01*
X039809Y030076D01*
G37*
G36*
X039948Y029937D02*
X040073Y029812D01*
X039572Y029311D01*
X039447Y029436D01*
X039948Y029937D01*
G37*
G36*
X040087Y029797D02*
X040212Y029672D01*
X039711Y029171D01*
X039586Y029296D01*
X040087Y029797D01*
G37*
G36*
X040227Y029658D02*
X040352Y029533D01*
X039851Y029032D01*
X039726Y029157D01*
X040227Y029658D01*
G37*
G36*
X040366Y029519D02*
X040491Y029394D01*
X039990Y028893D01*
X039865Y029018D01*
X040366Y029519D01*
G37*
G36*
X040505Y029380D02*
X040630Y029255D01*
X040129Y028754D01*
X040004Y028879D01*
X040505Y029380D01*
G37*
G36*
X040644Y029241D02*
X040769Y029116D01*
X040268Y028615D01*
X040143Y028740D01*
X040644Y029241D01*
G37*
G36*
X040783Y029101D02*
X040908Y028976D01*
X040407Y028475D01*
X040282Y028600D01*
X040783Y029101D01*
G37*
G36*
X040922Y028962D02*
X041047Y028837D01*
X040546Y028336D01*
X040421Y028461D01*
X040922Y028962D01*
G37*
G36*
X041062Y028823D02*
X041187Y028698D01*
X040686Y028197D01*
X040561Y028322D01*
X041062Y028823D01*
G37*
G36*
X041201Y028684D02*
X041326Y028559D01*
X040825Y028058D01*
X040700Y028183D01*
X041201Y028684D01*
G37*
G36*
X041340Y028545D02*
X041465Y028420D01*
X040964Y027919D01*
X040839Y028044D01*
X041340Y028545D01*
G37*
G36*
X041479Y028405D02*
X041604Y028280D01*
X041103Y027779D01*
X040978Y027904D01*
X041479Y028405D01*
G37*
G36*
X041618Y028266D02*
X041743Y028141D01*
X041242Y027640D01*
X041117Y027765D01*
X041618Y028266D01*
G37*
G36*
X041758Y028127D02*
X041883Y028002D01*
X041382Y027501D01*
X041257Y027626D01*
X041758Y028127D01*
G37*
G36*
X041897Y027988D02*
X042022Y027863D01*
X041521Y027362D01*
X041396Y027487D01*
X041897Y027988D01*
G37*
G36*
X042036Y027849D02*
X042161Y027724D01*
X041660Y027223D01*
X041535Y027348D01*
X042036Y027849D01*
G37*
G36*
X043887Y029450D02*
X043762Y029575D01*
X044263Y030076D01*
X044388Y029951D01*
X043887Y029450D01*
G37*
G36*
X043748Y029589D02*
X043623Y029714D01*
X044124Y030215D01*
X044249Y030090D01*
X043748Y029589D01*
G37*
G36*
X043609Y029728D02*
X043484Y029853D01*
X043985Y030354D01*
X044110Y030229D01*
X043609Y029728D01*
G37*
G36*
X043470Y029867D02*
X043345Y029992D01*
X043846Y030493D01*
X043971Y030368D01*
X043470Y029867D01*
G37*
G36*
X043330Y030007D02*
X043205Y030132D01*
X043706Y030633D01*
X043831Y030508D01*
X043330Y030007D01*
G37*
G36*
X043191Y030146D02*
X043066Y030271D01*
X043567Y030772D01*
X043692Y030647D01*
X043191Y030146D01*
G37*
G36*
X043052Y030285D02*
X042927Y030410D01*
X043428Y030911D01*
X043553Y030786D01*
X043052Y030285D01*
G37*
G36*
X042913Y030424D02*
X042788Y030549D01*
X043289Y031050D01*
X043414Y030925D01*
X042913Y030424D01*
G37*
G36*
X042774Y030563D02*
X042649Y030688D01*
X043150Y031189D01*
X043275Y031064D01*
X042774Y030563D01*
G37*
G36*
X042634Y030703D02*
X042509Y030828D01*
X043010Y031329D01*
X043135Y031204D01*
X042634Y030703D01*
G37*
G36*
X042495Y030842D02*
X042370Y030967D01*
X042871Y031468D01*
X042996Y031343D01*
X042495Y030842D01*
G37*
G36*
X042356Y030981D02*
X042231Y031106D01*
X042732Y031607D01*
X042857Y031482D01*
X042356Y030981D01*
G37*
G36*
X042217Y031120D02*
X042092Y031245D01*
X042593Y031746D01*
X042718Y031621D01*
X042217Y031120D01*
G37*
G36*
X042078Y031259D02*
X041953Y031384D01*
X042454Y031885D01*
X042579Y031760D01*
X042078Y031259D01*
G37*
G36*
X041938Y031398D02*
X041813Y031523D01*
X042314Y032024D01*
X042439Y031899D01*
X041938Y031398D01*
G37*
G36*
X041799Y031538D02*
X041674Y031663D01*
X042175Y032164D01*
X042300Y032039D01*
X041799Y031538D01*
G37*
G36*
X041660Y031677D02*
X041535Y031802D01*
X042036Y032303D01*
X042161Y032178D01*
X041660Y031677D01*
G37*
G36*
X041521Y031816D02*
X041396Y031941D01*
X041897Y032442D01*
X042022Y032317D01*
X041521Y031816D01*
G37*
G36*
X041382Y031955D02*
X041257Y032080D01*
X041758Y032581D01*
X041883Y032456D01*
X041382Y031955D01*
G37*
G36*
X041242Y032094D02*
X041117Y032219D01*
X041618Y032720D01*
X041743Y032595D01*
X041242Y032094D01*
G37*
G36*
X041103Y032234D02*
X040978Y032359D01*
X041479Y032860D01*
X041604Y032735D01*
X041103Y032234D01*
G37*
G36*
X040964Y032373D02*
X040839Y032498D01*
X041340Y032999D01*
X041465Y032874D01*
X040964Y032373D01*
G37*
G36*
X040825Y032512D02*
X040700Y032637D01*
X041201Y033138D01*
X041326Y033013D01*
X040825Y032512D01*
G37*
G36*
X040686Y032651D02*
X040561Y032776D01*
X041062Y033277D01*
X041187Y033152D01*
X040686Y032651D01*
G37*
G36*
X040546Y032790D02*
X040421Y032915D01*
X040922Y033416D01*
X041047Y033291D01*
X040546Y032790D01*
G37*
G36*
X040407Y032930D02*
X040282Y033055D01*
X040783Y033556D01*
X040908Y033431D01*
X040407Y032930D01*
G37*
G36*
X040268Y033069D02*
X040143Y033194D01*
X040644Y033695D01*
X040769Y033570D01*
X040268Y033069D01*
G37*
G36*
X040129Y033208D02*
X040004Y033333D01*
X040505Y033834D01*
X040630Y033709D01*
X040129Y033208D01*
G37*
G36*
X039990Y033347D02*
X039865Y033472D01*
X040366Y033973D01*
X040491Y033848D01*
X039990Y033347D01*
G37*
G36*
X039851Y033486D02*
X039726Y033611D01*
X040227Y034112D01*
X040352Y033987D01*
X039851Y033486D01*
G37*
G36*
X039711Y033626D02*
X039586Y033751D01*
X040087Y034252D01*
X040212Y034127D01*
X039711Y033626D01*
G37*
G36*
X039572Y033765D02*
X039447Y033890D01*
X039948Y034391D01*
X040073Y034266D01*
X039572Y033765D01*
G37*
D27*
X039304Y032807D03*
X039804Y032307D03*
X040554Y032307D03*
X039304Y031057D03*
X040554Y029807D03*
X041554Y028807D03*
X042304Y028807D03*
X042804Y028307D03*
X043804Y028307D03*
X042804Y027307D03*
X042804Y030057D03*
X041804Y031057D03*
X036304Y035307D03*
X035304Y034307D03*
X032804Y036307D03*
X031304Y028307D03*
X031304Y027807D03*
X031804Y027307D03*
X031304Y026807D03*
X030804Y024307D03*
X029304Y023307D03*
X030804Y022307D03*
X031804Y022307D03*
X031804Y021307D03*
X030304Y021307D03*
X029304Y021307D03*
X030304Y020307D03*
X029804Y018807D03*
X030804Y018807D03*
X032304Y016807D03*
X033304Y017807D03*
X028304Y019307D03*
X027304Y022307D03*
X027304Y024307D03*
X027804Y025807D03*
X027804Y027307D03*
X025804Y027307D03*
X025804Y025807D03*
X024304Y024307D03*
X023804Y025807D03*
X022804Y026807D03*
X021804Y026807D03*
X021804Y028307D03*
X022804Y028307D03*
X023804Y027307D03*
X022804Y023307D03*
X024304Y022307D03*
X022804Y021307D03*
X021804Y020307D03*
X021804Y019307D03*
X022804Y018807D03*
X023804Y018807D03*
X024804Y019307D03*
X021304Y016807D03*
X020304Y017807D03*
X009304Y018807D03*
X008304Y017807D03*
X007304Y016807D03*
X012304Y029307D03*
X013304Y029307D03*
X034804Y012807D03*
X035304Y011807D03*
X036304Y010307D03*
X037804Y009307D03*
X037804Y008307D03*
X040304Y014307D03*
X041804Y014307D03*
X044804Y016807D03*
X046804Y016807D03*
X046304Y018807D03*
X044304Y018807D03*
X041804Y017807D03*
X040304Y017807D03*
X046804Y021807D03*
X047304Y021807D03*
X048804Y019307D03*
X048804Y018807D03*
X048804Y015807D03*
X048804Y015307D03*
X050804Y023307D03*
X047304Y025307D03*
X039304Y023807D03*
X038304Y023807D03*
X042304Y037307D03*
X043304Y038307D03*
X044304Y039307D03*
X043304Y040307D03*
D28*
X006804Y008307D03*
X019304Y015807D03*
X034304Y015807D03*
X046804Y008307D03*
X034304Y030807D03*
X019304Y030807D03*
X006804Y038307D03*
M02*
