G75*
G70*
%OFA0B0*%
%FSLAX24Y24*%
%IPPOS*%
%LPD*%
%AMOC8*
5,1,8,0,0,1.08239X$1,22.5*
%
%ADD10R,0.0120X0.2000*%
%ADD11R,0.2000X0.0120*%
%ADD12R,0.2000X0.1000*%
%ADD13R,0.3000X0.0900*%
%ADD14R,0.0138X0.0315*%
%ADD15R,0.0433X0.0394*%
%ADD16R,0.0394X0.0433*%
%ADD17C,0.0420*%
%ADD18R,0.1732X0.1004*%
%ADD19R,0.0984X0.1004*%
%ADD20R,0.1063X0.0630*%
%ADD21R,0.0710X0.0630*%
%ADD22R,0.1004X0.1732*%
%ADD23R,0.1004X0.0984*%
%ADD24R,0.0630X0.1063*%
%ADD25R,0.0630X0.0710*%
%ADD26R,0.0098X0.0630*%
%ADD27C,0.0400*%
%ADD28C,0.0100*%
%ADD29C,0.0120*%
%ADD30C,0.0357*%
%ADD31C,0.2540*%
%ADD32C,0.0240*%
%ADD33C,0.0600*%
D10*
X021924Y016807D03*
X022174Y016807D03*
X022424Y016807D03*
X022674Y016807D03*
X022924Y016807D03*
X023174Y016807D03*
X023424Y016807D03*
X023674Y016807D03*
X023924Y016807D03*
X024174Y016807D03*
X024424Y016807D03*
X024674Y016807D03*
X024924Y016807D03*
X025174Y016807D03*
X025424Y016807D03*
X025674Y016807D03*
X025924Y016807D03*
X026174Y016807D03*
X026424Y016807D03*
X026674Y016807D03*
X026924Y016807D03*
X027174Y016807D03*
X027424Y016807D03*
X027674Y016807D03*
X027924Y016807D03*
X028174Y016807D03*
X028424Y016807D03*
X028674Y016807D03*
X028924Y016807D03*
X029174Y016807D03*
X029424Y016807D03*
X029674Y016807D03*
X029924Y016807D03*
X030174Y016807D03*
X030424Y016807D03*
X030674Y016807D03*
X030924Y016807D03*
X031174Y016807D03*
X031424Y016807D03*
X031674Y016807D03*
X031684Y029807D03*
X031434Y029807D03*
X031184Y029807D03*
X030934Y029807D03*
X030684Y029807D03*
X030434Y029807D03*
X030184Y029807D03*
X029934Y029807D03*
X029684Y029807D03*
X029434Y029807D03*
X029184Y029807D03*
X028934Y029807D03*
X028684Y029807D03*
X028434Y029807D03*
X028184Y029807D03*
X027934Y029807D03*
X027684Y029807D03*
X027434Y029807D03*
X027184Y029807D03*
X026934Y029807D03*
X026684Y029807D03*
X026434Y029807D03*
X026184Y029807D03*
X025934Y029807D03*
X025684Y029807D03*
X025434Y029807D03*
X025184Y029807D03*
X024934Y029807D03*
X024684Y029807D03*
X024434Y029807D03*
X024184Y029807D03*
X023934Y029807D03*
X023684Y029807D03*
X023434Y029807D03*
X023184Y029807D03*
X022934Y029807D03*
X022684Y029807D03*
X022434Y029807D03*
X022184Y029807D03*
X021934Y029807D03*
D11*
X020304Y028187D03*
X020304Y027937D03*
X020304Y027687D03*
X020304Y027437D03*
X020304Y027187D03*
X020304Y026937D03*
X020304Y026687D03*
X020304Y026437D03*
X020304Y026187D03*
X020304Y025937D03*
X020304Y025687D03*
X020304Y025437D03*
X020304Y025187D03*
X020304Y024937D03*
X020304Y024687D03*
X020304Y024437D03*
X020304Y024187D03*
X020304Y023937D03*
X020304Y023687D03*
X020304Y023437D03*
X020304Y023187D03*
X020304Y022937D03*
X020304Y022687D03*
X020304Y022437D03*
X020304Y022187D03*
X020304Y021937D03*
X020304Y021687D03*
X020304Y021437D03*
X020304Y021187D03*
X020304Y020937D03*
X020304Y020687D03*
X020304Y020437D03*
X020304Y020187D03*
X020304Y019937D03*
X020304Y019687D03*
X020304Y019437D03*
X020304Y019187D03*
X020304Y018937D03*
X020304Y018687D03*
X020304Y018437D03*
X033304Y018427D03*
X033304Y018677D03*
X033304Y018927D03*
X033304Y019177D03*
X033304Y019427D03*
X033304Y019677D03*
X033304Y019927D03*
X033304Y020177D03*
X033304Y020427D03*
X033304Y020677D03*
X033304Y020927D03*
X033304Y021177D03*
X033304Y021427D03*
X033304Y021677D03*
X033304Y021927D03*
X033304Y022177D03*
X033304Y022427D03*
X033304Y022677D03*
X033304Y022927D03*
X033304Y023177D03*
X033304Y023427D03*
X033304Y023677D03*
X033304Y023927D03*
X033304Y024177D03*
X033304Y024427D03*
X033304Y024677D03*
X033304Y024927D03*
X033304Y025177D03*
X033304Y025427D03*
X033304Y025677D03*
X033304Y025927D03*
X033304Y026177D03*
X033304Y026427D03*
X033304Y026677D03*
X033304Y026927D03*
X033304Y027177D03*
X033304Y027427D03*
X033304Y027677D03*
X033304Y027927D03*
X033304Y028177D03*
D12*
X050804Y019007D03*
X050804Y015607D03*
D13*
X050304Y017307D03*
D14*
X046560Y017472D03*
X046304Y017472D03*
X046048Y017472D03*
X046048Y018141D03*
X046304Y018141D03*
X046560Y018141D03*
X044560Y018141D03*
X044304Y018141D03*
X044048Y018141D03*
X044048Y017472D03*
X044304Y017472D03*
X044560Y017472D03*
D15*
X044804Y016141D03*
X044804Y015472D03*
X045804Y015472D03*
X045804Y016141D03*
X046804Y016141D03*
X046804Y015472D03*
X047804Y016972D03*
X047804Y017641D03*
X046804Y019472D03*
X046804Y020141D03*
X045804Y020141D03*
X044804Y020141D03*
X044804Y019472D03*
X045804Y019472D03*
X043804Y019472D03*
X043804Y020141D03*
X043469Y021807D03*
X044139Y021807D03*
X044469Y022807D03*
X045139Y022807D03*
X045969Y022807D03*
X046639Y022807D03*
X042139Y018807D03*
X041469Y018807D03*
X040639Y018807D03*
X039969Y018807D03*
X039969Y016807D03*
X040639Y016807D03*
X041469Y016807D03*
X042139Y016807D03*
X043804Y016141D03*
X043804Y015472D03*
X038639Y010807D03*
X037969Y010807D03*
X038969Y009807D03*
X039639Y009807D03*
X036639Y012807D03*
X035969Y012807D03*
X035969Y013807D03*
X036639Y013807D03*
X034639Y010807D03*
X033969Y010807D03*
X034469Y009807D03*
X035139Y009807D03*
X032639Y012807D03*
X031969Y012807D03*
X031969Y013807D03*
X032639Y013807D03*
X021639Y013807D03*
X020969Y013807D03*
X020969Y012807D03*
X021639Y012807D03*
G36*
X039359Y024583D02*
X039054Y024278D01*
X038775Y024557D01*
X039080Y024862D01*
X039359Y024583D01*
G37*
G36*
X039833Y025056D02*
X039528Y024751D01*
X039249Y025030D01*
X039554Y025335D01*
X039833Y025056D01*
G37*
G36*
X045359Y030083D02*
X045054Y029778D01*
X044775Y030057D01*
X045080Y030362D01*
X045359Y030083D01*
G37*
G36*
X045833Y030556D02*
X045528Y030251D01*
X045249Y030530D01*
X045554Y030835D01*
X045833Y030556D01*
G37*
G36*
X041359Y035083D02*
X041054Y034778D01*
X040775Y035057D01*
X041080Y035362D01*
X041359Y035083D01*
G37*
G36*
X041833Y035556D02*
X041528Y035251D01*
X041249Y035530D01*
X041554Y035835D01*
X041833Y035556D01*
G37*
G36*
X036749Y033530D02*
X037054Y033835D01*
X037333Y033556D01*
X037028Y033251D01*
X036749Y033530D01*
G37*
G36*
X036275Y033057D02*
X036580Y033362D01*
X036859Y033083D01*
X036554Y032778D01*
X036275Y033057D01*
G37*
X032639Y032807D03*
X031969Y032807D03*
X031969Y033807D03*
X032639Y033807D03*
D16*
G36*
X038359Y034557D02*
X038080Y034278D01*
X037775Y034583D01*
X038054Y034862D01*
X038359Y034557D01*
G37*
G36*
X038833Y035030D02*
X038554Y034751D01*
X038249Y035056D01*
X038528Y035335D01*
X038833Y035030D01*
G37*
G36*
X039359Y035557D02*
X039080Y035278D01*
X038775Y035583D01*
X039054Y035862D01*
X039359Y035557D01*
G37*
G36*
X039833Y036030D02*
X039554Y035751D01*
X039249Y036056D01*
X039528Y036335D01*
X039833Y036030D01*
G37*
G36*
X041749Y026556D02*
X042028Y026835D01*
X042333Y026530D01*
X042054Y026251D01*
X041749Y026556D01*
G37*
G36*
X041275Y026083D02*
X041554Y026362D01*
X041859Y026057D01*
X041580Y025778D01*
X041275Y026083D01*
G37*
G36*
X040749Y025556D02*
X041028Y025835D01*
X041333Y025530D01*
X041054Y025251D01*
X040749Y025556D01*
G37*
G36*
X040275Y025083D02*
X040554Y025362D01*
X040859Y025057D01*
X040580Y024778D01*
X040275Y025083D01*
G37*
X040469Y019807D03*
X041139Y019807D03*
X041969Y019807D03*
X042639Y019807D03*
X039639Y019807D03*
X038969Y019807D03*
X038969Y015807D03*
X039639Y015807D03*
X040469Y015807D03*
X041139Y015807D03*
X041969Y015807D03*
X042639Y015807D03*
X047804Y016141D03*
X047804Y015472D03*
X047804Y018472D03*
X047804Y019141D03*
X017304Y018141D03*
X017304Y017472D03*
X016304Y017472D03*
X016304Y018141D03*
X015304Y027222D03*
X015304Y027891D03*
X016304Y027972D03*
X016304Y028641D03*
X017304Y028641D03*
X017304Y027972D03*
X014304Y027891D03*
X014304Y027222D03*
D17*
X005014Y027057D02*
X004594Y027057D01*
X004594Y027557D02*
X005014Y027557D01*
X005014Y028057D02*
X004594Y028057D01*
X004594Y028557D02*
X005014Y028557D01*
X005014Y029057D02*
X004594Y029057D01*
X004594Y029557D02*
X005014Y029557D01*
X005014Y030057D02*
X004594Y030057D01*
X004594Y030557D02*
X005014Y030557D01*
X005014Y031057D02*
X004594Y031057D01*
X004594Y031557D02*
X005014Y031557D01*
X005014Y032057D02*
X004594Y032057D01*
X004594Y032557D02*
X005014Y032557D01*
X005014Y033057D02*
X004594Y033057D01*
X004014Y033057D02*
X003594Y033057D01*
X003594Y032557D02*
X004014Y032557D01*
X004014Y032057D02*
X003594Y032057D01*
X003594Y031557D02*
X004014Y031557D01*
X004014Y031057D02*
X003594Y031057D01*
X003594Y030557D02*
X004014Y030557D01*
X004014Y030057D02*
X003594Y030057D01*
X003594Y029557D02*
X004014Y029557D01*
X004014Y029057D02*
X003594Y029057D01*
X003594Y028557D02*
X004014Y028557D01*
X004014Y028057D02*
X003594Y028057D01*
X003594Y027557D02*
X004014Y027557D01*
X004014Y027057D02*
X003594Y027057D01*
X003594Y026557D02*
X004014Y026557D01*
X004014Y026057D02*
X003594Y026057D01*
X003594Y025557D02*
X004014Y025557D01*
X004014Y025057D02*
X003594Y025057D01*
X003594Y024557D02*
X004014Y024557D01*
X004014Y024057D02*
X003594Y024057D01*
X003594Y023557D02*
X004014Y023557D01*
X004014Y023057D02*
X003594Y023057D01*
X003594Y022557D02*
X004014Y022557D01*
X004014Y022057D02*
X003594Y022057D01*
X003594Y021557D02*
X004014Y021557D01*
X004014Y021057D02*
X003594Y021057D01*
X003594Y020557D02*
X004014Y020557D01*
X004014Y020057D02*
X003594Y020057D01*
X003594Y019557D02*
X004014Y019557D01*
X004014Y019057D02*
X003594Y019057D01*
X003594Y018557D02*
X004014Y018557D01*
X004014Y018057D02*
X003594Y018057D01*
X003594Y017557D02*
X004014Y017557D01*
X004014Y017057D02*
X003594Y017057D01*
X003594Y016557D02*
X004014Y016557D01*
X004014Y016057D02*
X003594Y016057D01*
X003594Y015557D02*
X004014Y015557D01*
X004014Y015057D02*
X003594Y015057D01*
X003594Y014557D02*
X004014Y014557D01*
X004014Y014057D02*
X003594Y014057D01*
X003594Y013557D02*
X004014Y013557D01*
X004594Y013557D02*
X005014Y013557D01*
X005014Y014057D02*
X004594Y014057D01*
X004594Y014557D02*
X005014Y014557D01*
X005014Y015057D02*
X004594Y015057D01*
X004594Y015557D02*
X005014Y015557D01*
X005014Y016057D02*
X004594Y016057D01*
X004594Y016557D02*
X005014Y016557D01*
X005014Y017057D02*
X004594Y017057D01*
X004594Y017557D02*
X005014Y017557D01*
X005014Y018057D02*
X004594Y018057D01*
X004594Y018557D02*
X005014Y018557D01*
X005014Y019057D02*
X004594Y019057D01*
X004594Y019557D02*
X005014Y019557D01*
X005014Y020057D02*
X004594Y020057D01*
X004594Y020557D02*
X005014Y020557D01*
X005014Y021057D02*
X004594Y021057D01*
X004594Y021557D02*
X005014Y021557D01*
X005014Y022057D02*
X004594Y022057D01*
X004594Y022557D02*
X005014Y022557D01*
X005014Y023057D02*
X004594Y023057D01*
X004594Y023557D02*
X005014Y023557D01*
X005014Y024057D02*
X004594Y024057D01*
X004594Y024557D02*
X005014Y024557D01*
X005014Y025057D02*
X004594Y025057D01*
X004594Y025557D02*
X005014Y025557D01*
X005014Y026057D02*
X004594Y026057D01*
X004594Y026557D02*
X005014Y026557D01*
X017054Y040097D02*
X017054Y040517D01*
X017554Y040517D02*
X017554Y040097D01*
X018054Y040097D02*
X018054Y040517D01*
X018554Y040517D02*
X018554Y040097D01*
X019054Y040097D02*
X019054Y040517D01*
X019554Y040517D02*
X019554Y040097D01*
X020054Y040097D02*
X020054Y040517D01*
X020554Y040517D02*
X020554Y040097D01*
X021054Y040097D02*
X021054Y040517D01*
X021554Y040517D02*
X021554Y040097D01*
X022054Y040097D02*
X022054Y040517D01*
X022554Y040517D02*
X022554Y040097D01*
X023054Y040097D02*
X023054Y040517D01*
X023554Y040517D02*
X023554Y040097D01*
X024054Y040097D02*
X024054Y040517D01*
X024554Y040517D02*
X024554Y040097D01*
X025054Y040097D02*
X025054Y040517D01*
X025554Y040517D02*
X025554Y040097D01*
X026054Y040097D02*
X026054Y040517D01*
X026554Y040517D02*
X026554Y040097D01*
X027054Y040097D02*
X027054Y040517D01*
X027554Y040517D02*
X027554Y040097D01*
X028054Y040097D02*
X028054Y040517D01*
X028554Y040517D02*
X028554Y040097D01*
X029054Y040097D02*
X029054Y040517D01*
X029554Y040517D02*
X029554Y040097D01*
X030054Y040097D02*
X030054Y040517D01*
X030554Y040517D02*
X030554Y040097D01*
X031054Y040097D02*
X031054Y040517D01*
X031554Y040517D02*
X031554Y040097D01*
X032054Y040097D02*
X032054Y040517D01*
X032554Y040517D02*
X032554Y040097D01*
X033054Y040097D02*
X033054Y040517D01*
X033554Y040517D02*
X033554Y040097D01*
X034054Y040097D02*
X034054Y040517D01*
X034554Y040517D02*
X034554Y040097D01*
X035054Y040097D02*
X035054Y040517D01*
X035554Y040517D02*
X035554Y040097D01*
X036054Y040097D02*
X036054Y040517D01*
X036554Y040517D02*
X036554Y040097D01*
X036554Y041097D02*
X036554Y041517D01*
X036054Y041517D02*
X036054Y041097D01*
X035554Y041097D02*
X035554Y041517D01*
X035054Y041517D02*
X035054Y041097D01*
X034554Y041097D02*
X034554Y041517D01*
X034054Y041517D02*
X034054Y041097D01*
X033554Y041097D02*
X033554Y041517D01*
X033054Y041517D02*
X033054Y041097D01*
X032554Y041097D02*
X032554Y041517D01*
X032054Y041517D02*
X032054Y041097D01*
X031554Y041097D02*
X031554Y041517D01*
X031054Y041517D02*
X031054Y041097D01*
X030554Y041097D02*
X030554Y041517D01*
X030054Y041517D02*
X030054Y041097D01*
X029554Y041097D02*
X029554Y041517D01*
X029054Y041517D02*
X029054Y041097D01*
X028554Y041097D02*
X028554Y041517D01*
X028054Y041517D02*
X028054Y041097D01*
X027554Y041097D02*
X027554Y041517D01*
X027054Y041517D02*
X027054Y041097D01*
X026554Y041097D02*
X026554Y041517D01*
X026054Y041517D02*
X026054Y041097D01*
X025554Y041097D02*
X025554Y041517D01*
X025054Y041517D02*
X025054Y041097D01*
X024554Y041097D02*
X024554Y041517D01*
X024054Y041517D02*
X024054Y041097D01*
X023554Y041097D02*
X023554Y041517D01*
X023054Y041517D02*
X023054Y041097D01*
X022554Y041097D02*
X022554Y041517D01*
X022054Y041517D02*
X022054Y041097D01*
X021554Y041097D02*
X021554Y041517D01*
X021054Y041517D02*
X021054Y041097D01*
X020554Y041097D02*
X020554Y041517D01*
X020054Y041517D02*
X020054Y041097D01*
X019554Y041097D02*
X019554Y041517D01*
X019054Y041517D02*
X019054Y041097D01*
X018554Y041097D02*
X018554Y041517D01*
X018054Y041517D02*
X018054Y041097D01*
X017554Y041097D02*
X017554Y041517D01*
X017054Y041517D02*
X017054Y041097D01*
X048594Y040557D02*
X049014Y040557D01*
X049594Y040557D02*
X050014Y040557D01*
X050014Y040057D02*
X049594Y040057D01*
X049594Y039557D02*
X050014Y039557D01*
X050014Y039057D02*
X049594Y039057D01*
X049594Y038557D02*
X050014Y038557D01*
X050014Y038057D02*
X049594Y038057D01*
X049594Y037557D02*
X050014Y037557D01*
X050014Y037057D02*
X049594Y037057D01*
X049594Y036557D02*
X050014Y036557D01*
X050014Y036057D02*
X049594Y036057D01*
X049594Y035557D02*
X050014Y035557D01*
X050014Y035057D02*
X049594Y035057D01*
X049594Y034557D02*
X050014Y034557D01*
X050014Y034057D02*
X049594Y034057D01*
X049014Y034057D02*
X048594Y034057D01*
X048594Y034557D02*
X049014Y034557D01*
X049014Y035057D02*
X048594Y035057D01*
X048594Y035557D02*
X049014Y035557D01*
X049014Y036057D02*
X048594Y036057D01*
X048594Y036557D02*
X049014Y036557D01*
X049014Y037057D02*
X048594Y037057D01*
X048594Y037557D02*
X049014Y037557D01*
X049014Y038057D02*
X048594Y038057D01*
X048594Y038557D02*
X049014Y038557D01*
X049014Y039057D02*
X048594Y039057D01*
X048594Y039557D02*
X049014Y039557D01*
X049014Y040057D02*
X048594Y040057D01*
X048594Y033557D02*
X049014Y033557D01*
X049014Y033057D02*
X048594Y033057D01*
X048594Y032557D02*
X049014Y032557D01*
X049014Y032057D02*
X048594Y032057D01*
X048594Y031557D02*
X049014Y031557D01*
X049014Y031057D02*
X048594Y031057D01*
X048594Y030557D02*
X049014Y030557D01*
X049014Y030057D02*
X048594Y030057D01*
X048594Y029557D02*
X049014Y029557D01*
X049014Y029057D02*
X048594Y029057D01*
X048594Y028557D02*
X049014Y028557D01*
X049014Y028057D02*
X048594Y028057D01*
X048594Y027557D02*
X049014Y027557D01*
X049014Y027057D02*
X048594Y027057D01*
X048594Y026557D02*
X049014Y026557D01*
X049014Y026057D02*
X048594Y026057D01*
X049594Y026057D02*
X050014Y026057D01*
X050014Y026557D02*
X049594Y026557D01*
X049594Y027057D02*
X050014Y027057D01*
X050014Y027557D02*
X049594Y027557D01*
X049594Y028057D02*
X050014Y028057D01*
X050014Y028557D02*
X049594Y028557D01*
X049594Y029057D02*
X050014Y029057D01*
X050014Y029557D02*
X049594Y029557D01*
X049594Y030057D02*
X050014Y030057D01*
X050014Y030557D02*
X049594Y030557D01*
X049594Y031057D02*
X050014Y031057D01*
X050014Y031557D02*
X049594Y031557D01*
X049594Y032057D02*
X050014Y032057D01*
X050014Y032557D02*
X049594Y032557D01*
X049594Y033057D02*
X050014Y033057D01*
X050014Y033557D02*
X049594Y033557D01*
X041554Y006517D02*
X041554Y006097D01*
X041054Y006097D02*
X041054Y006517D01*
X040554Y006517D02*
X040554Y006097D01*
X040054Y006097D02*
X040054Y006517D01*
X039554Y006517D02*
X039554Y006097D01*
X039054Y006097D02*
X039054Y006517D01*
X038554Y006517D02*
X038554Y006097D01*
X038054Y006097D02*
X038054Y006517D01*
X037554Y006517D02*
X037554Y006097D01*
X037054Y006097D02*
X037054Y006517D01*
X036554Y006517D02*
X036554Y006097D01*
X036054Y006097D02*
X036054Y006517D01*
X035554Y006517D02*
X035554Y006097D01*
X035054Y006097D02*
X035054Y006517D01*
X034554Y006517D02*
X034554Y006097D01*
X034054Y006097D02*
X034054Y006517D01*
X033554Y006517D02*
X033554Y006097D01*
X033054Y006097D02*
X033054Y006517D01*
X032554Y006517D02*
X032554Y006097D01*
X032054Y006097D02*
X032054Y006517D01*
X031554Y006517D02*
X031554Y006097D01*
X031054Y006097D02*
X031054Y006517D01*
X030554Y006517D02*
X030554Y006097D01*
X030054Y006097D02*
X030054Y006517D01*
X029554Y006517D02*
X029554Y006097D01*
X029054Y006097D02*
X029054Y006517D01*
X028554Y006517D02*
X028554Y006097D01*
X028054Y006097D02*
X028054Y006517D01*
X027554Y006517D02*
X027554Y006097D01*
X027054Y006097D02*
X027054Y006517D01*
X026554Y006517D02*
X026554Y006097D01*
X026054Y006097D02*
X026054Y006517D01*
X025554Y006517D02*
X025554Y006097D01*
X025054Y006097D02*
X025054Y006517D01*
X024554Y006517D02*
X024554Y006097D01*
X024054Y006097D02*
X024054Y006517D01*
X023554Y006517D02*
X023554Y006097D01*
X023054Y006097D02*
X023054Y006517D01*
X022554Y006517D02*
X022554Y006097D01*
X022054Y006097D02*
X022054Y006517D01*
X021554Y006517D02*
X021554Y006097D01*
X021054Y006097D02*
X021054Y006517D01*
X020554Y006517D02*
X020554Y006097D01*
X020054Y006097D02*
X020054Y006517D01*
X019554Y006517D02*
X019554Y006097D01*
X019054Y006097D02*
X019054Y006517D01*
X018554Y006517D02*
X018554Y006097D01*
X018054Y006097D02*
X018054Y006517D01*
X017554Y006517D02*
X017554Y006097D01*
X017054Y006097D02*
X017054Y006517D01*
X017054Y005517D02*
X017054Y005097D01*
X017554Y005097D02*
X017554Y005517D01*
X018054Y005517D02*
X018054Y005097D01*
X018554Y005097D02*
X018554Y005517D01*
X019054Y005517D02*
X019054Y005097D01*
X019554Y005097D02*
X019554Y005517D01*
X020054Y005517D02*
X020054Y005097D01*
X020554Y005097D02*
X020554Y005517D01*
X021054Y005517D02*
X021054Y005097D01*
X021554Y005097D02*
X021554Y005517D01*
X022054Y005517D02*
X022054Y005097D01*
X022554Y005097D02*
X022554Y005517D01*
X023054Y005517D02*
X023054Y005097D01*
X023554Y005097D02*
X023554Y005517D01*
X024054Y005517D02*
X024054Y005097D01*
X024554Y005097D02*
X024554Y005517D01*
X025054Y005517D02*
X025054Y005097D01*
X025554Y005097D02*
X025554Y005517D01*
X026054Y005517D02*
X026054Y005097D01*
X026554Y005097D02*
X026554Y005517D01*
X027054Y005517D02*
X027054Y005097D01*
X027554Y005097D02*
X027554Y005517D01*
X028054Y005517D02*
X028054Y005097D01*
X028554Y005097D02*
X028554Y005517D01*
X029054Y005517D02*
X029054Y005097D01*
X029554Y005097D02*
X029554Y005517D01*
X030054Y005517D02*
X030054Y005097D01*
X030554Y005097D02*
X030554Y005517D01*
X031054Y005517D02*
X031054Y005097D01*
X031554Y005097D02*
X031554Y005517D01*
X032054Y005517D02*
X032054Y005097D01*
X032554Y005097D02*
X032554Y005517D01*
X033054Y005517D02*
X033054Y005097D01*
X033554Y005097D02*
X033554Y005517D01*
X034054Y005517D02*
X034054Y005097D01*
X034554Y005097D02*
X034554Y005517D01*
X035054Y005517D02*
X035054Y005097D01*
X035554Y005097D02*
X035554Y005517D01*
X036054Y005517D02*
X036054Y005097D01*
X036554Y005097D02*
X036554Y005517D01*
X037054Y005517D02*
X037054Y005097D01*
X037554Y005097D02*
X037554Y005517D01*
X038054Y005517D02*
X038054Y005097D01*
X038554Y005097D02*
X038554Y005517D01*
X039054Y005517D02*
X039054Y005097D01*
X039554Y005097D02*
X039554Y005517D01*
X040054Y005517D02*
X040054Y005097D01*
X040554Y005097D02*
X040554Y005517D01*
X041054Y005517D02*
X041054Y005097D01*
X041554Y005097D02*
X041554Y005517D01*
D18*
X008804Y012057D03*
X008804Y014557D03*
X008804Y030557D03*
X008804Y033057D03*
D19*
X011304Y032801D03*
X011304Y030813D03*
X011304Y015301D03*
X011304Y013313D03*
D20*
X013304Y014756D03*
X013304Y015858D03*
X010304Y027756D03*
X010304Y028858D03*
X013304Y030756D03*
X013304Y031858D03*
D21*
X015304Y030867D03*
X015304Y029747D03*
X015304Y017367D03*
X015304Y016247D03*
D22*
X038554Y040807D03*
X041054Y040807D03*
D23*
X039798Y038307D03*
X037810Y038307D03*
X048310Y024307D03*
X050298Y024307D03*
X050298Y022307D03*
X048310Y022307D03*
X017798Y010307D03*
X015810Y010307D03*
X015810Y008307D03*
X017798Y008307D03*
D24*
X017253Y012307D03*
X018355Y012307D03*
X035503Y008557D03*
X036605Y008557D03*
X039503Y008557D03*
X040605Y008557D03*
X035355Y036307D03*
X034253Y036307D03*
D25*
X033864Y034807D03*
X032744Y034807D03*
X045244Y023807D03*
X046364Y023807D03*
X037864Y011807D03*
X036744Y011807D03*
X033864Y011807D03*
X032744Y011807D03*
X020864Y011807D03*
X019744Y011807D03*
X012864Y027307D03*
X011744Y027307D03*
D26*
G36*
X037721Y032108D02*
X037790Y032039D01*
X037345Y031594D01*
X037276Y031663D01*
X037721Y032108D01*
G37*
G36*
X037860Y031968D02*
X037929Y031899D01*
X037484Y031454D01*
X037415Y031523D01*
X037860Y031968D01*
G37*
G36*
X037999Y031829D02*
X038068Y031760D01*
X037623Y031315D01*
X037554Y031384D01*
X037999Y031829D01*
G37*
G36*
X038139Y031690D02*
X038208Y031621D01*
X037763Y031176D01*
X037694Y031245D01*
X038139Y031690D01*
G37*
G36*
X038278Y031551D02*
X038347Y031482D01*
X037902Y031037D01*
X037833Y031106D01*
X038278Y031551D01*
G37*
G36*
X038417Y031412D02*
X038486Y031343D01*
X038041Y030898D01*
X037972Y030967D01*
X038417Y031412D01*
G37*
G36*
X038556Y031273D02*
X038625Y031204D01*
X038180Y030759D01*
X038111Y030828D01*
X038556Y031273D01*
G37*
G36*
X038695Y031133D02*
X038764Y031064D01*
X038319Y030619D01*
X038250Y030688D01*
X038695Y031133D01*
G37*
G36*
X038835Y030994D02*
X038904Y030925D01*
X038459Y030480D01*
X038390Y030549D01*
X038835Y030994D01*
G37*
G36*
X038974Y030855D02*
X039043Y030786D01*
X038598Y030341D01*
X038529Y030410D01*
X038974Y030855D01*
G37*
G36*
X039113Y030716D02*
X039182Y030647D01*
X038737Y030202D01*
X038668Y030271D01*
X039113Y030716D01*
G37*
G36*
X039252Y030577D02*
X039321Y030508D01*
X038876Y030063D01*
X038807Y030132D01*
X039252Y030577D01*
G37*
G36*
X039391Y030437D02*
X039460Y030368D01*
X039015Y029923D01*
X038946Y029992D01*
X039391Y030437D01*
G37*
G36*
X039531Y030298D02*
X039600Y030229D01*
X039155Y029784D01*
X039086Y029853D01*
X039531Y030298D01*
G37*
G36*
X039670Y030159D02*
X039739Y030090D01*
X039294Y029645D01*
X039225Y029714D01*
X039670Y030159D01*
G37*
G36*
X039809Y030020D02*
X039878Y029951D01*
X039433Y029506D01*
X039364Y029575D01*
X039809Y030020D01*
G37*
G36*
X039948Y029881D02*
X040017Y029812D01*
X039572Y029367D01*
X039503Y029436D01*
X039948Y029881D01*
G37*
G36*
X040087Y029741D02*
X040156Y029672D01*
X039711Y029227D01*
X039642Y029296D01*
X040087Y029741D01*
G37*
G36*
X040227Y029602D02*
X040296Y029533D01*
X039851Y029088D01*
X039782Y029157D01*
X040227Y029602D01*
G37*
G36*
X040366Y029463D02*
X040435Y029394D01*
X039990Y028949D01*
X039921Y029018D01*
X040366Y029463D01*
G37*
G36*
X040505Y029324D02*
X040574Y029255D01*
X040129Y028810D01*
X040060Y028879D01*
X040505Y029324D01*
G37*
G36*
X040644Y029185D02*
X040713Y029116D01*
X040268Y028671D01*
X040199Y028740D01*
X040644Y029185D01*
G37*
G36*
X040783Y029045D02*
X040852Y028976D01*
X040407Y028531D01*
X040338Y028600D01*
X040783Y029045D01*
G37*
G36*
X040922Y028906D02*
X040991Y028837D01*
X040546Y028392D01*
X040477Y028461D01*
X040922Y028906D01*
G37*
G36*
X041062Y028767D02*
X041131Y028698D01*
X040686Y028253D01*
X040617Y028322D01*
X041062Y028767D01*
G37*
G36*
X041201Y028628D02*
X041270Y028559D01*
X040825Y028114D01*
X040756Y028183D01*
X041201Y028628D01*
G37*
G36*
X041340Y028489D02*
X041409Y028420D01*
X040964Y027975D01*
X040895Y028044D01*
X041340Y028489D01*
G37*
G36*
X041479Y028349D02*
X041548Y028280D01*
X041103Y027835D01*
X041034Y027904D01*
X041479Y028349D01*
G37*
G36*
X041618Y028210D02*
X041687Y028141D01*
X041242Y027696D01*
X041173Y027765D01*
X041618Y028210D01*
G37*
G36*
X041758Y028071D02*
X041827Y028002D01*
X041382Y027557D01*
X041313Y027626D01*
X041758Y028071D01*
G37*
G36*
X041897Y027932D02*
X041966Y027863D01*
X041521Y027418D01*
X041452Y027487D01*
X041897Y027932D01*
G37*
G36*
X042036Y027793D02*
X042105Y027724D01*
X041660Y027279D01*
X041591Y027348D01*
X042036Y027793D01*
G37*
G36*
X043887Y029506D02*
X043818Y029575D01*
X044263Y030020D01*
X044332Y029951D01*
X043887Y029506D01*
G37*
G36*
X043748Y029645D02*
X043679Y029714D01*
X044124Y030159D01*
X044193Y030090D01*
X043748Y029645D01*
G37*
G36*
X043609Y029784D02*
X043540Y029853D01*
X043985Y030298D01*
X044054Y030229D01*
X043609Y029784D01*
G37*
G36*
X043470Y029923D02*
X043401Y029992D01*
X043846Y030437D01*
X043915Y030368D01*
X043470Y029923D01*
G37*
G36*
X043330Y030063D02*
X043261Y030132D01*
X043706Y030577D01*
X043775Y030508D01*
X043330Y030063D01*
G37*
G36*
X043191Y030202D02*
X043122Y030271D01*
X043567Y030716D01*
X043636Y030647D01*
X043191Y030202D01*
G37*
G36*
X043052Y030341D02*
X042983Y030410D01*
X043428Y030855D01*
X043497Y030786D01*
X043052Y030341D01*
G37*
G36*
X042913Y030480D02*
X042844Y030549D01*
X043289Y030994D01*
X043358Y030925D01*
X042913Y030480D01*
G37*
G36*
X042774Y030619D02*
X042705Y030688D01*
X043150Y031133D01*
X043219Y031064D01*
X042774Y030619D01*
G37*
G36*
X042634Y030759D02*
X042565Y030828D01*
X043010Y031273D01*
X043079Y031204D01*
X042634Y030759D01*
G37*
G36*
X042495Y030898D02*
X042426Y030967D01*
X042871Y031412D01*
X042940Y031343D01*
X042495Y030898D01*
G37*
G36*
X042356Y031037D02*
X042287Y031106D01*
X042732Y031551D01*
X042801Y031482D01*
X042356Y031037D01*
G37*
G36*
X042217Y031176D02*
X042148Y031245D01*
X042593Y031690D01*
X042662Y031621D01*
X042217Y031176D01*
G37*
G36*
X042078Y031315D02*
X042009Y031384D01*
X042454Y031829D01*
X042523Y031760D01*
X042078Y031315D01*
G37*
G36*
X041938Y031454D02*
X041869Y031523D01*
X042314Y031968D01*
X042383Y031899D01*
X041938Y031454D01*
G37*
G36*
X041799Y031594D02*
X041730Y031663D01*
X042175Y032108D01*
X042244Y032039D01*
X041799Y031594D01*
G37*
G36*
X041660Y031733D02*
X041591Y031802D01*
X042036Y032247D01*
X042105Y032178D01*
X041660Y031733D01*
G37*
G36*
X041521Y031872D02*
X041452Y031941D01*
X041897Y032386D01*
X041966Y032317D01*
X041521Y031872D01*
G37*
G36*
X041382Y032011D02*
X041313Y032080D01*
X041758Y032525D01*
X041827Y032456D01*
X041382Y032011D01*
G37*
G36*
X041242Y032150D02*
X041173Y032219D01*
X041618Y032664D01*
X041687Y032595D01*
X041242Y032150D01*
G37*
G36*
X041103Y032290D02*
X041034Y032359D01*
X041479Y032804D01*
X041548Y032735D01*
X041103Y032290D01*
G37*
G36*
X040964Y032429D02*
X040895Y032498D01*
X041340Y032943D01*
X041409Y032874D01*
X040964Y032429D01*
G37*
G36*
X040825Y032568D02*
X040756Y032637D01*
X041201Y033082D01*
X041270Y033013D01*
X040825Y032568D01*
G37*
G36*
X040686Y032707D02*
X040617Y032776D01*
X041062Y033221D01*
X041131Y033152D01*
X040686Y032707D01*
G37*
G36*
X040546Y032846D02*
X040477Y032915D01*
X040922Y033360D01*
X040991Y033291D01*
X040546Y032846D01*
G37*
G36*
X040407Y032986D02*
X040338Y033055D01*
X040783Y033500D01*
X040852Y033431D01*
X040407Y032986D01*
G37*
G36*
X040268Y033125D02*
X040199Y033194D01*
X040644Y033639D01*
X040713Y033570D01*
X040268Y033125D01*
G37*
G36*
X040129Y033264D02*
X040060Y033333D01*
X040505Y033778D01*
X040574Y033709D01*
X040129Y033264D01*
G37*
G36*
X039990Y033403D02*
X039921Y033472D01*
X040366Y033917D01*
X040435Y033848D01*
X039990Y033403D01*
G37*
G36*
X039851Y033542D02*
X039782Y033611D01*
X040227Y034056D01*
X040296Y033987D01*
X039851Y033542D01*
G37*
G36*
X039711Y033682D02*
X039642Y033751D01*
X040087Y034196D01*
X040156Y034127D01*
X039711Y033682D01*
G37*
G36*
X039572Y033821D02*
X039503Y033890D01*
X039948Y034335D01*
X040017Y034266D01*
X039572Y033821D01*
G37*
D27*
X002204Y042907D02*
X002204Y003707D01*
X051404Y003707D01*
X051404Y014807D01*
X050854Y014807D01*
X050854Y015556D01*
X050754Y015556D01*
X050754Y014807D01*
X049744Y014807D01*
X049634Y014852D01*
X049550Y014937D01*
X049504Y015047D01*
X049504Y015557D01*
X050754Y015557D01*
X050754Y015657D01*
X050754Y016407D01*
X049744Y016407D01*
X049634Y016361D01*
X049550Y016277D01*
X049504Y016166D01*
X049504Y015657D01*
X050754Y015657D01*
X050854Y015657D01*
X050854Y016407D01*
X051404Y016407D01*
X051404Y016577D01*
X048753Y016577D01*
X048741Y016565D01*
X048565Y016492D01*
X048374Y016492D01*
X048284Y016492D01*
X048284Y016046D01*
X048281Y016038D01*
X048281Y015869D01*
X048266Y015833D01*
X048301Y015748D01*
X048301Y015472D01*
X047804Y015472D01*
X047804Y015472D01*
X047804Y014956D01*
X047548Y014956D01*
X047437Y015001D01*
X047353Y015086D01*
X047307Y015196D01*
X047307Y015472D01*
X047804Y015472D01*
X047804Y015472D01*
X047804Y014956D01*
X048061Y014956D01*
X048171Y015001D01*
X048255Y015086D01*
X048301Y015196D01*
X048301Y015472D01*
X047804Y015472D01*
X047307Y015472D01*
X047307Y015748D01*
X047342Y015833D01*
X047327Y015869D01*
X047327Y016038D01*
X047324Y016046D01*
X047324Y016680D01*
X047308Y016720D01*
X047308Y017132D01*
X046842Y017132D01*
X046787Y017077D01*
X046685Y017035D01*
X046481Y017035D01*
X046433Y017015D01*
X046412Y017015D01*
X046808Y016618D01*
X047076Y016618D01*
X047179Y016576D01*
X047258Y016497D01*
X047301Y016394D01*
X047301Y015889D01*
X047267Y015807D01*
X047301Y015725D01*
X047301Y015220D01*
X047258Y015117D01*
X047179Y015038D01*
X047076Y014995D01*
X046907Y014995D01*
X046900Y014992D01*
X045900Y014992D01*
X044900Y014992D01*
X043709Y014992D01*
X042878Y014992D01*
X042701Y015065D01*
X042566Y015200D01*
X042456Y015310D01*
X042386Y015310D01*
X042304Y015344D01*
X042222Y015310D01*
X041717Y015310D01*
X041677Y015327D01*
X041565Y015327D01*
X041431Y015327D01*
X041391Y015310D01*
X040886Y015310D01*
X040804Y015344D01*
X040722Y015310D01*
X040217Y015310D01*
X040177Y015327D01*
X040065Y015327D01*
X039931Y015327D01*
X039891Y015310D01*
X039386Y015310D01*
X039304Y015344D01*
X039222Y015310D01*
X038717Y015310D01*
X038614Y015353D01*
X038535Y015432D01*
X038493Y015535D01*
X038493Y015704D01*
X038489Y015711D01*
X038489Y016443D01*
X035397Y019535D01*
X035376Y019587D01*
X035255Y019587D01*
X037497Y017345D01*
X037592Y017249D01*
X037644Y017124D01*
X037644Y013948D01*
X041842Y009749D01*
X041894Y009624D01*
X041894Y009489D01*
X041894Y006870D01*
X041969Y006794D01*
X042044Y006614D01*
X042044Y005999D01*
X042034Y005975D01*
X042034Y005638D01*
X042044Y005614D01*
X042044Y004999D01*
X041969Y004819D01*
X041832Y004681D01*
X041652Y004607D01*
X041457Y004607D01*
X041304Y004670D01*
X041152Y004607D01*
X040957Y004607D01*
X040830Y004659D01*
X040656Y004587D01*
X040554Y004587D01*
X040554Y005306D01*
X040554Y005306D01*
X040554Y004587D01*
X040453Y004587D01*
X040278Y004659D01*
X040152Y004607D01*
X039957Y004607D01*
X039804Y004670D01*
X039652Y004607D01*
X039457Y004607D01*
X039330Y004659D01*
X039156Y004587D01*
X039054Y004587D01*
X039054Y004971D01*
X039054Y004972D01*
X039054Y004587D01*
X038953Y004587D01*
X038804Y004648D01*
X038656Y004587D01*
X038554Y004587D01*
X038554Y004971D01*
X038554Y004971D01*
X038554Y004971D01*
X038554Y004587D01*
X038453Y004587D01*
X038304Y004648D01*
X038156Y004587D01*
X038054Y004587D01*
X038054Y004971D01*
X038054Y004971D01*
X038054Y004971D01*
X038054Y004587D01*
X037953Y004587D01*
X037804Y004648D01*
X037656Y004587D01*
X037554Y004587D01*
X037554Y004971D01*
X037554Y004971D01*
X037554Y004971D01*
X037554Y004587D01*
X037453Y004587D01*
X037304Y004648D01*
X037156Y004587D01*
X037054Y004587D01*
X037054Y004971D01*
X037054Y004971D01*
X037054Y004971D01*
X037054Y004587D01*
X036953Y004587D01*
X036804Y004648D01*
X036656Y004587D01*
X036554Y004587D01*
X036554Y004972D01*
X036554Y004971D01*
X036554Y004587D01*
X036453Y004587D01*
X036278Y004659D01*
X036152Y004607D01*
X035957Y004607D01*
X035804Y004670D01*
X035652Y004607D01*
X035457Y004607D01*
X035304Y004670D01*
X035152Y004607D01*
X034957Y004607D01*
X034804Y004670D01*
X034652Y004607D01*
X034457Y004607D01*
X034304Y004670D01*
X034152Y004607D01*
X033957Y004607D01*
X033804Y004670D01*
X033652Y004607D01*
X033457Y004607D01*
X033304Y004670D01*
X033152Y004607D01*
X032957Y004607D01*
X032804Y004670D01*
X032652Y004607D01*
X032457Y004607D01*
X032304Y004670D01*
X032152Y004607D01*
X031957Y004607D01*
X031804Y004670D01*
X031652Y004607D01*
X031457Y004607D01*
X031304Y004670D01*
X031152Y004607D01*
X030957Y004607D01*
X030804Y004670D01*
X030652Y004607D01*
X030457Y004607D01*
X030304Y004670D01*
X030152Y004607D01*
X029957Y004607D01*
X029804Y004670D01*
X029652Y004607D01*
X029457Y004607D01*
X029304Y004670D01*
X029152Y004607D01*
X028957Y004607D01*
X028804Y004670D01*
X028652Y004607D01*
X028457Y004607D01*
X028304Y004670D01*
X028152Y004607D01*
X027957Y004607D01*
X027804Y004670D01*
X027652Y004607D01*
X027457Y004607D01*
X027304Y004670D01*
X027152Y004607D01*
X026957Y004607D01*
X026804Y004670D01*
X026652Y004607D01*
X026457Y004607D01*
X026304Y004670D01*
X026152Y004607D01*
X025957Y004607D01*
X025804Y004670D01*
X025652Y004607D01*
X025457Y004607D01*
X025304Y004670D01*
X025152Y004607D01*
X024957Y004607D01*
X024804Y004670D01*
X024652Y004607D01*
X024457Y004607D01*
X024304Y004670D01*
X024152Y004607D01*
X023957Y004607D01*
X023804Y004670D01*
X023652Y004607D01*
X023457Y004607D01*
X023304Y004670D01*
X023152Y004607D01*
X022957Y004607D01*
X022804Y004670D01*
X022652Y004607D01*
X022457Y004607D01*
X022304Y004670D01*
X022152Y004607D01*
X021957Y004607D01*
X021804Y004670D01*
X021652Y004607D01*
X021457Y004607D01*
X021304Y004670D01*
X021152Y004607D01*
X020957Y004607D01*
X020804Y004670D01*
X020652Y004607D01*
X020457Y004607D01*
X020304Y004670D01*
X020152Y004607D01*
X019957Y004607D01*
X019804Y004670D01*
X019652Y004607D01*
X019457Y004607D01*
X019304Y004670D01*
X019152Y004607D01*
X018957Y004607D01*
X018804Y004670D01*
X018652Y004607D01*
X018457Y004607D01*
X018304Y004670D01*
X018152Y004607D01*
X017957Y004607D01*
X017804Y004670D01*
X017652Y004607D01*
X017457Y004607D01*
X017330Y004659D01*
X017156Y004587D01*
X017054Y004587D01*
X017054Y005306D01*
X017054Y005306D01*
X017054Y004587D01*
X016953Y004587D01*
X016765Y004664D01*
X016622Y004808D01*
X016544Y004995D01*
X016544Y005307D01*
X017054Y005307D01*
X017054Y006027D01*
X017054Y006306D01*
X017054Y006306D01*
X017054Y005587D01*
X017054Y005307D01*
X017054Y005307D01*
X017054Y006307D01*
X017054Y007027D01*
X016953Y007027D01*
X016765Y006949D01*
X016622Y006806D01*
X016544Y006618D01*
X016544Y006307D01*
X017054Y006307D01*
X017054Y006307D01*
X017054Y007027D01*
X017074Y007027D01*
X017074Y007641D01*
X017059Y007656D01*
X017016Y007759D01*
X017016Y008855D01*
X017059Y008957D01*
X017138Y009036D01*
X017218Y009070D01*
X017218Y009544D01*
X017138Y009577D01*
X017059Y009656D01*
X017016Y009759D01*
X017016Y010855D01*
X017059Y010957D01*
X017138Y011036D01*
X017241Y011079D01*
X017750Y011079D01*
X017775Y011104D01*
X017775Y011558D01*
X017738Y011521D01*
X017628Y011475D01*
X017253Y011475D01*
X017253Y012306D01*
X017253Y012306D01*
X017253Y011475D01*
X016878Y011475D01*
X016768Y011521D01*
X016684Y011605D01*
X016638Y011716D01*
X016638Y012307D01*
X017252Y012307D01*
X017252Y012307D01*
X016638Y012307D01*
X016638Y012898D01*
X016684Y013008D01*
X016768Y013093D01*
X016878Y013138D01*
X017253Y013138D01*
X017253Y012307D01*
X017253Y012307D01*
X017253Y013138D01*
X017628Y013138D01*
X017738Y013093D01*
X017818Y013012D01*
X017882Y013076D01*
X017985Y013118D01*
X018726Y013118D01*
X018829Y013076D01*
X018908Y012997D01*
X018950Y012894D01*
X018950Y012387D01*
X019258Y012387D01*
X019271Y012399D01*
X019374Y012442D01*
X020115Y012442D01*
X020218Y012399D01*
X020297Y012320D01*
X020304Y012302D01*
X020312Y012320D01*
X020390Y012399D01*
X020493Y012442D01*
X020498Y012442D01*
X020453Y012550D01*
X020453Y012807D01*
X020969Y012807D01*
X020969Y012807D01*
X020969Y013304D01*
X020693Y013304D01*
X020583Y013258D01*
X020499Y013174D01*
X020453Y013063D01*
X020453Y012807D01*
X020969Y012807D01*
X020970Y012807D01*
X020970Y013304D01*
X021159Y013304D01*
X021159Y013310D01*
X020970Y013310D01*
X020970Y013806D01*
X020969Y013806D01*
X020969Y013310D01*
X020693Y013310D01*
X020583Y013356D01*
X020499Y013440D01*
X020453Y013550D01*
X020453Y013807D01*
X020969Y013807D01*
X020969Y013807D01*
X020969Y014304D01*
X020693Y014304D01*
X020583Y014258D01*
X020499Y014174D01*
X020453Y014063D01*
X020453Y013807D01*
X020969Y013807D01*
X020970Y013807D01*
X020970Y014304D01*
X021246Y014304D01*
X021330Y014269D01*
X021366Y014284D01*
X021536Y014284D01*
X021543Y014287D01*
X021638Y014287D01*
X021834Y014483D01*
X021834Y015507D01*
X021804Y015507D01*
X021694Y015552D01*
X021610Y015637D01*
X021564Y015747D01*
X021564Y016807D01*
X021834Y016807D01*
X021834Y016807D01*
X021564Y016807D01*
X021564Y017866D01*
X021610Y017977D01*
X021694Y018061D01*
X021804Y018107D01*
X021834Y018107D01*
X021834Y018109D01*
X021834Y018244D01*
X021886Y018369D01*
X022324Y018808D01*
X022324Y018902D01*
X022397Y019079D01*
X022532Y019214D01*
X022709Y019287D01*
X023900Y019287D01*
X024076Y019214D01*
X024211Y019079D01*
X024284Y018902D01*
X024284Y018711D01*
X024211Y018535D01*
X024076Y018400D01*
X023900Y018327D01*
X022805Y018327D01*
X022565Y018087D01*
X022790Y018087D01*
X022799Y018083D01*
X022808Y018087D01*
X023040Y018087D01*
X023049Y018083D01*
X023058Y018087D01*
X023290Y018087D01*
X023299Y018083D01*
X023308Y018087D01*
X023540Y018087D01*
X023549Y018083D01*
X023558Y018087D01*
X023790Y018087D01*
X023799Y018083D01*
X023808Y018087D01*
X024040Y018087D01*
X024049Y018083D01*
X024058Y018087D01*
X024290Y018087D01*
X024299Y018083D01*
X024308Y018087D01*
X024540Y018087D01*
X024549Y018083D01*
X024558Y018087D01*
X024790Y018087D01*
X024799Y018083D01*
X024808Y018087D01*
X025040Y018087D01*
X025049Y018083D01*
X025058Y018087D01*
X025290Y018087D01*
X025299Y018083D01*
X025308Y018087D01*
X025540Y018087D01*
X025549Y018083D01*
X025558Y018087D01*
X025790Y018087D01*
X025799Y018083D01*
X025808Y018087D01*
X026040Y018087D01*
X026049Y018083D01*
X026058Y018087D01*
X026290Y018087D01*
X026299Y018083D01*
X026308Y018087D01*
X026540Y018087D01*
X026549Y018083D01*
X026558Y018087D01*
X026790Y018087D01*
X026799Y018083D01*
X026808Y018087D01*
X027040Y018087D01*
X027049Y018083D01*
X027058Y018087D01*
X027290Y018087D01*
X027299Y018083D01*
X027308Y018087D01*
X027540Y018087D01*
X027549Y018083D01*
X027558Y018087D01*
X027790Y018087D01*
X027799Y018083D01*
X027808Y018087D01*
X028040Y018087D01*
X028049Y018083D01*
X028058Y018087D01*
X028290Y018087D01*
X028299Y018083D01*
X028308Y018087D01*
X028540Y018087D01*
X028549Y018083D01*
X028558Y018087D01*
X028790Y018087D01*
X028799Y018083D01*
X028808Y018087D01*
X029040Y018087D01*
X029049Y018083D01*
X029058Y018087D01*
X029290Y018087D01*
X029299Y018083D01*
X029308Y018087D01*
X029540Y018087D01*
X029549Y018083D01*
X029558Y018087D01*
X029790Y018087D01*
X029799Y018083D01*
X029808Y018087D01*
X030040Y018087D01*
X030049Y018083D01*
X030058Y018087D01*
X030290Y018087D01*
X030299Y018083D01*
X030308Y018087D01*
X030540Y018087D01*
X030549Y018083D01*
X030558Y018087D01*
X030790Y018087D01*
X030799Y018083D01*
X030808Y018087D01*
X031040Y018087D01*
X031049Y018083D01*
X031058Y018087D01*
X031084Y018087D01*
X031084Y018407D01*
X031083Y018407D01*
X031076Y018400D01*
X030900Y018327D01*
X029709Y018327D01*
X029532Y018400D01*
X029397Y018535D01*
X029324Y018711D01*
X029324Y018902D01*
X029397Y019079D01*
X029532Y019214D01*
X029709Y019287D01*
X030900Y019287D01*
X031076Y019214D01*
X031083Y019207D01*
X031338Y019207D01*
X030718Y019827D01*
X030209Y019827D01*
X030032Y019900D01*
X029897Y020035D01*
X029824Y020211D01*
X029824Y020402D01*
X029824Y021402D01*
X029897Y021579D01*
X030032Y021714D01*
X030209Y021787D01*
X030400Y021787D01*
X030576Y021714D01*
X030711Y021579D01*
X030784Y021402D01*
X030784Y020787D01*
X030900Y020787D01*
X031076Y020714D01*
X031211Y020579D01*
X031284Y020402D01*
X031284Y020392D01*
X032004Y019672D01*
X032004Y019677D01*
X032098Y019677D01*
X032098Y019677D01*
X032098Y019677D01*
X032004Y019677D01*
X032004Y019796D01*
X032024Y019845D01*
X032024Y020009D01*
X032004Y020057D01*
X032004Y020177D01*
X032098Y020177D01*
X032098Y020177D01*
X032098Y020177D01*
X032004Y020177D01*
X032004Y020296D01*
X032024Y020345D01*
X032024Y020509D01*
X032004Y020557D01*
X032004Y020587D01*
X032002Y020587D01*
X031866Y020587D01*
X031741Y020639D01*
X031611Y020769D01*
X031516Y020864D01*
X031479Y020953D01*
X031397Y021035D01*
X031324Y021211D01*
X031324Y022402D01*
X031397Y022579D01*
X031532Y022714D01*
X031709Y022787D01*
X031900Y022787D01*
X032024Y022735D01*
X032024Y022792D01*
X032028Y022802D01*
X032024Y022811D01*
X032024Y023042D01*
X032028Y023052D01*
X032024Y023061D01*
X032024Y023292D01*
X032028Y023302D01*
X032024Y023311D01*
X032024Y023542D01*
X032028Y023552D01*
X032024Y023561D01*
X032024Y023792D01*
X032028Y023802D01*
X032024Y023811D01*
X032024Y024042D01*
X032028Y024052D01*
X032024Y024061D01*
X032024Y024292D01*
X032028Y024302D01*
X032024Y024311D01*
X032024Y024542D01*
X032028Y024552D01*
X032024Y024561D01*
X032024Y024792D01*
X032028Y024802D01*
X032024Y024811D01*
X032024Y025042D01*
X032028Y025052D01*
X032024Y025061D01*
X032024Y025292D01*
X032028Y025302D01*
X032024Y025311D01*
X032024Y025542D01*
X032028Y025552D01*
X032024Y025561D01*
X032024Y025792D01*
X032028Y025802D01*
X032024Y025811D01*
X032024Y026042D01*
X032028Y026052D01*
X032024Y026061D01*
X032024Y026292D01*
X032028Y026302D01*
X032024Y026311D01*
X032024Y026542D01*
X032028Y026552D01*
X032024Y026561D01*
X032024Y026792D01*
X032028Y026802D01*
X032024Y026811D01*
X032024Y027042D01*
X032028Y027052D01*
X032024Y027061D01*
X032024Y027292D01*
X032028Y027302D01*
X032024Y027311D01*
X032024Y027542D01*
X032028Y027552D01*
X032024Y027561D01*
X032024Y027792D01*
X032028Y027802D01*
X032024Y027811D01*
X032024Y028042D01*
X032028Y028052D01*
X032024Y028061D01*
X032024Y028292D01*
X032067Y028395D01*
X032145Y028474D01*
X032248Y028517D01*
X034360Y028517D01*
X034384Y028507D01*
X034836Y028507D01*
X037422Y031092D01*
X037377Y031137D01*
X037402Y031163D01*
X037402Y031163D01*
X037376Y031138D01*
X037314Y031200D01*
X037314Y031200D01*
X037238Y031276D01*
X037263Y031302D01*
X037263Y031302D01*
X037263Y031303D01*
X037237Y031277D01*
X037175Y031339D01*
X037175Y031339D01*
X037098Y031416D01*
X037124Y031442D01*
X037124Y031441D01*
X037098Y031416D01*
X037021Y031493D01*
X036976Y031603D01*
X036976Y031723D01*
X037021Y031833D01*
X037286Y032097D01*
X037533Y031851D01*
X037533Y031851D01*
X037425Y031959D01*
X037286Y032098D01*
X037551Y032362D01*
X037661Y032408D01*
X037781Y032408D01*
X037891Y032362D01*
X037968Y032286D01*
X037942Y032260D01*
X037942Y032260D01*
X037968Y032285D01*
X038030Y032223D01*
X038030Y032223D01*
X038041Y032212D01*
X038045Y032209D01*
X038045Y032208D01*
X038107Y032146D01*
X038081Y032120D01*
X038081Y032121D02*
X038081Y032121D01*
X038107Y032146D01*
X038169Y032084D01*
X038169Y032084D01*
X038246Y032007D01*
X038220Y031982D01*
X038220Y031981D01*
X038221Y031981D01*
X038246Y032007D01*
X038323Y031930D01*
X038323Y031930D01*
X038385Y031868D01*
X038360Y031842D01*
X038360Y031842D01*
X038385Y031868D01*
X038462Y031791D01*
X038482Y031743D01*
X038585Y031640D01*
X038585Y031640D01*
X038695Y031530D01*
X038855Y031690D01*
X038077Y032468D01*
X037402Y033143D01*
X037315Y033143D01*
X037185Y033014D01*
X037149Y032999D01*
X037114Y032914D01*
X036919Y032719D01*
X036568Y033070D01*
X036568Y033070D01*
X036919Y032719D01*
X036723Y032524D01*
X036613Y032478D01*
X036494Y032478D01*
X036384Y032524D01*
X036202Y032705D01*
X036567Y033070D01*
X036567Y033070D01*
X036216Y033421D01*
X036021Y033226D01*
X035975Y033116D01*
X035975Y032996D01*
X036021Y032886D01*
X036202Y032705D01*
X036567Y033070D01*
X036567Y033071D01*
X036216Y033422D01*
X036411Y033617D01*
X036496Y033652D01*
X036511Y033688D01*
X036896Y034073D01*
X036999Y034116D01*
X037110Y034116D01*
X037167Y034092D01*
X037167Y034150D01*
X037228Y034297D01*
X037495Y034563D01*
X037495Y034640D01*
X037538Y034743D01*
X037895Y035100D01*
X037977Y035134D01*
X038011Y035216D01*
X038368Y035573D01*
X038471Y035616D01*
X038495Y035616D01*
X038495Y035640D01*
X038538Y035743D01*
X038895Y036100D01*
X038951Y036123D01*
X038994Y036227D01*
X039175Y036408D01*
X039540Y036044D01*
X039541Y036044D01*
X039892Y036395D01*
X039697Y036590D01*
X039586Y036636D01*
X039467Y036636D01*
X039357Y036590D01*
X039176Y036409D01*
X039541Y036044D01*
X039541Y036044D01*
X039892Y036395D01*
X040087Y036199D01*
X040133Y036089D01*
X040133Y035970D01*
X040087Y035860D01*
X039906Y035678D01*
X039541Y036043D01*
X039541Y036043D01*
X039906Y035678D01*
X039725Y035497D01*
X039642Y035462D01*
X040299Y034805D01*
X040495Y035001D01*
X040495Y035112D01*
X040538Y035215D01*
X040923Y035600D01*
X040959Y035615D01*
X040994Y035699D01*
X041189Y035895D01*
X041540Y035544D01*
X041541Y035544D01*
X041906Y035909D01*
X041725Y036090D01*
X041614Y036136D01*
X041495Y036136D01*
X041385Y036090D01*
X041189Y035895D01*
X041541Y035544D01*
X041541Y035544D01*
X041906Y035908D01*
X042087Y035727D01*
X042133Y035617D01*
X042133Y035498D01*
X042087Y035387D01*
X041892Y035192D01*
X041541Y035543D01*
X041541Y035543D01*
X041892Y035192D01*
X041697Y034997D01*
X041612Y034962D01*
X041597Y034925D01*
X041212Y034540D01*
X041109Y034498D01*
X040998Y034498D01*
X040946Y034519D01*
X040566Y034138D01*
X040566Y034138D01*
X040553Y034126D01*
X040673Y034007D01*
X040673Y034007D01*
X040783Y033897D01*
X047630Y040744D01*
X047722Y040836D01*
X047844Y040887D01*
X048231Y040887D01*
X048316Y040972D01*
X048497Y041047D01*
X049112Y041047D01*
X049136Y041037D01*
X049473Y041037D01*
X049497Y041047D01*
X050112Y041047D01*
X050292Y040972D01*
X050429Y040834D01*
X050504Y040654D01*
X050504Y040459D01*
X050441Y040307D01*
X050504Y040154D01*
X051404Y040154D01*
X051404Y040552D02*
X050504Y040552D01*
X050504Y040154D02*
X050504Y039959D01*
X050441Y039807D01*
X050504Y039654D01*
X050504Y039459D01*
X050441Y039307D01*
X050504Y039154D01*
X050504Y038959D01*
X050441Y038807D01*
X050504Y038654D01*
X050504Y038459D01*
X050441Y038307D01*
X050504Y038154D01*
X050504Y037959D01*
X050441Y037807D01*
X050504Y037654D01*
X050504Y037459D01*
X050441Y037307D01*
X050504Y037154D01*
X050504Y036959D01*
X050441Y036807D01*
X050504Y036654D01*
X050504Y036459D01*
X050441Y036307D01*
X050504Y036154D01*
X050504Y035959D01*
X050441Y035807D01*
X050504Y035654D01*
X050504Y035459D01*
X050441Y035307D01*
X050504Y035154D01*
X050504Y034959D01*
X050441Y034807D01*
X050504Y034654D01*
X050504Y034459D01*
X050441Y034307D01*
X050504Y034154D01*
X050504Y033959D01*
X050441Y033807D01*
X050504Y033654D01*
X050504Y033459D01*
X050441Y033307D01*
X050504Y033154D01*
X050504Y032959D01*
X050441Y032807D01*
X050504Y032654D01*
X050504Y032459D01*
X050441Y032307D01*
X050504Y032154D01*
X050504Y031959D01*
X050441Y031807D01*
X050504Y031654D01*
X050504Y031459D01*
X050441Y031307D01*
X050504Y031154D01*
X050504Y030959D01*
X050441Y030807D01*
X050504Y030654D01*
X050504Y030459D01*
X050441Y030307D01*
X050504Y030154D01*
X050504Y029959D01*
X050441Y029807D01*
X050504Y029654D01*
X050504Y029459D01*
X050441Y029307D01*
X050504Y029154D01*
X050504Y028959D01*
X050441Y028807D01*
X050504Y028654D01*
X050504Y028459D01*
X050441Y028307D01*
X050504Y028154D01*
X050504Y027959D01*
X050441Y027807D01*
X050504Y027654D01*
X050504Y027459D01*
X050441Y027307D01*
X050504Y027154D01*
X050504Y026959D01*
X050441Y026807D01*
X050504Y026654D01*
X050504Y026459D01*
X050452Y026333D01*
X050524Y026158D01*
X050524Y026057D01*
X049804Y026057D01*
X049804Y026057D01*
X050524Y026057D01*
X050524Y025955D01*
X050446Y025768D01*
X050303Y025624D01*
X050116Y025547D01*
X049804Y025547D01*
X049804Y026056D01*
X049804Y026056D01*
X049804Y025547D01*
X049493Y025547D01*
X049305Y025624D01*
X049289Y025640D01*
X049112Y025567D01*
X048790Y025567D01*
X048790Y025079D01*
X048868Y025079D01*
X048971Y025036D01*
X049049Y024957D01*
X049092Y024855D01*
X049092Y023759D01*
X049049Y023656D01*
X048971Y023577D01*
X048890Y023544D01*
X048890Y023070D01*
X048971Y023036D01*
X049049Y022957D01*
X049092Y022855D01*
X049092Y021759D01*
X049049Y021656D01*
X048971Y021577D01*
X048868Y021535D01*
X048217Y021535D01*
X048082Y021400D01*
X047905Y021327D01*
X047400Y021327D01*
X046709Y021327D01*
X046532Y021400D01*
X046397Y021535D01*
X046324Y021711D01*
X046324Y021902D01*
X046397Y022079D01*
X046532Y022214D01*
X046709Y022287D01*
X047400Y022287D01*
X047528Y022287D01*
X047528Y022855D01*
X047571Y022957D01*
X047649Y023036D01*
X047730Y023070D01*
X047730Y023544D01*
X047649Y023577D01*
X047571Y023656D01*
X047528Y023759D01*
X047528Y024855D01*
X047571Y024957D01*
X047649Y025036D01*
X047752Y025079D01*
X047830Y025079D01*
X047830Y025577D01*
X047253Y025577D01*
X046844Y025168D01*
X046844Y024393D01*
X046916Y024320D01*
X046959Y024217D01*
X046959Y023891D01*
X047046Y023804D01*
X047119Y023627D01*
X047119Y023436D01*
X047119Y023099D01*
X047135Y023059D01*
X047135Y022554D01*
X047093Y022451D01*
X047014Y022373D01*
X046911Y022330D01*
X046742Y022330D01*
X046734Y022327D01*
X046543Y022327D01*
X046536Y022330D01*
X046366Y022330D01*
X046330Y022345D01*
X046246Y022310D01*
X045970Y022310D01*
X045970Y022806D01*
X045969Y022806D01*
X045969Y022310D01*
X045693Y022310D01*
X045583Y022356D01*
X045554Y022384D01*
X045525Y022356D01*
X045415Y022310D01*
X045139Y022310D01*
X045139Y022806D01*
X045139Y022806D01*
X045139Y022807D02*
X045139Y022807D01*
X045453Y022807D01*
X045969Y022807D01*
X045969Y022807D01*
X045655Y022807D01*
X045139Y022807D01*
X045139Y022806D02*
X045139Y022310D01*
X044862Y022310D01*
X044778Y022345D01*
X044742Y022330D01*
X044573Y022330D01*
X044565Y022327D01*
X044374Y022327D01*
X044003Y022327D01*
X043980Y022304D01*
X044139Y022304D01*
X044139Y021807D01*
X044655Y021807D01*
X044655Y022063D01*
X044610Y022174D01*
X044525Y022258D01*
X044415Y022304D01*
X044139Y022304D01*
X044139Y021807D01*
X044139Y021807D01*
X044139Y021807D01*
X044655Y021807D01*
X044655Y021550D01*
X044610Y021440D01*
X044525Y021356D01*
X044415Y021310D01*
X044139Y021310D01*
X044139Y021806D01*
X044139Y021806D01*
X044139Y021310D01*
X043862Y021310D01*
X043778Y021345D01*
X043742Y021330D01*
X043573Y021330D01*
X043565Y021327D01*
X043374Y021327D01*
X043366Y021330D01*
X043197Y021330D01*
X043094Y021373D01*
X043060Y021407D01*
X042635Y021407D01*
X041867Y020639D01*
X041742Y020587D01*
X041606Y020587D01*
X037203Y020587D01*
X037503Y020287D01*
X038677Y020287D01*
X038717Y020303D01*
X039222Y020303D01*
X039304Y020269D01*
X039386Y020303D01*
X039891Y020303D01*
X039931Y020287D01*
X040065Y020287D01*
X040177Y020287D01*
X040217Y020303D01*
X040722Y020303D01*
X040804Y020269D01*
X040886Y020303D01*
X041391Y020303D01*
X041431Y020287D01*
X041565Y020287D01*
X041677Y020287D01*
X041717Y020303D01*
X042222Y020303D01*
X042304Y020269D01*
X042386Y020303D01*
X042456Y020303D01*
X042566Y020413D01*
X042701Y020548D01*
X042878Y020621D01*
X043709Y020621D01*
X044900Y020621D01*
X045900Y020621D01*
X046900Y020621D01*
X046907Y020618D01*
X047076Y020618D01*
X047179Y020576D01*
X047258Y020497D01*
X047301Y020394D01*
X047301Y019889D01*
X047267Y019807D01*
X047301Y019725D01*
X047301Y019220D01*
X047258Y019117D01*
X047179Y019038D01*
X047144Y019023D01*
X047144Y018453D01*
X047144Y018318D01*
X047092Y018193D01*
X046909Y018009D01*
X046909Y017928D01*
X046900Y017907D01*
X046900Y017874D01*
X046900Y017812D01*
X047308Y017812D01*
X047308Y017894D01*
X047324Y017934D01*
X047324Y018568D01*
X047327Y018575D01*
X047327Y018744D01*
X047342Y018781D01*
X047307Y018865D01*
X047307Y019141D01*
X047804Y019141D01*
X047804Y019142D01*
X047804Y019658D01*
X047548Y019658D01*
X047437Y019612D01*
X047353Y019528D01*
X047307Y019418D01*
X047307Y019142D01*
X047804Y019142D01*
X047804Y019142D01*
X047804Y019658D01*
X048061Y019658D01*
X048171Y019612D01*
X048255Y019528D01*
X048301Y019418D01*
X048301Y019142D01*
X047804Y019142D01*
X047804Y019141D01*
X048301Y019141D01*
X048301Y018865D01*
X048266Y018781D01*
X048281Y018744D01*
X048281Y018575D01*
X048284Y018568D01*
X048284Y017934D01*
X048301Y017894D01*
X048301Y017482D01*
X048397Y017579D01*
X048524Y017706D01*
X048524Y017812D01*
X048567Y017915D01*
X048645Y017994D01*
X048748Y018037D01*
X051404Y018037D01*
X051404Y018207D01*
X050854Y018207D01*
X050854Y018956D01*
X050754Y018956D01*
X050754Y018207D01*
X049744Y018207D01*
X049634Y018252D01*
X049550Y018337D01*
X049504Y018447D01*
X049504Y018957D01*
X050754Y018957D01*
X050754Y019057D01*
X050754Y019807D01*
X049744Y019807D01*
X049634Y019761D01*
X049550Y019677D01*
X049504Y019566D01*
X049504Y019057D01*
X050754Y019057D01*
X050854Y019057D01*
X050854Y019807D01*
X051404Y019807D01*
X051404Y042907D01*
X002204Y042907D01*
X002204Y042545D02*
X051404Y042545D01*
X051404Y042147D02*
X002204Y042147D01*
X002204Y041748D02*
X016620Y041748D01*
X016639Y041794D02*
X016564Y041614D01*
X016564Y040999D01*
X016574Y040975D01*
X016574Y040638D01*
X016564Y040614D01*
X016564Y039999D01*
X016639Y039819D01*
X016714Y039744D01*
X016714Y039739D01*
X016766Y039614D01*
X016861Y039519D01*
X021594Y034786D01*
X021594Y030862D01*
X021594Y028751D01*
X021598Y028741D01*
X021532Y028714D01*
X021397Y028579D01*
X021376Y028527D01*
X020372Y028527D01*
X019065Y028527D01*
X018758Y028834D01*
X018662Y028930D01*
X018537Y028981D01*
X017753Y028981D01*
X017738Y029017D01*
X017660Y029095D01*
X017557Y029138D01*
X017052Y029138D01*
X017012Y029121D01*
X016784Y029121D01*
X016784Y029211D01*
X016784Y029402D01*
X016711Y029579D01*
X016136Y030154D01*
X015959Y030227D01*
X015890Y030227D01*
X015818Y030299D01*
X015799Y030307D01*
X015818Y030314D01*
X015896Y030393D01*
X015939Y030496D01*
X015939Y031237D01*
X015896Y031340D01*
X015884Y031352D01*
X015884Y031422D01*
X015796Y031635D01*
X015633Y031798D01*
X015081Y032350D01*
X014868Y032438D01*
X014638Y032438D01*
X013927Y032438D01*
X013891Y032453D01*
X013529Y032453D01*
X012690Y033293D01*
X012477Y033381D01*
X012246Y033381D01*
X012067Y033381D01*
X012034Y033461D01*
X011955Y033540D01*
X011852Y033583D01*
X011294Y033583D01*
X011164Y033637D01*
X010933Y033637D01*
X009941Y033637D01*
X009908Y033717D01*
X009829Y033796D01*
X009726Y033839D01*
X007882Y033839D01*
X007779Y033796D01*
X007701Y033717D01*
X007658Y033614D01*
X007658Y033537D01*
X005136Y033537D01*
X005112Y033547D01*
X004497Y033547D01*
X004472Y033537D01*
X004136Y033537D01*
X004112Y033547D01*
X003497Y033547D01*
X003316Y033472D01*
X003179Y033334D01*
X003104Y033154D01*
X003104Y032959D01*
X003156Y032833D01*
X003084Y032658D01*
X003084Y032557D01*
X003804Y032557D01*
X004804Y032557D01*
X004804Y032557D01*
X004524Y032557D01*
X003804Y032557D01*
X003804Y032557D01*
X003804Y032557D01*
X003084Y032557D01*
X003084Y032455D01*
X003156Y032281D01*
X003104Y032154D01*
X003104Y031959D01*
X003167Y031807D01*
X003104Y031654D01*
X003104Y031459D01*
X003156Y031333D01*
X003084Y031158D01*
X003084Y031057D01*
X003804Y031057D01*
X004804Y031057D01*
X004804Y031057D01*
X004524Y031057D01*
X003804Y031057D01*
X003804Y031057D01*
X003804Y031057D01*
X003084Y031057D01*
X003084Y030955D01*
X003156Y030781D01*
X003104Y030654D01*
X003104Y030459D01*
X003167Y030307D01*
X003104Y030154D01*
X003104Y029959D01*
X003167Y029807D01*
X003104Y029654D01*
X003104Y029459D01*
X003167Y029307D01*
X003104Y029154D01*
X003104Y028959D01*
X003167Y028807D01*
X003104Y028654D01*
X003104Y028459D01*
X003167Y028307D01*
X003104Y028154D01*
X003104Y027959D01*
X003167Y027807D01*
X003104Y027654D01*
X003104Y027459D01*
X003167Y027307D01*
X003104Y027154D01*
X003104Y026959D01*
X003167Y026807D01*
X003104Y026654D01*
X003104Y026459D01*
X003167Y026307D01*
X003104Y026154D01*
X003104Y025959D01*
X003167Y025807D01*
X003104Y025654D01*
X003104Y025459D01*
X003167Y025307D01*
X003104Y025154D01*
X003104Y024959D01*
X003167Y024807D01*
X003104Y024654D01*
X003104Y024459D01*
X003167Y024307D01*
X003104Y024154D01*
X003104Y023959D01*
X003167Y023807D01*
X003104Y023654D01*
X003104Y023459D01*
X003167Y023307D01*
X003104Y023154D01*
X003104Y022959D01*
X003167Y022807D01*
X003104Y022654D01*
X003104Y022459D01*
X003167Y022307D01*
X003104Y022154D01*
X003104Y021959D01*
X003167Y021807D01*
X003104Y021654D01*
X003104Y021459D01*
X003167Y021307D01*
X003104Y021154D01*
X003104Y020959D01*
X003167Y020807D01*
X003104Y020654D01*
X003104Y020459D01*
X003167Y020307D01*
X003104Y020154D01*
X003104Y019959D01*
X003167Y019807D01*
X003104Y019654D01*
X003104Y019459D01*
X003167Y019307D01*
X003104Y019154D01*
X003104Y018959D01*
X003167Y018807D01*
X003104Y018654D01*
X003104Y018459D01*
X003167Y018307D01*
X003104Y018154D01*
X003104Y017959D01*
X003167Y017807D01*
X003104Y017654D01*
X003104Y017459D01*
X003167Y017307D01*
X003104Y017154D01*
X003104Y016959D01*
X003167Y016807D01*
X003104Y016654D01*
X003104Y016459D01*
X003167Y016307D01*
X003104Y016154D01*
X003104Y015959D01*
X003167Y015807D01*
X003104Y015654D01*
X003104Y015459D01*
X003167Y015307D01*
X003104Y015154D01*
X003104Y014959D01*
X003167Y014807D01*
X003104Y014654D01*
X003104Y014459D01*
X003167Y014307D01*
X003104Y014154D01*
X003104Y013959D01*
X003167Y013807D01*
X003104Y013654D01*
X003104Y013459D01*
X003179Y013279D01*
X003316Y013141D01*
X003497Y013067D01*
X004112Y013067D01*
X004136Y013077D01*
X004472Y013077D01*
X004497Y013067D01*
X005112Y013067D01*
X005136Y013077D01*
X006459Y013077D01*
X006650Y013077D01*
X006826Y013150D01*
X007663Y013987D01*
X007701Y013896D01*
X007779Y013817D01*
X007882Y013775D01*
X009726Y013775D01*
X009829Y013817D01*
X009908Y013896D01*
X009950Y013999D01*
X009950Y014721D01*
X010541Y014721D01*
X010575Y014640D01*
X010653Y014562D01*
X010756Y014519D01*
X011852Y014519D01*
X011955Y014562D01*
X012034Y014640D01*
X012076Y014743D01*
X012076Y015253D01*
X012101Y015278D01*
X012556Y015278D01*
X012518Y015240D01*
X012473Y015130D01*
X012473Y014756D01*
X013304Y014756D01*
X013304Y014755D01*
X013304Y014755D01*
X013304Y014141D01*
X012713Y014141D01*
X012603Y014186D01*
X012518Y014271D01*
X012473Y014381D01*
X012473Y014755D01*
X013304Y014755D01*
X013304Y014141D01*
X013895Y014141D01*
X014006Y014186D01*
X014090Y014271D01*
X014136Y014381D01*
X014136Y014755D01*
X013304Y014755D01*
X013304Y014756D01*
X014136Y014756D01*
X014136Y015130D01*
X014090Y015240D01*
X014009Y015321D01*
X014073Y015384D01*
X014116Y015487D01*
X014116Y015667D01*
X014857Y015667D01*
X014893Y015652D01*
X015715Y015652D01*
X015818Y015695D01*
X015896Y015773D01*
X015939Y015876D01*
X015939Y016618D01*
X015896Y016720D01*
X015818Y016799D01*
X015799Y016807D01*
X015818Y016814D01*
X015896Y016893D01*
X015939Y016996D01*
X015939Y017001D01*
X016048Y016956D01*
X016304Y016956D01*
X016304Y017472D01*
X016304Y017472D01*
X016304Y016956D01*
X016561Y016956D01*
X016671Y017001D01*
X016755Y017086D01*
X016801Y017196D01*
X016801Y017472D01*
X016304Y017472D01*
X016304Y017472D01*
X016801Y017472D01*
X016801Y017661D01*
X016807Y017661D01*
X016807Y017472D01*
X016807Y017196D01*
X016853Y017086D01*
X016937Y017001D01*
X017048Y016956D01*
X017304Y016956D01*
X017304Y017472D01*
X017304Y017472D01*
X016807Y017472D01*
X017304Y017472D01*
X017304Y017472D01*
X017304Y016956D01*
X017561Y016956D01*
X017671Y017001D01*
X017755Y017086D01*
X017801Y017196D01*
X017801Y017472D01*
X017304Y017472D01*
X017304Y017472D01*
X017801Y017472D01*
X017801Y017748D01*
X017766Y017833D01*
X017781Y017869D01*
X017781Y018038D01*
X017784Y018046D01*
X017784Y018097D01*
X019248Y018097D01*
X021360Y018097D01*
X021366Y018097D01*
X021502Y018097D01*
X021627Y018149D01*
X021997Y018519D01*
X022092Y018614D01*
X022144Y018739D01*
X022144Y018968D01*
X022211Y019035D01*
X022284Y019211D01*
X022284Y020402D01*
X022211Y020579D01*
X022076Y020714D01*
X021900Y020787D01*
X021709Y020787D01*
X021584Y020735D01*
X021584Y020802D01*
X021580Y020812D01*
X021584Y020821D01*
X021584Y021052D01*
X021580Y021062D01*
X021584Y021071D01*
X021584Y021302D01*
X021580Y021312D01*
X021584Y021321D01*
X021584Y021552D01*
X021580Y021562D01*
X021584Y021571D01*
X021584Y021802D01*
X021580Y021812D01*
X021584Y021821D01*
X021584Y022052D01*
X021580Y022062D01*
X021584Y022071D01*
X021584Y022302D01*
X021580Y022312D01*
X021584Y022321D01*
X021584Y022552D01*
X021580Y022562D01*
X021584Y022571D01*
X021584Y022802D01*
X021580Y022812D01*
X021584Y022821D01*
X021584Y023052D01*
X021580Y023062D01*
X021584Y023071D01*
X021584Y023302D01*
X021580Y023312D01*
X021584Y023321D01*
X021584Y023552D01*
X021580Y023562D01*
X021584Y023571D01*
X021584Y023802D01*
X021580Y023812D01*
X021584Y023821D01*
X021584Y024052D01*
X021580Y024062D01*
X021584Y024071D01*
X021584Y024302D01*
X021580Y024312D01*
X021584Y024321D01*
X021584Y024552D01*
X021580Y024562D01*
X021584Y024571D01*
X021584Y024802D01*
X021580Y024812D01*
X021584Y024821D01*
X021584Y025052D01*
X021580Y025062D01*
X021584Y025071D01*
X021584Y025302D01*
X021580Y025312D01*
X021584Y025321D01*
X021584Y025552D01*
X021580Y025562D01*
X021584Y025571D01*
X021584Y025802D01*
X021580Y025812D01*
X021584Y025821D01*
X021584Y026052D01*
X021580Y026062D01*
X021584Y026071D01*
X021584Y026302D01*
X021580Y026312D01*
X021584Y026321D01*
X021584Y026378D01*
X021709Y026327D01*
X022900Y026327D01*
X023076Y026400D01*
X023211Y026535D01*
X023284Y026711D01*
X023284Y026902D01*
X023211Y027079D01*
X023076Y027214D01*
X022900Y027287D01*
X021709Y027287D01*
X021684Y027277D01*
X021606Y027277D01*
X021604Y027277D01*
X021604Y027306D01*
X021584Y027355D01*
X021584Y027552D01*
X021580Y027562D01*
X021584Y027571D01*
X021584Y027769D01*
X021604Y027817D01*
X021604Y027847D01*
X021616Y027847D01*
X021660Y027847D01*
X021709Y027827D01*
X022900Y027827D01*
X023076Y027900D01*
X023211Y028035D01*
X023284Y028211D01*
X023284Y028402D01*
X023232Y028527D01*
X023300Y028527D01*
X023309Y028531D01*
X023318Y028527D01*
X023550Y028527D01*
X023559Y028531D01*
X023568Y028527D01*
X023800Y028527D01*
X023809Y028531D01*
X023818Y028527D01*
X024050Y028527D01*
X024059Y028531D01*
X024068Y028527D01*
X024300Y028527D01*
X024309Y028531D01*
X024318Y028527D01*
X024550Y028527D01*
X024559Y028531D01*
X024568Y028527D01*
X024800Y028527D01*
X024809Y028531D01*
X024818Y028527D01*
X025050Y028527D01*
X025059Y028531D01*
X025068Y028527D01*
X025300Y028527D01*
X025309Y028531D01*
X025318Y028527D01*
X025550Y028527D01*
X025559Y028531D01*
X025568Y028527D01*
X025800Y028527D01*
X025809Y028531D01*
X025818Y028527D01*
X026050Y028527D01*
X026059Y028531D01*
X026068Y028527D01*
X026300Y028527D01*
X026309Y028531D01*
X026318Y028527D01*
X026550Y028527D01*
X026559Y028531D01*
X026568Y028527D01*
X026800Y028527D01*
X026809Y028531D01*
X026818Y028527D01*
X027050Y028527D01*
X027059Y028531D01*
X027068Y028527D01*
X027300Y028527D01*
X027309Y028531D01*
X027318Y028527D01*
X027550Y028527D01*
X027559Y028531D01*
X027568Y028527D01*
X027800Y028527D01*
X027809Y028531D01*
X027818Y028527D01*
X028050Y028527D01*
X028059Y028531D01*
X028068Y028527D01*
X028300Y028527D01*
X028309Y028531D01*
X028318Y028527D01*
X028550Y028527D01*
X028559Y028531D01*
X028568Y028527D01*
X028800Y028527D01*
X028809Y028531D01*
X028818Y028527D01*
X029050Y028527D01*
X029059Y028531D01*
X029068Y028527D01*
X029300Y028527D01*
X029309Y028531D01*
X029318Y028527D01*
X029550Y028527D01*
X029559Y028531D01*
X029568Y028527D01*
X029800Y028527D01*
X029809Y028531D01*
X029818Y028527D01*
X030050Y028527D01*
X030059Y028531D01*
X030068Y028527D01*
X030300Y028527D01*
X030309Y028531D01*
X030318Y028527D01*
X030550Y028527D01*
X030559Y028531D01*
X030568Y028527D01*
X030800Y028527D01*
X030809Y028531D01*
X030818Y028527D01*
X030876Y028527D01*
X030824Y028402D01*
X030824Y027711D01*
X030897Y027535D01*
X031032Y027400D01*
X031209Y027327D01*
X031400Y027327D01*
X031576Y027400D01*
X031711Y027535D01*
X031784Y027711D01*
X031784Y028402D01*
X031774Y028426D01*
X031774Y028504D01*
X031774Y028507D01*
X031804Y028507D01*
X031914Y028552D01*
X031998Y028637D01*
X032044Y028747D01*
X032044Y029807D01*
X032044Y030866D01*
X031998Y030977D01*
X031914Y031061D01*
X031804Y031107D01*
X031774Y031107D01*
X031774Y032131D01*
X031973Y032330D01*
X032242Y032330D01*
X032278Y032345D01*
X032362Y032310D01*
X032639Y032310D01*
X032915Y032310D01*
X033025Y032356D01*
X033110Y032440D01*
X033155Y032550D01*
X033155Y032807D01*
X033155Y033063D01*
X033110Y033174D01*
X033025Y033258D01*
X032915Y033304D01*
X032639Y033304D01*
X032639Y032807D01*
X033155Y032807D01*
X032639Y032807D01*
X032639Y032807D01*
X032639Y032807D01*
X032639Y033304D01*
X032369Y033304D01*
X032369Y033310D01*
X032639Y033310D01*
X032915Y033310D01*
X033025Y033356D01*
X033110Y033440D01*
X033155Y033550D01*
X033155Y033807D01*
X033155Y034063D01*
X033110Y034172D01*
X033115Y034172D01*
X033218Y034214D01*
X033297Y034293D01*
X033304Y034311D01*
X033312Y034293D01*
X033390Y034214D01*
X033493Y034172D01*
X034235Y034172D01*
X034337Y034214D01*
X034416Y034293D01*
X034459Y034396D01*
X034459Y035217D01*
X034444Y035253D01*
X034444Y035495D01*
X034624Y035495D01*
X034726Y035538D01*
X034790Y035601D01*
X034870Y035521D01*
X034981Y035475D01*
X035355Y035475D01*
X035355Y036306D01*
X035355Y036306D01*
X035355Y035475D01*
X035730Y035475D01*
X035840Y035521D01*
X035925Y035605D01*
X035970Y035716D01*
X035970Y036307D01*
X035970Y036898D01*
X035925Y037008D01*
X035840Y037093D01*
X035730Y037138D01*
X035355Y037138D01*
X034981Y037138D01*
X034938Y037121D01*
X035544Y037727D01*
X035689Y037727D01*
X037041Y037727D01*
X037071Y037656D01*
X037149Y037577D01*
X037252Y037535D01*
X038368Y037535D01*
X038471Y037577D01*
X038549Y037656D01*
X038592Y037759D01*
X038592Y038855D01*
X038549Y038957D01*
X038471Y039036D01*
X038390Y039070D01*
X038390Y039661D01*
X039112Y039661D01*
X039215Y039703D01*
X039293Y039782D01*
X039336Y039885D01*
X039336Y041729D01*
X039293Y041831D01*
X039215Y041910D01*
X039112Y041953D01*
X037996Y041953D01*
X037894Y041910D01*
X037815Y041831D01*
X037772Y041729D01*
X037772Y040845D01*
X037481Y040554D01*
X037318Y040391D01*
X037230Y040178D01*
X037230Y039070D01*
X037149Y039036D01*
X037071Y038957D01*
X037041Y038887D01*
X036534Y038887D01*
X036534Y039587D01*
X036554Y039587D01*
X036554Y040306D01*
X036554Y040306D01*
X036554Y039587D01*
X036656Y039587D01*
X036843Y039664D01*
X036986Y039808D01*
X037064Y039995D01*
X037064Y040307D01*
X037064Y040618D01*
X036986Y040806D01*
X036970Y040822D01*
X037044Y040999D01*
X037044Y041614D01*
X036969Y041794D01*
X036832Y041932D01*
X036652Y042007D01*
X036457Y042007D01*
X036304Y041944D01*
X036152Y042007D01*
X035957Y042007D01*
X035804Y041944D01*
X035652Y042007D01*
X035457Y042007D01*
X035304Y041944D01*
X035152Y042007D01*
X034957Y042007D01*
X034804Y041944D01*
X034652Y042007D01*
X034457Y042007D01*
X034304Y041944D01*
X034152Y042007D01*
X033957Y042007D01*
X033804Y041944D01*
X033652Y042007D01*
X033457Y042007D01*
X033304Y041944D01*
X033152Y042007D01*
X032957Y042007D01*
X032804Y041944D01*
X032652Y042007D01*
X032457Y042007D01*
X032304Y041944D01*
X032152Y042007D01*
X031957Y042007D01*
X031804Y041944D01*
X031652Y042007D01*
X031457Y042007D01*
X031304Y041944D01*
X031152Y042007D01*
X030957Y042007D01*
X030804Y041944D01*
X030652Y042007D01*
X030457Y042007D01*
X030304Y041944D01*
X030152Y042007D01*
X029957Y042007D01*
X029804Y041944D01*
X029652Y042007D01*
X029457Y042007D01*
X029304Y041944D01*
X029152Y042007D01*
X028957Y042007D01*
X028804Y041944D01*
X028652Y042007D01*
X028457Y042007D01*
X028304Y041944D01*
X028152Y042007D01*
X027957Y042007D01*
X027804Y041944D01*
X027652Y042007D01*
X027457Y042007D01*
X027304Y041944D01*
X027152Y042007D01*
X026957Y042007D01*
X026804Y041944D01*
X026652Y042007D01*
X026457Y042007D01*
X026304Y041944D01*
X026152Y042007D01*
X025957Y042007D01*
X025804Y041944D01*
X025652Y042007D01*
X025457Y042007D01*
X025304Y041944D01*
X025152Y042007D01*
X024957Y042007D01*
X024804Y041944D01*
X024652Y042007D01*
X024457Y042007D01*
X024304Y041944D01*
X024152Y042007D01*
X023957Y042007D01*
X023804Y041944D01*
X023652Y042007D01*
X023457Y042007D01*
X023304Y041944D01*
X023152Y042007D01*
X022957Y042007D01*
X022804Y041944D01*
X022652Y042007D01*
X022457Y042007D01*
X022304Y041944D01*
X022152Y042007D01*
X021957Y042007D01*
X021804Y041944D01*
X021652Y042007D01*
X021457Y042007D01*
X021304Y041944D01*
X021152Y042007D01*
X020957Y042007D01*
X020804Y041944D01*
X020652Y042007D01*
X020457Y042007D01*
X020304Y041944D01*
X020152Y042007D01*
X019957Y042007D01*
X019804Y041944D01*
X019652Y042007D01*
X019457Y042007D01*
X019304Y041944D01*
X019152Y042007D01*
X018957Y042007D01*
X018804Y041944D01*
X018652Y042007D01*
X018457Y042007D01*
X018304Y041944D01*
X018152Y042007D01*
X017957Y042007D01*
X017804Y041944D01*
X017652Y042007D01*
X017457Y042007D01*
X017304Y041944D01*
X017152Y042007D01*
X016957Y042007D01*
X016776Y041932D01*
X016639Y041794D01*
X016564Y041349D02*
X002204Y041349D01*
X002204Y040951D02*
X016574Y040951D01*
X016564Y040552D02*
X002204Y040552D01*
X002204Y040154D02*
X016564Y040154D01*
X016703Y039755D02*
X002204Y039755D01*
X002204Y039357D02*
X017023Y039357D01*
X017422Y038958D02*
X002204Y038958D01*
X002204Y038560D02*
X017820Y038560D01*
X018219Y038161D02*
X002204Y038161D01*
X002204Y037763D02*
X018617Y037763D01*
X019016Y037364D02*
X002204Y037364D01*
X002204Y036965D02*
X019415Y036965D01*
X019813Y036567D02*
X002204Y036567D01*
X002204Y036168D02*
X020212Y036168D01*
X020610Y035770D02*
X002204Y035770D01*
X002204Y035371D02*
X021009Y035371D01*
X021407Y034973D02*
X002204Y034973D01*
X002204Y034574D02*
X021594Y034574D01*
X021594Y034176D02*
X002204Y034176D01*
X002204Y033777D02*
X007760Y033777D01*
X008804Y033057D02*
X004804Y033057D01*
X003804Y033057D01*
X003804Y032557D02*
X004524Y032557D01*
X004804Y032557D01*
X005524Y032557D01*
X005524Y032577D01*
X007658Y032577D01*
X007658Y032499D01*
X007701Y032396D01*
X007779Y032317D01*
X007882Y032275D01*
X009726Y032275D01*
X009829Y032317D01*
X009908Y032396D01*
X009941Y032477D01*
X010532Y032477D01*
X010532Y032243D01*
X010575Y032140D01*
X010653Y032062D01*
X010756Y032019D01*
X011852Y032019D01*
X011955Y032062D01*
X012034Y032140D01*
X012067Y032221D01*
X012121Y032221D01*
X012493Y031849D01*
X012493Y031487D01*
X012535Y031384D01*
X012599Y031321D01*
X012518Y031240D01*
X012473Y031130D01*
X012473Y030756D01*
X013304Y030756D01*
X013304Y030755D01*
X013304Y030755D01*
X013304Y030141D01*
X012713Y030141D01*
X012603Y030186D01*
X012518Y030271D01*
X012473Y030381D01*
X012473Y030755D01*
X013304Y030755D01*
X013304Y030141D01*
X013895Y030141D01*
X014006Y030186D01*
X014090Y030271D01*
X014136Y030381D01*
X014136Y030755D01*
X013304Y030755D01*
X013304Y030756D01*
X014136Y030756D01*
X014136Y031130D01*
X014090Y031240D01*
X014052Y031278D01*
X014513Y031278D01*
X014669Y031121D01*
X014669Y030496D01*
X014712Y030393D01*
X014791Y030314D01*
X014809Y030307D01*
X014791Y030299D01*
X014712Y030220D01*
X014669Y030118D01*
X014669Y029376D01*
X014712Y029273D01*
X014791Y029195D01*
X014893Y029152D01*
X015715Y029152D01*
X015761Y029171D01*
X015824Y029108D01*
X015824Y028546D01*
X015827Y028538D01*
X015827Y028369D01*
X015842Y028333D01*
X015807Y028248D01*
X015807Y027972D01*
X015807Y027696D01*
X015853Y027586D01*
X015937Y027501D01*
X016048Y027456D01*
X016304Y027456D01*
X016304Y027972D01*
X016304Y027972D01*
X015807Y027972D01*
X016304Y027972D01*
X016304Y027972D01*
X016304Y027456D01*
X016561Y027456D01*
X016671Y027501D01*
X016755Y027586D01*
X016801Y027696D01*
X016801Y027972D01*
X016304Y027972D01*
X016304Y027972D01*
X016801Y027972D01*
X016801Y028161D01*
X016807Y028161D01*
X016807Y027972D01*
X016807Y027696D01*
X016853Y027586D01*
X016937Y027501D01*
X017048Y027456D01*
X017304Y027456D01*
X017304Y027972D01*
X017304Y027972D01*
X016807Y027972D01*
X017304Y027972D01*
X017304Y027972D01*
X017304Y027456D01*
X017561Y027456D01*
X017671Y027501D01*
X017755Y027586D01*
X017801Y027696D01*
X017801Y027972D01*
X017304Y027972D01*
X017304Y027972D01*
X017801Y027972D01*
X017801Y028248D01*
X017779Y028301D01*
X018329Y028301D01*
X018636Y027994D01*
X018731Y027899D01*
X018856Y027847D01*
X019004Y027847D01*
X019004Y027817D01*
X019024Y027769D01*
X019024Y027571D01*
X019028Y027562D01*
X019024Y027552D01*
X019024Y027355D01*
X019004Y027306D01*
X019004Y027277D01*
X015784Y027277D01*
X015784Y027318D01*
X015781Y027325D01*
X015781Y027494D01*
X015766Y027531D01*
X015801Y027615D01*
X015801Y027891D01*
X015304Y027891D01*
X014807Y027891D01*
X014807Y027702D01*
X014801Y027702D01*
X014801Y027891D01*
X014304Y027891D01*
X013807Y027891D01*
X013807Y027702D01*
X013459Y027702D01*
X013459Y027717D01*
X013416Y027820D01*
X013337Y027899D01*
X013235Y027942D01*
X012493Y027942D01*
X012390Y027899D01*
X012312Y027820D01*
X012304Y027802D01*
X012297Y027820D01*
X012218Y027899D01*
X012115Y027942D01*
X011374Y027942D01*
X011271Y027899D01*
X011192Y027820D01*
X011178Y027787D01*
X011116Y027787D01*
X011116Y028126D01*
X011073Y028229D01*
X011009Y028293D01*
X011090Y028373D01*
X011136Y028483D01*
X011136Y028858D01*
X011136Y029233D01*
X011090Y029343D01*
X011006Y029427D01*
X010895Y029473D01*
X010304Y029473D01*
X009713Y029473D01*
X009603Y029427D01*
X009518Y029343D01*
X009473Y029233D01*
X009473Y028858D01*
X010304Y028858D01*
X010304Y029473D01*
X010304Y028858D01*
X010304Y028858D01*
X010304Y028858D01*
X009473Y028858D01*
X009473Y028483D01*
X009518Y028373D01*
X009599Y028293D01*
X009542Y028236D01*
X008554Y028236D01*
X005826Y030964D01*
X005650Y031037D01*
X005524Y031037D01*
X005524Y031057D01*
X005524Y031158D01*
X005452Y031333D01*
X005504Y031459D01*
X005504Y031654D01*
X005441Y031807D01*
X005504Y031959D01*
X005504Y032154D01*
X005452Y032281D01*
X005524Y032455D01*
X005524Y032557D01*
X004804Y032557D01*
X004804Y032557D01*
X004804Y032057D02*
X003804Y032057D01*
X003804Y031557D02*
X004804Y031557D01*
X004804Y031057D02*
X005524Y031057D01*
X004804Y031057D01*
X004804Y031057D01*
X004084Y031057D01*
X003804Y031057D01*
X003804Y030557D02*
X004804Y030557D01*
X005554Y030557D01*
X008355Y027756D01*
X010304Y027756D01*
X010753Y027307D01*
X011744Y027307D01*
X011183Y027799D02*
X011116Y027799D01*
X011086Y028198D02*
X013820Y028198D01*
X013807Y028168D02*
X013807Y027892D01*
X014304Y027892D01*
X014304Y028408D01*
X014048Y028408D01*
X013937Y028362D01*
X013853Y028278D01*
X013807Y028168D01*
X013807Y027799D02*
X013425Y027799D01*
X012864Y027307D02*
X012949Y027222D01*
X014304Y027222D01*
X015304Y027222D01*
X015781Y027400D02*
X019024Y027400D01*
X019012Y027799D02*
X017801Y027799D01*
X017801Y028198D02*
X018433Y028198D01*
X018636Y027994D02*
X018636Y027994D01*
X018996Y028596D02*
X021415Y028596D01*
X021594Y028995D02*
X017747Y028995D01*
X017304Y028641D02*
X016304Y028641D01*
X016304Y029307D01*
X015864Y029747D01*
X015304Y029747D01*
X016048Y030190D02*
X021594Y030190D01*
X021594Y029792D02*
X016498Y029792D01*
X016784Y029393D02*
X021594Y029393D01*
X021594Y030589D02*
X015939Y030589D01*
X015939Y030987D02*
X021594Y030987D01*
X021594Y031386D02*
X015884Y031386D01*
X015647Y031784D02*
X021594Y031784D01*
X021594Y032183D02*
X015248Y032183D01*
X014669Y030987D02*
X014136Y030987D01*
X014136Y030589D02*
X014669Y030589D01*
X014699Y030190D02*
X014009Y030190D01*
X013304Y030190D02*
X013304Y030190D01*
X013304Y030589D02*
X013304Y030589D01*
X012599Y030190D02*
X012071Y030190D01*
X012051Y030141D02*
X012096Y030251D01*
X012096Y030767D01*
X011350Y030767D01*
X011350Y030859D01*
X011258Y030859D01*
X011258Y031615D01*
X010752Y031615D01*
X010642Y031569D01*
X010558Y031485D01*
X010512Y031374D01*
X010512Y030859D01*
X011258Y030859D01*
X011258Y030767D01*
X010512Y030767D01*
X010512Y030251D01*
X010558Y030141D01*
X010642Y030056D01*
X010752Y030011D01*
X011258Y030011D01*
X011258Y030766D01*
X011350Y030766D01*
X011350Y030011D01*
X011856Y030011D01*
X011966Y030056D01*
X012051Y030141D01*
X012096Y030589D02*
X012473Y030589D01*
X012473Y030987D02*
X012096Y030987D01*
X012096Y030859D02*
X012096Y031374D01*
X012051Y031485D01*
X011966Y031569D01*
X011856Y031615D01*
X011350Y031615D01*
X011350Y030859D01*
X012096Y030859D01*
X012091Y031386D02*
X012535Y031386D01*
X012493Y031784D02*
X005450Y031784D01*
X005474Y031386D02*
X010517Y031386D01*
X010512Y030987D02*
X009970Y030987D01*
X009970Y031118D02*
X009925Y031229D01*
X009840Y031313D01*
X009730Y031359D01*
X008855Y031359D01*
X008855Y030608D01*
X008753Y030608D01*
X008753Y031359D01*
X007878Y031359D01*
X007768Y031313D01*
X007684Y031229D01*
X007638Y031118D01*
X007638Y030608D01*
X008753Y030608D01*
X008753Y030506D01*
X007638Y030506D01*
X007638Y029995D01*
X007684Y029885D01*
X007768Y029800D01*
X007878Y029755D01*
X008753Y029755D01*
X008753Y030506D01*
X008855Y030506D01*
X008855Y030608D01*
X009970Y030608D01*
X009970Y031118D01*
X009970Y030506D02*
X008855Y030506D01*
X008855Y029755D01*
X009730Y029755D01*
X009840Y029800D01*
X009925Y029885D01*
X009970Y029995D01*
X009970Y030506D01*
X009970Y030190D02*
X010537Y030190D01*
X010512Y030589D02*
X008855Y030589D01*
X008753Y030589D02*
X006201Y030589D01*
X006599Y030190D02*
X007638Y030190D01*
X007789Y029792D02*
X006998Y029792D01*
X007396Y029393D02*
X009569Y029393D01*
X009473Y028995D02*
X007795Y028995D01*
X008194Y028596D02*
X009473Y028596D01*
X010304Y028858D02*
X010304Y028858D01*
X011136Y028858D01*
X010304Y028858D01*
X010304Y028995D02*
X010304Y028995D01*
X010304Y029393D02*
X010304Y029393D01*
X009819Y029792D02*
X014669Y029792D01*
X014669Y029393D02*
X011040Y029393D01*
X011136Y028995D02*
X015824Y028995D01*
X015824Y028596D02*
X011136Y028596D01*
X011258Y030190D02*
X011350Y030190D01*
X011350Y030589D02*
X011258Y030589D01*
X011258Y030987D02*
X011350Y030987D01*
X011350Y031386D02*
X011258Y031386D01*
X010557Y032183D02*
X005492Y032183D01*
X005769Y030987D02*
X007638Y030987D01*
X008753Y030987D02*
X008855Y030987D01*
X008855Y030190D02*
X008753Y030190D01*
X008753Y029792D02*
X008855Y029792D01*
X012051Y032183D02*
X012159Y032183D01*
X013002Y032980D02*
X021594Y032980D01*
X021594Y032581D02*
X013401Y032581D01*
X012482Y033379D02*
X021594Y033379D01*
X021594Y033777D02*
X009848Y033777D01*
X004804Y030057D02*
X003804Y030057D01*
X003804Y029557D02*
X004804Y029557D01*
X004804Y029057D02*
X003804Y029057D01*
X003804Y028557D02*
X004804Y028557D01*
X004804Y028057D02*
X003804Y028057D01*
X003804Y027557D02*
X004804Y027557D01*
X004804Y027057D02*
X003804Y027057D01*
X003104Y027002D02*
X002204Y027002D01*
X002204Y027400D02*
X003128Y027400D01*
X003164Y027799D02*
X002204Y027799D01*
X002204Y028198D02*
X003122Y028198D01*
X003104Y028596D02*
X002204Y028596D01*
X002204Y028995D02*
X003104Y028995D01*
X003131Y029393D02*
X002204Y029393D01*
X002204Y029792D02*
X003161Y029792D01*
X003119Y030190D02*
X002204Y030190D01*
X002204Y030589D02*
X003104Y030589D01*
X003084Y030987D02*
X002204Y030987D01*
X002204Y031386D02*
X003134Y031386D01*
X003158Y031784D02*
X002204Y031784D01*
X002204Y032183D02*
X003116Y032183D01*
X003084Y032581D02*
X002204Y032581D01*
X002204Y032980D02*
X003104Y032980D01*
X003223Y033379D02*
X002204Y033379D01*
X002204Y026603D02*
X003104Y026603D01*
X003125Y026205D02*
X002204Y026205D01*
X002204Y025806D02*
X003167Y025806D01*
X003125Y025408D02*
X002204Y025408D01*
X002204Y025009D02*
X003104Y025009D01*
X003104Y024611D02*
X002204Y024611D01*
X002204Y024212D02*
X003128Y024212D01*
X003164Y023814D02*
X002204Y023814D01*
X002204Y023415D02*
X003122Y023415D01*
X003104Y023016D02*
X002204Y023016D01*
X002204Y022618D02*
X003104Y022618D01*
X003131Y022219D02*
X002204Y022219D01*
X002204Y021821D02*
X003161Y021821D01*
X003119Y021422D02*
X002204Y021422D01*
X002204Y021024D02*
X003104Y021024D01*
X003104Y020625D02*
X002204Y020625D01*
X002204Y020227D02*
X003134Y020227D01*
X003158Y019828D02*
X002204Y019828D01*
X002204Y019430D02*
X003116Y019430D01*
X003104Y019031D02*
X002204Y019031D01*
X002204Y018632D02*
X003104Y018632D01*
X003137Y018234D02*
X002204Y018234D01*
X002204Y017835D02*
X003155Y017835D01*
X003113Y017437D02*
X002204Y017437D01*
X002204Y017038D02*
X003104Y017038D01*
X003104Y016640D02*
X002204Y016640D01*
X002204Y016241D02*
X003140Y016241D01*
X003152Y015843D02*
X002204Y015843D01*
X002204Y015444D02*
X003110Y015444D01*
X003104Y015046D02*
X002204Y015046D01*
X002204Y014647D02*
X003104Y014647D01*
X003143Y014249D02*
X002204Y014249D01*
X002204Y013850D02*
X003149Y013850D01*
X003107Y013451D02*
X002204Y013451D01*
X002204Y013053D02*
X010512Y013053D01*
X010512Y013267D02*
X010512Y012751D01*
X010558Y012641D01*
X010642Y012556D01*
X010752Y012511D01*
X011258Y012511D01*
X011258Y013266D01*
X011350Y013266D01*
X011350Y012511D01*
X011856Y012511D01*
X011966Y012556D01*
X012051Y012641D01*
X012096Y012751D01*
X012096Y013267D01*
X011350Y013267D01*
X011350Y013359D01*
X011258Y013359D01*
X011258Y014115D01*
X010752Y014115D01*
X010642Y014069D01*
X010558Y013985D01*
X010512Y013874D01*
X010512Y013359D01*
X011258Y013359D01*
X011258Y013267D01*
X010512Y013267D01*
X010512Y013451D02*
X007128Y013451D01*
X007526Y013850D02*
X007747Y013850D01*
X007554Y014557D02*
X006554Y013557D01*
X004804Y013557D01*
X003804Y013557D01*
X003804Y014057D02*
X004804Y014057D01*
X004804Y014557D02*
X003804Y014557D01*
X003804Y015057D02*
X004804Y015057D01*
X004804Y015557D02*
X003804Y015557D01*
X003804Y016057D02*
X004804Y016057D01*
X004804Y016557D02*
X003804Y016557D01*
X003804Y017057D02*
X004804Y017057D01*
X004804Y017557D02*
X003804Y017557D01*
X003804Y018057D02*
X004804Y018057D01*
X004804Y018557D02*
X003804Y018557D01*
X003804Y019057D02*
X004804Y019057D01*
X004804Y019557D02*
X003804Y019557D01*
X003804Y020057D02*
X004804Y020057D01*
X004804Y020557D02*
X003804Y020557D01*
X003804Y021057D02*
X004804Y021057D01*
X004804Y021557D02*
X003804Y021557D01*
X003804Y022057D02*
X004804Y022057D01*
X004804Y022557D02*
X003804Y022557D01*
X003804Y023057D02*
X004804Y023057D01*
X004804Y023557D02*
X003804Y023557D01*
X003804Y024057D02*
X004804Y024057D01*
X004804Y024557D02*
X003804Y024557D01*
X003804Y025057D02*
X004804Y025057D01*
X004804Y025557D02*
X003804Y025557D01*
X003804Y026057D02*
X004804Y026057D01*
X004804Y026557D02*
X003804Y026557D01*
X008325Y020097D02*
X019024Y020097D01*
X019024Y020071D01*
X019028Y020062D01*
X019024Y020052D01*
X019024Y019821D01*
X019028Y019812D01*
X019024Y019802D01*
X019024Y019571D01*
X019028Y019562D01*
X019024Y019552D01*
X019024Y019321D01*
X019028Y019312D01*
X019024Y019302D01*
X019024Y019071D01*
X019028Y019062D01*
X019024Y019052D01*
X019024Y018821D01*
X019028Y018812D01*
X019024Y018802D01*
X019024Y018777D01*
X017667Y018777D01*
X017532Y018777D01*
X017407Y018725D01*
X017320Y018638D01*
X017052Y018638D01*
X017012Y018621D01*
X016596Y018621D01*
X016557Y018638D01*
X016052Y018638D01*
X016012Y018621D01*
X015734Y018621D01*
X015543Y018621D01*
X015367Y018548D01*
X015032Y018214D01*
X014897Y018079D01*
X014839Y017939D01*
X014791Y017919D01*
X014712Y017840D01*
X014669Y017737D01*
X014669Y016996D01*
X014712Y016893D01*
X014778Y016827D01*
X013808Y016827D01*
X013578Y016827D01*
X013365Y016739D01*
X013079Y016453D01*
X012717Y016453D01*
X012681Y016438D01*
X011977Y016438D01*
X011746Y016438D01*
X011533Y016350D01*
X011266Y016083D01*
X010756Y016083D01*
X010653Y016040D01*
X010575Y015961D01*
X010541Y015881D01*
X009664Y015881D01*
X009433Y015881D01*
X009220Y015793D01*
X008766Y015339D01*
X007882Y015339D01*
X007779Y015296D01*
X007701Y015217D01*
X007658Y015114D01*
X007658Y015037D01*
X007650Y015037D01*
X007459Y015037D01*
X007282Y014964D01*
X006355Y014037D01*
X005504Y014037D01*
X005504Y014154D01*
X005441Y014307D01*
X005504Y014459D01*
X005504Y014654D01*
X005441Y014807D01*
X005504Y014959D01*
X005504Y015154D01*
X005441Y015307D01*
X005504Y015459D01*
X005504Y015654D01*
X005441Y015807D01*
X005504Y015959D01*
X005504Y016154D01*
X005441Y016307D01*
X005504Y016459D01*
X005504Y016654D01*
X005441Y016807D01*
X005504Y016959D01*
X005504Y017154D01*
X005463Y017254D01*
X005497Y017269D01*
X005592Y017364D01*
X008325Y020097D01*
X008056Y019828D02*
X019024Y019828D01*
X019024Y019430D02*
X007658Y019430D01*
X007259Y019031D02*
X019024Y019031D01*
X017767Y017835D02*
X021564Y017835D01*
X021564Y017437D02*
X017801Y017437D01*
X017708Y017038D02*
X021564Y017038D01*
X021564Y016640D02*
X015930Y016640D01*
X015939Y016241D02*
X021564Y016241D01*
X021564Y015843D02*
X015925Y015843D01*
X016304Y017038D02*
X016304Y017038D01*
X016304Y017437D02*
X016304Y017437D01*
X016801Y017437D02*
X016807Y017437D01*
X016900Y017038D02*
X016708Y017038D01*
X017304Y017038D02*
X017304Y017038D01*
X017304Y017437D02*
X017304Y017437D01*
X017304Y018141D02*
X016304Y018141D01*
X015639Y018141D01*
X015304Y017807D01*
X015304Y017367D01*
X014669Y017437D02*
X005665Y017437D01*
X005504Y017038D02*
X014669Y017038D01*
X014710Y017835D02*
X006064Y017835D01*
X006462Y018234D02*
X015052Y018234D01*
X016038Y018632D02*
X006861Y018632D01*
X005504Y016640D02*
X013266Y016640D01*
X014098Y015444D02*
X021834Y015444D01*
X021834Y015046D02*
X014136Y015046D01*
X014136Y014647D02*
X021834Y014647D01*
X020970Y014249D02*
X020969Y014249D01*
X020574Y014249D02*
X014068Y014249D01*
X013304Y014249D02*
X013304Y014249D01*
X013304Y014647D02*
X013304Y014647D01*
X012473Y014647D02*
X012036Y014647D01*
X012076Y015046D02*
X012473Y015046D01*
X012540Y014249D02*
X009950Y014249D01*
X009950Y014647D02*
X010572Y014647D01*
X011350Y014115D02*
X011350Y013359D01*
X012096Y013359D01*
X012096Y013874D01*
X012051Y013985D01*
X011966Y014069D01*
X011856Y014115D01*
X011350Y014115D01*
X011350Y013850D02*
X011258Y013850D01*
X011258Y013451D02*
X011350Y013451D01*
X011350Y013053D02*
X011258Y013053D01*
X011258Y012654D02*
X011350Y012654D01*
X010552Y012654D02*
X009955Y012654D01*
X009970Y012618D02*
X009925Y012729D01*
X009840Y012813D01*
X009730Y012859D01*
X008855Y012859D01*
X008855Y012108D01*
X008753Y012108D01*
X008753Y012859D01*
X007878Y012859D01*
X007768Y012813D01*
X007684Y012729D01*
X007638Y012618D01*
X007638Y012108D01*
X008753Y012108D01*
X008753Y012006D01*
X007638Y012006D01*
X007638Y011495D01*
X007684Y011385D01*
X007768Y011300D01*
X007878Y011255D01*
X008753Y011255D01*
X008753Y012006D01*
X008855Y012006D01*
X008855Y012108D01*
X009970Y012108D01*
X009970Y012618D01*
X009970Y012256D02*
X016638Y012256D01*
X016638Y012654D02*
X012056Y012654D01*
X012096Y013053D02*
X016728Y013053D01*
X017253Y013053D02*
X017253Y013053D01*
X017253Y012654D02*
X017253Y012654D01*
X017253Y012256D02*
X017253Y012256D01*
X017253Y011857D02*
X017253Y011857D01*
X016638Y011857D02*
X009970Y011857D01*
X009970Y012006D02*
X008855Y012006D01*
X008855Y011255D01*
X009730Y011255D01*
X009840Y011300D01*
X009925Y011385D01*
X009970Y011495D01*
X009970Y012006D01*
X009955Y011459D02*
X017775Y011459D01*
X017195Y011060D02*
X016465Y011060D01*
X016482Y011053D02*
X016372Y011099D01*
X015856Y011099D01*
X015856Y010353D01*
X015764Y010353D01*
X015764Y011099D01*
X015248Y011099D01*
X015138Y011053D01*
X015054Y010969D01*
X015008Y010859D01*
X015008Y010353D01*
X015764Y010353D01*
X015764Y010261D01*
X015008Y010261D01*
X015008Y009755D01*
X015054Y009645D01*
X015138Y009560D01*
X015248Y009515D01*
X015764Y009515D01*
X015764Y010260D01*
X015856Y010260D01*
X015856Y009515D01*
X016372Y009515D01*
X016482Y009560D01*
X016566Y009645D01*
X016612Y009755D01*
X016612Y010261D01*
X015856Y010261D01*
X015856Y010353D01*
X016612Y010353D01*
X016612Y010859D01*
X016566Y010969D01*
X016482Y011053D01*
X016612Y010662D02*
X017016Y010662D01*
X017016Y010263D02*
X015856Y010263D01*
X015764Y010263D02*
X002204Y010263D01*
X002204Y009865D02*
X015008Y009865D01*
X015764Y009865D02*
X015856Y009865D01*
X016612Y009865D02*
X017016Y009865D01*
X017218Y009466D02*
X002204Y009466D01*
X002204Y009067D02*
X015172Y009067D01*
X015138Y009053D02*
X015054Y008969D01*
X015008Y008859D01*
X015008Y008353D01*
X015764Y008353D01*
X015764Y009099D01*
X015248Y009099D01*
X015138Y009053D01*
X015008Y008669D02*
X002204Y008669D01*
X002204Y008270D02*
X015764Y008270D01*
X015764Y008261D02*
X015008Y008261D01*
X015008Y007755D01*
X015054Y007645D01*
X015138Y007560D01*
X015248Y007515D01*
X015764Y007515D01*
X015764Y008260D01*
X015856Y008260D01*
X015856Y007515D01*
X016372Y007515D01*
X016482Y007560D01*
X016566Y007645D01*
X016612Y007755D01*
X016612Y008261D01*
X015856Y008261D01*
X015856Y008353D01*
X015764Y008353D01*
X015764Y008261D01*
X015856Y008270D02*
X017016Y008270D01*
X017016Y007872D02*
X016612Y007872D01*
X016612Y008353D02*
X015856Y008353D01*
X015856Y009099D01*
X016372Y009099D01*
X016482Y009053D01*
X016566Y008969D01*
X016612Y008859D01*
X016612Y008353D01*
X016612Y008669D02*
X017016Y008669D01*
X017213Y009067D02*
X016448Y009067D01*
X015856Y009067D02*
X015764Y009067D01*
X015764Y008669D02*
X015856Y008669D01*
X015856Y007872D02*
X015764Y007872D01*
X015008Y007872D02*
X002204Y007872D01*
X002204Y007473D02*
X017074Y007473D01*
X017074Y007075D02*
X002204Y007075D01*
X002204Y006676D02*
X016568Y006676D01*
X016544Y006307D02*
X016544Y005995D01*
X016622Y005808D01*
X016623Y005807D01*
X016622Y005806D01*
X016544Y005618D01*
X016544Y005307D01*
X017054Y005307D01*
X017054Y005307D01*
X017054Y005481D02*
X017054Y005481D01*
X017054Y005879D02*
X017054Y005879D01*
X017054Y006278D02*
X017054Y006278D01*
X017054Y006307D02*
X016544Y006307D01*
X016544Y006278D02*
X002204Y006278D01*
X002204Y005879D02*
X016592Y005879D01*
X016544Y005481D02*
X002204Y005481D01*
X002204Y005082D02*
X016544Y005082D01*
X016746Y004683D02*
X002204Y004683D01*
X002204Y004285D02*
X051404Y004285D01*
X051404Y004683D02*
X041834Y004683D01*
X042044Y005082D02*
X051404Y005082D01*
X051404Y005481D02*
X042044Y005481D01*
X042034Y005879D02*
X051404Y005879D01*
X051404Y006278D02*
X042044Y006278D01*
X042018Y006676D02*
X051404Y006676D01*
X051404Y007075D02*
X041894Y007075D01*
X041894Y007473D02*
X051404Y007473D01*
X051404Y007872D02*
X041894Y007872D01*
X041894Y008270D02*
X051404Y008270D01*
X051404Y008669D02*
X041894Y008669D01*
X041894Y009067D02*
X051404Y009067D01*
X051404Y009466D02*
X041894Y009466D01*
X041727Y009865D02*
X051404Y009865D01*
X051404Y010263D02*
X041329Y010263D01*
X040930Y010662D02*
X051404Y010662D01*
X051404Y011060D02*
X040531Y011060D01*
X040133Y011459D02*
X051404Y011459D01*
X051404Y011857D02*
X039734Y011857D01*
X039336Y012256D02*
X051404Y012256D01*
X051404Y012654D02*
X038937Y012654D01*
X038539Y013053D02*
X051404Y013053D01*
X051404Y013451D02*
X038140Y013451D01*
X037742Y013850D02*
X051404Y013850D01*
X051404Y014249D02*
X037644Y014249D01*
X037644Y014647D02*
X051404Y014647D01*
X050854Y015046D02*
X050754Y015046D01*
X050754Y015444D02*
X050854Y015444D01*
X050854Y015843D02*
X050754Y015843D01*
X050754Y016241D02*
X050854Y016241D01*
X050304Y017307D02*
X048804Y017307D01*
X048469Y016972D01*
X047804Y016972D01*
X047804Y016141D01*
X047324Y016241D02*
X047301Y016241D01*
X047281Y015843D02*
X047338Y015843D01*
X047301Y015444D02*
X047307Y015444D01*
X047393Y015046D02*
X047187Y015046D01*
X046804Y015472D02*
X045804Y015472D01*
X044804Y015472D01*
X043804Y015472D01*
X042973Y015472D01*
X042639Y015807D01*
X043116Y016009D02*
X043116Y016079D01*
X043073Y016182D01*
X042994Y016261D01*
X042891Y016303D01*
X042386Y016303D01*
X042304Y016269D01*
X042222Y016303D01*
X041949Y016303D01*
X041949Y016310D01*
X042139Y016310D01*
X042415Y016310D01*
X042525Y016356D01*
X042610Y016440D01*
X042655Y016550D01*
X042655Y016807D01*
X042655Y017063D01*
X042610Y017174D01*
X042525Y017258D01*
X042415Y017304D01*
X042139Y017304D01*
X042139Y016807D01*
X042655Y016807D01*
X042139Y016807D01*
X042139Y016807D01*
X042139Y016807D01*
X042139Y017304D01*
X041862Y017304D01*
X041778Y017269D01*
X041742Y017284D01*
X041572Y017284D01*
X041565Y017287D01*
X041374Y017287D01*
X041366Y017284D01*
X041197Y017284D01*
X041094Y017241D01*
X041068Y017215D01*
X041025Y017258D01*
X040915Y017304D01*
X040639Y017304D01*
X040639Y016807D01*
X040639Y016807D01*
X040639Y017304D01*
X040362Y017304D01*
X040278Y017269D01*
X040242Y017284D01*
X040073Y017284D01*
X040065Y017287D01*
X039874Y017287D01*
X039866Y017284D01*
X039697Y017284D01*
X039594Y017241D01*
X039516Y017162D01*
X039473Y017059D01*
X039473Y016554D01*
X039489Y016514D01*
X039489Y016303D01*
X039449Y016303D01*
X039449Y016546D01*
X039449Y016737D01*
X039376Y016913D01*
X036203Y020087D01*
X036376Y020087D01*
X036397Y020035D01*
X037032Y019400D01*
X037209Y019327D01*
X037400Y019327D01*
X038677Y019327D01*
X038717Y019310D01*
X039222Y019310D01*
X039304Y019344D01*
X039386Y019310D01*
X039489Y019310D01*
X039489Y019099D01*
X039473Y019059D01*
X039473Y018554D01*
X039516Y018451D01*
X039594Y018373D01*
X039697Y018330D01*
X039866Y018330D01*
X039874Y018327D01*
X040065Y018327D01*
X040073Y018330D01*
X040242Y018330D01*
X040278Y018345D01*
X040362Y018310D01*
X040639Y018310D01*
X040915Y018310D01*
X041025Y018356D01*
X041068Y018399D01*
X041094Y018373D01*
X041197Y018330D01*
X041366Y018330D01*
X041374Y018327D01*
X041565Y018327D01*
X041573Y018330D01*
X041742Y018330D01*
X041778Y018345D01*
X041862Y018310D01*
X042139Y018310D01*
X042415Y018310D01*
X042525Y018356D01*
X042610Y018440D01*
X042655Y018550D01*
X042655Y018807D01*
X042655Y019063D01*
X042610Y019174D01*
X042525Y019258D01*
X042415Y019304D01*
X042139Y019304D01*
X042139Y018807D01*
X042655Y018807D01*
X042139Y018807D01*
X042139Y018807D01*
X042139Y018807D01*
X042139Y019304D01*
X041949Y019304D01*
X041949Y019310D01*
X042222Y019310D01*
X042304Y019344D01*
X042386Y019310D01*
X042891Y019310D01*
X042994Y019353D01*
X043073Y019432D01*
X043116Y019535D01*
X043116Y019605D01*
X043172Y019661D01*
X043308Y019661D01*
X043308Y019456D01*
X043266Y019415D01*
X043214Y019290D01*
X043214Y018374D01*
X043214Y018239D01*
X043214Y016324D01*
X043266Y016199D01*
X043308Y016157D01*
X043308Y015952D01*
X043172Y015952D01*
X043116Y016009D01*
X043014Y016241D02*
X043248Y016241D01*
X043214Y016640D02*
X042655Y016640D01*
X042655Y017038D02*
X043214Y017038D01*
X043214Y017437D02*
X038853Y017437D01*
X039251Y017038D02*
X039473Y017038D01*
X039449Y016640D02*
X039473Y016640D01*
X038969Y016641D02*
X035804Y019807D01*
X035502Y019430D02*
X035412Y019430D01*
X035811Y019031D02*
X035901Y019031D01*
X036209Y018632D02*
X036300Y018632D01*
X036608Y018234D02*
X036698Y018234D01*
X037006Y017835D02*
X037097Y017835D01*
X037405Y017437D02*
X037495Y017437D01*
X037644Y017038D02*
X037894Y017038D01*
X037644Y016640D02*
X038292Y016640D01*
X038489Y016241D02*
X037644Y016241D01*
X037644Y015843D02*
X038489Y015843D01*
X038530Y015444D02*
X037644Y015444D01*
X037644Y015046D02*
X042749Y015046D01*
X041969Y015807D02*
X041139Y015807D01*
X041469Y015807D01*
X041469Y016807D01*
X040989Y016341D02*
X040989Y016303D01*
X040886Y016303D01*
X040804Y016269D01*
X040722Y016303D01*
X040449Y016303D01*
X040449Y016310D01*
X040639Y016310D01*
X040915Y016310D01*
X040989Y016341D01*
X040639Y016310D02*
X040639Y016806D01*
X040639Y016806D01*
X040639Y016310D01*
X040639Y016640D02*
X040639Y016640D01*
X040639Y017038D02*
X040639Y017038D01*
X039969Y016807D02*
X039969Y015807D01*
X039639Y015807D01*
X040469Y015807D01*
X038969Y015807D02*
X038969Y016641D01*
X038454Y017835D02*
X043214Y017835D01*
X043214Y018234D02*
X038056Y018234D01*
X037657Y018632D02*
X039473Y018632D01*
X039473Y019031D02*
X037259Y019031D01*
X037002Y019430D02*
X036860Y019430D01*
X036604Y019828D02*
X036462Y019828D01*
X036804Y020307D02*
X037304Y019807D01*
X038969Y019807D01*
X039639Y019807D02*
X039969Y019807D01*
X039969Y018807D01*
X040639Y018806D02*
X040639Y018310D01*
X040639Y018806D01*
X040639Y018806D01*
X040639Y018807D02*
X040639Y018807D01*
X040639Y019304D01*
X040915Y019304D01*
X040989Y019273D01*
X040989Y019310D01*
X040886Y019310D01*
X040804Y019344D01*
X040722Y019310D01*
X040449Y019310D01*
X040449Y019304D01*
X040639Y019304D01*
X040639Y018807D01*
X040639Y018632D02*
X040639Y018632D01*
X040639Y019031D02*
X040639Y019031D01*
X041469Y018807D02*
X041469Y019807D01*
X041139Y019807D01*
X041969Y019807D01*
X042639Y019807D02*
X042973Y020141D01*
X043804Y020141D01*
X044804Y020141D01*
X045804Y020141D01*
X046804Y020141D01*
X047301Y020227D02*
X051404Y020227D01*
X051404Y020625D02*
X041834Y020625D01*
X042252Y021024D02*
X051404Y021024D01*
X051404Y021422D02*
X048104Y021422D01*
X047810Y021807D02*
X047304Y021807D01*
X046804Y021807D01*
X046324Y021821D02*
X044655Y021821D01*
X044592Y021422D02*
X046510Y021422D01*
X046546Y022219D02*
X044564Y022219D01*
X044139Y022219D02*
X044139Y022219D01*
X044139Y021821D02*
X044139Y021821D01*
X044139Y021422D02*
X044139Y021422D01*
X043469Y021807D02*
X043469Y022472D01*
X043804Y022807D01*
X044469Y022807D01*
X044469Y023472D01*
X044804Y023807D01*
X045244Y023807D01*
X046364Y023807D02*
X046639Y023532D01*
X046639Y022807D01*
X047135Y022618D02*
X047528Y022618D01*
X047630Y023016D02*
X047135Y023016D01*
X047119Y023415D02*
X047730Y023415D01*
X047528Y023814D02*
X047036Y023814D01*
X046959Y024212D02*
X047528Y024212D01*
X047528Y024611D02*
X046844Y024611D01*
X046844Y025009D02*
X047622Y025009D01*
X047830Y025408D02*
X047084Y025408D01*
X047054Y026057D02*
X046364Y025367D01*
X046364Y023807D01*
X045969Y022618D02*
X045970Y022618D01*
X045139Y022618D02*
X045139Y022618D01*
X047810Y021807D02*
X048310Y022307D01*
X049092Y022219D02*
X049496Y022219D01*
X049496Y022261D02*
X049496Y021755D01*
X049542Y021645D01*
X049626Y021560D01*
X049736Y021515D01*
X050252Y021515D01*
X050252Y022260D01*
X050344Y022260D01*
X050344Y021515D01*
X050860Y021515D01*
X050970Y021560D01*
X051054Y021645D01*
X051100Y021755D01*
X051100Y022261D01*
X050344Y022261D01*
X050344Y022353D01*
X050252Y022353D01*
X050252Y023099D01*
X049736Y023099D01*
X049626Y023053D01*
X049542Y022969D01*
X049496Y022859D01*
X049496Y022353D01*
X050252Y022353D01*
X050252Y022261D01*
X049496Y022261D01*
X049496Y022618D02*
X049092Y022618D01*
X048990Y023016D02*
X049590Y023016D01*
X049736Y023515D02*
X049626Y023560D01*
X049542Y023645D01*
X049496Y023755D01*
X049496Y024261D01*
X050252Y024261D01*
X050252Y024353D01*
X050252Y025099D01*
X049736Y025099D01*
X049626Y025053D01*
X049542Y024969D01*
X049496Y024859D01*
X049496Y024353D01*
X050252Y024353D01*
X050344Y024353D01*
X050344Y025099D01*
X050860Y025099D01*
X050970Y025053D01*
X051054Y024969D01*
X051100Y024859D01*
X051100Y024353D01*
X050344Y024353D01*
X050344Y024261D01*
X051100Y024261D01*
X051100Y023755D01*
X051054Y023645D01*
X050970Y023560D01*
X050860Y023515D01*
X050344Y023515D01*
X050344Y024260D01*
X050252Y024260D01*
X050252Y023515D01*
X049736Y023515D01*
X049496Y023814D02*
X049092Y023814D01*
X049092Y024212D02*
X049496Y024212D01*
X049496Y024611D02*
X049092Y024611D01*
X048998Y025009D02*
X049582Y025009D01*
X048790Y025408D02*
X051404Y025408D01*
X051404Y025806D02*
X050462Y025806D01*
X050505Y026205D02*
X051404Y026205D01*
X051404Y026603D02*
X050504Y026603D01*
X050504Y027002D02*
X051404Y027002D01*
X051404Y027400D02*
X050480Y027400D01*
X050444Y027799D02*
X051404Y027799D01*
X051404Y028198D02*
X050486Y028198D01*
X050504Y028596D02*
X051404Y028596D01*
X051404Y028995D02*
X050504Y028995D01*
X050477Y029393D02*
X051404Y029393D01*
X051404Y029792D02*
X050447Y029792D01*
X050489Y030190D02*
X051404Y030190D01*
X051404Y030589D02*
X050504Y030589D01*
X050504Y030987D02*
X051404Y030987D01*
X051404Y031386D02*
X050474Y031386D01*
X050450Y031784D02*
X051404Y031784D01*
X051404Y032183D02*
X050492Y032183D01*
X050504Y032581D02*
X051404Y032581D01*
X051404Y032980D02*
X050504Y032980D01*
X050471Y033379D02*
X051404Y033379D01*
X051404Y033777D02*
X050453Y033777D01*
X050495Y034176D02*
X051404Y034176D01*
X051404Y034574D02*
X050504Y034574D01*
X050504Y034973D02*
X051404Y034973D01*
X051404Y035371D02*
X050468Y035371D01*
X050456Y035770D02*
X051404Y035770D01*
X051404Y036168D02*
X050498Y036168D01*
X050504Y036567D02*
X051404Y036567D01*
X051404Y036965D02*
X050504Y036965D01*
X050465Y037364D02*
X051404Y037364D01*
X051404Y037763D02*
X050459Y037763D01*
X050501Y038161D02*
X051404Y038161D01*
X051404Y038560D02*
X050504Y038560D01*
X050504Y038958D02*
X051404Y038958D01*
X051404Y039357D02*
X050462Y039357D01*
X050462Y039755D02*
X051404Y039755D01*
X051404Y040951D02*
X050313Y040951D01*
X049804Y040557D02*
X048804Y040557D01*
X048295Y040951D02*
X041856Y040951D01*
X041856Y040858D02*
X041856Y041733D01*
X041810Y041843D01*
X041726Y041927D01*
X041616Y041973D01*
X041105Y041973D01*
X041105Y040858D01*
X041003Y040858D01*
X041003Y041973D01*
X040492Y041973D01*
X040382Y041927D01*
X040298Y041843D01*
X040252Y041733D01*
X040252Y040858D01*
X041003Y040858D01*
X041003Y040756D01*
X040252Y040756D01*
X040252Y039881D01*
X040298Y039771D01*
X040382Y039686D01*
X040492Y039641D01*
X041003Y039641D01*
X041003Y040756D01*
X041105Y040756D01*
X041105Y040858D01*
X041856Y040858D01*
X041856Y040756D02*
X041105Y040756D01*
X041105Y039641D01*
X041616Y039641D01*
X041726Y039686D01*
X041810Y039771D01*
X041856Y039881D01*
X041856Y040756D01*
X041856Y040552D02*
X047438Y040552D01*
X047040Y040154D02*
X041856Y040154D01*
X041795Y039755D02*
X046641Y039755D01*
X046243Y039357D02*
X038390Y039357D01*
X038549Y038958D02*
X039038Y038958D01*
X039042Y038969D02*
X038996Y038859D01*
X038996Y038353D01*
X039752Y038353D01*
X039752Y039099D01*
X039236Y039099D01*
X039126Y039053D01*
X039042Y038969D01*
X038996Y038560D02*
X038592Y038560D01*
X038592Y038161D02*
X038996Y038161D01*
X038996Y038261D02*
X038996Y037755D01*
X039042Y037645D01*
X039126Y037560D01*
X039236Y037515D01*
X039752Y037515D01*
X039752Y038260D01*
X039844Y038260D01*
X039844Y037515D01*
X040360Y037515D01*
X040470Y037560D01*
X040554Y037645D01*
X040600Y037755D01*
X040600Y038261D01*
X039844Y038261D01*
X039844Y038353D01*
X039752Y038353D01*
X039752Y038261D01*
X038996Y038261D01*
X038996Y037763D02*
X038592Y037763D01*
X039752Y037763D02*
X039844Y037763D01*
X039844Y038161D02*
X039752Y038161D01*
X039844Y038353D02*
X040600Y038353D01*
X040600Y038859D01*
X040554Y038969D01*
X040470Y039053D01*
X040360Y039099D01*
X039844Y039099D01*
X039844Y038353D01*
X039844Y038560D02*
X039752Y038560D01*
X039752Y038958D02*
X039844Y038958D01*
X040559Y038958D02*
X045844Y038958D01*
X045446Y038560D02*
X040600Y038560D01*
X040600Y038161D02*
X045047Y038161D01*
X044649Y037763D02*
X040600Y037763D01*
X039720Y036567D02*
X043453Y036567D01*
X043851Y036965D02*
X035942Y036965D01*
X035970Y036567D02*
X039334Y036567D01*
X039415Y036168D02*
X039416Y036168D01*
X039665Y036168D02*
X039666Y036168D01*
X039814Y035770D02*
X039814Y035770D01*
X039998Y035770D02*
X041065Y035770D01*
X041314Y035770D02*
X041314Y035770D01*
X041767Y035770D02*
X041767Y035770D01*
X042045Y035770D02*
X042656Y035770D01*
X043054Y036168D02*
X040100Y036168D01*
X039733Y035371D02*
X040694Y035371D01*
X040467Y034973D02*
X040131Y034973D01*
X040603Y034176D02*
X041062Y034176D01*
X041246Y034574D02*
X041460Y034574D01*
X041639Y034973D02*
X041859Y034973D01*
X041713Y035371D02*
X041712Y035371D01*
X042071Y035371D02*
X042257Y035371D01*
X044250Y037364D02*
X035181Y037364D01*
X035355Y037138D02*
X035355Y036307D01*
X035355Y036307D01*
X035355Y037138D01*
X035355Y036965D02*
X035355Y036965D01*
X035355Y036567D02*
X035355Y036567D01*
X035356Y036307D02*
X035970Y036307D01*
X035356Y036307D01*
X035356Y036307D01*
X035355Y036168D02*
X035355Y036168D01*
X035355Y035770D02*
X035355Y035770D01*
X035970Y035770D02*
X038565Y035770D01*
X038166Y035371D02*
X034444Y035371D01*
X034459Y034973D02*
X037768Y034973D01*
X037495Y034574D02*
X034459Y034574D01*
X034244Y034176D02*
X037178Y034176D01*
X036600Y033777D02*
X033155Y033777D01*
X033155Y033807D02*
X032639Y033807D01*
X033155Y033807D01*
X033124Y034176D02*
X033484Y034176D01*
X033048Y033379D02*
X036173Y033379D01*
X036259Y033379D02*
X036259Y033379D01*
X036477Y032980D02*
X036478Y032980D01*
X036657Y032980D02*
X036658Y032980D01*
X036781Y032581D02*
X037964Y032581D01*
X038070Y032183D02*
X038362Y032183D01*
X038081Y032120D02*
X038081Y032121D01*
X038465Y031784D02*
X038761Y031784D01*
X037811Y031573D02*
X037811Y031572D01*
X037672Y031711D01*
X037673Y031711D01*
X037811Y031573D01*
X037672Y031712D02*
X037564Y031819D01*
X037533Y031850D01*
X037533Y031851D01*
X037672Y031712D01*
X037672Y031712D01*
X037600Y031784D02*
X037599Y031784D01*
X037564Y031819D02*
X037564Y031819D01*
X037371Y032183D02*
X031826Y032183D01*
X031774Y031784D02*
X037001Y031784D01*
X037128Y031386D02*
X031774Y031386D01*
X031988Y030987D02*
X037317Y030987D01*
X037402Y031163D02*
X037402Y031163D01*
X036918Y030589D02*
X032044Y030589D01*
X032044Y030190D02*
X036519Y030190D01*
X036121Y029792D02*
X032044Y029792D01*
X032044Y029807D02*
X031774Y029807D01*
X032044Y029807D01*
X031774Y029807D02*
X031774Y029807D01*
X032044Y029393D02*
X035722Y029393D01*
X035324Y028995D02*
X032044Y028995D01*
X031958Y028596D02*
X034925Y028596D01*
X032024Y028198D02*
X031784Y028198D01*
X031784Y027799D02*
X032027Y027799D01*
X032024Y027400D02*
X031577Y027400D01*
X031304Y027807D02*
X031304Y028307D01*
X030824Y028198D02*
X023278Y028198D01*
X022804Y028307D02*
X021804Y028307D01*
X021597Y027799D02*
X030824Y027799D01*
X031032Y027400D02*
X021584Y027400D01*
X021804Y026807D02*
X022804Y026807D01*
X023243Y027002D02*
X032024Y027002D01*
X032024Y026603D02*
X023239Y026603D01*
X021584Y026205D02*
X032024Y026205D01*
X032026Y025806D02*
X021582Y025806D01*
X021584Y025408D02*
X032024Y025408D01*
X032024Y025009D02*
X021584Y025009D01*
X021584Y024611D02*
X032024Y024611D01*
X032024Y024212D02*
X021584Y024212D01*
X021581Y023814D02*
X032024Y023814D01*
X032024Y023415D02*
X021584Y023415D01*
X021584Y023016D02*
X032024Y023016D01*
X031436Y022618D02*
X021584Y022618D01*
X021584Y022219D02*
X031324Y022219D01*
X031324Y021821D02*
X021584Y021821D01*
X021584Y021422D02*
X029832Y021422D01*
X029824Y021024D02*
X021584Y021024D01*
X022164Y020625D02*
X029824Y020625D01*
X029824Y020227D02*
X022284Y020227D01*
X022284Y019828D02*
X030205Y019828D01*
X030304Y020307D02*
X030804Y020307D01*
X031164Y020625D02*
X031774Y020625D01*
X032004Y020227D02*
X031450Y020227D01*
X031848Y019828D02*
X032017Y019828D01*
X031116Y019430D02*
X022284Y019430D01*
X022207Y019031D02*
X022377Y019031D01*
X022149Y018632D02*
X022100Y018632D01*
X021834Y018234D02*
X021712Y018234D01*
X022712Y018234D02*
X031084Y018234D01*
X030804Y018807D02*
X029804Y018807D01*
X029357Y018632D02*
X024251Y018632D01*
X024231Y019031D02*
X029377Y019031D01*
X030304Y020307D02*
X030304Y021307D01*
X030776Y021422D02*
X031324Y021422D01*
X031408Y021024D02*
X030784Y021024D01*
X031804Y021307D02*
X031804Y022307D01*
X031734Y018827D02*
X031854Y018777D01*
X032004Y018777D01*
X032004Y018677D01*
X032070Y018677D01*
X032070Y018677D01*
X032070Y018677D01*
X032004Y018677D01*
X032004Y018557D01*
X032006Y018552D01*
X032004Y018546D01*
X032004Y018427D01*
X032070Y018427D01*
X032070Y018427D01*
X032004Y018427D01*
X032004Y018307D01*
X032050Y018197D01*
X032134Y018112D01*
X032244Y018067D01*
X033304Y018067D01*
X033304Y018317D01*
X033304Y018426D01*
X033304Y018426D01*
X033304Y018317D01*
X033304Y018067D01*
X034364Y018067D01*
X034474Y018112D01*
X034558Y018197D01*
X034604Y018307D01*
X034604Y018427D01*
X034604Y018546D01*
X034602Y018552D01*
X034604Y018557D01*
X034604Y018677D01*
X034604Y018776D01*
X036404Y016976D01*
X036404Y014284D01*
X036366Y014284D01*
X036330Y014269D01*
X036246Y014304D01*
X035970Y014304D01*
X035970Y013807D01*
X035969Y013807D01*
X035969Y013807D01*
X035453Y013807D01*
X035453Y014063D01*
X035499Y014174D01*
X035583Y014258D01*
X035693Y014304D01*
X035969Y014304D01*
X035969Y013807D01*
X035453Y013807D01*
X035453Y013550D01*
X035499Y013440D01*
X035583Y013356D01*
X035693Y013310D01*
X035969Y013310D01*
X035969Y013806D01*
X035970Y013806D01*
X035970Y013310D01*
X036159Y013310D01*
X036159Y013304D01*
X035970Y013304D01*
X035970Y012807D01*
X035969Y012807D01*
X035969Y012807D01*
X035453Y012807D01*
X035453Y013063D01*
X035499Y013174D01*
X035583Y013258D01*
X035693Y013304D01*
X035969Y013304D01*
X035969Y012807D01*
X035453Y012807D01*
X035453Y012550D01*
X035499Y012440D01*
X035583Y012356D01*
X035693Y012310D01*
X035969Y012310D01*
X035969Y012806D01*
X035970Y012806D01*
X035970Y012310D01*
X036159Y012310D01*
X036159Y012240D01*
X036149Y012217D01*
X036149Y011396D01*
X036192Y011293D01*
X036271Y011214D01*
X036374Y011172D01*
X037115Y011172D01*
X037218Y011214D01*
X037297Y011293D01*
X037304Y011311D01*
X037312Y011293D01*
X037390Y011214D01*
X037493Y011172D01*
X037498Y011172D01*
X037453Y011063D01*
X037453Y010807D01*
X037969Y010807D01*
X037969Y010807D01*
X037453Y010807D01*
X037453Y010550D01*
X037499Y010440D01*
X037583Y010356D01*
X037693Y010310D01*
X037969Y010310D01*
X037969Y010806D01*
X037970Y010806D01*
X037970Y010310D01*
X038246Y010310D01*
X038330Y010345D01*
X038366Y010330D01*
X038536Y010330D01*
X038543Y010327D01*
X039105Y010327D01*
X039128Y010304D01*
X038970Y010304D01*
X038970Y009807D01*
X038969Y009807D01*
X038969Y009807D01*
X038453Y009807D01*
X038453Y010063D01*
X038499Y010174D01*
X038583Y010258D01*
X038693Y010304D01*
X038969Y010304D01*
X038969Y009807D01*
X038453Y009807D01*
X038453Y009550D01*
X038499Y009440D01*
X038583Y009356D01*
X038693Y009310D01*
X038969Y009310D01*
X038969Y009806D01*
X038970Y009806D01*
X038970Y009310D01*
X038985Y009310D01*
X038934Y009258D01*
X038888Y009148D01*
X038888Y008557D01*
X039502Y008557D01*
X039502Y008557D01*
X038888Y008557D01*
X038888Y007966D01*
X038934Y007855D01*
X039018Y007771D01*
X039128Y007725D01*
X039503Y007725D01*
X039878Y007725D01*
X039988Y007771D01*
X040068Y007851D01*
X040132Y007788D01*
X040235Y007745D01*
X040574Y007745D01*
X040574Y007027D01*
X040554Y007027D01*
X040453Y007027D01*
X040278Y006954D01*
X040152Y007007D01*
X039957Y007007D01*
X039804Y006944D01*
X039652Y007007D01*
X039457Y007007D01*
X039330Y006954D01*
X039156Y007027D01*
X039054Y007027D01*
X038953Y007027D01*
X038804Y006965D01*
X038656Y007027D01*
X038554Y007027D01*
X038453Y007027D01*
X038304Y006965D01*
X038156Y007027D01*
X038054Y007027D01*
X037953Y007027D01*
X037804Y006965D01*
X037656Y007027D01*
X037554Y007027D01*
X037453Y007027D01*
X037304Y006965D01*
X037156Y007027D01*
X037054Y007027D01*
X036953Y007027D01*
X036804Y006965D01*
X036656Y007027D01*
X036554Y007027D01*
X036534Y007027D01*
X036534Y007152D01*
X036461Y007329D01*
X036326Y007464D01*
X035989Y007801D01*
X036040Y007851D01*
X036120Y007771D01*
X036231Y007725D01*
X036605Y007725D01*
X036605Y008556D01*
X036605Y008556D01*
X036605Y007725D01*
X036980Y007725D01*
X037090Y007771D01*
X037175Y007855D01*
X037220Y007966D01*
X037220Y008557D01*
X037220Y009148D01*
X037175Y009258D01*
X037090Y009343D01*
X036980Y009388D01*
X036605Y009388D01*
X036231Y009388D01*
X036120Y009343D01*
X036040Y009262D01*
X035976Y009326D01*
X035874Y009368D01*
X035538Y009368D01*
X035610Y009440D01*
X035655Y009550D01*
X035655Y009807D01*
X035655Y010063D01*
X035610Y010174D01*
X035525Y010258D01*
X035415Y010304D01*
X035139Y010304D01*
X035139Y009807D01*
X035655Y009807D01*
X035139Y009807D01*
X035139Y009807D01*
X035139Y009807D01*
X035139Y010304D01*
X034862Y010304D01*
X034778Y010269D01*
X034742Y010284D01*
X034671Y010284D01*
X034645Y010310D01*
X034915Y010310D01*
X035025Y010356D01*
X035110Y010440D01*
X035155Y010550D01*
X035155Y010807D01*
X035155Y011063D01*
X035110Y011174D01*
X035025Y011258D01*
X034915Y011304D01*
X034639Y011304D01*
X034639Y010807D01*
X035155Y010807D01*
X034639Y010807D01*
X034639Y010807D01*
X034639Y010807D01*
X034639Y011304D01*
X034449Y011304D01*
X034449Y011373D01*
X034459Y011396D01*
X034459Y012217D01*
X034416Y012320D01*
X034337Y012399D01*
X034235Y012442D01*
X033493Y012442D01*
X033390Y012399D01*
X033312Y012320D01*
X033304Y012302D01*
X033297Y012320D01*
X033218Y012399D01*
X033115Y012442D01*
X033110Y012442D01*
X033155Y012550D01*
X033155Y012807D01*
X033155Y013063D01*
X033110Y013174D01*
X033025Y013258D01*
X032915Y013304D01*
X032639Y013304D01*
X032639Y012807D01*
X033155Y012807D01*
X032639Y012807D01*
X032639Y012807D01*
X032639Y012807D01*
X032639Y013304D01*
X032449Y013304D01*
X032449Y013310D01*
X032639Y013310D01*
X032915Y013310D01*
X033025Y013356D01*
X033110Y013440D01*
X033155Y013550D01*
X033155Y013807D01*
X033155Y014063D01*
X033110Y014174D01*
X033025Y014258D01*
X032915Y014304D01*
X032639Y014304D01*
X032639Y013807D01*
X033155Y013807D01*
X032639Y013807D01*
X032639Y013807D01*
X032639Y013807D01*
X032639Y014304D01*
X032362Y014304D01*
X032278Y014269D01*
X032242Y014284D01*
X032073Y014284D01*
X032065Y014287D01*
X031970Y014287D01*
X031764Y014493D01*
X031764Y015507D01*
X031794Y015507D01*
X031904Y015552D01*
X031988Y015637D01*
X032034Y015747D01*
X032034Y016807D01*
X032034Y017866D01*
X031988Y017977D01*
X031904Y018061D01*
X031794Y018107D01*
X031764Y018107D01*
X031764Y018619D01*
X031764Y018754D01*
X031734Y018827D01*
X031764Y018632D02*
X032004Y018632D01*
X032034Y018234D02*
X031764Y018234D01*
X032034Y017835D02*
X035545Y017835D01*
X035943Y017437D02*
X032034Y017437D01*
X032034Y017038D02*
X036342Y017038D01*
X036404Y016640D02*
X032034Y016640D01*
X032034Y016807D02*
X031764Y016807D01*
X032034Y016807D01*
X031764Y016807D02*
X031764Y016807D01*
X032034Y016241D02*
X036404Y016241D01*
X036404Y015843D02*
X032034Y015843D01*
X031764Y015444D02*
X036404Y015444D01*
X036404Y015046D02*
X031764Y015046D01*
X031764Y014647D02*
X036404Y014647D01*
X035970Y014249D02*
X035969Y014249D01*
X035574Y014249D02*
X033035Y014249D01*
X032639Y014249D02*
X032639Y014249D01*
X032639Y013850D02*
X032639Y013850D01*
X032639Y013806D02*
X032639Y013310D01*
X032639Y013806D01*
X032639Y013806D01*
X032639Y013451D02*
X032639Y013451D01*
X032639Y013053D02*
X032639Y013053D01*
X033155Y013053D02*
X035453Y013053D01*
X035453Y012654D02*
X033155Y012654D01*
X033114Y013451D02*
X035494Y013451D01*
X035453Y013850D02*
X033155Y013850D01*
X031969Y013807D02*
X031969Y012807D01*
X031969Y012582D01*
X032744Y011807D01*
X033864Y011807D02*
X033969Y011701D01*
X033969Y010807D01*
X033969Y010307D01*
X034469Y009807D01*
X034469Y009590D01*
X035503Y008557D01*
X035503Y007608D01*
X036054Y007057D01*
X036054Y006307D01*
X036054Y005307D01*
X035554Y005307D02*
X035554Y006307D01*
X035054Y006307D02*
X035054Y005307D01*
X034554Y005307D02*
X034554Y006307D01*
X034054Y006307D02*
X034054Y005307D01*
X033554Y005307D02*
X033554Y006307D01*
X033054Y006307D02*
X033054Y005307D01*
X032554Y005307D02*
X032554Y006307D01*
X032054Y006307D02*
X032054Y005307D01*
X031554Y005307D02*
X031554Y006307D01*
X031054Y006307D02*
X031054Y005307D01*
X030554Y005307D02*
X030554Y006307D01*
X030054Y006307D02*
X030054Y005307D01*
X029554Y005307D02*
X029554Y006307D01*
X029054Y006307D02*
X029054Y005307D01*
X028554Y005307D02*
X028554Y006307D01*
X028054Y006307D02*
X028054Y005307D01*
X027554Y005307D02*
X027554Y006307D01*
X027054Y006307D02*
X027054Y005307D01*
X026554Y005307D02*
X026554Y006307D01*
X026054Y006307D02*
X026054Y005307D01*
X025554Y005307D02*
X025554Y006307D01*
X025054Y006307D02*
X025054Y005307D01*
X024554Y005307D02*
X024554Y006307D01*
X024054Y006307D02*
X024054Y005307D01*
X023554Y005307D02*
X023554Y006307D01*
X023054Y006307D02*
X023054Y005307D01*
X022554Y005307D02*
X022554Y006307D01*
X022054Y006307D02*
X022054Y005307D01*
X021554Y005307D02*
X021554Y006307D01*
X021054Y006307D02*
X021054Y005307D01*
X020554Y005307D02*
X020554Y006307D01*
X020054Y006307D02*
X020054Y005307D01*
X019554Y005307D02*
X019554Y006307D01*
X019054Y006307D02*
X019054Y005307D01*
X018554Y005307D02*
X018554Y006307D01*
X018054Y006307D02*
X018054Y005307D01*
X017554Y005307D02*
X017554Y006307D01*
X017554Y008063D01*
X017798Y008307D01*
X017054Y006676D02*
X017054Y006676D01*
X017054Y006307D02*
X017054Y006307D01*
X017054Y005082D02*
X017054Y005082D01*
X017054Y004683D02*
X017054Y004683D01*
X015856Y010662D02*
X015764Y010662D01*
X015764Y011060D02*
X015856Y011060D01*
X015155Y011060D02*
X002204Y011060D01*
X002204Y010662D02*
X015008Y010662D01*
X017777Y013053D02*
X017859Y013053D01*
X018852Y013053D02*
X020453Y013053D01*
X020453Y012654D02*
X018950Y012654D01*
X020494Y013451D02*
X012096Y013451D01*
X012096Y013850D02*
X020453Y013850D01*
X020969Y013850D02*
X020970Y013850D01*
X020969Y013451D02*
X020970Y013451D01*
X020969Y013053D02*
X020970Y013053D01*
X021639Y012807D02*
X021639Y012141D01*
X021304Y011807D01*
X020864Y011807D01*
X021639Y012807D02*
X021639Y013807D01*
X017038Y018632D02*
X016570Y018632D01*
X021804Y019307D02*
X021804Y020307D01*
X022804Y018807D02*
X023804Y018807D01*
X033304Y018676D02*
X033304Y018567D01*
X033304Y018427D01*
X033304Y018427D01*
X033304Y018567D01*
X033304Y018676D01*
X033304Y018676D01*
X033304Y018632D02*
X033304Y018632D01*
X033304Y018234D02*
X033304Y018234D01*
X034538Y018427D02*
X034539Y018427D01*
X034604Y018427D01*
X034538Y018427D01*
X034574Y018234D02*
X035146Y018234D01*
X034748Y018632D02*
X034604Y018632D01*
X034604Y018677D02*
X034539Y018677D01*
X034604Y018677D01*
X034539Y018677D02*
X034538Y018677D01*
X034539Y018677D01*
X039639Y019807D02*
X040469Y019807D01*
X042139Y019031D02*
X042139Y019031D01*
X042139Y018806D02*
X042139Y018310D01*
X042139Y018806D01*
X042139Y018806D01*
X042139Y018632D02*
X042139Y018632D01*
X042655Y018632D02*
X043214Y018632D01*
X043214Y019031D02*
X042655Y019031D01*
X043071Y019430D02*
X043281Y019430D01*
X042139Y017038D02*
X042139Y017038D01*
X042139Y016806D02*
X042139Y016310D01*
X042139Y016806D01*
X042139Y016806D01*
X042139Y016640D02*
X042139Y016640D01*
X044412Y017015D02*
X044433Y017015D01*
X044481Y017035D01*
X044517Y017035D01*
X044533Y017019D01*
X044658Y016967D01*
X045214Y016967D01*
X045214Y016541D01*
X045179Y016576D01*
X045076Y016618D01*
X044808Y016618D01*
X044412Y017015D01*
X044786Y016640D02*
X045214Y016640D01*
X046693Y017038D02*
X047308Y017038D01*
X047324Y016640D02*
X046786Y016640D01*
X047804Y017641D02*
X047804Y018472D01*
X047327Y018632D02*
X047144Y018632D01*
X047163Y019031D02*
X047307Y019031D01*
X047301Y019430D02*
X047312Y019430D01*
X047275Y019828D02*
X051404Y019828D01*
X050854Y019430D02*
X050754Y019430D01*
X050754Y019031D02*
X048301Y019031D01*
X048296Y019430D02*
X049504Y019430D01*
X049504Y018632D02*
X048281Y018632D01*
X048284Y018234D02*
X049679Y018234D01*
X050754Y018234D02*
X050854Y018234D01*
X050854Y018632D02*
X050754Y018632D01*
X048534Y017835D02*
X048301Y017835D01*
X047308Y017835D02*
X046900Y017835D01*
X047109Y018234D02*
X047324Y018234D01*
X047804Y019430D02*
X047804Y019430D01*
X049092Y021821D02*
X049496Y021821D01*
X050252Y021821D02*
X050344Y021821D01*
X050344Y022219D02*
X050252Y022219D01*
X050344Y022353D02*
X051100Y022353D01*
X051100Y022859D01*
X051054Y022969D01*
X050970Y023053D01*
X050860Y023099D01*
X050344Y023099D01*
X050344Y022353D01*
X050344Y022618D02*
X050252Y022618D01*
X050252Y023016D02*
X050344Y023016D01*
X051007Y023016D02*
X051404Y023016D01*
X051404Y022618D02*
X051100Y022618D01*
X051100Y022219D02*
X051404Y022219D01*
X051404Y021821D02*
X051100Y021821D01*
X051404Y023415D02*
X048890Y023415D01*
X048310Y024307D02*
X048310Y026051D01*
X048304Y026057D01*
X047054Y026057D01*
X048304Y026057D02*
X048804Y026057D01*
X048804Y026557D02*
X049804Y026557D01*
X049804Y025806D02*
X049804Y025806D01*
X050252Y025009D02*
X050344Y025009D01*
X050344Y024611D02*
X050252Y024611D01*
X050252Y024212D02*
X050344Y024212D01*
X050344Y023814D02*
X050252Y023814D01*
X051100Y023814D02*
X051404Y023814D01*
X051404Y024212D02*
X051100Y024212D01*
X051100Y024611D02*
X051404Y024611D01*
X051404Y025009D02*
X051014Y025009D01*
X049804Y027057D02*
X048804Y027057D01*
X048804Y027557D02*
X049804Y027557D01*
X049804Y028057D02*
X048804Y028057D01*
X048804Y028557D02*
X049804Y028557D01*
X049804Y029057D02*
X048804Y029057D01*
X048804Y029557D02*
X049804Y029557D01*
X049804Y030057D02*
X048804Y030057D01*
X048804Y030557D02*
X049804Y030557D01*
X049804Y031057D02*
X048804Y031057D01*
X048804Y031557D02*
X049804Y031557D01*
X049804Y032057D02*
X048804Y032057D01*
X048804Y032557D02*
X049804Y032557D01*
X049804Y033057D02*
X048804Y033057D01*
X048804Y033557D02*
X049804Y033557D01*
X049804Y034057D02*
X048804Y034057D01*
X048804Y034557D02*
X049804Y034557D01*
X049804Y035057D02*
X048804Y035057D01*
X048804Y035557D02*
X049804Y035557D01*
X049804Y036057D02*
X048804Y036057D01*
X048804Y036557D02*
X049804Y036557D01*
X049804Y037057D02*
X048804Y037057D01*
X048804Y037557D02*
X049804Y037557D01*
X049804Y038057D02*
X048804Y038057D01*
X048804Y038557D02*
X049804Y038557D01*
X049804Y039057D02*
X048804Y039057D01*
X048804Y039557D02*
X049804Y039557D01*
X049804Y040057D02*
X048804Y040057D01*
X051404Y041349D02*
X041856Y041349D01*
X041850Y041748D02*
X051404Y041748D01*
X041105Y041748D02*
X041003Y041748D01*
X041003Y041349D02*
X041105Y041349D01*
X041105Y040951D02*
X041003Y040951D01*
X041003Y040552D02*
X041105Y040552D01*
X041105Y040154D02*
X041003Y040154D01*
X041003Y039755D02*
X041105Y039755D01*
X040313Y039755D02*
X039267Y039755D01*
X039336Y040154D02*
X040252Y040154D01*
X040252Y040552D02*
X039336Y040552D01*
X039336Y040951D02*
X040252Y040951D01*
X040252Y041349D02*
X039336Y041349D01*
X039328Y041748D02*
X040259Y041748D01*
X037780Y041748D02*
X036989Y041748D01*
X037044Y041349D02*
X037772Y041349D01*
X037772Y040951D02*
X037024Y040951D01*
X037064Y040552D02*
X037479Y040552D01*
X037230Y040154D02*
X037064Y040154D01*
X037064Y040307D02*
X036554Y040307D01*
X037064Y040307D01*
X036554Y040307D02*
X036554Y040307D01*
X036554Y040154D02*
X036554Y040154D01*
X036554Y039755D02*
X036554Y039755D01*
X036934Y039755D02*
X037230Y039755D01*
X037230Y039357D02*
X036534Y039357D01*
X036534Y038958D02*
X037071Y038958D01*
X036054Y038307D02*
X035804Y038307D01*
X036054Y038307D02*
X036054Y041307D01*
X036054Y040307D01*
X035554Y040307D02*
X035554Y041307D01*
X035054Y041307D02*
X035054Y040307D01*
X034554Y040307D02*
X034554Y041307D01*
X034054Y041307D02*
X034054Y040307D01*
X033554Y040307D02*
X033554Y041307D01*
X033054Y041307D02*
X033054Y040307D01*
X032554Y040307D02*
X032554Y041307D01*
X032054Y041307D02*
X032054Y040307D01*
X031554Y040307D02*
X031554Y041307D01*
X031054Y041307D02*
X031054Y040307D01*
X030554Y040307D02*
X030554Y041307D01*
X030054Y041307D02*
X030054Y040307D01*
X029554Y040307D02*
X029554Y041307D01*
X029054Y041307D02*
X029054Y040307D01*
X028554Y040307D02*
X028554Y041307D01*
X028054Y041307D02*
X028054Y040307D01*
X027554Y040307D02*
X027554Y041307D01*
X027054Y041307D02*
X027054Y040307D01*
X026554Y040307D02*
X026554Y041307D01*
X026054Y041307D02*
X026054Y040307D01*
X025554Y040307D02*
X025554Y041307D01*
X025054Y041307D02*
X025054Y040307D01*
X024554Y040307D02*
X024554Y041307D01*
X024054Y041307D02*
X024054Y040307D01*
X023554Y040307D02*
X023554Y041307D01*
X023054Y041307D02*
X023054Y040307D01*
X022554Y040307D02*
X022554Y041307D01*
X022054Y041307D02*
X022054Y040307D01*
X021554Y040307D02*
X021554Y041307D01*
X021054Y041307D02*
X021054Y040307D01*
X020554Y040307D02*
X020554Y041307D01*
X020054Y041307D02*
X020054Y040307D01*
X019554Y040307D02*
X019554Y041307D01*
X019054Y041307D02*
X019054Y040307D01*
X018554Y040307D02*
X018554Y041307D01*
X018054Y041307D02*
X018054Y040307D01*
X017554Y040307D02*
X017554Y041307D01*
X017054Y041307D02*
X017054Y040307D01*
X018758Y028834D02*
X018758Y028834D01*
X017304Y027799D02*
X017304Y027799D01*
X016807Y027799D02*
X016801Y027799D01*
X016304Y027799D02*
X016304Y027799D01*
X015807Y027799D02*
X015801Y027799D01*
X015801Y027892D02*
X015801Y028168D01*
X015755Y028278D01*
X015671Y028362D01*
X015561Y028408D01*
X015304Y028408D01*
X015048Y028408D01*
X014937Y028362D01*
X014853Y028278D01*
X014807Y028168D01*
X014807Y027892D01*
X015304Y027892D01*
X015304Y028408D01*
X015304Y027892D01*
X015304Y027892D01*
X015304Y027891D01*
X015304Y027892D01*
X015801Y027892D01*
X015789Y028198D02*
X015807Y028198D01*
X015304Y028198D02*
X015304Y028198D01*
X014820Y028198D02*
X014789Y028198D01*
X014801Y028168D02*
X014755Y028278D01*
X014671Y028362D01*
X014561Y028408D01*
X014304Y028408D01*
X014304Y027892D01*
X014304Y027892D01*
X014304Y027891D01*
X014304Y027892D01*
X014801Y027892D01*
X014801Y028168D01*
X014801Y027799D02*
X014807Y027799D01*
X014304Y028198D02*
X014304Y028198D01*
X011424Y016241D02*
X005468Y016241D01*
X005456Y015843D02*
X009341Y015843D01*
X008871Y015444D02*
X005498Y015444D01*
X005504Y015046D02*
X007658Y015046D01*
X007554Y014557D02*
X008804Y014557D01*
X009861Y013850D02*
X010512Y013850D01*
X008855Y012654D02*
X008753Y012654D01*
X008753Y012256D02*
X008855Y012256D01*
X008855Y011857D02*
X008753Y011857D01*
X008753Y011459D02*
X008855Y011459D01*
X007653Y011459D02*
X002204Y011459D01*
X002204Y011857D02*
X007638Y011857D01*
X007638Y012256D02*
X002204Y012256D01*
X002204Y012654D02*
X007653Y012654D01*
X006567Y014249D02*
X005465Y014249D01*
X005504Y014647D02*
X006966Y014647D01*
X002204Y003886D02*
X051404Y003886D01*
X041554Y005307D02*
X041554Y006307D01*
X041054Y006307D02*
X041054Y005307D01*
X040554Y005307D02*
X040554Y005307D01*
X040554Y005587D01*
X040554Y006306D01*
X040554Y006306D01*
X040554Y005587D01*
X040554Y005307D01*
X040554Y006307D01*
X040554Y007027D01*
X040554Y006307D01*
X040554Y006307D01*
X040554Y006278D02*
X040554Y006278D01*
X040554Y006676D02*
X040554Y006676D01*
X040574Y007075D02*
X036534Y007075D01*
X036554Y007027D02*
X036554Y006642D01*
X036554Y006643D01*
X036554Y007027D01*
X036554Y006676D02*
X036554Y006676D01*
X036554Y006307D02*
X037044Y006307D01*
X037054Y006307D01*
X037054Y005307D01*
X037054Y005307D01*
X037044Y005307D01*
X036554Y005307D01*
X036554Y006307D01*
X036554Y006307D01*
X037044Y006307D01*
X037054Y006307D01*
X037054Y006307D01*
X037554Y006307D01*
X037554Y005307D01*
X037554Y005307D01*
X037054Y005307D01*
X037054Y005307D01*
X037044Y005307D01*
X036554Y005307D01*
X036554Y005307D01*
X036554Y005642D02*
X036554Y005972D01*
X036554Y005971D01*
X036554Y005643D01*
X036554Y005642D01*
X036554Y005879D02*
X036554Y005879D01*
X037054Y005879D02*
X037054Y005879D01*
X037054Y005971D02*
X037054Y005971D01*
X037054Y005971D01*
X037054Y005643D01*
X037054Y005642D01*
X037054Y005643D01*
X037054Y005971D01*
X037054Y006307D02*
X037554Y006307D01*
X037554Y006307D01*
X038054Y006307D01*
X038054Y005307D01*
X038054Y005307D01*
X037554Y005307D01*
X037554Y005307D01*
X037054Y005307D01*
X037554Y005307D02*
X038054Y005307D01*
X038064Y005307D01*
X038544Y005307D01*
X038554Y005307D01*
X038554Y006307D01*
X038554Y006307D01*
X038544Y006307D01*
X038064Y006307D01*
X038054Y006307D01*
X038054Y006307D01*
X038054Y006307D01*
X037554Y006307D01*
X037554Y006307D01*
X037554Y006642D02*
X037554Y006643D01*
X037554Y007027D01*
X037554Y006643D01*
X037554Y006642D01*
X037554Y006676D02*
X037554Y006676D01*
X037054Y006676D02*
X037054Y006676D01*
X037054Y006643D02*
X037054Y007027D01*
X037054Y006643D01*
X037054Y006642D01*
X037054Y006643D01*
X037054Y006307D02*
X037054Y006307D01*
X037554Y005971D02*
X037554Y005971D01*
X037554Y005643D01*
X037554Y005642D01*
X037554Y005643D01*
X037554Y005971D01*
X037554Y005971D01*
X037554Y005879D02*
X037554Y005879D01*
X038054Y005879D02*
X038054Y005879D01*
X038054Y005971D02*
X038054Y005971D01*
X038054Y005971D01*
X038054Y005643D01*
X038054Y005642D01*
X038054Y005643D01*
X038054Y005971D01*
X038064Y006307D02*
X038054Y006307D01*
X038064Y006307D02*
X038544Y006307D01*
X038554Y006307D01*
X039054Y006307D01*
X039054Y005307D01*
X039054Y005307D01*
X038554Y005307D01*
X038554Y005307D01*
X038554Y005307D01*
X038544Y005307D01*
X038064Y005307D01*
X038054Y005307D01*
X038054Y005307D01*
X038554Y005307D02*
X039054Y005307D01*
X039054Y005642D02*
X039054Y005643D01*
X039054Y005971D01*
X039054Y005972D01*
X039054Y005642D01*
X039054Y005879D02*
X039054Y005879D01*
X039054Y006307D02*
X038554Y006307D01*
X038554Y006307D01*
X038554Y006642D02*
X038554Y006643D01*
X038554Y007027D01*
X038554Y006643D01*
X038554Y006642D01*
X038554Y006676D02*
X038554Y006676D01*
X038054Y006676D02*
X038054Y006676D01*
X038054Y006643D02*
X038054Y007027D01*
X038054Y006643D01*
X038054Y006642D01*
X038054Y006643D01*
X038554Y005971D02*
X038554Y005971D01*
X038554Y005971D01*
X038554Y005643D01*
X038554Y005642D01*
X038554Y005643D01*
X038554Y005971D01*
X038554Y005879D02*
X038554Y005879D01*
X039054Y006307D02*
X039054Y006307D01*
X039054Y006642D02*
X039054Y006643D01*
X039054Y007027D01*
X039054Y006642D01*
X039054Y006676D02*
X039054Y006676D01*
X039554Y006307D02*
X039554Y005307D01*
X040054Y005307D02*
X040054Y006307D01*
X040554Y005879D02*
X040554Y005879D01*
X040554Y005481D02*
X040554Y005481D01*
X040554Y005082D02*
X040554Y005082D01*
X040554Y004683D02*
X040554Y004683D01*
X039054Y004683D02*
X039054Y004683D01*
X038554Y004683D02*
X038554Y004683D01*
X038054Y004683D02*
X038054Y004683D01*
X037554Y004683D02*
X037554Y004683D01*
X037054Y004683D02*
X037054Y004683D01*
X036554Y004683D02*
X036554Y004683D01*
X036326Y007464D02*
X036326Y007464D01*
X036316Y007473D02*
X040574Y007473D01*
X041054Y008108D02*
X040605Y008557D01*
X040605Y009506D01*
X040304Y009807D01*
X039639Y009807D01*
X039639Y010472D01*
X039304Y010807D01*
X038639Y010807D01*
X038639Y011472D01*
X038304Y011807D01*
X037864Y011807D01*
X037453Y011060D02*
X035155Y011060D01*
X035155Y010662D02*
X037453Y010662D01*
X037969Y010662D02*
X037970Y010662D01*
X038595Y010263D02*
X035513Y010263D01*
X035139Y010263D02*
X035139Y010263D01*
X035139Y009865D02*
X035139Y009865D01*
X035655Y009865D02*
X038453Y009865D01*
X038488Y009466D02*
X035620Y009466D01*
X036605Y009388D02*
X036605Y008557D01*
X036605Y008557D01*
X036605Y009388D01*
X036605Y009067D02*
X036605Y009067D01*
X036605Y008669D02*
X036605Y008669D01*
X036606Y008557D02*
X037220Y008557D01*
X036606Y008557D01*
X036606Y008557D01*
X036605Y008270D02*
X036605Y008270D01*
X036605Y007872D02*
X036605Y007872D01*
X037181Y007872D02*
X038927Y007872D01*
X038888Y008270D02*
X037220Y008270D01*
X037220Y008669D02*
X038888Y008669D01*
X038888Y009067D02*
X037220Y009067D01*
X038969Y009466D02*
X038970Y009466D01*
X038969Y009865D02*
X038970Y009865D01*
X038969Y010263D02*
X038970Y010263D01*
X039503Y008556D02*
X039503Y008556D01*
X039503Y007725D01*
X039503Y008556D01*
X039503Y008270D02*
X039503Y008270D01*
X039503Y007872D02*
X039503Y007872D01*
X041054Y008108D02*
X041054Y006307D01*
X036149Y011459D02*
X034459Y011459D01*
X034459Y011857D02*
X036149Y011857D01*
X036159Y012256D02*
X034443Y012256D01*
X035969Y012654D02*
X035970Y012654D01*
X035969Y013053D02*
X035970Y013053D01*
X035969Y013451D02*
X035970Y013451D01*
X035969Y013850D02*
X035970Y013850D01*
X036639Y013807D02*
X036639Y012807D01*
X036639Y011912D01*
X036744Y011807D01*
X034639Y011060D02*
X034639Y011060D01*
X047804Y015046D02*
X047804Y015046D01*
X047804Y015444D02*
X047804Y015444D01*
X047804Y015472D02*
X047804Y015472D01*
X048301Y015444D02*
X049504Y015444D01*
X049505Y015046D02*
X048215Y015046D01*
X048270Y015843D02*
X049504Y015843D01*
X049535Y016241D02*
X048284Y016241D01*
X039979Y024212D02*
X039412Y024212D01*
X039419Y024219D02*
X039068Y024570D01*
X039419Y024219D01*
X039614Y024414D01*
X039649Y024499D01*
X039685Y024514D01*
X040053Y024882D01*
X040216Y024719D01*
X040567Y025070D01*
X040567Y025070D01*
X040216Y024719D01*
X040351Y024584D01*
X039283Y023517D01*
X037739Y023517D01*
X038565Y024342D01*
X038702Y024205D01*
X039067Y024570D01*
X039067Y024570D01*
X038702Y024205D01*
X038884Y024024D01*
X038994Y023978D01*
X039113Y023978D01*
X039223Y024024D01*
X039419Y024219D01*
X039580Y023814D02*
X038036Y023814D01*
X038434Y024212D02*
X038695Y024212D01*
X038709Y024212D02*
X038710Y024212D01*
X039068Y024570D02*
X039068Y024570D01*
X039782Y024611D02*
X040324Y024611D01*
X040506Y025009D02*
X040507Y025009D01*
X042256Y027002D02*
X042768Y027002D01*
X042512Y026746D02*
X042185Y027073D01*
X042082Y027116D01*
X041971Y027116D01*
X041946Y027105D01*
X041915Y027136D01*
X042128Y027349D01*
X042636Y027857D01*
X042709Y027827D01*
X042900Y027827D01*
X043076Y027900D01*
X043211Y028035D01*
X043284Y028211D01*
X043284Y028402D01*
X043282Y028407D01*
X043384Y028407D01*
X043884Y028407D01*
X044031Y028468D01*
X044143Y028580D01*
X045061Y029498D01*
X045109Y029498D01*
X045212Y029540D01*
X045597Y029925D01*
X045612Y029962D01*
X045697Y029997D01*
X045892Y030192D01*
X045541Y030543D01*
X045541Y030543D01*
X045892Y030192D01*
X046087Y030387D01*
X046133Y030498D01*
X046133Y030617D01*
X046087Y030727D01*
X046493Y030727D01*
X042512Y026746D01*
X042128Y027349D02*
X042128Y027349D01*
X042179Y027400D02*
X043167Y027400D01*
X043566Y027799D02*
X042578Y027799D01*
X042804Y028307D02*
X042304Y028807D01*
X041872Y028596D02*
X041629Y028596D01*
X041638Y028587D02*
X041508Y028717D01*
X041508Y028717D01*
X041405Y028820D01*
X041395Y028844D01*
X041549Y028997D01*
X041824Y028721D01*
X041824Y028711D01*
X041897Y028535D01*
X042139Y028293D01*
X042035Y028190D01*
X041916Y028309D01*
X041786Y028439D01*
X041638Y028587D01*
X041638Y028587D01*
X041786Y028439D02*
X041786Y028439D01*
X041916Y028309D02*
X041916Y028309D01*
X042027Y028198D02*
X042043Y028198D01*
X041551Y028995D02*
X041546Y028995D01*
X041082Y029463D02*
X040922Y029303D01*
X040803Y029422D01*
X040802Y029422D01*
X040673Y029552D01*
X040673Y029552D01*
X040570Y029655D01*
X040550Y029703D01*
X040473Y029780D01*
X040396Y029857D01*
X040348Y029877D01*
X040246Y029979D01*
X040246Y029979D01*
X040107Y030118D01*
X039996Y030229D01*
X040157Y030389D01*
X041082Y029463D01*
X041012Y029393D02*
X040832Y029393D01*
X040754Y029792D02*
X040462Y029792D01*
X040473Y029780D02*
X040432Y029739D01*
X040432Y029739D01*
X040432Y029739D01*
X040473Y029780D01*
X040355Y030190D02*
X040035Y030190D01*
X039530Y030695D02*
X039420Y030805D01*
X039420Y030805D01*
X039271Y030954D01*
X039178Y031047D01*
X039168Y031071D01*
X039321Y031224D01*
X039327Y031218D01*
X039328Y031218D01*
X039690Y030855D01*
X039530Y030695D01*
X039558Y030987D02*
X039238Y030987D01*
X039271Y030954D02*
X039271Y030954D01*
X039804Y032307D02*
X039304Y032807D01*
X040387Y032289D02*
X040540Y032442D01*
X040564Y032432D01*
X040657Y032339D01*
X040806Y032191D01*
X040916Y032081D01*
X040756Y031921D01*
X040387Y032289D01*
X040494Y032183D02*
X040814Y032183D01*
X040806Y032191D02*
X040806Y032191D01*
X040657Y032339D02*
X040657Y032339D01*
X041382Y031614D02*
X041502Y031495D01*
X041632Y031365D01*
X041734Y031263D01*
X041754Y031214D01*
X041831Y031138D01*
X041872Y031179D01*
X041872Y031178D01*
X041831Y031137D01*
X041908Y031061D01*
X041956Y031041D01*
X042058Y030938D01*
X042058Y030938D01*
X042188Y030808D01*
X042308Y030689D01*
X042148Y030529D01*
X042031Y030646D01*
X042031Y030646D01*
X041222Y031454D01*
X041382Y031614D01*
X041291Y031386D02*
X041611Y031386D01*
X041632Y031365D02*
X041632Y031365D01*
X041872Y031179D02*
X041872Y031179D01*
X042009Y030987D02*
X041689Y030987D01*
X042188Y030808D02*
X042188Y030808D01*
X042207Y030589D02*
X042088Y030589D01*
X042614Y030062D02*
X042767Y030215D01*
X042791Y030205D01*
X042893Y030103D01*
X042894Y030103D01*
X043024Y029973D01*
X043172Y029825D01*
X043302Y029695D01*
X043302Y029695D01*
X043450Y029546D01*
X043450Y029546D01*
X043589Y029407D01*
X043714Y029282D01*
X043638Y029207D01*
X043470Y029207D01*
X042614Y030062D01*
X042742Y030190D02*
X042806Y030190D01*
X043024Y029973D02*
X043024Y029973D01*
X043172Y029825D02*
X043172Y029825D01*
X043205Y029792D02*
X042885Y029792D01*
X043283Y029393D02*
X043603Y029393D01*
X044159Y028596D02*
X044363Y028596D01*
X044558Y028995D02*
X044761Y028995D01*
X044956Y029393D02*
X045160Y029393D01*
X045463Y029792D02*
X045558Y029792D01*
X045890Y030190D02*
X045957Y030190D01*
X046133Y030589D02*
X046355Y030589D01*
X043964Y028198D02*
X043278Y028198D01*
X037565Y032980D02*
X037141Y032980D01*
X036326Y032581D02*
X033155Y032581D01*
X033155Y032980D02*
X035982Y032980D01*
X033284Y035333D02*
X033218Y035399D01*
X033115Y035442D01*
X032374Y035442D01*
X032271Y035399D01*
X032192Y035320D01*
X032172Y035271D01*
X032032Y035214D01*
X031897Y035079D01*
X031563Y034744D01*
X031524Y034651D01*
X031524Y035296D01*
X033725Y037497D01*
X033673Y037371D01*
X033673Y037140D01*
X033673Y036930D01*
X033658Y036894D01*
X033658Y036532D01*
X033372Y036246D01*
X033284Y036033D01*
X033284Y035802D01*
X033284Y035333D01*
X033284Y035371D02*
X033246Y035371D01*
X033284Y035770D02*
X031998Y035770D01*
X032243Y035371D02*
X031599Y035371D01*
X031524Y034973D02*
X031791Y034973D01*
X031969Y034472D02*
X032304Y034807D01*
X032744Y034807D01*
X031969Y034472D02*
X031969Y033807D01*
X032639Y033806D02*
X032639Y033310D01*
X032639Y033806D01*
X032639Y033806D01*
X032639Y033807D02*
X032639Y033807D01*
X032639Y033777D02*
X032639Y033777D01*
X032639Y033379D02*
X032639Y033379D01*
X032639Y032980D02*
X032639Y032980D01*
X032639Y032806D02*
X032639Y032310D01*
X032639Y032806D01*
X032639Y032806D01*
X032639Y032581D02*
X032639Y032581D01*
X032396Y036168D02*
X033340Y036168D01*
X033658Y036567D02*
X032795Y036567D01*
X033194Y036965D02*
X033673Y036965D01*
X033673Y037364D02*
X033592Y037364D01*
X035970Y036168D02*
X038970Y036168D01*
D28*
X039067Y035570D02*
X040286Y034352D01*
X040286Y034325D01*
X041031Y035070D01*
X041067Y035070D01*
X040286Y034325D02*
X039899Y033939D01*
X039760Y034078D02*
X038489Y032807D01*
X038304Y032807D01*
X037533Y031851D02*
X037304Y031622D01*
X037304Y031307D01*
X037304Y031343D01*
X037672Y031711D01*
X037811Y031572D02*
X037304Y031065D01*
X037304Y030807D01*
X037304Y031307D01*
X037304Y030807D02*
X037324Y030807D01*
X037951Y031433D01*
X038090Y031294D02*
X034973Y028177D01*
X033304Y028177D01*
X033304Y027927D02*
X035001Y027927D01*
X038229Y031155D01*
X038368Y031016D02*
X035029Y027677D01*
X033304Y027677D01*
X033304Y027427D02*
X035615Y027427D01*
X038786Y030598D01*
X038925Y030459D02*
X035643Y027177D01*
X033304Y027177D01*
X033304Y026927D02*
X035671Y026927D01*
X039064Y030320D01*
X039203Y030180D02*
X035700Y026677D01*
X033304Y026677D01*
X033304Y026427D02*
X036006Y026427D01*
X039482Y029902D01*
X039621Y029763D02*
X036035Y026177D01*
X033304Y026177D01*
X033304Y025927D02*
X036063Y025927D01*
X039760Y029624D01*
X039899Y029484D02*
X036092Y025677D01*
X033304Y025677D01*
X033304Y025427D02*
X036398Y025427D01*
X040178Y029206D01*
X040317Y029067D02*
X036427Y025177D01*
X033304Y025177D01*
X033304Y024927D02*
X036455Y024927D01*
X040456Y028928D01*
X040595Y028788D02*
X036484Y024677D01*
X033304Y024677D01*
X033304Y024427D02*
X037069Y024427D01*
X041013Y028371D01*
X041152Y028232D02*
X037097Y024177D01*
X033304Y024177D01*
X033304Y023927D02*
X037126Y023927D01*
X041291Y028092D01*
X041430Y027953D02*
X037154Y023677D01*
X033304Y023677D01*
X033304Y023427D02*
X037182Y023427D01*
X041570Y027814D01*
X041709Y027675D02*
X041304Y027270D01*
X041304Y026807D01*
X041554Y027030D02*
X042041Y026543D01*
X041554Y027030D02*
X041554Y027242D01*
X041848Y027536D01*
X042619Y028307D01*
X042804Y028307D01*
X041554Y028807D02*
X041170Y028807D01*
X040874Y028510D01*
X040734Y028649D02*
X041554Y029469D01*
X041554Y029557D01*
X042054Y030057D02*
X042142Y030057D01*
X042962Y030876D01*
X043101Y030737D02*
X042804Y030440D01*
X042804Y030057D01*
X043240Y030598D02*
X046699Y034057D01*
X048804Y034057D01*
X048804Y034557D02*
X046364Y034557D01*
X042822Y031016D01*
X042683Y031155D02*
X046585Y035057D01*
X048804Y035057D01*
X048804Y035557D02*
X046807Y035557D01*
X042544Y031294D01*
X042405Y031433D02*
X047028Y036057D01*
X048804Y036057D01*
X048804Y036557D02*
X046972Y036557D01*
X042126Y031711D01*
X042266Y031572D02*
X041804Y031111D01*
X041804Y031057D01*
X041987Y031851D02*
X047193Y037057D01*
X048804Y037057D01*
X048804Y037557D02*
X047415Y037557D01*
X041848Y031990D01*
X041709Y032129D02*
X047636Y038057D01*
X048804Y038057D01*
X048804Y038557D02*
X047580Y038557D01*
X041430Y032407D01*
X041570Y032268D02*
X040804Y031503D01*
X040804Y031307D01*
X040304Y030807D02*
X040108Y030807D01*
X039343Y030041D01*
X040039Y029345D02*
X040500Y029807D01*
X040554Y029807D01*
X039304Y031057D02*
X038966Y031057D01*
X038647Y030737D01*
X038507Y030876D02*
X039188Y031557D01*
X039554Y031557D01*
X039804Y032307D02*
X039938Y032307D01*
X040734Y033103D01*
X040595Y033243D02*
X047909Y040557D01*
X048804Y040557D01*
X048804Y040057D02*
X048245Y040057D01*
X041013Y032825D01*
X041152Y032686D02*
X048023Y039557D01*
X048804Y039557D01*
X048804Y039057D02*
X047801Y039057D01*
X041291Y032547D01*
X040874Y032964D02*
X040554Y032645D01*
X040554Y032307D01*
X043379Y030459D02*
X046477Y033557D01*
X048804Y033557D01*
X048804Y033057D02*
X046256Y033057D01*
X043518Y030320D01*
X043658Y030180D02*
X046034Y032557D01*
X048804Y032557D01*
X048804Y032057D02*
X045812Y032057D01*
X043797Y030041D01*
X043936Y029902D02*
X045591Y031557D01*
X048804Y031557D01*
X048804Y031057D02*
X045369Y031057D01*
X044075Y029763D01*
X041081Y026557D02*
X041054Y026557D01*
D29*
X039424Y023177D02*
X046804Y030557D01*
X048804Y030557D01*
X048804Y030057D02*
X046804Y030057D01*
X039674Y022927D01*
X033304Y022927D01*
X033304Y023177D02*
X039424Y023177D01*
X039924Y022677D02*
X046804Y029557D01*
X048804Y029557D01*
X048804Y029057D02*
X046804Y029057D01*
X040174Y022427D01*
X033304Y022427D01*
X033304Y022677D02*
X039924Y022677D01*
X040424Y022177D02*
X046804Y028557D01*
X048804Y028557D01*
X048804Y028057D02*
X046804Y028057D01*
X040674Y021927D01*
X033304Y021927D01*
X033304Y022177D02*
X040424Y022177D01*
X040924Y021677D02*
X046804Y027557D01*
X048804Y027557D01*
X048804Y027057D02*
X046804Y027057D01*
X041174Y021427D01*
X033304Y021427D01*
X033304Y021677D02*
X040924Y021677D01*
X041424Y021177D02*
X046804Y026557D01*
X048804Y026557D01*
X044139Y021807D02*
X043009Y020677D01*
X033304Y020677D01*
X031434Y020677D01*
X030804Y021307D01*
X030804Y022307D01*
X031804Y021307D02*
X031804Y021057D01*
X031934Y020927D01*
X033304Y020927D01*
X041674Y020927D01*
X042554Y021807D01*
X041424Y021177D02*
X033304Y021177D01*
X033304Y020427D02*
X036684Y020427D01*
X036804Y020307D01*
X036184Y020177D02*
X033304Y020177D01*
X031934Y020177D01*
X031934Y019677D02*
X033304Y019677D01*
X035184Y019677D01*
X038054Y016807D01*
X038054Y015057D01*
X038804Y014307D01*
X040304Y014307D01*
X037304Y013807D02*
X041554Y009557D01*
X041554Y006307D01*
X035554Y006307D02*
X035554Y006807D01*
X031174Y011187D01*
X031174Y016807D01*
X030924Y016807D02*
X030924Y010937D01*
X035054Y006807D01*
X035054Y006307D01*
X034554Y006307D02*
X034554Y006807D01*
X030674Y010687D01*
X030674Y016807D01*
X030424Y016807D02*
X030424Y010437D01*
X034054Y006807D01*
X034054Y006307D01*
X033554Y006307D02*
X033554Y006807D01*
X030174Y010187D01*
X030174Y016807D01*
X029924Y016807D02*
X029924Y009937D01*
X033054Y006807D01*
X033054Y006307D01*
X032554Y006307D02*
X032554Y006807D01*
X029674Y009687D01*
X029674Y016807D01*
X029424Y016807D02*
X029424Y009437D01*
X032054Y006807D01*
X032054Y006307D01*
X031554Y006307D02*
X031554Y006807D01*
X029174Y009187D01*
X029174Y016807D01*
X028924Y016807D02*
X028924Y008937D01*
X031054Y006807D01*
X031054Y006307D01*
X030554Y006307D02*
X030554Y006807D01*
X028674Y008687D01*
X028674Y016807D01*
X028424Y016807D02*
X028424Y008437D01*
X030054Y006807D01*
X030054Y006307D01*
X029554Y006307D02*
X029554Y006807D01*
X028174Y008187D01*
X028174Y016807D01*
X027924Y016807D02*
X027924Y007937D01*
X029054Y006807D01*
X029054Y006307D01*
X028554Y006307D02*
X028554Y006807D01*
X027674Y007687D01*
X027674Y016807D01*
X027424Y016807D02*
X027424Y007437D01*
X028054Y006807D01*
X028054Y006307D01*
X027554Y006307D02*
X027554Y006807D01*
X027174Y007187D01*
X027174Y016807D01*
X026924Y016807D02*
X026924Y006937D01*
X027054Y006807D01*
X027054Y006307D01*
X026554Y006307D02*
X026554Y006807D01*
X026674Y006927D01*
X026674Y016807D01*
X026424Y016807D02*
X026424Y007177D01*
X026054Y006807D01*
X026054Y006307D01*
X025554Y006307D02*
X025554Y006807D01*
X026174Y007427D01*
X026174Y016807D01*
X025924Y016807D02*
X025924Y007677D01*
X025054Y006807D01*
X025054Y006307D01*
X024554Y006307D02*
X024554Y006807D01*
X025674Y007927D01*
X025674Y016807D01*
X025424Y016807D02*
X025424Y008177D01*
X024054Y006807D01*
X024054Y006307D01*
X023554Y006307D02*
X023554Y006807D01*
X025174Y008427D01*
X025174Y016807D01*
X024924Y016807D02*
X024924Y008677D01*
X023054Y006807D01*
X023054Y006307D01*
X022554Y006307D02*
X022554Y006807D01*
X024674Y008927D01*
X024674Y016807D01*
X024424Y016807D02*
X024424Y009177D01*
X022054Y006807D01*
X022054Y006307D01*
X021554Y006307D02*
X021554Y006807D01*
X024174Y009427D01*
X024174Y016807D01*
X023924Y016807D02*
X023924Y009677D01*
X021054Y006807D01*
X021054Y006307D01*
X020554Y006307D02*
X020554Y006807D01*
X023674Y009927D01*
X023674Y016807D01*
X023424Y016807D02*
X023424Y010177D01*
X020054Y006807D01*
X020054Y006307D01*
X019554Y006307D02*
X019554Y006807D01*
X023174Y010427D01*
X023174Y016807D01*
X022924Y016807D02*
X022924Y010677D01*
X019054Y006807D01*
X019054Y006307D01*
X018554Y006307D02*
X018554Y006807D01*
X022674Y010927D01*
X022674Y016807D01*
X022424Y016807D02*
X022424Y011177D01*
X018054Y006807D01*
X018054Y006307D01*
X020969Y013807D02*
X020969Y014472D01*
X021924Y015427D01*
X021924Y016807D01*
X021924Y018427D01*
X022804Y019307D01*
X024804Y019307D01*
X022804Y018807D02*
X022174Y018177D01*
X022174Y016807D01*
X022174Y014342D01*
X021639Y013807D01*
X017304Y018141D02*
X017599Y018437D01*
X020304Y018437D01*
X021434Y018437D01*
X021804Y018807D01*
X021804Y019307D01*
X020304Y020437D02*
X008184Y020437D01*
X005304Y017557D01*
X004804Y017557D01*
X004804Y018057D02*
X005304Y018057D01*
X007934Y020687D01*
X020304Y020687D01*
X020304Y020937D02*
X007684Y020937D01*
X005304Y018557D01*
X004804Y018557D01*
X004804Y019057D02*
X005304Y019057D01*
X007434Y021187D01*
X020304Y021187D01*
X020304Y021437D02*
X007184Y021437D01*
X005304Y019557D01*
X004804Y019557D01*
X004804Y020057D02*
X005304Y020057D01*
X006934Y021687D01*
X020304Y021687D01*
X020304Y021937D02*
X006684Y021937D01*
X005304Y020557D01*
X004804Y020557D01*
X004804Y021057D02*
X005304Y021057D01*
X006434Y022187D01*
X020304Y022187D01*
X020304Y022437D02*
X006184Y022437D01*
X005304Y021557D01*
X004804Y021557D01*
X004804Y022057D02*
X005304Y022057D01*
X005934Y022687D01*
X020304Y022687D01*
X020304Y022937D02*
X005684Y022937D01*
X005304Y022557D01*
X004804Y022557D01*
X004804Y023057D02*
X005304Y023057D01*
X005434Y023187D01*
X020304Y023187D01*
X020304Y023437D02*
X005424Y023437D01*
X005304Y023557D01*
X004804Y023557D01*
X004804Y024057D02*
X005304Y024057D01*
X005674Y023687D01*
X020304Y023687D01*
X020304Y023937D02*
X005924Y023937D01*
X005304Y024557D01*
X004804Y024557D01*
X004804Y025057D02*
X005304Y025057D01*
X006174Y024187D01*
X020304Y024187D01*
X020304Y024437D02*
X006424Y024437D01*
X005304Y025557D01*
X004804Y025557D01*
X004804Y026057D02*
X005304Y026057D01*
X006674Y024687D01*
X020304Y024687D01*
X020304Y024937D02*
X006924Y024937D01*
X005304Y026557D01*
X004804Y026557D01*
X004804Y027057D02*
X005304Y027057D01*
X007174Y025187D01*
X020304Y025187D01*
X020304Y025437D02*
X007424Y025437D01*
X005304Y027557D01*
X004804Y027557D01*
X004804Y028057D02*
X005304Y028057D01*
X007674Y025687D01*
X020304Y025687D01*
X020304Y025937D02*
X007924Y025937D01*
X005304Y028557D01*
X004804Y028557D01*
X004804Y029057D02*
X005304Y029057D01*
X008174Y026187D01*
X020304Y026187D01*
X020304Y026437D02*
X008424Y026437D01*
X005304Y029557D01*
X004804Y029557D01*
X004804Y030057D02*
X005304Y030057D01*
X008674Y026687D01*
X020304Y026687D01*
X020304Y026937D02*
X015589Y026937D01*
X015304Y027222D01*
X015304Y027891D02*
X016009Y027187D01*
X020304Y027187D01*
X023684Y027187D01*
X023804Y027307D01*
X023174Y027937D01*
X020304Y027937D01*
X017339Y027937D01*
X017304Y027972D01*
X017304Y028641D02*
X018469Y028641D01*
X018924Y028187D01*
X020304Y028187D01*
X021684Y028187D01*
X021804Y028307D01*
X021674Y026937D02*
X020304Y026937D01*
X021674Y026937D02*
X021804Y026807D01*
X021934Y029807D02*
X021934Y034927D01*
X017054Y039807D01*
X017054Y040307D01*
X017554Y040307D02*
X017554Y039807D01*
X022184Y035177D01*
X022184Y029807D01*
X022434Y029807D02*
X022434Y035427D01*
X018054Y039807D01*
X018054Y040307D01*
X018554Y040307D02*
X018554Y039807D01*
X022684Y035677D01*
X022684Y029807D01*
X022934Y029807D02*
X022934Y035927D01*
X019054Y039807D01*
X019054Y040307D01*
X019554Y040307D02*
X019554Y039807D01*
X023184Y036177D01*
X023184Y029807D01*
X023434Y029807D02*
X023434Y036427D01*
X020054Y039807D01*
X020054Y040307D01*
X020554Y040307D02*
X020554Y039807D01*
X023684Y036677D01*
X023684Y029807D01*
X023934Y029807D02*
X023934Y036927D01*
X021054Y039807D01*
X021054Y040307D01*
X021554Y040307D02*
X021554Y039807D01*
X024184Y037177D01*
X024184Y029807D01*
X024434Y029807D02*
X024434Y037427D01*
X022054Y039807D01*
X022054Y040307D01*
X022554Y040307D02*
X022554Y039807D01*
X024684Y037677D01*
X024684Y029807D01*
X024934Y029807D02*
X024934Y037927D01*
X023054Y039807D01*
X023054Y040307D01*
X023554Y040307D02*
X023554Y039807D01*
X025184Y038177D01*
X025184Y029807D01*
X025434Y029807D02*
X025434Y038427D01*
X024054Y039807D01*
X024054Y040307D01*
X024554Y040307D02*
X024554Y039807D01*
X025684Y038677D01*
X025684Y029807D01*
X025934Y029807D02*
X025934Y038927D01*
X025054Y039807D01*
X025054Y040307D01*
X025554Y040307D02*
X025554Y039807D01*
X026184Y039177D01*
X026184Y029807D01*
X026434Y029807D02*
X026434Y039427D01*
X026054Y039807D01*
X026054Y040307D01*
X026554Y040307D02*
X026554Y039807D01*
X026684Y039677D01*
X026684Y029807D01*
X026934Y029807D02*
X026934Y039687D01*
X027054Y039807D01*
X027054Y040307D01*
X027554Y040307D02*
X027554Y039807D01*
X027184Y039437D01*
X027184Y029807D01*
X027434Y029807D02*
X027434Y039187D01*
X028054Y039807D01*
X028054Y040307D01*
X028554Y040307D02*
X028554Y039807D01*
X027684Y038937D01*
X027684Y029807D01*
X027934Y029807D02*
X027934Y038687D01*
X029054Y039807D01*
X029054Y040307D01*
X029554Y040307D02*
X029554Y039807D01*
X028184Y038437D01*
X028184Y029807D01*
X028434Y029807D02*
X028434Y038187D01*
X030054Y039807D01*
X030054Y040307D01*
X030554Y040307D02*
X030554Y039807D01*
X028684Y037937D01*
X028684Y029807D01*
X028934Y029807D02*
X028934Y037687D01*
X031054Y039807D01*
X031054Y040307D01*
X031554Y040307D02*
X031554Y039807D01*
X029184Y037437D01*
X029184Y029807D01*
X029434Y029807D02*
X029434Y037187D01*
X032054Y039807D01*
X032054Y040307D01*
X032554Y040307D02*
X032554Y039807D01*
X029684Y036937D01*
X029684Y029807D01*
X029934Y029807D02*
X029934Y036687D01*
X033054Y039807D01*
X033054Y040307D01*
X033554Y040307D02*
X033554Y039807D01*
X030184Y036437D01*
X030184Y029807D01*
X030434Y029807D02*
X030434Y036187D01*
X034054Y039807D01*
X034054Y040307D01*
X034554Y040307D02*
X034554Y039807D01*
X030684Y035937D01*
X030684Y029807D01*
X030934Y029807D02*
X030934Y035687D01*
X035054Y039807D01*
X035054Y040307D01*
X035554Y040307D02*
X035554Y039807D01*
X031184Y035437D01*
X031184Y029807D01*
X031434Y029807D02*
X031434Y028437D01*
X031304Y028307D01*
X031684Y027427D02*
X031804Y027307D01*
X031684Y027427D02*
X031684Y029807D01*
X031684Y031187D01*
X032639Y032141D01*
X032639Y032807D01*
X031969Y032807D02*
X031434Y032271D01*
X031434Y029807D01*
X036184Y020177D02*
X038554Y017807D01*
X040304Y017807D01*
X037304Y017057D02*
X037304Y013807D01*
X037304Y017057D02*
X034934Y019427D01*
X033304Y019427D01*
X033304Y019177D02*
X031934Y019177D01*
X031934Y018677D02*
X031674Y018417D01*
X031674Y016807D01*
X031674Y015437D01*
X032639Y014472D01*
X032639Y013807D01*
X031969Y013807D02*
X031424Y014352D01*
X031424Y016807D01*
X031424Y018687D01*
X031304Y018807D01*
X031304Y019307D02*
X028304Y019307D01*
X031304Y019307D02*
X031934Y018677D01*
X033304Y018677D01*
X033304Y018427D01*
X033304Y018677D02*
X033304Y018927D01*
X033304Y019177D02*
X034684Y019177D01*
X036804Y017057D01*
X035804Y019807D02*
X035684Y019927D01*
X033304Y019927D01*
X043554Y019222D02*
X043554Y018307D01*
X043883Y018307D01*
X044048Y018141D01*
X044304Y018141D02*
X044304Y018807D01*
X044804Y018386D02*
X044560Y018141D01*
X044560Y017807D01*
X044048Y017807D01*
X044048Y017472D01*
X044048Y016897D01*
X044804Y016141D01*
X045554Y016391D02*
X045554Y017307D01*
X044725Y017307D01*
X044560Y017472D01*
X044304Y017472D02*
X044304Y017057D01*
X044554Y016807D01*
X044804Y016807D01*
X045554Y016391D02*
X045804Y016141D01*
X046048Y016897D02*
X046804Y016141D01*
X046804Y016807D02*
X046554Y016807D01*
X046304Y017057D01*
X046304Y017472D01*
X046048Y017472D02*
X046048Y017807D01*
X046560Y017807D01*
X046560Y018141D01*
X046804Y018386D01*
X046804Y019472D01*
X046304Y018807D02*
X046304Y018141D01*
X046048Y018141D02*
X045883Y018307D01*
X045554Y018307D01*
X045554Y017307D01*
X046048Y017472D02*
X046048Y016897D01*
X046560Y017472D02*
X047635Y017472D01*
X047804Y017641D01*
X045554Y018307D02*
X045554Y019222D01*
X045804Y019472D01*
X044804Y019472D02*
X044804Y018386D01*
X043804Y019472D02*
X043554Y019222D01*
X043554Y018307D02*
X043554Y016391D01*
X043804Y016141D01*
D30*
X044804Y016807D03*
X046804Y016807D03*
X046304Y018807D03*
X044304Y018807D03*
X041804Y017807D03*
X040304Y017807D03*
X040304Y014307D03*
X041804Y014307D03*
X036304Y010307D03*
X035304Y011807D03*
X034804Y012807D03*
X037804Y009307D03*
X037804Y008307D03*
X032304Y016807D03*
X033304Y017807D03*
X030804Y018807D03*
X029804Y018807D03*
X030304Y020307D03*
X030304Y021307D03*
X029304Y021307D03*
X030804Y022307D03*
X031804Y022307D03*
X031804Y021307D03*
X029304Y023307D03*
X030804Y024307D03*
X031304Y026807D03*
X031804Y027307D03*
X031304Y027807D03*
X031304Y028307D03*
X027804Y027307D03*
X027804Y025807D03*
X027304Y024307D03*
X025804Y025807D03*
X025804Y027307D03*
X023804Y027307D03*
X022804Y026807D03*
X021804Y026807D03*
X021804Y028307D03*
X022804Y028307D03*
X023804Y025807D03*
X024304Y024307D03*
X022804Y023307D03*
X024304Y022307D03*
X022804Y021307D03*
X021804Y020307D03*
X021804Y019307D03*
X022804Y018807D03*
X023804Y018807D03*
X024804Y019307D03*
X028304Y019307D03*
X027304Y022307D03*
X021304Y016807D03*
X020304Y017807D03*
X009304Y018807D03*
X008304Y017807D03*
X007304Y016807D03*
X012304Y029307D03*
X013304Y029307D03*
X032804Y036307D03*
X035304Y034307D03*
X036304Y035307D03*
X039304Y032807D03*
X039804Y032307D03*
X040554Y032307D03*
X039304Y031057D03*
X040554Y029807D03*
X041554Y028807D03*
X042304Y028807D03*
X042804Y028307D03*
X043804Y028307D03*
X042804Y027307D03*
X042804Y030057D03*
X041804Y031057D03*
X047304Y025307D03*
X050804Y023307D03*
X047304Y021807D03*
X046804Y021807D03*
X048804Y019307D03*
X048804Y018807D03*
X048804Y015807D03*
X048804Y015307D03*
X039304Y023807D03*
X038304Y023807D03*
X042304Y037307D03*
X043304Y038307D03*
X044304Y039307D03*
X043304Y040307D03*
D31*
X034304Y030807D03*
X019304Y030807D03*
X006804Y038307D03*
X019304Y015807D03*
X006804Y008307D03*
X034304Y015807D03*
X046804Y008307D03*
D32*
X036804Y013972D02*
X036639Y013807D01*
X036804Y013972D02*
X036804Y017057D01*
X031934Y019177D02*
X030804Y020307D01*
X030804Y018807D02*
X031304Y018807D01*
X039541Y025043D02*
X041054Y026557D01*
X041304Y026807D01*
X041081Y026557D02*
X041567Y026070D01*
X041041Y025543D01*
X042554Y028557D02*
X042304Y028807D01*
X041554Y029557D01*
X040304Y030807D01*
X039554Y031557D01*
X038304Y032807D01*
X037567Y033543D01*
X037567Y034070D01*
X038067Y034570D01*
X038541Y035043D02*
X039067Y035570D01*
X037567Y033543D02*
X037041Y033543D01*
X039804Y032307D02*
X040804Y031307D01*
X041804Y030307D01*
X043304Y028807D01*
X043804Y028807D01*
X045067Y030070D01*
X042054Y030057D02*
X041804Y030307D01*
X031969Y032807D02*
X031969Y033807D01*
X042554Y021807D02*
X043469Y021807D01*
D33*
X048310Y022307D02*
X048310Y024307D01*
X033864Y034807D02*
X033864Y035918D01*
X034253Y036307D01*
X034253Y037256D01*
X035304Y038307D01*
X035804Y038307D01*
X037810Y038307D01*
X037810Y040063D01*
X038554Y040807D01*
X015304Y031307D02*
X015304Y030867D01*
X015304Y031307D02*
X014753Y031858D01*
X013304Y031858D01*
X012361Y032801D01*
X011304Y032801D01*
X011048Y033057D01*
X008804Y033057D01*
X011861Y015858D02*
X011304Y015301D01*
X009548Y015301D01*
X008804Y014557D01*
X011861Y015858D02*
X013304Y015858D01*
X013693Y016247D01*
X015304Y016247D01*
X018355Y012307D02*
X018355Y011807D01*
X019744Y011807D01*
X018355Y011807D02*
X018355Y010864D01*
X017798Y010307D01*
X017798Y008307D01*
M02*
