G75*
G70*
%OFA0B0*%
%FSLAX24Y24*%
%IPPOS*%
%LPD*%
%AMOC8*
5,1,8,0,0,1.08239X$1,22.5*
%
%ADD10C,0.0000*%
%ADD11C,0.0050*%
%ADD12C,0.0080*%
%ADD13C,0.0118*%
%ADD14C,0.0030*%
%ADD15C,0.0040*%
D10*
X001804Y003307D02*
X001804Y043307D01*
X051804Y043307D01*
X051804Y003307D01*
X001804Y003307D01*
D11*
X003304Y013307D02*
X003304Y033307D01*
X005304Y033307D01*
X005304Y013307D01*
X003304Y013307D01*
X016804Y006807D02*
X016804Y004807D01*
X041804Y004807D01*
X041804Y006807D01*
X016804Y006807D01*
X021304Y017807D02*
X021304Y028807D01*
X032304Y028807D01*
X032304Y017807D01*
X021304Y017807D01*
X037463Y032477D02*
X042474Y027466D01*
X044145Y029136D01*
X039134Y034147D01*
X037463Y032477D01*
X043421Y029180D02*
X043423Y029203D01*
X043429Y029226D01*
X043438Y029247D01*
X043451Y029267D01*
X043467Y029284D01*
X043485Y029298D01*
X043505Y029309D01*
X043527Y029317D01*
X043550Y029321D01*
X043574Y029321D01*
X043597Y029317D01*
X043619Y029309D01*
X043639Y029298D01*
X043657Y029284D01*
X043673Y029267D01*
X043686Y029247D01*
X043695Y029226D01*
X043701Y029203D01*
X043703Y029180D01*
X043701Y029157D01*
X043695Y029134D01*
X043686Y029113D01*
X043673Y029093D01*
X043657Y029076D01*
X043639Y029062D01*
X043619Y029051D01*
X043597Y029043D01*
X043574Y029039D01*
X043550Y029039D01*
X043527Y029043D01*
X043505Y029051D01*
X043485Y029062D01*
X043467Y029076D01*
X043451Y029093D01*
X043438Y029113D01*
X043429Y029134D01*
X043423Y029157D01*
X043421Y029180D01*
X048304Y025807D02*
X048304Y040807D01*
X050304Y040807D01*
X050304Y025807D01*
X048304Y025807D01*
X048804Y019507D02*
X051804Y019507D01*
X051804Y015107D01*
X048804Y015107D01*
X048804Y019507D01*
X036804Y039807D02*
X016804Y039807D01*
X016804Y041807D01*
X036804Y041807D01*
X036804Y039807D01*
D12*
X043871Y018004D02*
X043871Y017610D01*
X044737Y017610D02*
X044737Y018004D01*
X045871Y018004D02*
X045871Y017610D01*
X046737Y017610D02*
X046737Y018004D01*
D13*
X046048Y017728D03*
X044048Y017728D03*
D14*
X044032Y018353D02*
X044094Y018415D01*
X044094Y018724D01*
X044215Y018662D02*
X044277Y018724D01*
X044400Y018724D01*
X044462Y018662D01*
X044400Y018538D02*
X044277Y018538D01*
X044215Y018600D01*
X044215Y018662D01*
X044338Y018785D02*
X044338Y018292D01*
X044277Y018353D02*
X044400Y018353D01*
X044462Y018415D01*
X044462Y018477D01*
X044400Y018538D01*
X044583Y018538D02*
X044830Y018538D01*
X044768Y018353D02*
X044768Y018724D01*
X044583Y018538D01*
X044277Y018353D02*
X044215Y018415D01*
X044032Y018353D02*
X043908Y018353D01*
X043847Y018415D01*
X043847Y018724D01*
X045847Y018724D02*
X045847Y018415D01*
X045908Y018353D01*
X046032Y018353D01*
X046094Y018415D01*
X046094Y018724D01*
X046215Y018662D02*
X046277Y018724D01*
X046400Y018724D01*
X046462Y018662D01*
X046583Y018662D02*
X046645Y018724D01*
X046768Y018724D01*
X046830Y018662D01*
X046830Y018600D01*
X046768Y018538D01*
X046830Y018477D01*
X046830Y018415D01*
X046768Y018353D01*
X046645Y018353D01*
X046583Y018415D01*
X046462Y018415D02*
X046462Y018477D01*
X046400Y018538D01*
X046277Y018538D01*
X046215Y018600D01*
X046215Y018662D01*
X046338Y018785D02*
X046338Y018292D01*
X046277Y018353D02*
X046400Y018353D01*
X046462Y018415D01*
X046277Y018353D02*
X046215Y018415D01*
X046707Y018538D02*
X046768Y018538D01*
D15*
X047074Y018653D02*
X047150Y018577D01*
X047457Y018577D01*
X047534Y018653D01*
X047534Y018807D01*
X047457Y018884D01*
X047534Y019037D02*
X047227Y019344D01*
X047150Y019344D01*
X047074Y019267D01*
X047074Y019114D01*
X047150Y019037D01*
X047150Y018884D02*
X047074Y018807D01*
X047074Y018653D01*
X047534Y019037D02*
X047534Y019344D01*
X046534Y019577D02*
X046074Y019577D01*
X046074Y019807D01*
X046150Y019884D01*
X046304Y019884D01*
X046381Y019807D01*
X046381Y019577D01*
X046381Y019730D02*
X046534Y019884D01*
X046457Y020037D02*
X046534Y020114D01*
X046534Y020267D01*
X046457Y020344D01*
X046304Y020344D01*
X046227Y020267D01*
X046227Y020191D01*
X046304Y020037D01*
X046074Y020037D01*
X046074Y020344D01*
X045534Y020037D02*
X045457Y020037D01*
X045150Y020344D01*
X045074Y020344D01*
X045074Y020037D01*
X045150Y019884D02*
X045304Y019884D01*
X045381Y019807D01*
X045381Y019577D01*
X045534Y019577D02*
X045074Y019577D01*
X045074Y019807D01*
X045150Y019884D01*
X045381Y019730D02*
X045534Y019884D01*
X044534Y019884D02*
X044381Y019730D01*
X044381Y019807D02*
X044381Y019577D01*
X044534Y019577D02*
X044074Y019577D01*
X044074Y019807D01*
X044150Y019884D01*
X044304Y019884D01*
X044381Y019807D01*
X044457Y020037D02*
X044534Y020114D01*
X044534Y020267D01*
X044457Y020344D01*
X044150Y020344D01*
X044074Y020267D01*
X044074Y020114D01*
X044150Y020037D01*
X044227Y020037D01*
X044304Y020114D01*
X044304Y020344D01*
X043534Y020344D02*
X043534Y020037D01*
X043534Y019884D02*
X043381Y019730D01*
X043381Y019807D02*
X043381Y019577D01*
X043534Y019577D02*
X043074Y019577D01*
X043074Y019807D01*
X043150Y019884D01*
X043304Y019884D01*
X043381Y019807D01*
X043227Y020037D02*
X043074Y020191D01*
X043534Y020191D01*
X043534Y020497D02*
X043534Y020804D01*
X043534Y020651D02*
X043074Y020651D01*
X043227Y020497D01*
X042421Y019537D02*
X042114Y019537D01*
X042114Y019307D01*
X042267Y019384D01*
X042344Y019384D01*
X042421Y019307D01*
X042421Y019153D01*
X042344Y019077D01*
X042190Y019077D01*
X042114Y019153D01*
X041960Y019077D02*
X041653Y019077D01*
X041500Y019077D02*
X041346Y019230D01*
X041423Y019230D02*
X041193Y019230D01*
X041193Y019077D02*
X041193Y019537D01*
X041423Y019537D01*
X041500Y019460D01*
X041500Y019307D01*
X041423Y019230D01*
X041653Y019384D02*
X041807Y019537D01*
X041807Y019077D01*
X041921Y018537D02*
X041614Y018537D01*
X041614Y018307D01*
X041767Y018384D01*
X041844Y018384D01*
X041921Y018307D01*
X041921Y018153D01*
X041844Y018077D01*
X041690Y018077D01*
X041614Y018153D01*
X041460Y018153D02*
X041384Y018077D01*
X041230Y018077D01*
X041153Y018153D01*
X041153Y018460D01*
X041230Y018537D01*
X041384Y018537D01*
X041460Y018460D01*
X040844Y019077D02*
X040921Y019153D01*
X040921Y019230D01*
X040844Y019307D01*
X040614Y019307D01*
X040614Y019153D01*
X040690Y019077D01*
X040844Y019077D01*
X040614Y019307D02*
X040767Y019460D01*
X040921Y019537D01*
X040307Y019537D02*
X040307Y019077D01*
X040460Y019077D02*
X040153Y019077D01*
X040000Y019077D02*
X039846Y019230D01*
X039923Y019230D02*
X039693Y019230D01*
X039693Y019077D02*
X039693Y019537D01*
X039923Y019537D01*
X040000Y019460D01*
X040000Y019307D01*
X039923Y019230D01*
X040153Y019384D02*
X040307Y019537D01*
X039421Y019537D02*
X039421Y019460D01*
X039114Y019153D01*
X039114Y019077D01*
X038960Y019077D02*
X038653Y019077D01*
X038500Y019077D02*
X038346Y019230D01*
X038423Y019230D02*
X038193Y019230D01*
X038193Y019077D02*
X038193Y019537D01*
X038423Y019537D01*
X038500Y019460D01*
X038500Y019307D01*
X038423Y019230D01*
X038653Y019384D02*
X038807Y019537D01*
X038807Y019077D01*
X039114Y019537D02*
X039421Y019537D01*
X039730Y018537D02*
X039653Y018460D01*
X039653Y018153D01*
X039730Y018077D01*
X039884Y018077D01*
X039960Y018153D01*
X040114Y018153D02*
X040190Y018077D01*
X040344Y018077D01*
X040421Y018153D01*
X040421Y018230D01*
X040344Y018307D01*
X040114Y018307D01*
X040114Y018153D01*
X040114Y018307D02*
X040267Y018460D01*
X040421Y018537D01*
X039960Y018460D02*
X039884Y018537D01*
X039730Y018537D01*
X039730Y016537D02*
X039653Y016460D01*
X039653Y016153D01*
X039730Y016077D01*
X039884Y016077D01*
X039960Y016153D01*
X040114Y016307D02*
X040421Y016307D01*
X040344Y016537D02*
X040114Y016307D01*
X039960Y016460D02*
X039884Y016537D01*
X039730Y016537D01*
X040344Y016537D02*
X040344Y016077D01*
X040307Y015537D02*
X040307Y015077D01*
X040460Y015077D02*
X040153Y015077D01*
X040000Y015077D02*
X039846Y015230D01*
X039923Y015230D02*
X039693Y015230D01*
X039693Y015077D02*
X039693Y015537D01*
X039923Y015537D01*
X040000Y015460D01*
X040000Y015307D01*
X039923Y015230D01*
X040153Y015384D02*
X040307Y015537D01*
X040614Y015460D02*
X040690Y015537D01*
X040844Y015537D01*
X040921Y015460D01*
X040921Y015384D01*
X040844Y015307D01*
X040921Y015230D01*
X040921Y015153D01*
X040844Y015077D01*
X040690Y015077D01*
X040614Y015153D01*
X040767Y015307D02*
X040844Y015307D01*
X041193Y015230D02*
X041423Y015230D01*
X041500Y015307D01*
X041500Y015460D01*
X041423Y015537D01*
X041193Y015537D01*
X041193Y015077D01*
X041346Y015230D02*
X041500Y015077D01*
X041653Y015077D02*
X041960Y015077D01*
X041807Y015077D02*
X041807Y015537D01*
X041653Y015384D01*
X042114Y015460D02*
X042190Y015537D01*
X042344Y015537D01*
X042421Y015460D01*
X042421Y015384D01*
X042114Y015077D01*
X042421Y015077D01*
X041844Y016077D02*
X041690Y016077D01*
X041614Y016153D01*
X041460Y016153D02*
X041384Y016077D01*
X041230Y016077D01*
X041153Y016153D01*
X041153Y016460D01*
X041230Y016537D01*
X041384Y016537D01*
X041460Y016460D01*
X041614Y016460D02*
X041690Y016537D01*
X041844Y016537D01*
X041921Y016460D01*
X041921Y016384D01*
X041844Y016307D01*
X041921Y016230D01*
X041921Y016153D01*
X041844Y016077D01*
X041844Y016307D02*
X041767Y016307D01*
X044074Y015846D02*
X044150Y015923D01*
X044457Y015616D01*
X044534Y015693D01*
X044534Y015846D01*
X044457Y015923D01*
X044150Y015923D01*
X044074Y015846D02*
X044074Y015693D01*
X044150Y015616D01*
X044457Y015616D01*
X044534Y015463D02*
X044534Y015156D01*
X044534Y015309D02*
X044074Y015309D01*
X044227Y015156D01*
X044150Y015003D02*
X044304Y015003D01*
X044381Y014926D01*
X044381Y014696D01*
X044381Y014849D02*
X044534Y015003D01*
X044534Y014696D02*
X044074Y014696D01*
X044074Y014926D01*
X044150Y015003D01*
X045074Y015156D02*
X045074Y015386D01*
X045150Y015463D01*
X045304Y015463D01*
X045381Y015386D01*
X045381Y015156D01*
X045534Y015156D02*
X045074Y015156D01*
X045381Y015309D02*
X045534Y015463D01*
X045457Y015616D02*
X045381Y015616D01*
X045304Y015693D01*
X045304Y015847D01*
X045381Y015923D01*
X045457Y015923D01*
X045534Y015847D01*
X045534Y015693D01*
X045457Y015616D01*
X045304Y015693D02*
X045227Y015616D01*
X045150Y015616D01*
X045074Y015693D01*
X045074Y015847D01*
X045150Y015923D01*
X045227Y015923D01*
X045304Y015847D01*
X046074Y015923D02*
X046150Y015770D01*
X046304Y015616D01*
X046304Y015847D01*
X046381Y015923D01*
X046457Y015923D01*
X046534Y015847D01*
X046534Y015693D01*
X046457Y015616D01*
X046304Y015616D01*
X046304Y015463D02*
X046381Y015386D01*
X046381Y015156D01*
X046534Y015156D02*
X046074Y015156D01*
X046074Y015386D01*
X046150Y015463D01*
X046304Y015463D01*
X046381Y015309D02*
X046534Y015463D01*
X047074Y015386D02*
X047074Y015156D01*
X047534Y015156D01*
X047381Y015156D02*
X047381Y015386D01*
X047304Y015463D01*
X047150Y015463D01*
X047074Y015386D01*
X047381Y015309D02*
X047534Y015463D01*
X047304Y015616D02*
X047304Y015923D01*
X047534Y015847D02*
X047074Y015847D01*
X047304Y015616D01*
X048074Y015770D02*
X048534Y015770D01*
X048534Y015923D02*
X048534Y015616D01*
X048457Y015463D02*
X048534Y015386D01*
X048534Y015233D01*
X048457Y015156D01*
X048150Y015156D01*
X048074Y015233D01*
X048074Y015386D01*
X048150Y015463D01*
X048227Y015616D02*
X048074Y015770D01*
X047534Y017077D02*
X047074Y017077D01*
X047074Y017307D01*
X047150Y017384D01*
X047304Y017384D01*
X047381Y017307D01*
X047381Y017077D01*
X047381Y017230D02*
X047534Y017384D01*
X047457Y017537D02*
X047534Y017614D01*
X047534Y017767D01*
X047457Y017844D01*
X047381Y017844D01*
X047304Y017767D01*
X047304Y017691D01*
X047304Y017767D02*
X047227Y017844D01*
X047150Y017844D01*
X047074Y017767D01*
X047074Y017614D01*
X047150Y017537D01*
X049201Y021108D02*
X049124Y021185D01*
X049124Y021492D01*
X049201Y021569D01*
X049354Y021569D01*
X049431Y021492D01*
X049584Y021569D02*
X049891Y021569D01*
X049891Y021492D01*
X049584Y021185D01*
X049584Y021108D01*
X049431Y021185D02*
X049354Y021108D01*
X049201Y021108D01*
X050045Y021185D02*
X050121Y021108D01*
X050275Y021108D01*
X050352Y021185D01*
X050352Y021262D01*
X050275Y021338D01*
X050045Y021338D01*
X050045Y021185D01*
X050045Y021338D02*
X050198Y021492D01*
X050352Y021569D01*
X050275Y023108D02*
X050121Y023108D01*
X050045Y023185D01*
X050045Y023338D02*
X050198Y023415D01*
X050275Y023415D01*
X050352Y023338D01*
X050352Y023185D01*
X050275Y023108D01*
X050045Y023338D02*
X050045Y023569D01*
X050352Y023569D01*
X049891Y023569D02*
X049891Y023492D01*
X049584Y023185D01*
X049584Y023108D01*
X049431Y023185D02*
X049354Y023108D01*
X049201Y023108D01*
X049124Y023185D01*
X049124Y023492D01*
X049201Y023569D01*
X049354Y023569D01*
X049431Y023492D01*
X049584Y023569D02*
X049891Y023569D01*
X046421Y022537D02*
X046421Y022460D01*
X046114Y022153D01*
X046114Y022077D01*
X045960Y022460D02*
X045653Y022153D01*
X045653Y022077D01*
X045500Y022153D02*
X045423Y022077D01*
X045270Y022077D01*
X045193Y022153D01*
X045193Y022460D01*
X045270Y022537D01*
X045423Y022537D01*
X045500Y022460D01*
X045653Y022537D02*
X045960Y022537D01*
X045960Y022460D01*
X046114Y022537D02*
X046421Y022537D01*
X045802Y023153D02*
X045802Y023460D01*
X045725Y023537D01*
X045571Y023537D01*
X045495Y023460D01*
X045495Y023384D01*
X045571Y023307D01*
X045802Y023307D01*
X045802Y023153D02*
X045725Y023077D01*
X045571Y023077D01*
X045495Y023153D01*
X045341Y023460D02*
X045034Y023153D01*
X045034Y023077D01*
X044881Y023153D02*
X044804Y023077D01*
X044651Y023077D01*
X044574Y023153D01*
X044574Y023460D01*
X044651Y023537D01*
X044804Y023537D01*
X044881Y023460D01*
X045034Y023537D02*
X045341Y023537D01*
X045341Y023460D01*
X045324Y024327D02*
X045631Y024327D01*
X045784Y024403D02*
X045861Y024327D01*
X046015Y024327D01*
X046091Y024403D01*
X046091Y024480D01*
X046015Y024557D01*
X045938Y024557D01*
X046015Y024557D02*
X046091Y024634D01*
X046091Y024710D01*
X046015Y024787D01*
X045861Y024787D01*
X045784Y024710D01*
X045324Y024787D02*
X045324Y024327D01*
X044725Y022537D02*
X044802Y022460D01*
X044802Y022384D01*
X044725Y022307D01*
X044571Y022307D01*
X044495Y022384D01*
X044495Y022460D01*
X044571Y022537D01*
X044725Y022537D01*
X044725Y022307D02*
X044802Y022230D01*
X044802Y022153D01*
X044725Y022077D01*
X044571Y022077D01*
X044495Y022153D01*
X044495Y022230D01*
X044571Y022307D01*
X044341Y022460D02*
X044034Y022153D01*
X044034Y022077D01*
X043881Y022153D02*
X043804Y022077D01*
X043651Y022077D01*
X043574Y022153D01*
X043574Y022460D01*
X043651Y022537D01*
X043804Y022537D01*
X043881Y022460D01*
X044034Y022537D02*
X044341Y022537D01*
X044341Y022460D01*
X041860Y025330D02*
X041535Y025656D01*
X041697Y025819D01*
X041806Y025819D01*
X041914Y025710D01*
X041914Y025602D01*
X041752Y025439D01*
X041860Y025547D02*
X042077Y025547D01*
X042186Y025656D02*
X042403Y025873D01*
X042294Y025764D02*
X041969Y026090D01*
X041969Y025873D01*
X041186Y025090D02*
X041131Y025144D01*
X041023Y025144D01*
X040914Y025036D01*
X040914Y024927D01*
X040806Y024819D02*
X040914Y024710D01*
X040914Y024602D01*
X040752Y024439D01*
X040860Y024547D02*
X041077Y024547D01*
X041186Y024656D02*
X041186Y025090D01*
X041403Y024873D02*
X041186Y024656D01*
X040806Y024819D02*
X040697Y024819D01*
X040535Y024656D01*
X040860Y024330D01*
X039656Y025540D02*
X039547Y025540D01*
X039547Y025974D01*
X039764Y025757D01*
X039764Y025649D01*
X039656Y025540D01*
X039547Y025540D02*
X039330Y025757D01*
X039330Y025866D01*
X039439Y025974D01*
X039547Y025974D01*
X039656Y026083D02*
X039656Y026191D01*
X039764Y026300D01*
X039873Y026300D01*
X039927Y026246D01*
X039927Y026137D01*
X040036Y026137D01*
X040090Y026083D01*
X040090Y025974D01*
X039981Y025866D01*
X039873Y025866D01*
X039873Y026083D02*
X039927Y026137D01*
X039493Y025378D02*
X039276Y025161D01*
X039384Y025269D02*
X039059Y025595D01*
X039059Y025378D01*
X038896Y025323D02*
X038788Y025323D01*
X038679Y025215D01*
X038679Y025106D01*
X038896Y024889D01*
X039005Y024889D01*
X039113Y024998D01*
X039113Y025106D01*
X043292Y028120D02*
X043564Y027849D01*
X043672Y027849D01*
X043781Y027958D01*
X043781Y028066D01*
X043509Y028337D01*
X043672Y028392D02*
X043672Y028500D01*
X043781Y028609D01*
X043889Y028609D01*
X043943Y028771D02*
X044106Y028609D01*
X044160Y028771D01*
X044215Y028826D01*
X044323Y028826D01*
X044432Y028717D01*
X044432Y028609D01*
X044323Y028500D01*
X044215Y028500D01*
X044106Y028392D02*
X044052Y028446D01*
X043944Y028446D01*
X043835Y028337D01*
X043726Y028337D01*
X043672Y028392D01*
X043672Y028609D02*
X044106Y028175D01*
X044106Y028283D02*
X044106Y028392D01*
X044106Y028283D02*
X043998Y028175D01*
X043889Y028175D01*
X043943Y028771D02*
X044160Y028989D01*
X044896Y030389D02*
X044679Y030606D01*
X044679Y030715D01*
X044788Y030823D01*
X044896Y030823D01*
X045059Y030878D02*
X045059Y031095D01*
X045384Y030769D01*
X045276Y030661D02*
X045493Y030878D01*
X045602Y030986D02*
X045819Y031203D01*
X045710Y031095D02*
X045384Y031420D01*
X045385Y031203D01*
X045656Y031583D02*
X045656Y031691D01*
X045764Y031800D01*
X045873Y031800D01*
X045873Y031366D01*
X045981Y031366D01*
X046090Y031474D01*
X046090Y031583D01*
X045873Y031800D01*
X045656Y031583D02*
X045873Y031366D01*
X045113Y030606D02*
X045113Y030498D01*
X045005Y030389D01*
X044896Y030389D01*
X042550Y029315D02*
X042442Y029424D01*
X042333Y029424D01*
X042550Y029315D02*
X042550Y029207D01*
X042496Y029152D01*
X042062Y029152D01*
X042279Y028935D01*
X041954Y029261D02*
X041737Y029478D01*
X041845Y029369D02*
X042171Y029695D01*
X041954Y029695D01*
X041845Y029803D02*
X041899Y029858D01*
X041899Y029966D01*
X041791Y030075D01*
X041682Y030075D01*
X041520Y030346D02*
X041303Y030346D01*
X041520Y030346D02*
X041194Y030020D01*
X041086Y030129D02*
X041303Y029912D01*
X041411Y029803D02*
X041845Y029803D01*
X041628Y029586D02*
X041411Y029803D01*
X040977Y030238D02*
X040760Y030455D01*
X041086Y030780D01*
X040977Y030889D02*
X040760Y031106D01*
X040869Y030997D02*
X040543Y030672D01*
X040380Y030943D02*
X040272Y030943D01*
X040163Y031051D01*
X040163Y031160D01*
X040001Y031214D02*
X040326Y031540D01*
X040380Y031377D02*
X040326Y031323D01*
X040326Y031214D01*
X040435Y031106D01*
X040435Y030997D01*
X040380Y030943D01*
X040597Y031160D02*
X040597Y031268D01*
X040489Y031377D01*
X040380Y031377D01*
X040163Y031377D02*
X039946Y031594D01*
X039838Y031702D02*
X039621Y031919D01*
X039946Y031919D01*
X039621Y031594D01*
X039784Y031431D02*
X040109Y031757D01*
X039675Y032191D02*
X039621Y032137D01*
X039187Y032136D01*
X039133Y032082D01*
X039458Y032408D02*
X039675Y032191D01*
X037348Y032819D02*
X037348Y032927D01*
X037131Y033144D01*
X037023Y033144D01*
X036914Y033036D01*
X036914Y032927D01*
X036969Y032873D01*
X037077Y032873D01*
X037240Y033036D01*
X037348Y032819D02*
X037240Y032710D01*
X037131Y032710D01*
X037023Y032602D02*
X036806Y032819D01*
X036806Y032385D01*
X036914Y032385D01*
X037023Y032493D01*
X037023Y032602D01*
X036806Y032819D02*
X036697Y032819D01*
X036589Y032710D01*
X036589Y032602D01*
X036806Y032385D01*
X036751Y032222D02*
X036535Y032005D01*
X036643Y032113D02*
X036317Y032439D01*
X036318Y032222D01*
X036155Y032168D02*
X036046Y032168D01*
X035938Y032059D01*
X035938Y031951D01*
X036155Y031734D01*
X036263Y031734D01*
X036372Y031842D01*
X036372Y031951D01*
X037951Y034835D02*
X037625Y035161D01*
X037788Y035323D01*
X037896Y035323D01*
X038005Y035215D01*
X038005Y035106D01*
X037842Y034944D01*
X037951Y035052D02*
X038167Y035052D01*
X038276Y035161D02*
X038493Y035378D01*
X038384Y035269D02*
X038059Y035595D01*
X038059Y035378D01*
X038385Y035703D02*
X038330Y035757D01*
X038330Y035866D01*
X038439Y035974D01*
X038547Y035974D01*
X038602Y035920D01*
X038602Y035812D01*
X038493Y035703D01*
X038385Y035703D01*
X038493Y035703D02*
X038493Y035595D01*
X038547Y035540D01*
X038656Y035540D01*
X038764Y035649D01*
X038764Y035757D01*
X038710Y035812D01*
X038602Y035812D01*
X038842Y035944D02*
X039005Y036106D01*
X039005Y036215D01*
X038896Y036323D01*
X038788Y036323D01*
X038625Y036161D01*
X038951Y035835D01*
X038951Y036052D02*
X039167Y036052D01*
X039276Y036161D02*
X039493Y036378D01*
X039384Y036269D02*
X039059Y036595D01*
X039059Y036378D01*
X039385Y036703D02*
X039493Y036703D01*
X039656Y036866D01*
X039764Y036757D02*
X039547Y036974D01*
X039439Y036974D01*
X039330Y036866D01*
X039330Y036757D01*
X039385Y036703D01*
X039547Y036540D02*
X039656Y036540D01*
X039764Y036649D01*
X039764Y036757D01*
X039698Y037108D02*
X039698Y037569D01*
X039545Y037415D01*
X039391Y037492D02*
X039084Y037185D01*
X039084Y037108D01*
X038931Y037185D02*
X038854Y037108D01*
X038701Y037108D01*
X038624Y037185D01*
X038624Y037492D01*
X038701Y037569D01*
X038854Y037569D01*
X038931Y037492D01*
X039084Y037569D02*
X039391Y037569D01*
X039391Y037492D01*
X039545Y037108D02*
X039852Y037108D01*
X041059Y036095D02*
X041384Y035769D01*
X041276Y035661D02*
X041493Y035878D01*
X041547Y036040D02*
X041330Y036257D01*
X041330Y036366D01*
X041439Y036474D01*
X041547Y036474D01*
X041547Y036040D01*
X041656Y036040D01*
X041764Y036149D01*
X041764Y036257D01*
X041547Y036474D01*
X041764Y036474D02*
X041981Y036691D01*
X042090Y036474D02*
X041764Y036800D01*
X041764Y036474D01*
X041059Y036095D02*
X041059Y035878D01*
X040896Y035823D02*
X040788Y035823D01*
X040679Y035715D01*
X040679Y035606D01*
X040896Y035389D01*
X041005Y035389D01*
X041113Y035498D01*
X041113Y035606D01*
X041192Y039087D02*
X041116Y039163D01*
X041423Y039470D01*
X041423Y039163D01*
X041346Y039087D01*
X041192Y039087D01*
X041116Y039163D02*
X041116Y039470D01*
X041192Y039547D01*
X041346Y039547D01*
X041423Y039470D01*
X040962Y039470D02*
X040655Y039163D01*
X040655Y039087D01*
X040502Y039163D02*
X040425Y039087D01*
X040272Y039087D01*
X040195Y039163D01*
X040195Y039470D01*
X040272Y039547D01*
X040425Y039547D01*
X040502Y039470D01*
X040655Y039547D02*
X040962Y039547D01*
X040962Y039470D01*
X035302Y037460D02*
X035225Y037537D01*
X035071Y037537D01*
X034995Y037460D01*
X034841Y037460D02*
X034534Y037153D01*
X034534Y037077D01*
X034381Y037153D02*
X034304Y037077D01*
X034151Y037077D01*
X034074Y037153D01*
X034074Y037460D01*
X034151Y037537D01*
X034304Y037537D01*
X034381Y037460D01*
X034534Y037537D02*
X034841Y037537D01*
X034841Y037460D01*
X034995Y037077D02*
X035302Y037384D01*
X035302Y037460D01*
X035302Y037077D02*
X034995Y037077D01*
X033591Y035710D02*
X033515Y035787D01*
X033361Y035787D01*
X033284Y035710D01*
X033591Y035710D02*
X033591Y035634D01*
X033284Y035327D01*
X033591Y035327D01*
X033131Y035327D02*
X032824Y035327D01*
X032824Y035787D01*
X032841Y034537D02*
X032534Y034537D01*
X032381Y034460D02*
X032304Y034537D01*
X032151Y034537D01*
X032074Y034460D01*
X032074Y034153D01*
X032151Y034077D01*
X032304Y034077D01*
X032381Y034153D01*
X032534Y034153D02*
X032534Y034077D01*
X032534Y034153D02*
X032841Y034460D01*
X032841Y034537D01*
X032995Y034460D02*
X033071Y034537D01*
X033225Y034537D01*
X033302Y034460D01*
X033302Y034384D01*
X033225Y034307D01*
X033302Y034230D01*
X033302Y034153D01*
X033225Y034077D01*
X033071Y034077D01*
X032995Y034153D01*
X033148Y034307D02*
X033225Y034307D01*
X033225Y033537D02*
X032995Y033307D01*
X033302Y033307D01*
X033225Y033077D02*
X033225Y033537D01*
X032841Y033537D02*
X032841Y033460D01*
X032534Y033153D01*
X032534Y033077D01*
X032381Y033153D02*
X032304Y033077D01*
X032151Y033077D01*
X032074Y033153D01*
X032074Y033460D01*
X032151Y033537D01*
X032304Y033537D01*
X032381Y033460D01*
X032534Y033537D02*
X032841Y033537D01*
X018034Y028346D02*
X017957Y028423D01*
X017650Y028423D01*
X017574Y028346D01*
X017574Y028193D01*
X017650Y028116D01*
X017727Y028116D01*
X017804Y028193D01*
X017804Y028423D01*
X018034Y028346D02*
X018034Y028193D01*
X017957Y028116D01*
X017957Y027963D02*
X017881Y027963D01*
X017804Y027886D01*
X017804Y027656D01*
X017957Y027656D01*
X018034Y027733D01*
X018034Y027886D01*
X017957Y027963D01*
X017650Y027809D02*
X017804Y027656D01*
X017957Y027503D02*
X018034Y027426D01*
X018034Y027272D01*
X017957Y027196D01*
X017650Y027196D01*
X017574Y027272D01*
X017574Y027426D01*
X017650Y027503D01*
X017650Y027809D02*
X017574Y027963D01*
X017034Y027886D02*
X016957Y027963D01*
X016881Y027963D01*
X016804Y027886D01*
X016804Y027656D01*
X016957Y027656D01*
X017034Y027733D01*
X017034Y027886D01*
X016957Y028116D02*
X016881Y028116D01*
X016804Y028193D01*
X016804Y028346D01*
X016881Y028423D01*
X016957Y028423D01*
X017034Y028346D01*
X017034Y028193D01*
X016957Y028116D01*
X016804Y028193D02*
X016727Y028116D01*
X016650Y028116D01*
X016574Y028193D01*
X016574Y028346D01*
X016650Y028423D01*
X016727Y028423D01*
X016804Y028346D01*
X016574Y027963D02*
X016650Y027809D01*
X016804Y027656D01*
X016957Y027503D02*
X017034Y027426D01*
X017034Y027272D01*
X016957Y027196D01*
X016650Y027196D01*
X016574Y027272D01*
X016574Y027426D01*
X016650Y027503D01*
X015034Y027557D02*
X015034Y027403D01*
X014957Y027327D01*
X014650Y027327D01*
X014574Y027403D01*
X014574Y027557D01*
X014650Y027634D01*
X014727Y027787D02*
X014574Y027941D01*
X015034Y027941D01*
X015034Y028094D02*
X015034Y027787D01*
X014957Y027634D02*
X015034Y027557D01*
X014957Y028247D02*
X014650Y028247D01*
X014574Y028324D01*
X014574Y028478D01*
X014650Y028554D01*
X014957Y028247D01*
X015034Y028324D01*
X015034Y028478D01*
X014957Y028554D01*
X014650Y028554D01*
X014650Y028708D02*
X014574Y028785D01*
X014574Y028938D01*
X014650Y029015D01*
X014727Y029015D01*
X015034Y028708D01*
X015034Y029015D01*
X014784Y029827D02*
X014324Y029827D01*
X014784Y029827D02*
X014784Y030134D01*
X014784Y030287D02*
X014784Y030594D01*
X014784Y030441D02*
X014324Y030441D01*
X014477Y030287D01*
X014457Y030696D02*
X014150Y030696D01*
X014074Y030772D01*
X014074Y030926D01*
X014150Y031003D01*
X014304Y031156D02*
X014150Y031309D01*
X014074Y031463D01*
X014074Y031616D02*
X014074Y031923D01*
X014150Y031923D01*
X014457Y031616D01*
X014534Y031616D01*
X014457Y031463D02*
X014381Y031463D01*
X014304Y031386D01*
X014304Y031156D01*
X014457Y031156D01*
X014534Y031233D01*
X014534Y031386D01*
X014457Y031463D01*
X014457Y031003D02*
X014534Y030926D01*
X014534Y030772D01*
X014457Y030696D01*
X014034Y029015D02*
X014034Y028708D01*
X014034Y028861D02*
X013574Y028861D01*
X013727Y028708D01*
X013650Y028554D02*
X013957Y028554D01*
X014034Y028478D01*
X014034Y028324D01*
X013957Y028247D01*
X013650Y028554D01*
X013574Y028478D01*
X013574Y028324D01*
X013650Y028247D01*
X013957Y028247D01*
X014034Y028094D02*
X014034Y027787D01*
X014034Y027941D02*
X013574Y027941D01*
X013727Y027787D01*
X013650Y027634D02*
X013574Y027557D01*
X013574Y027403D01*
X013650Y027327D01*
X013957Y027327D01*
X014034Y027403D01*
X014034Y027557D01*
X013957Y027634D01*
X012591Y027903D02*
X012515Y027827D01*
X012361Y027827D01*
X012284Y027903D01*
X012284Y027980D01*
X012361Y028057D01*
X012515Y028057D01*
X012591Y027980D01*
X012591Y027903D01*
X012515Y028057D02*
X012591Y028134D01*
X012591Y028210D01*
X012515Y028287D01*
X012361Y028287D01*
X012284Y028210D01*
X012284Y028134D01*
X012361Y028057D01*
X012131Y027827D02*
X011824Y027827D01*
X011824Y028287D01*
X009534Y028344D02*
X009534Y028037D01*
X009534Y028191D02*
X009074Y028191D01*
X009227Y028037D01*
X009150Y027884D02*
X009074Y027807D01*
X009074Y027653D01*
X009150Y027577D01*
X009457Y027577D01*
X009534Y027653D01*
X009534Y027807D01*
X009457Y027884D01*
X009457Y028497D02*
X009150Y028804D01*
X009457Y028804D01*
X009534Y028728D01*
X009534Y028574D01*
X009457Y028497D01*
X009150Y028497D01*
X009074Y028574D01*
X009074Y028728D01*
X009150Y028804D01*
X009150Y028958D02*
X009074Y029035D01*
X009074Y029188D01*
X009150Y029265D01*
X009457Y028958D01*
X009534Y029035D01*
X009534Y029188D01*
X009457Y029265D01*
X009150Y029265D01*
X009150Y028958D02*
X009457Y028958D01*
X010182Y030646D02*
X010489Y030646D01*
X010566Y030722D01*
X010566Y030876D01*
X010489Y030953D01*
X010489Y031106D02*
X010566Y031183D01*
X010566Y031336D01*
X010489Y031413D01*
X010412Y031413D01*
X010335Y031336D01*
X010335Y031106D01*
X010489Y031106D01*
X010335Y031106D02*
X010182Y031259D01*
X010105Y031413D01*
X010335Y031566D02*
X010335Y031797D01*
X010412Y031873D01*
X010489Y031873D01*
X010566Y031797D01*
X010566Y031643D01*
X010489Y031566D01*
X010335Y031566D01*
X010182Y031720D01*
X010105Y031873D01*
X010182Y030953D02*
X010105Y030876D01*
X010105Y030722D01*
X010182Y030646D01*
X007544Y030612D02*
X007544Y030765D01*
X007467Y030842D01*
X007391Y030842D01*
X007314Y030765D01*
X007314Y030535D01*
X007467Y030535D01*
X007544Y030612D01*
X007314Y030535D02*
X007160Y030689D01*
X007084Y030842D01*
X007084Y030996D02*
X007314Y030996D01*
X007237Y031149D01*
X007237Y031226D01*
X007314Y031302D01*
X007467Y031302D01*
X007544Y031226D01*
X007544Y031072D01*
X007467Y030996D01*
X007084Y030996D02*
X007084Y031302D01*
X007160Y030382D02*
X007084Y030305D01*
X007084Y030151D01*
X007160Y030075D01*
X007467Y030075D01*
X007544Y030151D01*
X007544Y030305D01*
X007467Y030382D01*
X005957Y032406D02*
X006034Y032483D01*
X006034Y032559D01*
X005957Y032636D01*
X005574Y032636D01*
X005574Y032559D02*
X005574Y032713D01*
X005804Y032866D02*
X005804Y033173D01*
X006034Y033097D02*
X005574Y033097D01*
X005804Y032866D01*
X016824Y042153D02*
X016901Y042077D01*
X016978Y042077D01*
X017054Y042153D01*
X017054Y042537D01*
X016978Y042537D02*
X017131Y042537D01*
X017284Y042384D02*
X017438Y042537D01*
X017438Y042077D01*
X017591Y042077D02*
X017284Y042077D01*
X016957Y017923D02*
X016881Y017923D01*
X016804Y017846D01*
X016804Y017693D01*
X016727Y017616D01*
X016650Y017616D01*
X016574Y017693D01*
X016574Y017846D01*
X016650Y017923D01*
X016727Y017923D01*
X016804Y017846D01*
X016804Y017693D02*
X016881Y017616D01*
X016957Y017616D01*
X017034Y017693D01*
X017034Y017846D01*
X016957Y017923D01*
X016957Y017463D02*
X016650Y017463D01*
X016574Y017386D01*
X016574Y017233D01*
X016650Y017156D01*
X016727Y017156D01*
X016804Y017233D01*
X016804Y017463D01*
X016957Y017463D02*
X017034Y017386D01*
X017034Y017233D01*
X016957Y017156D01*
X016957Y017003D02*
X017034Y016926D01*
X017034Y016772D01*
X016957Y016696D01*
X016650Y016696D01*
X016574Y016772D01*
X016574Y016926D01*
X016650Y017003D01*
X017574Y016926D02*
X017574Y016772D01*
X017650Y016696D01*
X017957Y016696D01*
X018034Y016772D01*
X018034Y016926D01*
X017957Y017003D01*
X017957Y017156D02*
X018034Y017233D01*
X018034Y017386D01*
X017957Y017463D01*
X017650Y017463D01*
X017574Y017386D01*
X017574Y017233D01*
X017650Y017156D01*
X017727Y017156D01*
X017804Y017233D01*
X017804Y017463D01*
X017727Y017616D02*
X017804Y017693D01*
X017804Y017923D01*
X017957Y017923D02*
X017650Y017923D01*
X017574Y017846D01*
X017574Y017693D01*
X017650Y017616D01*
X017727Y017616D01*
X017957Y017616D02*
X018034Y017693D01*
X018034Y017846D01*
X017957Y017923D01*
X017650Y017003D02*
X017574Y016926D01*
X014784Y016787D02*
X014707Y016787D01*
X014400Y017094D01*
X014324Y017094D01*
X014324Y016787D01*
X014324Y016327D02*
X014784Y016327D01*
X014784Y016634D01*
X014150Y015923D02*
X014457Y015616D01*
X014534Y015616D01*
X014457Y015463D02*
X014150Y015463D01*
X014074Y015386D01*
X014074Y015233D01*
X014150Y015156D01*
X014227Y015156D01*
X014304Y015233D01*
X014304Y015463D01*
X014457Y015463D02*
X014534Y015386D01*
X014534Y015233D01*
X014457Y015156D01*
X014457Y015003D02*
X014534Y014926D01*
X014534Y014772D01*
X014457Y014696D01*
X014150Y014696D01*
X014074Y014772D01*
X014074Y014926D01*
X014150Y015003D01*
X014074Y015616D02*
X014074Y015923D01*
X014150Y015923D01*
X010566Y014297D02*
X010489Y014373D01*
X010412Y014373D01*
X010335Y014297D01*
X010335Y014066D01*
X010489Y014066D01*
X010566Y014143D01*
X010566Y014297D01*
X010335Y014066D02*
X010182Y014220D01*
X010105Y014373D01*
X010182Y013913D02*
X010105Y013836D01*
X010105Y013683D01*
X010182Y013606D01*
X010259Y013606D01*
X010335Y013683D01*
X010335Y013913D01*
X010182Y013913D02*
X010489Y013913D01*
X010566Y013836D01*
X010566Y013683D01*
X010489Y013606D01*
X010489Y013453D02*
X010566Y013376D01*
X010566Y013222D01*
X010489Y013146D01*
X010182Y013146D01*
X010105Y013222D01*
X010105Y013376D01*
X010182Y013453D01*
X007544Y012726D02*
X007544Y012572D01*
X007467Y012496D01*
X007314Y012496D02*
X007237Y012649D01*
X007237Y012726D01*
X007314Y012802D01*
X007467Y012802D01*
X007544Y012726D01*
X007314Y012496D02*
X007084Y012496D01*
X007084Y012802D01*
X007160Y012342D02*
X007084Y012265D01*
X007084Y012112D01*
X007160Y012035D01*
X007237Y012035D01*
X007314Y012112D01*
X007314Y012342D01*
X007467Y012342D02*
X007160Y012342D01*
X007467Y012342D02*
X007544Y012265D01*
X007544Y012112D01*
X007467Y012035D01*
X007467Y011882D02*
X007544Y011805D01*
X007544Y011651D01*
X007467Y011575D01*
X007160Y011575D01*
X007084Y011651D01*
X007084Y011805D01*
X007160Y011882D01*
X015643Y011429D02*
X015643Y011122D01*
X015720Y011045D01*
X015873Y011045D01*
X015950Y011122D01*
X016103Y011122D02*
X016180Y011045D01*
X016334Y011045D01*
X016410Y011122D01*
X016410Y011429D01*
X016334Y011506D01*
X016180Y011506D01*
X016103Y011429D01*
X016103Y011352D01*
X016180Y011275D01*
X016410Y011275D01*
X016564Y011352D02*
X016717Y011506D01*
X016717Y011045D01*
X016564Y011045D02*
X016871Y011045D01*
X017193Y011153D02*
X017193Y011460D01*
X017270Y011537D01*
X017423Y011537D01*
X017500Y011460D01*
X017653Y011460D02*
X017653Y011384D01*
X017730Y011307D01*
X017960Y011307D01*
X017960Y011460D02*
X017883Y011537D01*
X017730Y011537D01*
X017653Y011460D01*
X017653Y011153D02*
X017730Y011077D01*
X017883Y011077D01*
X017960Y011153D01*
X017960Y011460D01*
X018114Y011460D02*
X018190Y011537D01*
X018344Y011537D01*
X018421Y011460D01*
X018421Y011384D01*
X018114Y011077D01*
X018421Y011077D01*
X017500Y011153D02*
X017423Y011077D01*
X017270Y011077D01*
X017193Y011153D01*
X015950Y011429D02*
X015873Y011506D01*
X015720Y011506D01*
X015643Y011429D01*
X015720Y009506D02*
X015643Y009429D01*
X015643Y009122D01*
X015720Y009045D01*
X015873Y009045D01*
X015950Y009122D01*
X016103Y009122D02*
X016180Y009045D01*
X016334Y009045D01*
X016410Y009122D01*
X016410Y009429D01*
X016334Y009506D01*
X016180Y009506D01*
X016103Y009429D01*
X016103Y009352D01*
X016180Y009275D01*
X016410Y009275D01*
X016564Y009122D02*
X016871Y009429D01*
X016871Y009122D01*
X016794Y009045D01*
X016640Y009045D01*
X016564Y009122D01*
X016564Y009429D01*
X016640Y009506D01*
X016794Y009506D01*
X016871Y009429D01*
X015950Y009429D02*
X015873Y009506D01*
X015720Y009506D01*
X016978Y007537D02*
X017131Y007537D01*
X017054Y007537D02*
X017054Y007153D01*
X016978Y007077D01*
X016901Y007077D01*
X016824Y007153D01*
X017284Y007153D02*
X017361Y007077D01*
X017515Y007077D01*
X017591Y007153D01*
X017591Y007230D01*
X017515Y007307D01*
X017438Y007307D01*
X017515Y007307D02*
X017591Y007384D01*
X017591Y007460D01*
X017515Y007537D01*
X017361Y007537D01*
X017284Y007460D01*
X019903Y010827D02*
X020210Y010827D01*
X020364Y010903D02*
X020440Y010827D01*
X020594Y010827D01*
X020671Y010903D01*
X020671Y010980D01*
X020594Y011057D01*
X020364Y011057D01*
X020364Y010903D01*
X020364Y011057D02*
X020517Y011210D01*
X020671Y011287D01*
X019903Y011287D02*
X019903Y010827D01*
X020270Y012077D02*
X020423Y012077D01*
X020500Y012153D01*
X020653Y012153D02*
X020730Y012077D01*
X020883Y012077D01*
X020960Y012153D01*
X020960Y012460D01*
X020883Y012537D01*
X020730Y012537D01*
X020653Y012460D01*
X020653Y012384D01*
X020730Y012307D01*
X020960Y012307D01*
X021114Y012460D02*
X021190Y012537D01*
X021344Y012537D01*
X021421Y012460D01*
X021421Y012384D01*
X021344Y012307D01*
X021421Y012230D01*
X021421Y012153D01*
X021344Y012077D01*
X021190Y012077D01*
X021114Y012153D01*
X021267Y012307D02*
X021344Y012307D01*
X021344Y013077D02*
X021344Y013537D01*
X021114Y013307D01*
X021421Y013307D01*
X020960Y013307D02*
X020730Y013307D01*
X020653Y013384D01*
X020653Y013460D01*
X020730Y013537D01*
X020883Y013537D01*
X020960Y013460D01*
X020960Y013153D01*
X020883Y013077D01*
X020730Y013077D01*
X020653Y013153D01*
X020500Y013153D02*
X020423Y013077D01*
X020270Y013077D01*
X020193Y013153D01*
X020193Y013460D01*
X020270Y013537D01*
X020423Y013537D01*
X020500Y013460D01*
X020423Y012537D02*
X020270Y012537D01*
X020193Y012460D01*
X020193Y012153D01*
X020270Y012077D01*
X020500Y012460D02*
X020423Y012537D01*
X032074Y013153D02*
X032151Y013077D01*
X032304Y013077D01*
X032381Y013153D01*
X032534Y013153D02*
X032534Y013230D01*
X032611Y013307D01*
X032765Y013307D01*
X032841Y013230D01*
X032841Y013153D01*
X032765Y013077D01*
X032611Y013077D01*
X032534Y013153D01*
X032611Y013307D02*
X032534Y013384D01*
X032534Y013460D01*
X032611Y013537D01*
X032765Y013537D01*
X032841Y013460D01*
X032841Y013384D01*
X032765Y013307D01*
X032995Y013384D02*
X032995Y013460D01*
X033071Y013537D01*
X033225Y013537D01*
X033302Y013460D01*
X033302Y013384D01*
X033225Y013307D01*
X033071Y013307D01*
X032995Y013384D01*
X033071Y013307D02*
X032995Y013230D01*
X032995Y013153D01*
X033071Y013077D01*
X033225Y013077D01*
X033302Y013153D01*
X033302Y013230D01*
X033225Y013307D01*
X032381Y013460D02*
X032304Y013537D01*
X032151Y013537D01*
X032074Y013460D01*
X032074Y013153D01*
X032151Y014077D02*
X032304Y014077D01*
X032381Y014153D01*
X032534Y014153D02*
X032534Y014230D01*
X032611Y014307D01*
X032765Y014307D01*
X032841Y014230D01*
X032841Y014153D01*
X032765Y014077D01*
X032611Y014077D01*
X032534Y014153D01*
X032611Y014307D02*
X032534Y014384D01*
X032534Y014460D01*
X032611Y014537D01*
X032765Y014537D01*
X032841Y014460D01*
X032841Y014384D01*
X032765Y014307D01*
X032995Y014384D02*
X033071Y014307D01*
X033302Y014307D01*
X033302Y014460D02*
X033302Y014153D01*
X033225Y014077D01*
X033071Y014077D01*
X032995Y014153D01*
X032995Y014384D02*
X032995Y014460D01*
X033071Y014537D01*
X033225Y014537D01*
X033302Y014460D01*
X032381Y014460D02*
X032304Y014537D01*
X032151Y014537D01*
X032074Y014460D01*
X032074Y014153D01*
X032151Y014077D01*
X032903Y011287D02*
X032903Y010827D01*
X033210Y010827D01*
X033364Y010903D02*
X033440Y010827D01*
X033594Y010827D01*
X033671Y010903D01*
X033671Y011057D01*
X033594Y011134D01*
X033517Y011134D01*
X033364Y011057D01*
X033364Y011287D01*
X033671Y011287D01*
X034074Y011153D02*
X034151Y011077D01*
X034304Y011077D01*
X034381Y011153D01*
X034534Y011153D02*
X034534Y011230D01*
X034611Y011307D01*
X034765Y011307D01*
X034841Y011230D01*
X034841Y011153D01*
X034765Y011077D01*
X034611Y011077D01*
X034534Y011153D01*
X034611Y011307D02*
X034534Y011384D01*
X034534Y011460D01*
X034611Y011537D01*
X034765Y011537D01*
X034841Y011460D01*
X034841Y011384D01*
X034765Y011307D01*
X034995Y011153D02*
X034995Y011077D01*
X034995Y011153D02*
X035302Y011460D01*
X035302Y011537D01*
X034995Y011537D01*
X035270Y012077D02*
X035423Y012077D01*
X035500Y012153D01*
X035653Y012153D02*
X035653Y012230D01*
X035730Y012307D01*
X035883Y012307D01*
X035960Y012230D01*
X035960Y012153D01*
X035883Y012077D01*
X035730Y012077D01*
X035653Y012153D01*
X035730Y012307D02*
X035653Y012384D01*
X035653Y012460D01*
X035730Y012537D01*
X035883Y012537D01*
X035960Y012460D01*
X035960Y012384D01*
X035883Y012307D01*
X036114Y012460D02*
X036190Y012537D01*
X036344Y012537D01*
X036421Y012460D01*
X036421Y012384D01*
X036344Y012307D01*
X036421Y012230D01*
X036421Y012153D01*
X036344Y012077D01*
X036190Y012077D01*
X036114Y012153D01*
X036267Y012307D02*
X036344Y012307D01*
X035500Y012460D02*
X035423Y012537D01*
X035270Y012537D01*
X035193Y012460D01*
X035193Y012153D01*
X035270Y012077D01*
X034381Y011460D02*
X034304Y011537D01*
X034151Y011537D01*
X034074Y011460D01*
X034074Y011153D01*
X034651Y010537D02*
X034574Y010460D01*
X034574Y010153D01*
X034651Y010077D01*
X034804Y010077D01*
X034881Y010153D01*
X035034Y010153D02*
X035034Y010230D01*
X035111Y010307D01*
X035265Y010307D01*
X035341Y010230D01*
X035341Y010153D01*
X035265Y010077D01*
X035111Y010077D01*
X035034Y010153D01*
X035111Y010307D02*
X035034Y010384D01*
X035034Y010460D01*
X035111Y010537D01*
X035265Y010537D01*
X035341Y010460D01*
X035341Y010384D01*
X035265Y010307D01*
X035495Y010307D02*
X035495Y010153D01*
X035571Y010077D01*
X035725Y010077D01*
X035802Y010153D01*
X035802Y010230D01*
X035725Y010307D01*
X035495Y010307D01*
X035648Y010460D01*
X035802Y010537D01*
X035861Y009787D02*
X036015Y009787D01*
X036091Y009710D01*
X036091Y009634D01*
X036015Y009557D01*
X035861Y009557D01*
X035784Y009634D01*
X035784Y009710D01*
X035861Y009787D01*
X035861Y009557D02*
X035784Y009480D01*
X035784Y009403D01*
X035861Y009327D01*
X036015Y009327D01*
X036091Y009403D01*
X036091Y009480D01*
X036015Y009557D01*
X036245Y009557D02*
X036398Y009634D01*
X036475Y009634D01*
X036552Y009557D01*
X036552Y009403D01*
X036475Y009327D01*
X036321Y009327D01*
X036245Y009403D01*
X036245Y009557D02*
X036245Y009787D01*
X036552Y009787D01*
X035631Y009710D02*
X035554Y009787D01*
X035401Y009787D01*
X035324Y009710D01*
X035324Y009403D01*
X035401Y009327D01*
X035554Y009327D01*
X035631Y009403D01*
X034881Y010460D02*
X034804Y010537D01*
X034651Y010537D01*
X036903Y010827D02*
X037210Y010827D01*
X037364Y011057D02*
X037671Y011057D01*
X037594Y011287D02*
X037364Y011057D01*
X037594Y010827D02*
X037594Y011287D01*
X036903Y011287D02*
X036903Y010827D01*
X037193Y010460D02*
X037193Y010153D01*
X037270Y010077D01*
X037423Y010077D01*
X037500Y010153D01*
X037653Y010153D02*
X037653Y010230D01*
X037730Y010307D01*
X037883Y010307D01*
X037960Y010230D01*
X037960Y010153D01*
X037883Y010077D01*
X037730Y010077D01*
X037653Y010153D01*
X037730Y010307D02*
X037653Y010384D01*
X037653Y010460D01*
X037730Y010537D01*
X037883Y010537D01*
X037960Y010460D01*
X037960Y010384D01*
X037883Y010307D01*
X038114Y010460D02*
X038190Y010537D01*
X038344Y010537D01*
X038421Y010460D01*
X038421Y010384D01*
X038114Y010077D01*
X038421Y010077D01*
X038423Y009537D02*
X038270Y009537D01*
X038193Y009460D01*
X038193Y009153D01*
X038270Y009077D01*
X038423Y009077D01*
X038500Y009153D01*
X038653Y009153D02*
X038653Y009230D01*
X038730Y009307D01*
X038883Y009307D01*
X038960Y009230D01*
X038960Y009153D01*
X038883Y009077D01*
X038730Y009077D01*
X038653Y009153D01*
X038730Y009307D02*
X038653Y009384D01*
X038653Y009460D01*
X038730Y009537D01*
X038883Y009537D01*
X038960Y009460D01*
X038960Y009384D01*
X038883Y009307D01*
X039114Y009384D02*
X039267Y009537D01*
X039267Y009077D01*
X039114Y009077D02*
X039421Y009077D01*
X038500Y009460D02*
X038423Y009537D01*
X037500Y010460D02*
X037423Y010537D01*
X037270Y010537D01*
X037193Y010460D01*
X036344Y013077D02*
X036344Y013537D01*
X036114Y013307D01*
X036421Y013307D01*
X035960Y013384D02*
X035883Y013307D01*
X035730Y013307D01*
X035653Y013384D01*
X035653Y013460D01*
X035730Y013537D01*
X035883Y013537D01*
X035960Y013460D01*
X035960Y013384D01*
X035883Y013307D02*
X035960Y013230D01*
X035960Y013153D01*
X035883Y013077D01*
X035730Y013077D01*
X035653Y013153D01*
X035653Y013230D01*
X035730Y013307D01*
X035500Y013460D02*
X035423Y013537D01*
X035270Y013537D01*
X035193Y013460D01*
X035193Y013153D01*
X035270Y013077D01*
X035423Y013077D01*
X035500Y013153D01*
X038193Y015077D02*
X038193Y015537D01*
X038423Y015537D01*
X038500Y015460D01*
X038500Y015307D01*
X038423Y015230D01*
X038193Y015230D01*
X038346Y015230D02*
X038500Y015077D01*
X038653Y015077D02*
X038960Y015077D01*
X038807Y015077D02*
X038807Y015537D01*
X038653Y015384D01*
X039114Y015307D02*
X039421Y015307D01*
X039344Y015077D02*
X039344Y015537D01*
X039114Y015307D01*
X039520Y007787D02*
X039443Y007710D01*
X039443Y007403D01*
X039520Y007327D01*
X039673Y007327D01*
X039750Y007403D01*
X039903Y007403D02*
X039903Y007480D01*
X039980Y007557D01*
X040133Y007557D01*
X040210Y007480D01*
X040210Y007403D01*
X040133Y007327D01*
X039980Y007327D01*
X039903Y007403D01*
X039980Y007557D02*
X039903Y007634D01*
X039903Y007710D01*
X039980Y007787D01*
X040133Y007787D01*
X040210Y007710D01*
X040210Y007634D01*
X040133Y007557D01*
X040364Y007710D02*
X040440Y007787D01*
X040594Y007787D01*
X040671Y007710D01*
X040364Y007403D01*
X040440Y007327D01*
X040594Y007327D01*
X040671Y007403D01*
X040671Y007710D01*
X040364Y007710D02*
X040364Y007403D01*
X039750Y007710D02*
X039673Y007787D01*
X039520Y007787D01*
X050957Y039906D02*
X051034Y039983D01*
X051034Y040059D01*
X050957Y040136D01*
X050574Y040136D01*
X050574Y040059D02*
X050574Y040213D01*
X050650Y040366D02*
X050574Y040443D01*
X050574Y040597D01*
X050650Y040673D01*
X050727Y040673D01*
X051034Y040366D01*
X051034Y040673D01*
M02*
