G75*
G70*
%OFA0B0*%
%FSLAX24Y24*%
%IPPOS*%
%LPD*%
%AMOC8*
5,1,8,0,0,1.08239X$1,22.5*
%
%ADD10R,0.2080X0.1080*%
%ADD11R,0.0474X0.0513*%
%ADD12R,0.0513X0.0474*%
%ADD13C,0.0500*%
%ADD14C,0.0437*%
%ADD15C,0.2620*%
D10*
X050804Y015607D03*
X050804Y019007D03*
D11*
X046804Y018141D03*
X046804Y017472D03*
X045804Y017472D03*
X045804Y018141D03*
X044804Y018141D03*
X044804Y017472D03*
X043804Y017472D03*
X043804Y018141D03*
X032304Y017972D03*
X032304Y018641D03*
X031304Y018641D03*
X031304Y017972D03*
X030304Y017972D03*
X030304Y018641D03*
X029304Y018641D03*
X029304Y017972D03*
X028304Y017972D03*
X028304Y018641D03*
X027304Y018641D03*
X027304Y017972D03*
X026304Y017972D03*
X026304Y018641D03*
X025304Y018641D03*
X025304Y017972D03*
X024304Y017972D03*
X024304Y018641D03*
X023304Y018641D03*
X023304Y017972D03*
X022304Y017972D03*
X022304Y018641D03*
X021304Y018641D03*
X021304Y017972D03*
X022304Y025972D03*
X022304Y026641D03*
X022304Y027472D03*
X022304Y028141D03*
X023304Y028141D03*
X023304Y027472D03*
X023304Y026641D03*
X023304Y025972D03*
X024304Y025972D03*
X024304Y026641D03*
X024304Y027472D03*
X024304Y028141D03*
X025304Y028141D03*
X025304Y027472D03*
X025304Y026641D03*
X025304Y025972D03*
X026304Y025972D03*
X026304Y026641D03*
X026304Y027472D03*
X026304Y028141D03*
X027304Y028141D03*
X028304Y028141D03*
X028304Y027472D03*
X028304Y026641D03*
X027304Y026641D03*
X027304Y027472D03*
X027304Y025972D03*
X028304Y025972D03*
X029304Y025972D03*
X029304Y026641D03*
X029304Y027472D03*
X029304Y028141D03*
X030304Y028141D03*
X030304Y027472D03*
X030304Y026641D03*
X030304Y025972D03*
D12*
X030139Y024807D03*
X030969Y024807D03*
X031639Y024807D03*
X031639Y023807D03*
X030969Y023807D03*
X030139Y023807D03*
X029469Y023807D03*
X029469Y024807D03*
X029469Y022807D03*
X030139Y022807D03*
X030969Y022807D03*
X031639Y022807D03*
X031639Y021807D03*
X030969Y021807D03*
X030139Y021807D03*
X029469Y021807D03*
X029469Y020807D03*
X030139Y020807D03*
X030969Y020807D03*
X031639Y020807D03*
X031639Y019807D03*
X030969Y019807D03*
X030139Y019807D03*
X029469Y019807D03*
X022639Y019807D03*
X021969Y019807D03*
X021969Y020807D03*
X022639Y020807D03*
X022639Y021807D03*
X021969Y021807D03*
X021969Y022807D03*
X022639Y022807D03*
X022639Y023807D03*
X021969Y023807D03*
X021969Y024807D03*
X022639Y024807D03*
G36*
X037915Y034583D02*
X037554Y034222D01*
X037219Y034557D01*
X037580Y034918D01*
X037915Y034583D01*
G37*
G36*
X038389Y035056D02*
X038028Y034695D01*
X037693Y035030D01*
X038054Y035391D01*
X038389Y035056D01*
G37*
G36*
X039139Y034306D02*
X038778Y033945D01*
X038443Y034280D01*
X038804Y034641D01*
X039139Y034306D01*
G37*
G36*
X038665Y033833D02*
X038304Y033472D01*
X037969Y033807D01*
X038330Y034168D01*
X038665Y033833D01*
G37*
G36*
X044889Y027556D02*
X044528Y027195D01*
X044193Y027530D01*
X044554Y027891D01*
X044889Y027556D01*
G37*
G36*
X045639Y026806D02*
X045278Y026445D01*
X044943Y026780D01*
X045304Y027141D01*
X045639Y026806D01*
G37*
G36*
X045165Y026333D02*
X044804Y025972D01*
X044469Y026307D01*
X044830Y026668D01*
X045165Y026333D01*
G37*
G36*
X044415Y027083D02*
X044054Y026722D01*
X043719Y027057D01*
X044080Y027418D01*
X044415Y027083D01*
G37*
X034639Y009807D03*
X033969Y009807D03*
X033139Y009807D03*
X032469Y009807D03*
X032469Y008807D03*
X033139Y008807D03*
X033969Y008807D03*
X034639Y008807D03*
X030139Y008807D03*
X029469Y008807D03*
X029469Y009807D03*
X030139Y009807D03*
D13*
X030054Y006517D02*
X030054Y006097D01*
X029554Y006097D02*
X029554Y006517D01*
X029054Y006517D02*
X029054Y006097D01*
X028554Y006097D02*
X028554Y006517D01*
X028054Y006517D02*
X028054Y006097D01*
X027554Y006097D02*
X027554Y006517D01*
X027054Y006517D02*
X027054Y006097D01*
X026554Y006097D02*
X026554Y006517D01*
X026054Y006517D02*
X026054Y006097D01*
X025554Y006097D02*
X025554Y006517D01*
X025054Y006517D02*
X025054Y006097D01*
X024554Y006097D02*
X024554Y006517D01*
X024054Y006517D02*
X024054Y006097D01*
X023554Y006097D02*
X023554Y006517D01*
X023054Y006517D02*
X023054Y006097D01*
X022554Y006097D02*
X022554Y006517D01*
X022054Y006517D02*
X022054Y006097D01*
X021554Y006097D02*
X021554Y006517D01*
X021054Y006517D02*
X021054Y006097D01*
X020554Y006097D02*
X020554Y006517D01*
X020054Y006517D02*
X020054Y006097D01*
X019554Y006097D02*
X019554Y006517D01*
X019054Y006517D02*
X019054Y006097D01*
X018554Y006097D02*
X018554Y006517D01*
X018054Y006517D02*
X018054Y006097D01*
X017554Y006097D02*
X017554Y006517D01*
X017054Y006517D02*
X017054Y006097D01*
X017054Y005517D02*
X017054Y005097D01*
X017554Y005097D02*
X017554Y005517D01*
X018054Y005517D02*
X018054Y005097D01*
X018554Y005097D02*
X018554Y005517D01*
X019054Y005517D02*
X019054Y005097D01*
X019554Y005097D02*
X019554Y005517D01*
X020054Y005517D02*
X020054Y005097D01*
X020554Y005097D02*
X020554Y005517D01*
X021054Y005517D02*
X021054Y005097D01*
X021554Y005097D02*
X021554Y005517D01*
X022054Y005517D02*
X022054Y005097D01*
X022554Y005097D02*
X022554Y005517D01*
X023054Y005517D02*
X023054Y005097D01*
X023554Y005097D02*
X023554Y005517D01*
X024054Y005517D02*
X024054Y005097D01*
X024554Y005097D02*
X024554Y005517D01*
X025054Y005517D02*
X025054Y005097D01*
X025554Y005097D02*
X025554Y005517D01*
X026054Y005517D02*
X026054Y005097D01*
X026554Y005097D02*
X026554Y005517D01*
X027054Y005517D02*
X027054Y005097D01*
X027554Y005097D02*
X027554Y005517D01*
X028054Y005517D02*
X028054Y005097D01*
X028554Y005097D02*
X028554Y005517D01*
X029054Y005517D02*
X029054Y005097D01*
X029554Y005097D02*
X029554Y005517D01*
X030054Y005517D02*
X030054Y005097D01*
X030554Y005097D02*
X030554Y005517D01*
X031054Y005517D02*
X031054Y005097D01*
X031554Y005097D02*
X031554Y005517D01*
X032054Y005517D02*
X032054Y005097D01*
X032554Y005097D02*
X032554Y005517D01*
X033054Y005517D02*
X033054Y005097D01*
X033554Y005097D02*
X033554Y005517D01*
X034054Y005517D02*
X034054Y005097D01*
X034554Y005097D02*
X034554Y005517D01*
X035054Y005517D02*
X035054Y005097D01*
X035554Y005097D02*
X035554Y005517D01*
X036054Y005517D02*
X036054Y005097D01*
X036554Y005097D02*
X036554Y005517D01*
X037054Y005517D02*
X037054Y005097D01*
X037554Y005097D02*
X037554Y005517D01*
X038054Y005517D02*
X038054Y005097D01*
X038554Y005097D02*
X038554Y005517D01*
X039054Y005517D02*
X039054Y005097D01*
X039554Y005097D02*
X039554Y005517D01*
X040054Y005517D02*
X040054Y005097D01*
X040554Y005097D02*
X040554Y005517D01*
X041054Y005517D02*
X041054Y005097D01*
X041554Y005097D02*
X041554Y005517D01*
X041554Y006097D02*
X041554Y006517D01*
X041054Y006517D02*
X041054Y006097D01*
X040554Y006097D02*
X040554Y006517D01*
X040054Y006517D02*
X040054Y006097D01*
X039554Y006097D02*
X039554Y006517D01*
X039054Y006517D02*
X039054Y006097D01*
X038554Y006097D02*
X038554Y006517D01*
X038054Y006517D02*
X038054Y006097D01*
X037554Y006097D02*
X037554Y006517D01*
X037054Y006517D02*
X037054Y006097D01*
X036554Y006097D02*
X036554Y006517D01*
X036054Y006517D02*
X036054Y006097D01*
X035554Y006097D02*
X035554Y006517D01*
X035054Y006517D02*
X035054Y006097D01*
X034554Y006097D02*
X034554Y006517D01*
X034054Y006517D02*
X034054Y006097D01*
X033554Y006097D02*
X033554Y006517D01*
X033054Y006517D02*
X033054Y006097D01*
X032554Y006097D02*
X032554Y006517D01*
X032054Y006517D02*
X032054Y006097D01*
X031554Y006097D02*
X031554Y006517D01*
X031054Y006517D02*
X031054Y006097D01*
X030554Y006097D02*
X030554Y006517D01*
X048594Y026057D02*
X049014Y026057D01*
X049014Y026557D02*
X048594Y026557D01*
X048594Y027057D02*
X049014Y027057D01*
X049014Y027557D02*
X048594Y027557D01*
X048594Y028057D02*
X049014Y028057D01*
X049014Y028557D02*
X048594Y028557D01*
X048594Y029057D02*
X049014Y029057D01*
X049014Y029557D02*
X048594Y029557D01*
X048594Y030057D02*
X049014Y030057D01*
X049014Y030557D02*
X048594Y030557D01*
X048594Y031057D02*
X049014Y031057D01*
X049014Y031557D02*
X048594Y031557D01*
X048594Y032057D02*
X049014Y032057D01*
X049014Y032557D02*
X048594Y032557D01*
X048594Y033057D02*
X049014Y033057D01*
X049014Y033557D02*
X048594Y033557D01*
X048594Y034057D02*
X049014Y034057D01*
X049014Y034557D02*
X048594Y034557D01*
X048594Y035057D02*
X049014Y035057D01*
X049014Y035557D02*
X048594Y035557D01*
X048594Y036057D02*
X049014Y036057D01*
X049014Y036557D02*
X048594Y036557D01*
X048594Y037057D02*
X049014Y037057D01*
X049014Y037557D02*
X048594Y037557D01*
X048594Y038057D02*
X049014Y038057D01*
X049014Y038557D02*
X048594Y038557D01*
X048594Y039057D02*
X049014Y039057D01*
X049014Y039557D02*
X048594Y039557D01*
X048594Y040057D02*
X049014Y040057D01*
X049594Y040057D02*
X050014Y040057D01*
X050014Y039557D02*
X049594Y039557D01*
X049594Y039057D02*
X050014Y039057D01*
X050014Y038557D02*
X049594Y038557D01*
X049594Y038057D02*
X050014Y038057D01*
X050014Y037557D02*
X049594Y037557D01*
X049594Y037057D02*
X050014Y037057D01*
X050014Y036557D02*
X049594Y036557D01*
X049594Y036057D02*
X050014Y036057D01*
X050014Y035557D02*
X049594Y035557D01*
X049594Y035057D02*
X050014Y035057D01*
X050014Y034557D02*
X049594Y034557D01*
X049594Y034057D02*
X050014Y034057D01*
X050014Y033557D02*
X049594Y033557D01*
X049594Y033057D02*
X050014Y033057D01*
X050014Y032557D02*
X049594Y032557D01*
X049594Y032057D02*
X050014Y032057D01*
X050014Y031557D02*
X049594Y031557D01*
X049594Y031057D02*
X050014Y031057D01*
X050014Y030557D02*
X049594Y030557D01*
X049594Y030057D02*
X050014Y030057D01*
X050014Y029557D02*
X049594Y029557D01*
X049594Y029057D02*
X050014Y029057D01*
X050014Y028557D02*
X049594Y028557D01*
X049594Y028057D02*
X050014Y028057D01*
X050014Y027557D02*
X049594Y027557D01*
X049594Y027057D02*
X050014Y027057D01*
X050014Y026557D02*
X049594Y026557D01*
X049594Y026057D02*
X050014Y026057D01*
X036554Y040097D02*
X036554Y040517D01*
X036054Y040517D02*
X036054Y040097D01*
X035554Y040097D02*
X035554Y040517D01*
X035054Y040517D02*
X035054Y040097D01*
X034554Y040097D02*
X034554Y040517D01*
X034054Y040517D02*
X034054Y040097D01*
X033554Y040097D02*
X033554Y040517D01*
X033054Y040517D02*
X033054Y040097D01*
X032554Y040097D02*
X032554Y040517D01*
X032054Y040517D02*
X032054Y040097D01*
X031554Y040097D02*
X031554Y040517D01*
X031054Y040517D02*
X031054Y040097D01*
X030554Y040097D02*
X030554Y040517D01*
X030054Y040517D02*
X030054Y040097D01*
X029554Y040097D02*
X029554Y040517D01*
X029054Y040517D02*
X029054Y040097D01*
X028554Y040097D02*
X028554Y040517D01*
X028054Y040517D02*
X028054Y040097D01*
X027554Y040097D02*
X027554Y040517D01*
X027054Y040517D02*
X027054Y040097D01*
X026554Y040097D02*
X026554Y040517D01*
X026054Y040517D02*
X026054Y040097D01*
X025554Y040097D02*
X025554Y040517D01*
X025054Y040517D02*
X025054Y040097D01*
X024554Y040097D02*
X024554Y040517D01*
X024054Y040517D02*
X024054Y040097D01*
X023554Y040097D02*
X023554Y040517D01*
X023054Y040517D02*
X023054Y040097D01*
X022554Y040097D02*
X022554Y040517D01*
X022054Y040517D02*
X022054Y040097D01*
X021554Y040097D02*
X021554Y040517D01*
X021054Y040517D02*
X021054Y040097D01*
X020554Y040097D02*
X020554Y040517D01*
X020054Y040517D02*
X020054Y040097D01*
X019554Y040097D02*
X019554Y040517D01*
X019054Y040517D02*
X019054Y040097D01*
X018554Y040097D02*
X018554Y040517D01*
X018054Y040517D02*
X018054Y040097D01*
X017554Y040097D02*
X017554Y040517D01*
X017054Y040517D02*
X017054Y040097D01*
X017054Y041097D02*
X017054Y041517D01*
X017554Y041517D02*
X017554Y041097D01*
X018054Y041097D02*
X018054Y041517D01*
X018554Y041517D02*
X018554Y041097D01*
X019054Y041097D02*
X019054Y041517D01*
X019554Y041517D02*
X019554Y041097D01*
X020054Y041097D02*
X020054Y041517D01*
X020554Y041517D02*
X020554Y041097D01*
X021054Y041097D02*
X021054Y041517D01*
X021554Y041517D02*
X021554Y041097D01*
X022054Y041097D02*
X022054Y041517D01*
X022554Y041517D02*
X022554Y041097D01*
X023054Y041097D02*
X023054Y041517D01*
X023554Y041517D02*
X023554Y041097D01*
X024054Y041097D02*
X024054Y041517D01*
X024554Y041517D02*
X024554Y041097D01*
X025054Y041097D02*
X025054Y041517D01*
X025554Y041517D02*
X025554Y041097D01*
X026054Y041097D02*
X026054Y041517D01*
X026554Y041517D02*
X026554Y041097D01*
X027054Y041097D02*
X027054Y041517D01*
X027554Y041517D02*
X027554Y041097D01*
X028054Y041097D02*
X028054Y041517D01*
X028554Y041517D02*
X028554Y041097D01*
X029054Y041097D02*
X029054Y041517D01*
X029554Y041517D02*
X029554Y041097D01*
X030054Y041097D02*
X030054Y041517D01*
X030554Y041517D02*
X030554Y041097D01*
X031054Y041097D02*
X031054Y041517D01*
X031554Y041517D02*
X031554Y041097D01*
X032054Y041097D02*
X032054Y041517D01*
X032554Y041517D02*
X032554Y041097D01*
X033054Y041097D02*
X033054Y041517D01*
X033554Y041517D02*
X033554Y041097D01*
X034054Y041097D02*
X034054Y041517D01*
X034554Y041517D02*
X034554Y041097D01*
X035054Y041097D02*
X035054Y041517D01*
X035554Y041517D02*
X035554Y041097D01*
X036054Y041097D02*
X036054Y041517D01*
X036554Y041517D02*
X036554Y041097D01*
X048594Y040557D02*
X049014Y040557D01*
X049594Y040557D02*
X050014Y040557D01*
X005014Y033057D02*
X004594Y033057D01*
X004594Y032557D02*
X005014Y032557D01*
X005014Y032057D02*
X004594Y032057D01*
X004594Y031557D02*
X005014Y031557D01*
X005014Y031057D02*
X004594Y031057D01*
X004594Y030557D02*
X005014Y030557D01*
X005014Y030057D02*
X004594Y030057D01*
X004594Y029557D02*
X005014Y029557D01*
X005014Y029057D02*
X004594Y029057D01*
X004594Y028557D02*
X005014Y028557D01*
X005014Y028057D02*
X004594Y028057D01*
X004594Y027557D02*
X005014Y027557D01*
X005014Y027057D02*
X004594Y027057D01*
X004014Y027057D02*
X003594Y027057D01*
X003594Y027557D02*
X004014Y027557D01*
X004014Y028057D02*
X003594Y028057D01*
X003594Y028557D02*
X004014Y028557D01*
X004014Y029057D02*
X003594Y029057D01*
X003594Y029557D02*
X004014Y029557D01*
X004014Y030057D02*
X003594Y030057D01*
X003594Y030557D02*
X004014Y030557D01*
X004014Y031057D02*
X003594Y031057D01*
X003594Y031557D02*
X004014Y031557D01*
X004014Y032057D02*
X003594Y032057D01*
X003594Y032557D02*
X004014Y032557D01*
X004014Y033057D02*
X003594Y033057D01*
X003594Y026557D02*
X004014Y026557D01*
X004014Y026057D02*
X003594Y026057D01*
X003594Y025557D02*
X004014Y025557D01*
X004014Y025057D02*
X003594Y025057D01*
X003594Y024557D02*
X004014Y024557D01*
X004014Y024057D02*
X003594Y024057D01*
X003594Y023557D02*
X004014Y023557D01*
X004014Y023057D02*
X003594Y023057D01*
X003594Y022557D02*
X004014Y022557D01*
X004014Y022057D02*
X003594Y022057D01*
X003594Y021557D02*
X004014Y021557D01*
X004014Y021057D02*
X003594Y021057D01*
X003594Y020557D02*
X004014Y020557D01*
X004014Y020057D02*
X003594Y020057D01*
X003594Y019557D02*
X004014Y019557D01*
X004014Y019057D02*
X003594Y019057D01*
X003594Y018557D02*
X004014Y018557D01*
X004014Y018057D02*
X003594Y018057D01*
X003594Y017557D02*
X004014Y017557D01*
X004014Y017057D02*
X003594Y017057D01*
X003594Y016557D02*
X004014Y016557D01*
X004014Y016057D02*
X003594Y016057D01*
X003594Y015557D02*
X004014Y015557D01*
X004014Y015057D02*
X003594Y015057D01*
X003594Y014557D02*
X004014Y014557D01*
X004014Y014057D02*
X003594Y014057D01*
X003594Y013557D02*
X004014Y013557D01*
X004594Y013557D02*
X005014Y013557D01*
X005014Y014057D02*
X004594Y014057D01*
X004594Y014557D02*
X005014Y014557D01*
X005014Y015057D02*
X004594Y015057D01*
X004594Y015557D02*
X005014Y015557D01*
X005014Y016057D02*
X004594Y016057D01*
X004594Y016557D02*
X005014Y016557D01*
X005014Y017057D02*
X004594Y017057D01*
X004594Y017557D02*
X005014Y017557D01*
X005014Y018057D02*
X004594Y018057D01*
X004594Y018557D02*
X005014Y018557D01*
X005014Y019057D02*
X004594Y019057D01*
X004594Y019557D02*
X005014Y019557D01*
X005014Y020057D02*
X004594Y020057D01*
X004594Y020557D02*
X005014Y020557D01*
X005014Y021057D02*
X004594Y021057D01*
X004594Y021557D02*
X005014Y021557D01*
X005014Y022057D02*
X004594Y022057D01*
X004594Y022557D02*
X005014Y022557D01*
X005014Y023057D02*
X004594Y023057D01*
X004594Y023557D02*
X005014Y023557D01*
X005014Y024057D02*
X004594Y024057D01*
X004594Y024557D02*
X005014Y024557D01*
X005014Y025057D02*
X004594Y025057D01*
X004594Y025557D02*
X005014Y025557D01*
X005014Y026057D02*
X004594Y026057D01*
X004594Y026557D02*
X005014Y026557D01*
D14*
X012304Y029307D03*
X013304Y029307D03*
X021804Y028307D03*
X022804Y028307D03*
X023804Y027307D03*
X022804Y026807D03*
X021804Y026807D03*
X023804Y025807D03*
X024304Y024307D03*
X022804Y023307D03*
X024304Y022307D03*
X022804Y021307D03*
X021804Y020307D03*
X021804Y019307D03*
X022804Y018807D03*
X023804Y018807D03*
X024804Y019307D03*
X028304Y019307D03*
X029804Y018807D03*
X030804Y018807D03*
X030304Y020307D03*
X030304Y021307D03*
X029304Y021307D03*
X030804Y022307D03*
X031804Y022307D03*
X031804Y021307D03*
X029304Y023307D03*
X030804Y024307D03*
X031304Y026807D03*
X031804Y027307D03*
X031304Y027807D03*
X031304Y028307D03*
X027804Y027307D03*
X027804Y025807D03*
X027304Y024307D03*
X025804Y025807D03*
X025804Y027307D03*
X027304Y022307D03*
X033304Y017807D03*
X032304Y016807D03*
X034804Y012807D03*
X035304Y011807D03*
X036304Y010307D03*
X037804Y009307D03*
X037804Y008307D03*
X040304Y014307D03*
X041804Y014307D03*
X044804Y016807D03*
X046804Y016807D03*
X046304Y018807D03*
X044304Y018807D03*
X041804Y017807D03*
X040304Y017807D03*
X046804Y021807D03*
X047304Y021807D03*
X048804Y019307D03*
X048804Y018807D03*
X048804Y015807D03*
X048804Y015307D03*
X050804Y023307D03*
X047304Y025307D03*
X043804Y028307D03*
X042804Y028307D03*
X042304Y028807D03*
X041554Y028807D03*
X040554Y029807D03*
X039304Y031057D03*
X039804Y032307D03*
X039304Y032807D03*
X040554Y032307D03*
X041804Y031057D03*
X042804Y030057D03*
X042804Y027307D03*
X039304Y023807D03*
X038304Y023807D03*
X035304Y034307D03*
X036304Y035307D03*
X032804Y036307D03*
X042304Y037307D03*
X043304Y038307D03*
X044304Y039307D03*
X043304Y040307D03*
X020304Y017807D03*
X021304Y016807D03*
X009304Y018807D03*
X008304Y017807D03*
X007304Y016807D03*
D15*
X006804Y008307D03*
X019304Y015807D03*
X034304Y015807D03*
X046804Y008307D03*
X034304Y030807D03*
X019304Y030807D03*
X006804Y038307D03*
M02*
