%
M48
M72
T01C0.0197
T02C0.0220
T03C0.0236
T04C0.0320
T05C0.0394
T06C0.0400
T07C0.0520
T08C0.1730
T09C0.2640
%
T01
X19185Y24686
X21185Y24686
X22685Y27686
X22685Y29686
X22685Y31686
X22685Y33686
X22685Y37686
X21185Y40686
X19185Y40686
X11685Y53186
X13685Y56186
X17685Y56186
X21685Y56186
X25685Y56186
X29685Y56186
X33685Y56186
X37685Y56186
X41685Y56186
X45685Y56186
X49685Y56186
X53685Y56186
X57685Y56186
X58185Y63186
X50185Y63186
X42185Y63186
X34185Y63186
X26185Y63186
X18185Y63186
X16185Y71186
X22185Y71186
X24185Y71186
X30185Y71186
X32185Y71186
X38185Y71186
X40185Y71186
X46185Y71186
X48185Y71186
X54185Y71186
X56185Y71186
X62185Y71186
X67685Y68686
X67685Y66686
X67685Y64686
X53185Y45186
X51185Y43186
X49185Y41186
X46685Y42186
X46685Y44186
X40685Y45186
X40185Y44186
X40185Y42186
X40685Y47186
X35185Y44686
X35185Y42686
X32185Y44686
X32185Y47186
X47185Y35186
X51685Y35186
X53185Y33186
X55185Y33186
X47685Y19686
X47685Y17686
X49185Y10686
X52185Y9186
X45185Y10686
X37685Y17686
X37685Y19686
X59685Y15186
X64685Y13686
X64685Y11186
X64685Y8686
X60685Y7686
X68685Y7686
X69685Y14686
X70685Y20686
X73685Y20686
X73685Y27686
X70685Y27686
X8185Y55686
X6685Y60686
X8185Y64186
X3685Y55186
T02
X14185Y41936
X14185Y41436
X14185Y40936
X14185Y40436
X14185Y39936
X14185Y39436
X14185Y38936
X14185Y38436
X14185Y37936
X14185Y37436
X14185Y36936
X14185Y36436
X14185Y35936
X14185Y35436
X14185Y34936
X14185Y34436
X14185Y33936
X14185Y33436
X14185Y32936
X14185Y32436
X14185Y31936
X14185Y31436
X14185Y30936
X14185Y30436
X14185Y29936
X14185Y29436
X14185Y28936
X14185Y28436
X14185Y27936
X14185Y27436
X14185Y26936
X14185Y26436
X14185Y25936
X14185Y25436
X14185Y24936
X14185Y24436
X14185Y23936
X14185Y23436
X14185Y22936
X14185Y22436
X15185Y22436
X15185Y22936
X15185Y23436
X15185Y23936
X15185Y24436
X15185Y24936
X15185Y25436
X15185Y25936
X15185Y26436
X15185Y26936
X15185Y27436
X15185Y27936
X15185Y28436
X15185Y28936
X15185Y29436
X15185Y29936
X15185Y30436
X15185Y30936
X15185Y31436
X15185Y31936
X15185Y32436
X15185Y32936
X15185Y33436
X15185Y33936
X15185Y34436
X15185Y34936
X15185Y35436
X15185Y35936
X15185Y36436
X15185Y36936
X15185Y37436
X15185Y37936
X15185Y38436
X15185Y38936
X15185Y39436
X15185Y39936
X15185Y40436
X15185Y40936
X15185Y41436
X15185Y41936
X27435Y49186
X27935Y49186
X28435Y49186
X28935Y49186
X29435Y49186
X29935Y49186
X30435Y49186
X30935Y49186
X31435Y49186
X31935Y49186
X32435Y49186
X32935Y49186
X33435Y49186
X33935Y49186
X34435Y49186
X34935Y49186
X35435Y49186
X35935Y49186
X36435Y49186
X36935Y49186
X37435Y49186
X37935Y49186
X38435Y49186
X38935Y49186
X39435Y49186
X39935Y49186
X40435Y49186
X40935Y49186
X41435Y49186
X41935Y49186
X42435Y49186
X42935Y49186
X43435Y49186
X43935Y49186
X44435Y49186
X44935Y49186
X45435Y49186
X45935Y49186
X46435Y49186
X46935Y49186
X46935Y50186
X46435Y50186
X45935Y50186
X45435Y50186
X44935Y50186
X44435Y50186
X43935Y50186
X43435Y50186
X42935Y50186
X42435Y50186
X41935Y50186
X41435Y50186
X40935Y50186
X40435Y50186
X39935Y50186
X39435Y50186
X38935Y50186
X38435Y50186
X37935Y50186
X37435Y50186
X36935Y50186
X36435Y50186
X35935Y50186
X35435Y50186
X34935Y50186
X34435Y50186
X33935Y50186
X33435Y50186
X32935Y50186
X32435Y50186
X31935Y50186
X31435Y50186
X30935Y50186
X30435Y50186
X29935Y50186
X29435Y50186
X28935Y50186
X28435Y50186
X27935Y50186
X27435Y50186
X59185Y49436
X59185Y48936
X59185Y48436
X59185Y47936
X59185Y47436
X59185Y46936
X59185Y46436
X59185Y45936
X59185Y45436
X59185Y44936
X59185Y44436
X59185Y43936
X59185Y43436
X59185Y42936
X59185Y42436
X59185Y41936
X59185Y41436
X59185Y40936
X59185Y40436
X59185Y39936
X59185Y39436
X59185Y38936
X59185Y38436
X59185Y37936
X59185Y37436
X59185Y36936
X59185Y36436
X59185Y35936
X59185Y35436
X59185Y34936
X60185Y34936
X60185Y35436
X60185Y35936
X60185Y36436
X60185Y36936
X60185Y37436
X60185Y37936
X60185Y38436
X60185Y38936
X60185Y39436
X60185Y39936
X60185Y40436
X60185Y40936
X60185Y41436
X60185Y41936
X60185Y42436
X60185Y42936
X60185Y43436
X60185Y43936
X60185Y44436
X60185Y44936
X60185Y45436
X60185Y45936
X60185Y46436
X60185Y46936
X60185Y47436
X60185Y47936
X60185Y48436
X60185Y48936
X60185Y49436
X51935Y15186
X51435Y15186
X50935Y15186
X50435Y15186
X49935Y15186
X49435Y15186
X48935Y15186
X48435Y15186
X47935Y15186
X47435Y15186
X46935Y15186
X46435Y15186
X45935Y15186
X45435Y15186
X44935Y15186
X44435Y15186
X43935Y15186
X43435Y15186
X42935Y15186
X42435Y15186
X41935Y15186
X41435Y15186
X40935Y15186
X40435Y15186
X39935Y15186
X39435Y15186
X38935Y15186
X38435Y15186
X37935Y15186
X37435Y15186
X36935Y15186
X36435Y15186
X35935Y15186
X35435Y15186
X34935Y15186
X34435Y15186
X33935Y15186
X33435Y15186
X32935Y15186
X32435Y15186
X31935Y15186
X31435Y15186
X30935Y15186
X30435Y15186
X29935Y15186
X29435Y15186
X28935Y15186
X28435Y15186
X27935Y15186
X27435Y15186
X27435Y14186
X27935Y14186
X28435Y14186
X28935Y14186
X29435Y14186
X29935Y14186
X30435Y14186
X30935Y14186
X31435Y14186
X31935Y14186
X32435Y14186
X32935Y14186
X33435Y14186
X33935Y14186
X34435Y14186
X34935Y14186
X35435Y14186
X35935Y14186
X36435Y14186
X36935Y14186
X37435Y14186
X37935Y14186
X38435Y14186
X38935Y14186
X39435Y14186
X39935Y14186
X40435Y14186
X40935Y14186
X41435Y14186
X41935Y14186
X42435Y14186
X42935Y14186
X43435Y14186
X43935Y14186
X44435Y14186
X44935Y14186
X45435Y14186
X45935Y14186
X46435Y14186
X46935Y14186
X47435Y14186
X47935Y14186
X48435Y14186
X48935Y14186
X49435Y14186
X49935Y14186
X50435Y14186
X50935Y14186
X51435Y14186
X51935Y14186
T03
X42685Y34686
X33185Y41186
X27185Y35186
X24185Y61186
X16185Y61186
X20185Y69186
X28185Y69186
X36185Y69186
X44185Y69186
X52185Y69186
X58185Y76686
X58185Y77186
X60185Y69186
X56185Y61186
X48185Y61186
X40185Y61186
X32185Y61186
T04
X31685Y75686
X32685Y75686
X33685Y75686
X34685Y75686
X35685Y75686
X36685Y75686
X37685Y75686
X38685Y75686
X38685Y78686
X37685Y78686
X36685Y78686
X35685Y78686
X34685Y78686
X33685Y78686
X32685Y78686
X31685Y78686
X22685Y78686
X21685Y78686
X20685Y78686
X19685Y78686
X18685Y78686
X17685Y78686
X16685Y78686
X15685Y78686
X15685Y75686
X16685Y75686
X17685Y75686
X18685Y75686
X19685Y75686
X20685Y75686
X21685Y75686
X22685Y75686
X8185Y59186
X8185Y58186
X8185Y57186
X47685Y75686
X48685Y75686
X49685Y75686
X50685Y75686
X51685Y75686
X52685Y75686
X53685Y75686
X54685Y75686
X54685Y78686
X53685Y78686
X52685Y78686
X51685Y78686
X50685Y78686
X49685Y78686
X48685Y78686
X47685Y78686
X66185Y58686
X67185Y58686
X68185Y58686
X69185Y58686
X70185Y58686
X71185Y58686
X72185Y58686
X73185Y58686
X73185Y55686
X72185Y55686
X71185Y55686
X70185Y55686
X69185Y55686
X68185Y55686
X67185Y55686
X66185Y55686
X53185Y7186
X52185Y7186
X51185Y7186
X50185Y7186
X49185Y7186
X48185Y7186
X47185Y7186
X46185Y7186
X45185Y7186
T05
X56299Y5907
X58071Y5907
X58071Y8466
X56299Y8466
T06
X63685Y4686
X64685Y4686
X65685Y4686
X67185Y29186
X67185Y30186
X63685Y58686
X62685Y58686
X61685Y58686
X60685Y58686
X33185Y5686
X32185Y5686
X31185Y5686
X31185Y4686
X32185Y4686
X33185Y4686
X34185Y4686
X35185Y4686
X36185Y4686
X37185Y4686
X38185Y4686
X39185Y4686
X40185Y4686
X30185Y4686
X29185Y4686
X28185Y4686
X27185Y4686
X27185Y5686
X28185Y5686
X29185Y5686
X30185Y5686
X26185Y5686
X25185Y5686
X24185Y5686
X23185Y5686
X23185Y4686
X24185Y4686
X25185Y4686
X26185Y4686
X22185Y4686
X21185Y4686
X21185Y5686
X22185Y5686
X6185Y14686
X5185Y14686
X5685Y51186
X6685Y51186
X7685Y51186
X8685Y51186
X4685Y75686
X4685Y76686
X4685Y77686
X4685Y78686
T07
X37685Y45686
T08
X44685Y24686
X57185Y17186
X29685Y24686
X17185Y17186
X17185Y47186
T09
X7185Y7186
X72185Y7186
X72185Y77186
M30
