G75*
G70*
%OFA0B0*%
%FSLAX24Y24*%
%IPPOS*%
%LPD*%
%AMOC8*
5,1,8,0,0,1.08239X$1,22.5*
%
%ADD10C,0.0000*%
%ADD11C,0.0500*%
%ADD12C,0.0600*%
%ADD13R,0.0474X0.0513*%
%ADD14R,0.0513X0.0474*%
%ADD15C,0.0680*%
%ADD16OC8,0.0680*%
%ADD17C,0.0674*%
%ADD18OC8,0.0930*%
%ADD19C,0.3623*%
%ADD20C,0.0476*%
D10*
X003680Y002180D02*
X003680Y053430D01*
X065180Y053430D01*
X065180Y002180D01*
X003680Y002180D01*
D11*
X012470Y015930D02*
X012890Y015930D01*
X012890Y016430D02*
X012470Y016430D01*
X012470Y016930D02*
X012890Y016930D01*
X012890Y017430D02*
X012470Y017430D01*
X012470Y017930D02*
X012890Y017930D01*
X012890Y018430D02*
X012470Y018430D01*
X012470Y018930D02*
X012890Y018930D01*
X012890Y019430D02*
X012470Y019430D01*
X012470Y019930D02*
X012890Y019930D01*
X012890Y020430D02*
X012470Y020430D01*
X012470Y020930D02*
X012890Y020930D01*
X012890Y021430D02*
X012470Y021430D01*
X012470Y021930D02*
X012890Y021930D01*
X012890Y022430D02*
X012470Y022430D01*
X012470Y022930D02*
X012890Y022930D01*
X012890Y023430D02*
X012470Y023430D01*
X012470Y023930D02*
X012890Y023930D01*
X012890Y024430D02*
X012470Y024430D01*
X012470Y024930D02*
X012890Y024930D01*
X012890Y025430D02*
X012470Y025430D01*
X012470Y025930D02*
X012890Y025930D01*
X012890Y026430D02*
X012470Y026430D01*
X012470Y026930D02*
X012890Y026930D01*
X012890Y027430D02*
X012470Y027430D01*
X012470Y027930D02*
X012890Y027930D01*
X012890Y028430D02*
X012470Y028430D01*
X012470Y028930D02*
X012890Y028930D01*
X012890Y029430D02*
X012470Y029430D01*
X012470Y029930D02*
X012890Y029930D01*
X012890Y030430D02*
X012470Y030430D01*
X012470Y030930D02*
X012890Y030930D01*
X012890Y031430D02*
X012470Y031430D01*
X012470Y031930D02*
X012890Y031930D01*
X012890Y032430D02*
X012470Y032430D01*
X012470Y032930D02*
X012890Y032930D01*
X012890Y033430D02*
X012470Y033430D01*
X012470Y033930D02*
X012890Y033930D01*
X012890Y034430D02*
X012470Y034430D01*
X012470Y034930D02*
X012890Y034930D01*
X012890Y035430D02*
X012470Y035430D01*
X013470Y035430D02*
X013890Y035430D01*
X013890Y034930D02*
X013470Y034930D01*
X013470Y034430D02*
X013890Y034430D01*
X013890Y033930D02*
X013470Y033930D01*
X013470Y033430D02*
X013890Y033430D01*
X013890Y032930D02*
X013470Y032930D01*
X013470Y032430D02*
X013890Y032430D01*
X013890Y031930D02*
X013470Y031930D01*
X013470Y031430D02*
X013890Y031430D01*
X013890Y030930D02*
X013470Y030930D01*
X013470Y030430D02*
X013890Y030430D01*
X013890Y029930D02*
X013470Y029930D01*
X013470Y029430D02*
X013890Y029430D01*
X013890Y028930D02*
X013470Y028930D01*
X013470Y028430D02*
X013890Y028430D01*
X013890Y027930D02*
X013470Y027930D01*
X013470Y027430D02*
X013890Y027430D01*
X013890Y026930D02*
X013470Y026930D01*
X013470Y026430D02*
X013890Y026430D01*
X013890Y025930D02*
X013470Y025930D01*
X013470Y025430D02*
X013890Y025430D01*
X013890Y024930D02*
X013470Y024930D01*
X013470Y024430D02*
X013890Y024430D01*
X013890Y023930D02*
X013470Y023930D01*
X013470Y023430D02*
X013890Y023430D01*
X013890Y022930D02*
X013470Y022930D01*
X013470Y022430D02*
X013890Y022430D01*
X013890Y021930D02*
X013470Y021930D01*
X013470Y021430D02*
X013890Y021430D01*
X013890Y020930D02*
X013470Y020930D01*
X013470Y020430D02*
X013890Y020430D01*
X013890Y019930D02*
X013470Y019930D01*
X013470Y019430D02*
X013890Y019430D01*
X013890Y018930D02*
X013470Y018930D01*
X013470Y018430D02*
X013890Y018430D01*
X013890Y017930D02*
X013470Y017930D01*
X013470Y017430D02*
X013890Y017430D01*
X013890Y016930D02*
X013470Y016930D01*
X013470Y016430D02*
X013890Y016430D01*
X013890Y015930D02*
X013470Y015930D01*
X025930Y008890D02*
X025930Y008470D01*
X026430Y008470D02*
X026430Y008890D01*
X026930Y008890D02*
X026930Y008470D01*
X027430Y008470D02*
X027430Y008890D01*
X027930Y008890D02*
X027930Y008470D01*
X028430Y008470D02*
X028430Y008890D01*
X028930Y008890D02*
X028930Y008470D01*
X029430Y008470D02*
X029430Y008890D01*
X029930Y008890D02*
X029930Y008470D01*
X030430Y008470D02*
X030430Y008890D01*
X030930Y008890D02*
X030930Y008470D01*
X031430Y008470D02*
X031430Y008890D01*
X031930Y008890D02*
X031930Y008470D01*
X032430Y008470D02*
X032430Y008890D01*
X032930Y008890D02*
X032930Y008470D01*
X033430Y008470D02*
X033430Y008890D01*
X033930Y008890D02*
X033930Y008470D01*
X034430Y008470D02*
X034430Y008890D01*
X034930Y008890D02*
X034930Y008470D01*
X035430Y008470D02*
X035430Y008890D01*
X035930Y008890D02*
X035930Y008470D01*
X036430Y008470D02*
X036430Y008890D01*
X036930Y008890D02*
X036930Y008470D01*
X037430Y008470D02*
X037430Y008890D01*
X037930Y008890D02*
X037930Y008470D01*
X038430Y008470D02*
X038430Y008890D01*
X038930Y008890D02*
X038930Y008470D01*
X039430Y008470D02*
X039430Y008890D01*
X039930Y008890D02*
X039930Y008470D01*
X040430Y008470D02*
X040430Y008890D01*
X040930Y008890D02*
X040930Y008470D01*
X041430Y008470D02*
X041430Y008890D01*
X041930Y008890D02*
X041930Y008470D01*
X042430Y008470D02*
X042430Y008890D01*
X042930Y008890D02*
X042930Y008470D01*
X043430Y008470D02*
X043430Y008890D01*
X043930Y008890D02*
X043930Y008470D01*
X044430Y008470D02*
X044430Y008890D01*
X044930Y008890D02*
X044930Y008470D01*
X045430Y008470D02*
X045430Y008890D01*
X045930Y008890D02*
X045930Y008470D01*
X046430Y008470D02*
X046430Y008890D01*
X046930Y008890D02*
X046930Y008470D01*
X047430Y008470D02*
X047430Y008890D01*
X047930Y008890D02*
X047930Y008470D01*
X048430Y008470D02*
X048430Y008890D01*
X048930Y008890D02*
X048930Y008470D01*
X049430Y008470D02*
X049430Y008890D01*
X049930Y008890D02*
X049930Y008470D01*
X050430Y008470D02*
X050430Y008890D01*
X050430Y007890D02*
X050430Y007470D01*
X049930Y007470D02*
X049930Y007890D01*
X049430Y007890D02*
X049430Y007470D01*
X048930Y007470D02*
X048930Y007890D01*
X048430Y007890D02*
X048430Y007470D01*
X047930Y007470D02*
X047930Y007890D01*
X047430Y007890D02*
X047430Y007470D01*
X046930Y007470D02*
X046930Y007890D01*
X046430Y007890D02*
X046430Y007470D01*
X045930Y007470D02*
X045930Y007890D01*
X045430Y007890D02*
X045430Y007470D01*
X044930Y007470D02*
X044930Y007890D01*
X044430Y007890D02*
X044430Y007470D01*
X043930Y007470D02*
X043930Y007890D01*
X043430Y007890D02*
X043430Y007470D01*
X042930Y007470D02*
X042930Y007890D01*
X042430Y007890D02*
X042430Y007470D01*
X041930Y007470D02*
X041930Y007890D01*
X041430Y007890D02*
X041430Y007470D01*
X040930Y007470D02*
X040930Y007890D01*
X040430Y007890D02*
X040430Y007470D01*
X039930Y007470D02*
X039930Y007890D01*
X039430Y007890D02*
X039430Y007470D01*
X038930Y007470D02*
X038930Y007890D01*
X038430Y007890D02*
X038430Y007470D01*
X037930Y007470D02*
X037930Y007890D01*
X037430Y007890D02*
X037430Y007470D01*
X036930Y007470D02*
X036930Y007890D01*
X036430Y007890D02*
X036430Y007470D01*
X035930Y007470D02*
X035930Y007890D01*
X035430Y007890D02*
X035430Y007470D01*
X034930Y007470D02*
X034930Y007890D01*
X034430Y007890D02*
X034430Y007470D01*
X033930Y007470D02*
X033930Y007890D01*
X033430Y007890D02*
X033430Y007470D01*
X032930Y007470D02*
X032930Y007890D01*
X032430Y007890D02*
X032430Y007470D01*
X031930Y007470D02*
X031930Y007890D01*
X031430Y007890D02*
X031430Y007470D01*
X030930Y007470D02*
X030930Y007890D01*
X030430Y007890D02*
X030430Y007470D01*
X029930Y007470D02*
X029930Y007890D01*
X029430Y007890D02*
X029430Y007470D01*
X028930Y007470D02*
X028930Y007890D01*
X028430Y007890D02*
X028430Y007470D01*
X027930Y007470D02*
X027930Y007890D01*
X027430Y007890D02*
X027430Y007470D01*
X026930Y007470D02*
X026930Y007890D01*
X026430Y007890D02*
X026430Y007470D01*
X025930Y007470D02*
X025930Y007890D01*
X057470Y028430D02*
X057890Y028430D01*
X057890Y028930D02*
X057470Y028930D01*
X057470Y029430D02*
X057890Y029430D01*
X057890Y029930D02*
X057470Y029930D01*
X057470Y030430D02*
X057890Y030430D01*
X057890Y030930D02*
X057470Y030930D01*
X057470Y031430D02*
X057890Y031430D01*
X057890Y031930D02*
X057470Y031930D01*
X057470Y032430D02*
X057890Y032430D01*
X057890Y032930D02*
X057470Y032930D01*
X057470Y033430D02*
X057890Y033430D01*
X057890Y033930D02*
X057470Y033930D01*
X057470Y034430D02*
X057890Y034430D01*
X057890Y034930D02*
X057470Y034930D01*
X057470Y035430D02*
X057890Y035430D01*
X057890Y035930D02*
X057470Y035930D01*
X057470Y036430D02*
X057890Y036430D01*
X057890Y036930D02*
X057470Y036930D01*
X057470Y037430D02*
X057890Y037430D01*
X057890Y037930D02*
X057470Y037930D01*
X057470Y038430D02*
X057890Y038430D01*
X057890Y038930D02*
X057470Y038930D01*
X057470Y039430D02*
X057890Y039430D01*
X057890Y039930D02*
X057470Y039930D01*
X057470Y040430D02*
X057890Y040430D01*
X057890Y040930D02*
X057470Y040930D01*
X057470Y041430D02*
X057890Y041430D01*
X057890Y041930D02*
X057470Y041930D01*
X057470Y042430D02*
X057890Y042430D01*
X057890Y042930D02*
X057470Y042930D01*
X058470Y042930D02*
X058890Y042930D01*
X058890Y042430D02*
X058470Y042430D01*
X058470Y041930D02*
X058890Y041930D01*
X058890Y041430D02*
X058470Y041430D01*
X058470Y040930D02*
X058890Y040930D01*
X058890Y040430D02*
X058470Y040430D01*
X058470Y039930D02*
X058890Y039930D01*
X058890Y039430D02*
X058470Y039430D01*
X058470Y038930D02*
X058890Y038930D01*
X058890Y038430D02*
X058470Y038430D01*
X058470Y037930D02*
X058890Y037930D01*
X058890Y037430D02*
X058470Y037430D01*
X058470Y036930D02*
X058890Y036930D01*
X058890Y036430D02*
X058470Y036430D01*
X058470Y035930D02*
X058890Y035930D01*
X058890Y035430D02*
X058470Y035430D01*
X058470Y034930D02*
X058890Y034930D01*
X058890Y034430D02*
X058470Y034430D01*
X058470Y033930D02*
X058890Y033930D01*
X058890Y033430D02*
X058470Y033430D01*
X058470Y032930D02*
X058890Y032930D01*
X058890Y032430D02*
X058470Y032430D01*
X058470Y031930D02*
X058890Y031930D01*
X058890Y031430D02*
X058470Y031430D01*
X058470Y030930D02*
X058890Y030930D01*
X058890Y030430D02*
X058470Y030430D01*
X058470Y029930D02*
X058890Y029930D01*
X058890Y029430D02*
X058470Y029430D01*
X058470Y028930D02*
X058890Y028930D01*
X058890Y028430D02*
X058470Y028430D01*
X045430Y042470D02*
X045430Y042890D01*
X044930Y042890D02*
X044930Y042470D01*
X044430Y042470D02*
X044430Y042890D01*
X043930Y042890D02*
X043930Y042470D01*
X043430Y042470D02*
X043430Y042890D01*
X042930Y042890D02*
X042930Y042470D01*
X042430Y042470D02*
X042430Y042890D01*
X041930Y042890D02*
X041930Y042470D01*
X041430Y042470D02*
X041430Y042890D01*
X040930Y042890D02*
X040930Y042470D01*
X040430Y042470D02*
X040430Y042890D01*
X039930Y042890D02*
X039930Y042470D01*
X039430Y042470D02*
X039430Y042890D01*
X038930Y042890D02*
X038930Y042470D01*
X038430Y042470D02*
X038430Y042890D01*
X037930Y042890D02*
X037930Y042470D01*
X037430Y042470D02*
X037430Y042890D01*
X036930Y042890D02*
X036930Y042470D01*
X036430Y042470D02*
X036430Y042890D01*
X035930Y042890D02*
X035930Y042470D01*
X035430Y042470D02*
X035430Y042890D01*
X034930Y042890D02*
X034930Y042470D01*
X034430Y042470D02*
X034430Y042890D01*
X033930Y042890D02*
X033930Y042470D01*
X033430Y042470D02*
X033430Y042890D01*
X032930Y042890D02*
X032930Y042470D01*
X032430Y042470D02*
X032430Y042890D01*
X031930Y042890D02*
X031930Y042470D01*
X031430Y042470D02*
X031430Y042890D01*
X030930Y042890D02*
X030930Y042470D01*
X030430Y042470D02*
X030430Y042890D01*
X029930Y042890D02*
X029930Y042470D01*
X029430Y042470D02*
X029430Y042890D01*
X028930Y042890D02*
X028930Y042470D01*
X028430Y042470D02*
X028430Y042890D01*
X027930Y042890D02*
X027930Y042470D01*
X027430Y042470D02*
X027430Y042890D01*
X026930Y042890D02*
X026930Y042470D01*
X026430Y042470D02*
X026430Y042890D01*
X025930Y042890D02*
X025930Y042470D01*
X025930Y043470D02*
X025930Y043890D01*
X026430Y043890D02*
X026430Y043470D01*
X026930Y043470D02*
X026930Y043890D01*
X027430Y043890D02*
X027430Y043470D01*
X027930Y043470D02*
X027930Y043890D01*
X028430Y043890D02*
X028430Y043470D01*
X028930Y043470D02*
X028930Y043890D01*
X029430Y043890D02*
X029430Y043470D01*
X029930Y043470D02*
X029930Y043890D01*
X030430Y043890D02*
X030430Y043470D01*
X030930Y043470D02*
X030930Y043890D01*
X031430Y043890D02*
X031430Y043470D01*
X031930Y043470D02*
X031930Y043890D01*
X032430Y043890D02*
X032430Y043470D01*
X032930Y043470D02*
X032930Y043890D01*
X033430Y043890D02*
X033430Y043470D01*
X033930Y043470D02*
X033930Y043890D01*
X034430Y043890D02*
X034430Y043470D01*
X034930Y043470D02*
X034930Y043890D01*
X035430Y043890D02*
X035430Y043470D01*
X035930Y043470D02*
X035930Y043890D01*
X036430Y043890D02*
X036430Y043470D01*
X036930Y043470D02*
X036930Y043890D01*
X037430Y043890D02*
X037430Y043470D01*
X037930Y043470D02*
X037930Y043890D01*
X038430Y043890D02*
X038430Y043470D01*
X038930Y043470D02*
X038930Y043890D01*
X039430Y043890D02*
X039430Y043470D01*
X039930Y043470D02*
X039930Y043890D01*
X040430Y043890D02*
X040430Y043470D01*
X040930Y043470D02*
X040930Y043890D01*
X041430Y043890D02*
X041430Y043470D01*
X041930Y043470D02*
X041930Y043890D01*
X042430Y043890D02*
X042430Y043470D01*
X042930Y043470D02*
X042930Y043890D01*
X043430Y043890D02*
X043430Y043470D01*
X043930Y043470D02*
X043930Y043890D01*
X044430Y043890D02*
X044430Y043470D01*
X044930Y043470D02*
X044930Y043890D01*
X045430Y043890D02*
X045430Y043470D01*
D12*
X045680Y047170D02*
X045680Y047690D01*
X044680Y047690D02*
X044680Y047170D01*
X043180Y047170D02*
X043180Y047690D01*
X042180Y047690D02*
X042180Y047170D01*
X041180Y047170D02*
X041180Y047690D01*
X040180Y047690D02*
X040180Y047170D01*
X039180Y047170D02*
X039180Y047690D01*
X038180Y047690D02*
X038180Y047170D01*
X037180Y047170D02*
X037180Y047690D01*
X036180Y047690D02*
X036180Y047170D01*
X034680Y047170D02*
X034680Y047690D01*
X033680Y047690D02*
X033680Y047170D01*
X032680Y047170D02*
X032680Y047690D01*
X031680Y047690D02*
X031680Y047170D01*
X030680Y047170D02*
X030680Y047690D01*
X029680Y047690D02*
X029680Y047170D01*
X028680Y047170D02*
X028680Y047690D01*
X027680Y047690D02*
X027680Y047170D01*
X026180Y047170D02*
X026180Y047690D01*
X025180Y047690D02*
X025180Y047170D01*
X024180Y047170D02*
X024180Y047690D01*
X023180Y047690D02*
X023180Y047170D01*
X022180Y047170D02*
X022180Y047690D01*
X021180Y047690D02*
X021180Y047170D01*
X020180Y047170D02*
X020180Y047690D01*
X019180Y047690D02*
X019180Y047170D01*
X019180Y050170D02*
X019180Y050690D01*
X020180Y050690D02*
X020180Y050170D01*
X021180Y050170D02*
X021180Y050690D01*
X022180Y050690D02*
X022180Y050170D01*
X023180Y050170D02*
X023180Y050690D01*
X024180Y050690D02*
X024180Y050170D01*
X025180Y050170D02*
X025180Y050690D01*
X026180Y050690D02*
X026180Y050170D01*
X027680Y050170D02*
X027680Y050690D01*
X028680Y050690D02*
X028680Y050170D01*
X029680Y050170D02*
X029680Y050690D01*
X030680Y050690D02*
X030680Y050170D01*
X031680Y050170D02*
X031680Y050690D01*
X032680Y050690D02*
X032680Y050170D01*
X033680Y050170D02*
X033680Y050690D01*
X034680Y050690D02*
X034680Y050170D01*
X036180Y050170D02*
X036180Y050690D01*
X037180Y050690D02*
X037180Y050170D01*
X038180Y050170D02*
X038180Y050690D01*
X039180Y050690D02*
X039180Y050170D01*
X040180Y050170D02*
X040180Y050690D01*
X041180Y050690D02*
X041180Y050170D01*
X042180Y050170D02*
X042180Y050690D01*
X043180Y050690D02*
X043180Y050170D01*
X044680Y050170D02*
X044680Y050690D01*
X045680Y050690D02*
X045680Y050170D01*
X046680Y050170D02*
X046680Y050690D01*
X047680Y050690D02*
X047680Y050170D01*
X048680Y050170D02*
X048680Y050690D01*
X049680Y050690D02*
X049680Y050170D01*
X050680Y050170D02*
X050680Y050690D01*
X051680Y050690D02*
X051680Y050170D01*
X051680Y047690D02*
X051680Y047170D01*
X050680Y047170D02*
X050680Y047690D01*
X049680Y047690D02*
X049680Y047170D01*
X048680Y047170D02*
X048680Y047690D01*
X047680Y047690D02*
X047680Y047170D01*
X046680Y047170D02*
X046680Y047690D01*
X009940Y041180D02*
X009420Y041180D01*
X009420Y040180D02*
X009940Y040180D01*
X009940Y039180D02*
X009420Y039180D01*
X042180Y004190D02*
X042180Y003670D01*
X043180Y003670D02*
X043180Y004190D01*
X044180Y004190D02*
X044180Y003670D01*
X045180Y003670D02*
X045180Y004190D01*
X046180Y004190D02*
X046180Y003670D01*
X047180Y003670D02*
X047180Y004190D01*
X048180Y004190D02*
X048180Y003670D01*
X049180Y003670D02*
X049180Y004190D01*
X050180Y004190D02*
X050180Y003670D01*
D13*
X053345Y028930D03*
X054015Y028930D03*
X054015Y029930D03*
X053345Y029930D03*
X053345Y030930D03*
X054015Y030930D03*
X054015Y031930D03*
X053345Y031930D03*
X053345Y032930D03*
X054015Y032930D03*
X055345Y032430D03*
X056015Y032430D03*
X056015Y031430D03*
X055345Y031430D03*
X055345Y030430D03*
X056015Y030430D03*
X056015Y029430D03*
X055345Y029430D03*
X017515Y028430D03*
X016845Y028430D03*
X016845Y027430D03*
X017515Y027430D03*
X017515Y026430D03*
X016845Y026430D03*
X016845Y025430D03*
X017515Y025430D03*
X017515Y024430D03*
X016845Y024430D03*
X016845Y023430D03*
X017515Y023430D03*
X017515Y022430D03*
X016845Y022430D03*
X016845Y021430D03*
X017515Y021430D03*
X017515Y020430D03*
X016845Y020430D03*
X015515Y020930D03*
X014845Y020930D03*
X014845Y021930D03*
X015515Y021930D03*
X015515Y022930D03*
X014845Y022930D03*
X014845Y023930D03*
X015515Y023930D03*
X015515Y024930D03*
X014845Y024930D03*
X014845Y025930D03*
X015515Y025930D03*
X015515Y026930D03*
X014845Y026930D03*
X014845Y027930D03*
X015515Y027930D03*
X015515Y028930D03*
X014845Y028930D03*
X014845Y030930D03*
X015515Y030930D03*
X015515Y031930D03*
X014845Y031930D03*
X016845Y031430D03*
X017515Y031430D03*
D14*
X039430Y014515D03*
X039430Y013845D03*
X040430Y013845D03*
X040430Y014515D03*
X051430Y009015D03*
X051430Y008345D03*
D15*
X048180Y005980D02*
X048180Y005380D01*
X047180Y005380D02*
X047180Y005980D01*
X046180Y005980D02*
X046180Y005380D01*
X045180Y005380D02*
X045180Y005980D01*
X044180Y005980D02*
X044180Y005380D01*
X043180Y005380D02*
X043180Y005980D01*
X042180Y005980D02*
X042180Y005380D01*
X022180Y005480D02*
X022180Y004880D01*
X021180Y004880D02*
X021180Y005480D01*
X020180Y005480D02*
X020180Y004880D01*
X010180Y011880D02*
X010180Y012480D01*
X009180Y012480D02*
X009180Y011880D01*
X007680Y040380D02*
X007680Y040980D01*
X006680Y040980D02*
X006680Y040380D01*
X005680Y040380D02*
X005680Y040980D01*
X004680Y040980D02*
X004680Y040380D01*
X004680Y046880D02*
X004680Y047480D01*
X005680Y047480D02*
X005680Y046880D01*
X006680Y046880D02*
X006680Y047480D01*
X007680Y047480D02*
X007680Y046880D01*
X021680Y051880D02*
X021680Y052480D01*
X022680Y052480D02*
X022680Y051880D01*
X023680Y051880D02*
X023680Y052480D01*
X024680Y052480D02*
X024680Y051880D01*
X025680Y051880D02*
X025680Y052480D01*
X026680Y052480D02*
X026680Y051880D01*
X027680Y051880D02*
X027680Y052480D01*
X028680Y052480D02*
X028680Y051880D01*
X029680Y051880D02*
X029680Y052480D01*
X030680Y052480D02*
X030680Y051880D01*
X031680Y051880D02*
X031680Y052480D01*
X032680Y052480D02*
X032680Y051880D01*
X033680Y051880D02*
X033680Y052480D01*
X034680Y052480D02*
X034680Y051880D01*
X035680Y051880D02*
X035680Y052480D01*
X036680Y052480D02*
X036680Y051880D01*
X037680Y051880D02*
X037680Y052480D01*
X038680Y052480D02*
X038680Y051880D01*
X039680Y051880D02*
X039680Y052480D01*
X040680Y052480D02*
X040680Y051880D01*
X041680Y051880D02*
X041680Y052480D01*
X042680Y052480D02*
X042680Y051880D01*
X043680Y051880D02*
X043680Y052480D01*
X044680Y052480D02*
X044680Y051880D01*
X045680Y051880D02*
X045680Y052480D01*
X046680Y052480D02*
X046680Y051880D01*
X047680Y051880D02*
X047680Y052480D01*
X048680Y052480D02*
X048680Y051880D01*
X049680Y051880D02*
X049680Y052480D01*
X050680Y052480D02*
X050680Y051880D01*
X053180Y049230D02*
X053180Y048630D01*
X054180Y048630D02*
X054180Y049230D01*
X055180Y049230D02*
X055180Y048630D01*
X056180Y048630D02*
X056180Y049230D01*
X061930Y025730D02*
X061930Y025130D01*
X062930Y025130D02*
X062930Y025730D01*
D16*
X037680Y005680D03*
X036680Y005680D03*
X036680Y004680D03*
X037680Y004680D03*
X035680Y004680D03*
X034680Y004680D03*
X033680Y004680D03*
X033680Y005680D03*
X034680Y005680D03*
X035680Y005680D03*
X032680Y005680D03*
X031680Y005680D03*
X031680Y004680D03*
X032680Y004680D03*
X030680Y004680D03*
X029680Y004680D03*
X029680Y005680D03*
X030680Y005680D03*
X028680Y005680D03*
X027680Y005680D03*
X027680Y004680D03*
X028680Y004680D03*
X026680Y004680D03*
X025680Y004680D03*
X025680Y005680D03*
X026680Y005680D03*
D17*
X056794Y020150D03*
X058566Y020150D03*
X058566Y022710D03*
X056794Y022710D03*
D18*
X031430Y041180D03*
D19*
X015680Y040680D03*
X028180Y018180D03*
X015680Y010680D03*
X043180Y018180D03*
X055680Y010680D03*
D20*
X056180Y013680D03*
X054930Y013930D03*
X052180Y016680D03*
X052430Y018680D03*
X054430Y020930D03*
X057430Y017430D03*
X058680Y017430D03*
X051680Y011180D03*
X050180Y011180D03*
X045930Y009930D03*
X045430Y010930D03*
X045430Y012680D03*
X045430Y013930D03*
X047680Y015680D03*
X048430Y018180D03*
X049430Y018180D03*
X048430Y019930D03*
X045930Y021430D03*
X045180Y022430D03*
X044930Y022930D03*
X046430Y023930D03*
X048680Y022930D03*
X049680Y022680D03*
X051430Y025430D03*
X052930Y024930D03*
X051430Y027930D03*
X050430Y028930D03*
X050180Y029680D03*
X047930Y029430D03*
X047930Y030180D03*
X047430Y031180D03*
X047180Y032180D03*
X046930Y032930D03*
X046680Y033930D03*
X045430Y034180D03*
X044680Y033430D03*
X044680Y032930D03*
X045180Y032180D03*
X045680Y032680D03*
X045180Y031180D03*
X045180Y030680D03*
X045180Y029930D03*
X044430Y029430D03*
X043930Y029930D03*
X042930Y029930D03*
X042430Y029180D03*
X042930Y028430D03*
X044430Y027430D03*
X045180Y026930D03*
X044180Y026180D03*
X042430Y025930D03*
X041930Y025930D03*
X041430Y026680D03*
X041430Y027180D03*
X040430Y027180D03*
X039680Y026430D03*
X039680Y025430D03*
X039430Y024680D03*
X038680Y024430D03*
X038180Y023930D03*
X039180Y023680D03*
X039180Y022930D03*
X038680Y022430D03*
X039930Y023930D03*
X037680Y025430D03*
X037180Y025430D03*
X036680Y025430D03*
X035930Y025430D03*
X035930Y026430D03*
X037680Y026430D03*
X038180Y027680D03*
X039680Y028930D03*
X039680Y030430D03*
X040680Y030930D03*
X041180Y031930D03*
X041680Y032430D03*
X042180Y032680D03*
X042430Y033430D03*
X041930Y033930D03*
X042930Y034430D03*
X043180Y034930D03*
X040430Y033430D03*
X039680Y033930D03*
X037930Y033430D03*
X036680Y033430D03*
X036680Y032345D03*
X036680Y031180D03*
X037180Y030930D03*
X037930Y030930D03*
X038930Y031680D03*
X036430Y029930D03*
X035680Y030930D03*
X035680Y031430D03*
X035430Y032180D03*
X035180Y032930D03*
X033180Y032930D03*
X033180Y032180D03*
X033430Y030930D03*
X033430Y029930D03*
X034680Y029430D03*
X032680Y028680D03*
X033680Y027430D03*
X034180Y025930D03*
X032930Y025430D03*
X032430Y025680D03*
X030930Y025680D03*
X029430Y025930D03*
X028930Y027680D03*
X027430Y027930D03*
X025930Y027930D03*
X025680Y028680D03*
X026930Y030180D03*
X027180Y030680D03*
X026430Y031680D03*
X025680Y032180D03*
X025430Y031680D03*
X025430Y030930D03*
X024430Y031180D03*
X026430Y032930D03*
X026430Y033930D03*
X029180Y032930D03*
X030680Y033680D03*
X030680Y034180D03*
X031430Y033680D03*
X032180Y034930D03*
X033180Y034680D03*
X034680Y034680D03*
X035680Y036180D03*
X036930Y034930D03*
X037180Y037180D03*
X038180Y038930D03*
X037930Y039430D03*
X038430Y040180D03*
X039680Y039930D03*
X040430Y040430D03*
X040930Y039430D03*
X038430Y040930D03*
X038930Y041930D03*
X040430Y041680D03*
X044430Y041180D03*
X044930Y041680D03*
X046180Y039180D03*
X046680Y039180D03*
X047180Y039180D03*
X047680Y039180D03*
X048180Y039180D03*
X048680Y039180D03*
X049180Y039180D03*
X049680Y039180D03*
X050180Y039180D03*
X050680Y039180D03*
X051680Y039180D03*
X051180Y040180D03*
X052930Y039180D03*
X052430Y038180D03*
X051680Y037430D03*
X055180Y041430D03*
X055180Y043930D03*
X057180Y044930D03*
X056180Y047930D03*
X055180Y047680D03*
X056180Y050680D03*
X050680Y043680D03*
X048930Y043680D03*
X048930Y041930D03*
X045430Y038930D03*
X039680Y036180D03*
X035680Y039430D03*
X035680Y040680D03*
X035680Y041180D03*
X033180Y039180D03*
X032930Y039680D03*
X032930Y040680D03*
X032430Y041680D03*
X030430Y039680D03*
X029180Y040430D03*
X028680Y041930D03*
X026180Y040430D03*
X026180Y039930D03*
X025680Y040930D03*
X025680Y041430D03*
X025680Y041930D03*
X023180Y041430D03*
X022430Y041180D03*
X022930Y040680D03*
X023180Y039180D03*
X021180Y038430D03*
X021180Y037930D03*
X021180Y037430D03*
X020680Y036930D03*
X019680Y036430D03*
X020555Y036305D03*
X019680Y035680D03*
X020430Y033930D03*
X021680Y034680D03*
X022180Y036180D03*
X022180Y036680D03*
X021680Y036930D03*
X023180Y036180D03*
X023680Y036180D03*
X023430Y034180D03*
X022930Y033680D03*
X022180Y030430D03*
X020680Y029930D03*
X018680Y027930D03*
X018180Y027180D03*
X018430Y026430D03*
X019180Y026680D03*
X021055Y025805D03*
X021680Y025180D03*
X022180Y023680D03*
X022180Y022680D03*
X019930Y021930D03*
X019930Y023680D03*
X018180Y021680D03*
X016180Y022930D03*
X015180Y018930D03*
X016180Y017930D03*
X018430Y016430D03*
X019180Y018180D03*
X022180Y019180D03*
X025930Y019930D03*
X026180Y021180D03*
X027930Y021680D03*
X030680Y022680D03*
X031430Y020180D03*
X031180Y018680D03*
X032930Y015930D03*
X034930Y016680D03*
X036430Y016930D03*
X037680Y017680D03*
X038180Y016680D03*
X038430Y018930D03*
X039680Y019180D03*
X040680Y019430D03*
X039180Y020680D03*
X037180Y020430D03*
X035930Y019430D03*
X034930Y020680D03*
X036680Y024430D03*
X031430Y027430D03*
X030180Y029180D03*
X028930Y029430D03*
X028930Y029930D03*
X027680Y029430D03*
X031680Y030430D03*
X031680Y032180D03*
X029680Y034430D03*
X031930Y037180D03*
X031930Y038930D03*
X021180Y039930D03*
X019680Y041180D03*
X020680Y041680D03*
X017930Y042680D03*
X017680Y043180D03*
X017180Y043430D03*
X014930Y043680D03*
X017180Y045680D03*
X013430Y046430D03*
X010180Y046680D03*
X009180Y044680D03*
X010680Y043066D03*
X011680Y041930D03*
X012930Y041680D03*
X014180Y037680D03*
X016430Y035930D03*
X017430Y035930D03*
X018805Y033805D03*
X018930Y032680D03*
X018680Y031930D03*
X016930Y032430D03*
X015180Y033680D03*
X014680Y034180D03*
X011930Y033680D03*
X011430Y033930D03*
X011180Y034680D03*
X011180Y035430D03*
X010180Y036180D03*
X010305Y037555D03*
X008680Y040680D03*
X017680Y029180D03*
X024430Y023180D03*
X016430Y016180D03*
X016430Y014930D03*
X016430Y013430D03*
X017680Y012930D03*
X018180Y012180D03*
X018430Y010180D03*
X020430Y010430D03*
X020930Y009930D03*
X020430Y009430D03*
X022430Y010430D03*
X022930Y009930D03*
X021430Y012180D03*
X022680Y013180D03*
X022680Y014680D03*
X020180Y014180D03*
X014180Y013930D03*
X014180Y014930D03*
X010680Y014430D03*
X009680Y014430D03*
X009680Y015430D03*
X010680Y015430D03*
X006180Y010930D03*
X015430Y007680D03*
X020680Y003680D03*
X023680Y006430D03*
X026680Y010180D03*
X028430Y011680D03*
X035180Y010180D03*
X037430Y013180D03*
X036430Y013680D03*
X035680Y014930D03*
X040680Y016680D03*
X041430Y014680D03*
X051180Y006930D03*
X049930Y006430D03*
X050180Y005430D03*
X050430Y004930D03*
X046430Y028680D03*
X046930Y029930D03*
X045930Y030930D03*
X048180Y032680D03*
X048680Y032680D03*
X049180Y032180D03*
X050930Y032680D03*
X050680Y033430D03*
X042930Y030930D03*
X042680Y031680D03*
X059930Y035680D03*
X060180Y042180D03*
M02*
