%
M48
M72
T01C0.0220
T02C0.0236
T03C0.0320
T04C0.0394
T05C0.0400
T06C0.0520
T07C0.2165
%
T01
X12680Y15930
X12680Y16430
X12680Y16930
X12680Y17430
X12680Y17930
X12680Y18430
X12680Y18930
X12680Y19430
X12680Y19930
X12680Y20430
X12680Y20930
X12680Y21430
X12680Y21930
X12680Y22430
X12680Y22930
X12680Y23430
X12680Y23930
X12680Y24430
X12680Y24930
X12680Y25430
X12680Y25930
X12680Y26430
X12680Y26930
X12680Y27430
X12680Y27930
X12680Y28430
X12680Y28930
X12680Y29430
X12680Y29930
X12680Y30430
X12680Y30930
X12680Y31430
X12680Y31930
X12680Y32430
X12680Y32930
X12680Y33430
X12680Y33930
X12680Y34430
X12680Y34930
X12680Y35430
X13680Y35430
X13680Y34930
X13680Y34430
X13680Y33930
X13680Y33430
X13680Y32930
X13680Y32430
X13680Y31930
X13680Y31430
X13680Y30930
X13680Y30430
X13680Y29930
X13680Y29430
X13680Y28930
X13680Y28430
X13680Y27930
X13680Y27430
X13680Y26930
X13680Y26430
X13680Y25930
X13680Y25430
X13680Y24930
X13680Y24430
X13680Y23930
X13680Y23430
X13680Y22930
X13680Y22430
X13680Y21930
X13680Y21430
X13680Y20930
X13680Y20430
X13680Y19930
X13680Y19430
X13680Y18930
X13680Y18430
X13680Y17930
X13680Y17430
X13680Y16930
X13680Y16430
X13680Y15930
X25930Y8680
X26430Y8680
X26930Y8680
X27430Y8680
X27930Y8680
X28430Y8680
X28930Y8680
X29430Y8680
X29930Y8680
X30430Y8680
X30930Y8680
X31430Y8680
X31930Y8680
X32430Y8680
X32930Y8680
X33430Y8680
X33930Y8680
X34430Y8680
X34930Y8680
X35430Y8680
X35930Y8680
X36430Y8680
X36930Y8680
X37430Y8680
X37930Y8680
X38430Y8680
X38930Y8680
X39430Y8680
X39930Y8680
X40430Y8680
X40930Y8680
X41430Y8680
X41930Y8680
X42430Y8680
X42930Y8680
X43430Y8680
X43930Y8680
X44430Y8680
X44930Y8680
X45430Y8680
X45930Y8680
X46430Y8680
X46930Y8680
X47430Y8680
X47930Y8680
X48430Y8680
X48930Y8680
X49430Y8680
X49930Y8680
X50430Y8680
X50430Y7680
X49930Y7680
X49430Y7680
X48930Y7680
X48430Y7680
X47930Y7680
X47430Y7680
X46930Y7680
X46430Y7680
X45930Y7680
X45430Y7680
X44930Y7680
X44430Y7680
X43930Y7680
X43430Y7680
X42930Y7680
X42430Y7680
X41930Y7680
X41430Y7680
X40930Y7680
X40430Y7680
X39930Y7680
X39430Y7680
X38930Y7680
X38430Y7680
X37930Y7680
X37430Y7680
X36930Y7680
X36430Y7680
X35930Y7680
X35430Y7680
X34930Y7680
X34430Y7680
X33930Y7680
X33430Y7680
X32930Y7680
X32430Y7680
X31930Y7680
X31430Y7680
X30930Y7680
X30430Y7680
X29930Y7680
X29430Y7680
X28930Y7680
X28430Y7680
X27930Y7680
X27430Y7680
X26930Y7680
X26430Y7680
X25930Y7680
X57680Y28430
X57680Y28930
X57680Y29430
X57680Y29930
X57680Y30430
X57680Y30930
X57680Y31430
X57680Y31930
X57680Y32430
X57680Y32930
X57680Y33430
X57680Y33930
X57680Y34430
X57680Y34930
X57680Y35430
X57680Y35930
X57680Y36430
X57680Y36930
X57680Y37430
X57680Y37930
X57680Y38430
X57680Y38930
X57680Y39430
X57680Y39930
X57680Y40430
X57680Y40930
X57680Y41430
X57680Y41930
X57680Y42430
X57680Y42930
X58680Y42930
X58680Y42430
X58680Y41930
X58680Y41430
X58680Y40930
X58680Y40430
X58680Y39930
X58680Y39430
X58680Y38930
X58680Y38430
X58680Y37930
X58680Y37430
X58680Y36930
X58680Y36430
X58680Y35930
X58680Y35430
X58680Y34930
X58680Y34430
X58680Y33930
X58680Y33430
X58680Y32930
X58680Y32430
X58680Y31930
X58680Y31430
X58680Y30930
X58680Y30430
X58680Y29930
X58680Y29430
X58680Y28930
X58680Y28430
X45430Y42680
X44930Y42680
X44430Y42680
X43930Y42680
X43430Y42680
X42930Y42680
X42430Y42680
X41930Y42680
X41430Y42680
X40930Y42680
X40430Y42680
X39930Y42680
X39430Y42680
X38930Y42680
X38430Y42680
X37930Y42680
X37430Y42680
X36930Y42680
X36430Y42680
X35930Y42680
X35430Y42680
X34930Y42680
X34430Y42680
X33930Y42680
X33430Y42680
X32930Y42680
X32430Y42680
X31930Y42680
X31430Y42680
X30930Y42680
X30430Y42680
X29930Y42680
X29430Y42680
X28930Y42680
X28430Y42680
X27930Y42680
X27430Y42680
X26930Y42680
X26430Y42680
X25930Y42680
X25930Y43680
X26430Y43680
X26930Y43680
X27430Y43680
X27930Y43680
X28430Y43680
X28930Y43680
X29430Y43680
X29930Y43680
X30430Y43680
X30930Y43680
X31430Y43680
X31930Y43680
X32430Y43680
X32930Y43680
X33430Y43680
X33930Y43680
X34430Y43680
X34930Y43680
X35430Y43680
X35930Y43680
X36430Y43680
X36930Y43680
X37430Y43680
X37930Y43680
X38430Y43680
X38930Y43680
X39430Y43680
X39930Y43680
X40430Y43680
X40930Y43680
X41430Y43680
X41930Y43680
X42430Y43680
X42930Y43680
X43430Y43680
X43930Y43680
X44430Y43680
X44930Y43680
X45430Y43680
T02
X6180Y10930
X9680Y14430
X10680Y14430
X10680Y15430
X9680Y15430
X14180Y14930
X14180Y13930
X16430Y13430
X17680Y12930
X18180Y12180
X18430Y10180
X20430Y10430
X20930Y9930
X20430Y9430
X22430Y10430
X22930Y9930
X21430Y12180
X22680Y13180
X22680Y14680
X20180Y14180
X18430Y16430
X19180Y18180
X16180Y17930
X15180Y18930
X16430Y16180
X16430Y14930
X22180Y19180
X19930Y21930
X19930Y23680
X22180Y23680
X22180Y22680
X24430Y23180
X26180Y21180
X25930Y19930
X27930Y21680
X30680Y22680
X31430Y20180
X31180Y18680
X32930Y15930
X34930Y16680
X36430Y16930
X37680Y17680
X38180Y16680
X38430Y18930
X39680Y19180
X40680Y19430
X39180Y20680
X38680Y22430
X39180Y22930
X39180Y23680
X39930Y23930
X39430Y24680
X38680Y24430
X38180Y23930
X36680Y24430
X36680Y25430
X37180Y25430
X37680Y25430
X37680Y26430
X38180Y27680
X39680Y26430
X39680Y25430
X40430Y27180
X41430Y27180
X41430Y26680
X41930Y25930
X42430Y25930
X44180Y26180
X45180Y26930
X44430Y27430
X42930Y28430
X42430Y29180
X42930Y29930
X42930Y30930
X42680Y31680
X42180Y32680
X41680Y32430
X41180Y31930
X40680Y30930
X39680Y30430
X38930Y31680
X37930Y30930
X37180Y30930
X36680Y31180
X35680Y30930
X35680Y31430
X35430Y32180
X35180Y32930
X36680Y33430
X36680Y32345
X37930Y33430
X39680Y33930
X40430Y33430
X41930Y33930
X42430Y33430
X42930Y34430
X43180Y34930
X44680Y33430
X44680Y32930
X45180Y32180
X45680Y32680
X46930Y32930
X47180Y32180
X48180Y32680
X48680Y32680
X49180Y32180
X50930Y32680
X50680Y33430
X47430Y31180
X47930Y30180
X47930Y29430
X46930Y29930
X46430Y28680
X45180Y29930
X45180Y30680
X45180Y31180
X45930Y30930
X44430Y29430
X43930Y29930
X39680Y28930
X36430Y29930
X34680Y29430
X33430Y29930
X33430Y30930
X33180Y32180
X33180Y32930
X31680Y32180
X31430Y33680
X30680Y33680
X30680Y34180
X29680Y34430
X29180Y32930
X26430Y32930
X25680Y32180
X25430Y31680
X25430Y30930
X24430Y31180
X26430Y31680
X27180Y30680
X26930Y30180
X27680Y29430
X28930Y29430
X28930Y29930
X30180Y29180
X28930Y27680
X27430Y27930
X25930Y27930
X25680Y28680
X29430Y25930
X30930Y25680
X32430Y25680
X32930Y25430
X34180Y25930
X33680Y27430
X32680Y28680
X31430Y27430
X31680Y30430
X35930Y26430
X35930Y25430
X34930Y20680
X35930Y19430
X37180Y20430
X40680Y16680
X41430Y14680
X45430Y13930
X45430Y12680
X45430Y10930
X45930Y9930
X50180Y11180
X51680Y11180
X54930Y13930
X56180Y13680
X52180Y16680
X52430Y18680
X54430Y20930
X57430Y17430
X58680Y17430
X52930Y24930
X51430Y25430
X48680Y22930
X49680Y22680
X48430Y19930
X48430Y18180
X49430Y18180
X47680Y15680
X45930Y21430
X45180Y22430
X44930Y22930
X46430Y23930
X51430Y27930
X50430Y28930
X50180Y29680
X46680Y33930
X45430Y34180
X45430Y38930
X46180Y39180
X46680Y39180
X47180Y39180
X47680Y39180
X48180Y39180
X48680Y39180
X49180Y39180
X49680Y39180
X50180Y39180
X50680Y39180
X51680Y39180
X51180Y40180
X52930Y39180
X52430Y38180
X51680Y37430
X55180Y41430
X55180Y43930
X57180Y44930
X56180Y47930
X55180Y47680
X56180Y50680
X50680Y43680
X48930Y43680
X48930Y41930
X44930Y41680
X44430Y41180
X40930Y39430
X40430Y40430
X39680Y39930
X38430Y40180
X37930Y39430
X38180Y38930
X37180Y37180
X35680Y36180
X36930Y34930
X34680Y34680
X33180Y34680
X32180Y34930
X31930Y37180
X31930Y38930
X32930Y39680
X33180Y39180
X32930Y40680
X32430Y41680
X30430Y39680
X29180Y40430
X28680Y41930
X26180Y40430
X26180Y39930
X25680Y40930
X25680Y41430
X25680Y41930
X23180Y41430
X22430Y41180
X22930Y40680
X23180Y39180
X21180Y38430
X21180Y37930
X21180Y37430
X20680Y36930
X19680Y36430
X20555Y36305
X19680Y35680
X20430Y33930
X21680Y34680
X22180Y36180
X22180Y36680
X21680Y36930
X23180Y36180
X23680Y36180
X23430Y34180
X22930Y33680
X26430Y33930
X22180Y30430
X20680Y29930
X18680Y27930
X18180Y27180
X18430Y26430
X19180Y26680
X21055Y25805
X21680Y25180
X18180Y21680
X16180Y22930
X17680Y29180
X18680Y31930
X18930Y32680
X18805Y33805
X16930Y32430
X15180Y33680
X14680Y34180
X16430Y35930
X17430Y35930
X14180Y37680
X11180Y35430
X11180Y34680
X11430Y33930
X11930Y33680
X10180Y36180
X10305Y37555
X8680Y40680
X10680Y43066
X11680Y41930
X12930Y41680
X14930Y43680
X17180Y43430
X17680Y43180
X17930Y42680
X19680Y41180
X20680Y41680
X21180Y39930
X17180Y45680
X13430Y46430
X10180Y46680
X9180Y44680
X35680Y41180
X35680Y40680
X35680Y39430
X38430Y40930
X38930Y41930
X40430Y41680
X39680Y36180
X59930Y35680
X60180Y42180
X35680Y14930
X36430Y13680
X37430Y13180
X35180Y10180
X28430Y11680
X26680Y10180
X23680Y6430
X20680Y3680
X15430Y7680
X49930Y6430
X51180Y6930
X50180Y5430
X50430Y4930
T03
X50180Y3930
X49180Y3930
X48180Y3930
X47180Y3930
X46180Y3930
X45180Y3930
X44180Y3930
X43180Y3930
X42180Y3930
X9680Y39180
X9680Y40180
X9680Y41180
X19180Y47430
X20180Y47430
X21180Y47430
X22180Y47430
X23180Y47430
X24180Y47430
X25180Y47430
X26180Y47430
X27680Y47430
X28680Y47430
X29680Y47430
X30680Y47430
X31680Y47430
X32680Y47430
X33680Y47430
X34680Y47430
X36180Y47430
X37180Y47430
X38180Y47430
X39180Y47430
X40180Y47430
X41180Y47430
X42180Y47430
X43180Y47430
X44680Y47430
X45680Y47430
X46680Y47430
X47680Y47430
X48680Y47430
X49680Y47430
X50680Y47430
X51680Y47430
X51680Y50430
X50680Y50430
X49680Y50430
X48680Y50430
X47680Y50430
X46680Y50430
X45680Y50430
X44680Y50430
X43180Y50430
X42180Y50430
X41180Y50430
X40180Y50430
X39180Y50430
X38180Y50430
X37180Y50430
X36180Y50430
X34680Y50430
X33680Y50430
X32680Y50430
X31680Y50430
X30680Y50430
X29680Y50430
X28680Y50430
X27680Y50430
X26180Y50430
X25180Y50430
X24180Y50430
X23180Y50430
X22180Y50430
X21180Y50430
X20180Y50430
X19180Y50430
T04
X56794Y22710
X58566Y22710
X58566Y20150
X56794Y20150
T05
X61930Y25430
X62930Y25430
X48180Y5680
X47180Y5680
X46180Y5680
X45180Y5680
X44180Y5680
X43180Y5680
X42180Y5680
X37680Y5680
X36680Y5680
X36680Y4680
X37680Y4680
X35680Y4680
X34680Y4680
X33680Y4680
X33680Y5680
X34680Y5680
X35680Y5680
X32680Y5680
X31680Y5680
X31680Y4680
X32680Y4680
X30680Y4680
X29680Y4680
X29680Y5680
X30680Y5680
X28680Y5680
X27680Y5680
X27680Y4680
X28680Y4680
X26680Y4680
X25680Y4680
X25680Y5680
X26680Y5680
X22180Y5180
X21180Y5180
X20180Y5180
X10180Y12180
X9180Y12180
X7680Y40680
X6680Y40680
X5680Y40680
X4680Y40680
X4680Y47180
X5680Y47180
X6680Y47180
X7680Y47180
X21680Y52180
X22680Y52180
X23680Y52180
X24680Y52180
X25680Y52180
X26680Y52180
X27680Y52180
X28680Y52180
X29680Y52180
X30680Y52180
X31680Y52180
X32680Y52180
X33680Y52180
X34680Y52180
X35680Y52180
X36680Y52180
X37680Y52180
X38680Y52180
X39680Y52180
X40680Y52180
X41680Y52180
X42680Y52180
X43680Y52180
X44680Y52180
X45680Y52180
X46680Y52180
X47680Y52180
X48680Y52180
X49680Y52180
X50680Y52180
X53180Y48930
X54180Y48930
X55180Y48930
X56180Y48930
T06
X31430Y41180
T07
X15680Y40680
X28180Y18180
X15680Y10680
X43180Y18180
X55680Y10680
M30
