G75*
G70*
%OFA0B0*%
%FSLAX24Y24*%
%IPPOS*%
%LPD*%
%AMOC8*
5,1,8,0,0,1.08239X$1,22.5*
%
%ADD10C,0.0000*%
%ADD11C,0.0050*%
%ADD12C,0.0040*%
%ADD13C,0.0060*%
%ADD14C,0.0020*%
%ADD15C,0.0080*%
%ADD16R,0.0591X0.0591*%
%ADD17R,0.0200X0.0200*%
D10*
X002185Y002186D02*
X002185Y082186D01*
X077185Y082186D01*
X077185Y002186D01*
X002185Y002186D01*
D11*
X005434Y013491D02*
X005509Y013491D01*
X005584Y013566D01*
X005584Y013941D01*
X005509Y013941D02*
X005659Y013941D01*
X005819Y013941D02*
X006045Y013941D01*
X006120Y013866D01*
X006120Y013716D01*
X006045Y013641D01*
X005819Y013641D01*
X005819Y013491D02*
X005819Y013941D01*
X006280Y013866D02*
X006355Y013941D01*
X006505Y013941D01*
X006580Y013866D01*
X006580Y013791D01*
X006505Y013716D01*
X006580Y013641D01*
X006580Y013566D01*
X006505Y013491D01*
X006355Y013491D01*
X006280Y013566D01*
X006430Y013716D02*
X006505Y013716D01*
X005434Y013491D02*
X005359Y013566D01*
X013685Y022186D02*
X013685Y042186D01*
X015685Y042186D01*
X015685Y022186D01*
X013685Y022186D01*
X027185Y015686D02*
X027185Y013686D01*
X052185Y013686D01*
X052185Y015686D01*
X027185Y015686D01*
X021856Y006911D02*
X021706Y006911D01*
X021631Y006836D01*
X021471Y006836D02*
X021471Y006686D01*
X021396Y006611D01*
X021171Y006611D01*
X021171Y006461D02*
X021171Y006911D01*
X021396Y006911D01*
X021471Y006836D01*
X021856Y006911D02*
X021931Y006836D01*
X021931Y006761D01*
X021631Y006461D01*
X021931Y006461D01*
X020935Y006536D02*
X020935Y006911D01*
X020860Y006911D02*
X021010Y006911D01*
X020935Y006536D02*
X020860Y006461D01*
X020785Y006461D01*
X020710Y006536D01*
X039359Y003566D02*
X039434Y003491D01*
X039509Y003491D01*
X039584Y003566D01*
X039584Y003941D01*
X039509Y003941D02*
X039659Y003941D01*
X039819Y003941D02*
X040045Y003941D01*
X040120Y003866D01*
X040120Y003716D01*
X040045Y003641D01*
X039819Y003641D01*
X039819Y003491D02*
X039819Y003941D01*
X040280Y003791D02*
X040430Y003941D01*
X040430Y003491D01*
X040280Y003491D02*
X040580Y003491D01*
X045619Y005761D02*
X045619Y006211D01*
X045844Y006211D01*
X045919Y006136D01*
X045919Y005986D01*
X045844Y005911D01*
X045619Y005911D01*
X045769Y005911D02*
X045919Y005761D01*
X046079Y005761D02*
X046379Y005761D01*
X046229Y005761D02*
X046229Y006211D01*
X046079Y006061D01*
X046539Y006136D02*
X046614Y006211D01*
X046765Y006211D01*
X046840Y006136D01*
X046840Y006061D01*
X046765Y005986D01*
X046840Y005911D01*
X046840Y005836D01*
X046765Y005761D01*
X046614Y005761D01*
X046539Y005836D01*
X046689Y005986D02*
X046765Y005986D01*
X047000Y005836D02*
X047000Y006136D01*
X047075Y006211D01*
X047225Y006211D01*
X047300Y006136D01*
X047000Y005836D01*
X047075Y005761D01*
X047225Y005761D01*
X047300Y005836D01*
X047300Y006136D01*
X048619Y006211D02*
X048619Y005761D01*
X048619Y005911D02*
X048844Y005911D01*
X048919Y005986D01*
X048919Y006136D01*
X048844Y006211D01*
X048619Y006211D01*
X048769Y005911D02*
X048919Y005761D01*
X049079Y005761D02*
X049379Y005761D01*
X049229Y005761D02*
X049229Y006211D01*
X049079Y006061D01*
X049539Y006136D02*
X049614Y006211D01*
X049765Y006211D01*
X049840Y006136D01*
X049840Y006061D01*
X049765Y005986D01*
X049840Y005911D01*
X049840Y005836D01*
X049765Y005761D01*
X049614Y005761D01*
X049539Y005836D01*
X049689Y005986D02*
X049765Y005986D01*
X050000Y006061D02*
X050150Y006211D01*
X050150Y005761D01*
X050000Y005761D02*
X050300Y005761D01*
X051619Y005761D02*
X051619Y006211D01*
X051844Y006211D01*
X051919Y006136D01*
X051919Y005986D01*
X051844Y005911D01*
X051619Y005911D01*
X051769Y005911D02*
X051919Y005761D01*
X052079Y005761D02*
X052379Y005761D01*
X052229Y005761D02*
X052229Y006211D01*
X052079Y006061D01*
X052539Y006136D02*
X052614Y006211D01*
X052765Y006211D01*
X052840Y006136D01*
X052840Y006061D01*
X052765Y005986D01*
X052840Y005911D01*
X052840Y005836D01*
X052765Y005761D01*
X052614Y005761D01*
X052539Y005836D01*
X052689Y005986D02*
X052765Y005986D01*
X053000Y006136D02*
X053075Y006211D01*
X053225Y006211D01*
X053300Y006136D01*
X053300Y006061D01*
X053000Y005761D01*
X053300Y005761D01*
X055610Y005414D02*
X055610Y008958D01*
X058760Y008958D01*
X058760Y005414D01*
X055610Y005414D01*
X063180Y005506D02*
X063255Y005431D01*
X063330Y005431D01*
X063405Y005506D01*
X063405Y005881D01*
X063330Y005881D02*
X063480Y005881D01*
X063641Y005881D02*
X063866Y005881D01*
X063941Y005806D01*
X063941Y005656D01*
X063866Y005581D01*
X063641Y005581D01*
X063641Y005431D02*
X063641Y005881D01*
X064101Y005806D02*
X064101Y005731D01*
X064176Y005656D01*
X064326Y005656D01*
X064401Y005581D01*
X064401Y005506D01*
X064326Y005431D01*
X064176Y005431D01*
X064101Y005506D01*
X064101Y005581D01*
X064176Y005656D01*
X064326Y005656D02*
X064401Y005731D01*
X064401Y005806D01*
X064326Y005881D01*
X064176Y005881D01*
X064101Y005806D01*
X066365Y028681D02*
X066440Y028756D01*
X066440Y028831D01*
X066365Y028906D01*
X065990Y028906D01*
X065990Y028831D02*
X065990Y028981D01*
X065990Y029141D02*
X065990Y029367D01*
X066065Y029442D01*
X066215Y029442D01*
X066290Y029367D01*
X066290Y029141D01*
X066440Y029141D02*
X065990Y029141D01*
X065990Y029602D02*
X065990Y029902D01*
X066065Y029902D01*
X066365Y029602D01*
X066440Y029602D01*
X060685Y034686D02*
X058685Y034686D01*
X058685Y049686D01*
X060685Y049686D01*
X060685Y034686D01*
X047185Y048686D02*
X027185Y048686D01*
X027185Y050686D01*
X047185Y050686D01*
X047185Y048686D01*
X038991Y046211D02*
X038691Y046211D01*
X038841Y046211D02*
X038841Y046661D01*
X038691Y046511D01*
X038531Y046436D02*
X038456Y046361D01*
X038231Y046361D01*
X038231Y046211D02*
X038231Y046661D01*
X038456Y046661D01*
X038531Y046586D01*
X038531Y046436D01*
X038071Y046361D02*
X038071Y046286D01*
X037996Y046211D01*
X037846Y046211D01*
X037771Y046286D01*
X037846Y046436D02*
X037996Y046436D01*
X038071Y046361D01*
X038071Y046586D02*
X037996Y046661D01*
X037846Y046661D01*
X037771Y046586D01*
X037771Y046511D01*
X037846Y046436D01*
X037610Y046211D02*
X037310Y046211D01*
X037310Y046661D01*
X037333Y041311D02*
X037183Y041311D01*
X037258Y041311D02*
X037258Y040861D01*
X037183Y040861D02*
X037333Y040861D01*
X037489Y040936D02*
X037564Y040861D01*
X037715Y040861D01*
X037790Y040936D01*
X037950Y040936D02*
X038025Y040861D01*
X038175Y040861D01*
X038250Y040936D01*
X038250Y041011D01*
X038175Y041086D01*
X037950Y041086D01*
X037950Y040936D01*
X037950Y041086D02*
X038100Y041236D01*
X038250Y041311D01*
X037790Y041236D02*
X037715Y041311D01*
X037564Y041311D01*
X037489Y041236D01*
X037489Y040936D01*
X044233Y035961D02*
X044383Y035961D01*
X044308Y035961D02*
X044308Y035511D01*
X044233Y035511D02*
X044383Y035511D01*
X044539Y035586D02*
X044614Y035511D01*
X044765Y035511D01*
X044840Y035586D01*
X045000Y035586D02*
X045075Y035511D01*
X045225Y035511D01*
X045300Y035586D01*
X045300Y035736D01*
X045225Y035811D01*
X045150Y035811D01*
X045000Y035736D01*
X045000Y035961D01*
X045300Y035961D01*
X044840Y035886D02*
X044765Y035961D01*
X044614Y035961D01*
X044539Y035886D01*
X044539Y035586D01*
X029800Y036386D02*
X029500Y036086D01*
X029500Y036011D01*
X029340Y036086D02*
X029265Y036011D01*
X029114Y036011D01*
X029039Y036086D01*
X029039Y036386D01*
X029114Y036461D01*
X029265Y036461D01*
X029340Y036386D01*
X029500Y036461D02*
X029800Y036461D01*
X029800Y036386D01*
X028883Y036461D02*
X028733Y036461D01*
X028808Y036461D02*
X028808Y036011D01*
X028733Y036011D02*
X028883Y036011D01*
X009080Y050066D02*
X009005Y049991D01*
X008855Y049991D01*
X008780Y050066D01*
X008780Y050216D02*
X008930Y050291D01*
X009005Y050291D01*
X009080Y050216D01*
X009080Y050066D01*
X008780Y050216D02*
X008780Y050441D01*
X009080Y050441D01*
X008620Y050366D02*
X008620Y050216D01*
X008545Y050141D01*
X008319Y050141D01*
X008319Y049991D02*
X008319Y050441D01*
X008545Y050441D01*
X008620Y050366D01*
X008159Y050441D02*
X008009Y050441D01*
X008084Y050441D02*
X008084Y050066D01*
X008009Y049991D01*
X007934Y049991D01*
X007859Y050066D01*
X007210Y056961D02*
X006760Y056961D01*
X006760Y057186D01*
X006835Y057261D01*
X006985Y057261D01*
X007060Y057186D01*
X007060Y056961D01*
X007060Y057111D02*
X007210Y057261D01*
X007210Y057421D02*
X007210Y057722D01*
X007210Y057572D02*
X006760Y057572D01*
X006910Y057421D01*
X006835Y057882D02*
X006760Y057957D01*
X006760Y058107D01*
X006835Y058182D01*
X007135Y057882D01*
X007210Y057957D01*
X007210Y058107D01*
X007135Y058182D01*
X006835Y058182D01*
X006760Y058342D02*
X006985Y058342D01*
X006910Y058492D01*
X006910Y058567D01*
X006985Y058642D01*
X007135Y058642D01*
X007210Y058567D01*
X007210Y058417D01*
X007135Y058342D01*
X006760Y058342D02*
X006760Y058642D01*
X006835Y057882D02*
X007135Y057882D01*
X003865Y075181D02*
X003940Y075256D01*
X003940Y075331D01*
X003865Y075406D01*
X003490Y075406D01*
X003490Y075331D02*
X003490Y075481D01*
X003490Y075641D02*
X003490Y075867D01*
X003565Y075942D01*
X003715Y075942D01*
X003790Y075867D01*
X003790Y075641D01*
X003940Y075641D02*
X003490Y075641D01*
X003715Y076102D02*
X003715Y076402D01*
X003490Y076327D02*
X003715Y076102D01*
X003940Y076327D02*
X003490Y076327D01*
X023310Y077933D02*
X023310Y078084D01*
X023310Y078009D02*
X023760Y078009D01*
X023760Y078084D02*
X023760Y077933D01*
X023685Y078240D02*
X023760Y078315D01*
X023760Y078466D01*
X023685Y078541D01*
X023760Y078701D02*
X023760Y079001D01*
X023760Y078851D02*
X023310Y078851D01*
X023460Y078701D01*
X023385Y078541D02*
X023310Y078466D01*
X023310Y078315D01*
X023385Y078240D01*
X023685Y078240D01*
X039310Y078315D02*
X039385Y078240D01*
X039685Y078240D01*
X039760Y078315D01*
X039760Y078466D01*
X039685Y078541D01*
X039760Y078701D02*
X039460Y079001D01*
X039385Y079001D01*
X039310Y078926D01*
X039310Y078776D01*
X039385Y078701D01*
X039385Y078541D02*
X039310Y078466D01*
X039310Y078315D01*
X039310Y078084D02*
X039310Y077933D01*
X039310Y078009D02*
X039760Y078009D01*
X039760Y078084D02*
X039760Y077933D01*
X039760Y078701D02*
X039760Y079001D01*
X055310Y078926D02*
X055385Y079001D01*
X055460Y079001D01*
X055535Y078926D01*
X055610Y079001D01*
X055685Y079001D01*
X055760Y078926D01*
X055760Y078776D01*
X055685Y078701D01*
X055685Y078541D02*
X055760Y078466D01*
X055760Y078315D01*
X055685Y078240D01*
X055385Y078240D01*
X055310Y078315D01*
X055310Y078466D01*
X055385Y078541D01*
X055385Y078701D02*
X055310Y078776D01*
X055310Y078926D01*
X055535Y078926D02*
X055535Y078851D01*
X055310Y078084D02*
X055310Y077933D01*
X055310Y078009D02*
X055760Y078009D01*
X055760Y078084D02*
X055760Y077933D01*
X060330Y059881D02*
X060480Y059881D01*
X060405Y059881D02*
X060405Y059506D01*
X060330Y059431D01*
X060255Y059431D01*
X060180Y059506D01*
X060641Y059431D02*
X060641Y059881D01*
X060866Y059881D01*
X060941Y059806D01*
X060941Y059656D01*
X060866Y059581D01*
X060641Y059581D01*
X061101Y059506D02*
X061176Y059431D01*
X061326Y059431D01*
X061401Y059506D01*
X061401Y059581D01*
X061326Y059656D01*
X061101Y059656D01*
X061101Y059506D01*
X061101Y059656D02*
X061251Y059806D01*
X061401Y059881D01*
X073810Y058926D02*
X074035Y058701D01*
X074035Y059001D01*
X074260Y058926D02*
X073810Y058926D01*
X073885Y058541D02*
X073810Y058466D01*
X073810Y058315D01*
X073885Y058240D01*
X074185Y058240D01*
X074260Y058315D01*
X074260Y058466D01*
X074185Y058541D01*
X074260Y058084D02*
X074260Y057933D01*
X074260Y058009D02*
X073810Y058009D01*
X073810Y058084D02*
X073810Y057933D01*
D12*
X070606Y063956D02*
X070453Y063956D01*
X070376Y064033D01*
X070376Y064186D02*
X070529Y064263D01*
X070606Y064263D01*
X070683Y064186D01*
X070683Y064033D01*
X070606Y063956D01*
X070376Y064186D02*
X070376Y064416D01*
X070683Y064416D01*
X070222Y064416D02*
X070222Y064340D01*
X069916Y064033D01*
X069916Y063956D01*
X069762Y064033D02*
X069685Y063956D01*
X069532Y063956D01*
X069455Y064033D01*
X069455Y064340D01*
X069532Y064416D01*
X069685Y064416D01*
X069762Y064340D01*
X069916Y064416D02*
X070222Y064416D01*
X070185Y064956D02*
X070262Y065033D01*
X070185Y064956D02*
X070032Y064956D01*
X069955Y065033D01*
X069955Y065340D01*
X070032Y065416D01*
X070185Y065416D01*
X070262Y065340D01*
X070225Y065456D02*
X070302Y065533D01*
X070302Y065840D01*
X070225Y065916D01*
X070071Y065916D01*
X069995Y065840D01*
X069995Y065763D01*
X070071Y065686D01*
X070302Y065686D01*
X070225Y065456D02*
X070071Y065456D01*
X069995Y065533D01*
X069841Y065456D02*
X069534Y065456D01*
X069841Y065763D01*
X069841Y065840D01*
X069765Y065916D01*
X069611Y065916D01*
X069534Y065840D01*
X069381Y065840D02*
X069304Y065916D01*
X069151Y065916D01*
X069074Y065840D01*
X069074Y065763D01*
X069151Y065686D01*
X069304Y065686D01*
X069381Y065610D01*
X069381Y065533D01*
X069304Y065456D01*
X069151Y065456D01*
X069074Y065533D01*
X068921Y065533D02*
X068921Y065916D01*
X068614Y065916D02*
X068614Y065533D01*
X068690Y065456D01*
X068844Y065456D01*
X068921Y065533D01*
X069227Y065379D02*
X069227Y065993D01*
X070416Y065416D02*
X070722Y065416D01*
X070722Y065340D01*
X070416Y065033D01*
X070416Y064956D01*
X070876Y065033D02*
X070953Y064956D01*
X071106Y064956D01*
X071183Y065033D01*
X071183Y065110D01*
X071106Y065186D01*
X070876Y065186D01*
X070876Y065033D01*
X070876Y065186D02*
X071029Y065340D01*
X071183Y065416D01*
X070376Y068956D02*
X070376Y069033D01*
X070683Y069340D01*
X070683Y069416D01*
X070376Y069416D01*
X070222Y069416D02*
X070069Y069340D01*
X069916Y069186D01*
X070146Y069186D01*
X070222Y069110D01*
X070222Y069033D01*
X070146Y068956D01*
X069992Y068956D01*
X069916Y069033D01*
X069916Y069186D01*
X069762Y069033D02*
X069685Y068956D01*
X069532Y068956D01*
X069455Y069033D01*
X069455Y069340D01*
X069532Y069416D01*
X069685Y069416D01*
X069762Y069340D01*
X069646Y070956D02*
X069722Y071033D01*
X069722Y071110D01*
X069646Y071186D01*
X069416Y071186D01*
X069416Y071033D01*
X069492Y070956D01*
X069646Y070956D01*
X069876Y071033D02*
X069876Y071110D01*
X069953Y071186D01*
X070106Y071186D01*
X070183Y071110D01*
X070183Y071033D01*
X070106Y070956D01*
X069953Y070956D01*
X069876Y071033D01*
X069953Y071186D02*
X069876Y071263D01*
X069876Y071340D01*
X069953Y071416D01*
X070106Y071416D01*
X070183Y071340D01*
X070183Y071263D01*
X070106Y071186D01*
X069722Y071416D02*
X069569Y071340D01*
X069416Y071186D01*
X069262Y071033D02*
X069185Y070956D01*
X069032Y070956D01*
X068955Y071033D01*
X068955Y071340D01*
X069032Y071416D01*
X069185Y071416D01*
X069262Y071340D01*
X067915Y073035D02*
X067455Y073035D01*
X067915Y073035D02*
X067915Y073342D01*
X067915Y073496D02*
X067608Y073803D01*
X067532Y073803D01*
X067455Y073726D01*
X067455Y073572D01*
X067532Y073496D01*
X067915Y073496D02*
X067915Y073803D01*
X066606Y071416D02*
X066683Y071340D01*
X066376Y071033D01*
X066453Y070956D01*
X066606Y070956D01*
X066683Y071033D01*
X066683Y071340D01*
X066606Y071416D02*
X066453Y071416D01*
X066376Y071340D01*
X066376Y071033D01*
X066222Y071340D02*
X065916Y071033D01*
X065916Y070956D01*
X065762Y071033D02*
X065685Y070956D01*
X065532Y070956D01*
X065455Y071033D01*
X065455Y071340D01*
X065532Y071416D01*
X065685Y071416D01*
X065762Y071340D01*
X065916Y071416D02*
X066222Y071416D01*
X066222Y071340D01*
X066185Y069416D02*
X066032Y069416D01*
X065955Y069340D01*
X065955Y069033D01*
X066032Y068956D01*
X066185Y068956D01*
X066262Y069033D01*
X066416Y069033D02*
X066416Y069186D01*
X066646Y069186D01*
X066722Y069110D01*
X066722Y069033D01*
X066646Y068956D01*
X066492Y068956D01*
X066416Y069033D01*
X066416Y069186D02*
X066569Y069340D01*
X066722Y069416D01*
X066876Y069340D02*
X066876Y069263D01*
X066953Y069186D01*
X067183Y069186D01*
X067183Y069033D02*
X067183Y069340D01*
X067106Y069416D01*
X066953Y069416D01*
X066876Y069340D01*
X066876Y069033D02*
X066953Y068956D01*
X067106Y068956D01*
X067183Y069033D01*
X066262Y069340D02*
X066185Y069416D01*
X066225Y065916D02*
X066302Y065840D01*
X065995Y065533D01*
X066071Y065456D01*
X066225Y065456D01*
X066302Y065533D01*
X066302Y065840D01*
X066225Y065916D02*
X066071Y065916D01*
X065995Y065840D01*
X065995Y065533D01*
X065841Y065533D02*
X065765Y065456D01*
X065611Y065456D01*
X065534Y065533D01*
X065381Y065533D02*
X065381Y065610D01*
X065304Y065686D01*
X065151Y065686D01*
X065074Y065763D01*
X065074Y065840D01*
X065151Y065916D01*
X065304Y065916D01*
X065381Y065840D01*
X065534Y065840D02*
X065611Y065916D01*
X065765Y065916D01*
X065841Y065840D01*
X065841Y065763D01*
X065765Y065686D01*
X065841Y065610D01*
X065841Y065533D01*
X065765Y065686D02*
X065688Y065686D01*
X065381Y065533D02*
X065304Y065456D01*
X065151Y065456D01*
X065074Y065533D01*
X064921Y065533D02*
X064921Y065916D01*
X064614Y065916D02*
X064614Y065533D01*
X064690Y065456D01*
X064844Y065456D01*
X064921Y065533D01*
X065227Y065379D02*
X065227Y065993D01*
X065341Y064416D02*
X065341Y064340D01*
X065034Y064033D01*
X065034Y063956D01*
X064881Y064033D02*
X064804Y063956D01*
X064651Y063956D01*
X064574Y064033D01*
X064574Y064340D01*
X064651Y064416D01*
X064804Y064416D01*
X064881Y064340D01*
X065034Y064416D02*
X065341Y064416D01*
X065495Y064340D02*
X065495Y064263D01*
X065571Y064186D01*
X065725Y064186D01*
X065802Y064110D01*
X065802Y064033D01*
X065725Y063956D01*
X065571Y063956D01*
X065495Y064033D01*
X065495Y064110D01*
X065571Y064186D01*
X065725Y064186D02*
X065802Y064263D01*
X065802Y064340D01*
X065725Y064416D01*
X065571Y064416D01*
X065495Y064340D01*
X065495Y062416D02*
X065802Y062416D01*
X065802Y062340D01*
X065495Y062033D01*
X065495Y061956D01*
X065341Y062340D02*
X065034Y062033D01*
X065034Y061956D01*
X064881Y062033D02*
X064804Y061956D01*
X064651Y061956D01*
X064574Y062033D01*
X064574Y062340D01*
X064651Y062416D01*
X064804Y062416D01*
X064881Y062340D01*
X065034Y062416D02*
X065341Y062416D01*
X065341Y062340D01*
X061415Y065456D02*
X060955Y065456D01*
X060955Y065686D01*
X061032Y065763D01*
X061185Y065763D01*
X061262Y065686D01*
X061262Y065456D01*
X061262Y065610D02*
X061415Y065763D01*
X061415Y065916D02*
X061339Y065916D01*
X061032Y066223D01*
X060955Y066223D01*
X060955Y065916D01*
X061032Y066377D02*
X060955Y066454D01*
X060955Y066607D01*
X061032Y066684D01*
X061339Y066377D01*
X061415Y066454D01*
X061415Y066607D01*
X061339Y066684D01*
X061032Y066684D01*
X060955Y066956D02*
X060955Y067186D01*
X061032Y067263D01*
X061185Y067263D01*
X061262Y067186D01*
X061262Y066956D01*
X061415Y066956D02*
X060955Y066956D01*
X061262Y067110D02*
X061415Y067263D01*
X061415Y067416D02*
X061339Y067416D01*
X061032Y067723D01*
X060955Y067723D01*
X060955Y067416D01*
X061108Y067877D02*
X060955Y068030D01*
X061415Y068030D01*
X061415Y067877D02*
X061415Y068184D01*
X061185Y068956D02*
X061262Y069033D01*
X061185Y068956D02*
X061032Y068956D01*
X060955Y069033D01*
X060955Y069340D01*
X061032Y069416D01*
X061185Y069416D01*
X061262Y069340D01*
X061416Y069186D02*
X061722Y069186D01*
X061876Y069033D02*
X062183Y069340D01*
X062183Y069416D01*
X061876Y069416D01*
X061646Y069416D02*
X061416Y069186D01*
X061646Y068956D02*
X061646Y069416D01*
X061876Y069033D02*
X061876Y068956D01*
X061953Y069956D02*
X061876Y070033D01*
X061876Y070110D01*
X061953Y070186D01*
X062106Y070186D01*
X062183Y070110D01*
X062183Y070033D01*
X062106Y069956D01*
X061953Y069956D01*
X061953Y070186D02*
X061876Y070263D01*
X061876Y070340D01*
X061953Y070416D01*
X062106Y070416D01*
X062183Y070340D01*
X062183Y070263D01*
X062106Y070186D01*
X061722Y070186D02*
X061416Y070186D01*
X061646Y070416D01*
X061646Y069956D01*
X061262Y070033D02*
X061185Y069956D01*
X061032Y069956D01*
X060955Y070033D01*
X060955Y070340D01*
X061032Y070416D01*
X061185Y070416D01*
X061262Y070340D01*
X061222Y070956D02*
X060916Y070956D01*
X061222Y071263D01*
X061222Y071340D01*
X061146Y071416D01*
X060992Y071416D01*
X060916Y071340D01*
X060762Y071340D02*
X060685Y071416D01*
X060532Y071416D01*
X060455Y071340D01*
X060455Y071033D01*
X060532Y070956D01*
X060685Y070956D01*
X060762Y071033D01*
X061376Y071186D02*
X061683Y071186D01*
X061606Y070956D02*
X061606Y071416D01*
X061376Y071186D01*
X061376Y071956D02*
X061683Y072263D01*
X061683Y072340D01*
X061606Y072416D01*
X061453Y072416D01*
X061376Y072340D01*
X061222Y072340D02*
X060916Y072033D01*
X060916Y071956D01*
X060762Y071956D02*
X060609Y072110D01*
X060685Y072110D02*
X060455Y072110D01*
X060455Y071956D02*
X060455Y072416D01*
X060685Y072416D01*
X060762Y072340D01*
X060762Y072186D01*
X060685Y072110D01*
X060916Y072416D02*
X061222Y072416D01*
X061222Y072340D01*
X061376Y071956D02*
X061683Y071956D01*
X061541Y075454D02*
X061465Y075531D01*
X061465Y075684D01*
X061541Y075761D01*
X061541Y075915D02*
X061618Y075915D01*
X061695Y075991D01*
X061695Y076145D01*
X061772Y076221D01*
X061848Y076221D01*
X061925Y076145D01*
X061925Y075991D01*
X061848Y075915D01*
X061772Y075915D01*
X061695Y075991D01*
X061695Y076145D02*
X061618Y076221D01*
X061541Y076221D01*
X061465Y076145D01*
X061465Y075991D01*
X061541Y075915D01*
X061848Y075761D02*
X061925Y075684D01*
X061925Y075531D01*
X061848Y075454D01*
X061541Y075454D01*
X061541Y076375D02*
X061465Y076452D01*
X061465Y076605D01*
X061541Y076682D01*
X061618Y076682D01*
X061695Y076605D01*
X061695Y076452D01*
X061618Y076375D01*
X061541Y076375D01*
X061695Y076452D02*
X061772Y076375D01*
X061848Y076375D01*
X061925Y076452D01*
X061925Y076605D01*
X061848Y076682D01*
X061772Y076682D01*
X061695Y076605D01*
X058925Y076605D02*
X058848Y076682D01*
X058541Y076682D01*
X058465Y076605D01*
X058465Y076452D01*
X058541Y076375D01*
X058618Y076375D01*
X058695Y076452D01*
X058695Y076682D01*
X058925Y076605D02*
X058925Y076452D01*
X058848Y076375D01*
X058848Y076221D02*
X058925Y076145D01*
X058925Y075991D01*
X058848Y075915D01*
X058772Y075915D01*
X058695Y075991D01*
X058695Y076145D01*
X058772Y076221D01*
X058848Y076221D01*
X058695Y076145D02*
X058618Y076221D01*
X058541Y076221D01*
X058465Y076145D01*
X058465Y075991D01*
X058541Y075915D01*
X058618Y075915D01*
X058695Y075991D01*
X058848Y075761D02*
X058925Y075684D01*
X058925Y075531D01*
X058848Y075454D01*
X058541Y075454D01*
X058465Y075531D01*
X058465Y075684D01*
X058541Y075761D01*
X057725Y071416D02*
X057571Y071416D01*
X057495Y071340D01*
X057495Y071263D01*
X057571Y071186D01*
X057802Y071186D01*
X057802Y071033D02*
X057802Y071340D01*
X057725Y071416D01*
X057341Y071416D02*
X057188Y071340D01*
X057034Y071186D01*
X057265Y071186D01*
X057341Y071110D01*
X057341Y071033D01*
X057265Y070956D01*
X057111Y070956D01*
X057034Y071033D01*
X057034Y071186D01*
X056881Y071186D02*
X056804Y071110D01*
X056574Y071110D01*
X056727Y071110D02*
X056881Y070956D01*
X056881Y071186D02*
X056881Y071340D01*
X056804Y071416D01*
X056574Y071416D01*
X056574Y070956D01*
X056651Y070416D02*
X056574Y070340D01*
X056574Y070033D01*
X056651Y069956D01*
X056804Y069956D01*
X056881Y070033D01*
X057034Y069956D02*
X057341Y070263D01*
X057341Y070340D01*
X057265Y070416D01*
X057111Y070416D01*
X057034Y070340D01*
X056881Y070340D02*
X056804Y070416D01*
X056651Y070416D01*
X057034Y069956D02*
X057341Y069956D01*
X057495Y070033D02*
X057571Y069956D01*
X057725Y069956D01*
X057802Y070033D01*
X057802Y070110D01*
X057725Y070186D01*
X057648Y070186D01*
X057725Y070186D02*
X057802Y070263D01*
X057802Y070340D01*
X057725Y070416D01*
X057571Y070416D01*
X057495Y070340D01*
X057571Y070956D02*
X057495Y071033D01*
X057571Y070956D02*
X057725Y070956D01*
X057802Y071033D01*
X058455Y068716D02*
X058455Y068333D01*
X058532Y068256D01*
X058685Y068256D01*
X058762Y068333D01*
X058762Y068716D01*
X058916Y068640D02*
X058992Y068716D01*
X059146Y068716D01*
X059222Y068640D01*
X059146Y068486D02*
X058992Y068486D01*
X058916Y068563D01*
X058916Y068640D01*
X059069Y068793D02*
X059069Y068179D01*
X058992Y068256D02*
X059146Y068256D01*
X059222Y068333D01*
X059222Y068410D01*
X059146Y068486D01*
X059376Y068563D02*
X059529Y068716D01*
X059529Y068256D01*
X059376Y068256D02*
X059683Y068256D01*
X059836Y068256D02*
X060143Y068563D01*
X060143Y068640D01*
X060066Y068716D01*
X059913Y068716D01*
X059836Y068640D01*
X059836Y068256D02*
X060143Y068256D01*
X058992Y068256D02*
X058916Y068333D01*
X056415Y068454D02*
X056339Y068377D01*
X056262Y068377D01*
X056185Y068454D01*
X056185Y068607D01*
X056262Y068684D01*
X056339Y068684D01*
X056415Y068607D01*
X056415Y068454D01*
X056185Y068454D02*
X056108Y068377D01*
X056032Y068377D01*
X055955Y068454D01*
X055955Y068607D01*
X056032Y068684D01*
X056108Y068684D01*
X056185Y068607D01*
X056262Y068223D02*
X056185Y068147D01*
X056185Y067916D01*
X056339Y067916D01*
X056415Y067993D01*
X056415Y068147D01*
X056339Y068223D01*
X056262Y068223D01*
X056032Y068070D02*
X056185Y067916D01*
X056185Y067763D02*
X056262Y067686D01*
X056262Y067456D01*
X056415Y067456D02*
X055955Y067456D01*
X055955Y067686D01*
X056032Y067763D01*
X056185Y067763D01*
X056262Y067610D02*
X056415Y067763D01*
X056032Y068070D02*
X055955Y068223D01*
X055955Y067184D02*
X056032Y067184D01*
X056339Y066877D01*
X056415Y066877D01*
X056339Y066723D02*
X056262Y066723D01*
X056185Y066647D01*
X056185Y066416D01*
X056339Y066416D01*
X056415Y066493D01*
X056415Y066647D01*
X056339Y066723D01*
X056032Y066570D02*
X056185Y066416D01*
X056185Y066263D02*
X056262Y066186D01*
X056262Y065956D01*
X056415Y065956D02*
X055955Y065956D01*
X055955Y066186D01*
X056032Y066263D01*
X056185Y066263D01*
X056262Y066110D02*
X056415Y066263D01*
X056032Y066570D02*
X055955Y066723D01*
X055955Y066877D02*
X055955Y067184D01*
X057114Y064916D02*
X057344Y064916D01*
X057421Y064840D01*
X057421Y064686D01*
X057344Y064610D01*
X057114Y064610D01*
X057267Y064610D02*
X057421Y064456D01*
X057574Y064456D02*
X057881Y064456D01*
X057727Y064456D02*
X057727Y064916D01*
X057574Y064763D01*
X057683Y064416D02*
X057529Y064340D01*
X057376Y064186D01*
X057606Y064186D01*
X057683Y064110D01*
X057683Y064033D01*
X057606Y063956D01*
X057453Y063956D01*
X057376Y064033D01*
X057376Y064186D01*
X057222Y064110D02*
X057146Y064186D01*
X056916Y064186D01*
X056916Y064033D01*
X056992Y063956D01*
X057146Y063956D01*
X057222Y064033D01*
X057222Y064110D01*
X057069Y064340D02*
X056916Y064186D01*
X056762Y064186D02*
X056685Y064110D01*
X056455Y064110D01*
X056609Y064110D02*
X056762Y063956D01*
X056762Y064186D02*
X056762Y064340D01*
X056685Y064416D01*
X056455Y064416D01*
X056455Y063956D01*
X056532Y063416D02*
X056455Y063340D01*
X056455Y063033D01*
X056532Y062956D01*
X056685Y062956D01*
X056762Y063033D01*
X056916Y062956D02*
X057222Y063263D01*
X057222Y063340D01*
X057146Y063416D01*
X056992Y063416D01*
X056916Y063340D01*
X056762Y063340D02*
X056685Y063416D01*
X056532Y063416D01*
X056916Y062956D02*
X057222Y062956D01*
X057376Y062956D02*
X057683Y063263D01*
X057683Y063340D01*
X057606Y063416D01*
X057453Y063416D01*
X057376Y063340D01*
X057376Y062956D02*
X057683Y062956D01*
X057646Y062416D02*
X057416Y062186D01*
X057722Y062186D01*
X057876Y062186D02*
X058106Y062186D01*
X058183Y062110D01*
X058183Y062033D01*
X058106Y061956D01*
X057953Y061956D01*
X057876Y062033D01*
X057876Y062186D01*
X058029Y062340D01*
X058183Y062416D01*
X057646Y062416D02*
X057646Y061956D01*
X057262Y062033D02*
X057185Y061956D01*
X057032Y061956D01*
X056955Y062033D01*
X056955Y062340D01*
X057032Y062416D01*
X057185Y062416D01*
X057262Y062340D01*
X057185Y061416D02*
X057032Y061416D01*
X056955Y061340D01*
X056955Y061033D01*
X057032Y060956D01*
X057185Y060956D01*
X057262Y061033D01*
X057416Y061186D02*
X057722Y061186D01*
X057876Y061186D02*
X058029Y061263D01*
X058106Y061263D01*
X058183Y061186D01*
X058183Y061033D01*
X058106Y060956D01*
X057953Y060956D01*
X057876Y061033D01*
X057876Y061186D02*
X057876Y061416D01*
X058183Y061416D01*
X057646Y061416D02*
X057416Y061186D01*
X057262Y061340D02*
X057185Y061416D01*
X057646Y061416D02*
X057646Y060956D01*
X057339Y060184D02*
X057415Y060107D01*
X057415Y059954D01*
X057339Y059877D01*
X057339Y059723D02*
X057262Y059723D01*
X057185Y059647D01*
X057185Y059416D01*
X057339Y059416D01*
X057415Y059493D01*
X057415Y059647D01*
X057339Y059723D01*
X057185Y059877D02*
X057108Y060030D01*
X057108Y060107D01*
X057185Y060184D01*
X057339Y060184D01*
X057185Y059877D02*
X056955Y059877D01*
X056955Y060184D01*
X056955Y059723D02*
X057032Y059570D01*
X057185Y059416D01*
X057185Y059263D02*
X057262Y059186D01*
X057262Y058956D01*
X057415Y058956D02*
X056955Y058956D01*
X056955Y059186D01*
X057032Y059263D01*
X057185Y059263D01*
X057262Y059110D02*
X057415Y059263D01*
X057185Y058684D02*
X057185Y058377D01*
X056955Y058607D01*
X057415Y058607D01*
X057339Y058223D02*
X057262Y058223D01*
X057185Y058147D01*
X057185Y057916D01*
X057339Y057916D01*
X057415Y057993D01*
X057415Y058147D01*
X057339Y058223D01*
X057032Y058070D02*
X057185Y057916D01*
X057185Y057763D02*
X057262Y057686D01*
X057262Y057456D01*
X057415Y057456D02*
X056955Y057456D01*
X056955Y057686D01*
X057032Y057763D01*
X057185Y057763D01*
X057262Y057610D02*
X057415Y057763D01*
X057032Y058070D02*
X056955Y058223D01*
X056225Y056916D02*
X055995Y056686D01*
X056302Y056686D01*
X056225Y056456D02*
X056225Y056916D01*
X055841Y056840D02*
X055841Y056763D01*
X055765Y056686D01*
X055841Y056610D01*
X055841Y056533D01*
X055765Y056456D01*
X055611Y056456D01*
X055534Y056533D01*
X055381Y056456D02*
X055074Y056456D01*
X055227Y056456D02*
X055227Y056916D01*
X055074Y056763D01*
X054921Y056686D02*
X054844Y056610D01*
X054614Y056610D01*
X054648Y056686D02*
X054725Y056686D01*
X054802Y056610D01*
X054802Y056533D01*
X054725Y056456D01*
X054571Y056456D01*
X054495Y056533D01*
X054614Y056456D02*
X054614Y056916D01*
X054844Y056916D01*
X054921Y056840D01*
X054921Y056686D01*
X054802Y056763D02*
X054725Y056686D01*
X054767Y056610D02*
X054921Y056456D01*
X054802Y056763D02*
X054802Y056840D01*
X054725Y056916D01*
X054571Y056916D01*
X054495Y056840D01*
X054341Y056840D02*
X054341Y056763D01*
X054265Y056686D01*
X054341Y056610D01*
X054341Y056533D01*
X054265Y056456D01*
X054111Y056456D01*
X054034Y056533D01*
X053881Y056456D02*
X053574Y056456D01*
X053727Y056456D02*
X053727Y056916D01*
X053574Y056763D01*
X053421Y056686D02*
X053344Y056610D01*
X053114Y056610D01*
X053267Y056610D02*
X053421Y056456D01*
X053421Y056686D02*
X053421Y056840D01*
X053344Y056916D01*
X053114Y056916D01*
X053114Y056456D01*
X054034Y056840D02*
X054111Y056916D01*
X054265Y056916D01*
X054341Y056840D01*
X054265Y056686D02*
X054188Y056686D01*
X055534Y056840D02*
X055611Y056916D01*
X055765Y056916D01*
X055841Y056840D01*
X055765Y056686D02*
X055688Y056686D01*
X052415Y057956D02*
X051955Y057956D01*
X051955Y058186D01*
X052032Y058263D01*
X052185Y058263D01*
X052262Y058186D01*
X052262Y057956D01*
X052262Y058110D02*
X052415Y058263D01*
X052339Y058416D02*
X052415Y058493D01*
X052415Y058647D01*
X052339Y058723D01*
X052262Y058723D01*
X052185Y058647D01*
X052185Y058416D01*
X052339Y058416D01*
X052185Y058416D02*
X052032Y058570D01*
X051955Y058723D01*
X052108Y058877D02*
X051955Y059030D01*
X052415Y059030D01*
X052415Y058877D02*
X052415Y059184D01*
X052415Y059456D02*
X051955Y059456D01*
X051955Y059686D01*
X052032Y059763D01*
X052185Y059763D01*
X052262Y059686D01*
X052262Y059456D01*
X052262Y059610D02*
X052415Y059763D01*
X052339Y059916D02*
X052415Y059993D01*
X052415Y060147D01*
X052339Y060223D01*
X052262Y060223D01*
X052185Y060147D01*
X052185Y059916D01*
X052339Y059916D01*
X052185Y059916D02*
X052032Y060070D01*
X051955Y060223D01*
X052032Y060377D02*
X051955Y060454D01*
X051955Y060607D01*
X052032Y060684D01*
X052108Y060684D01*
X052415Y060377D01*
X052415Y060684D01*
X052651Y061956D02*
X052804Y061956D01*
X052881Y062033D01*
X053034Y061956D02*
X053341Y062263D01*
X053341Y062340D01*
X053265Y062416D01*
X053111Y062416D01*
X053034Y062340D01*
X052881Y062340D02*
X052804Y062416D01*
X052651Y062416D01*
X052574Y062340D01*
X052574Y062033D01*
X052651Y061956D01*
X053034Y061956D02*
X053341Y061956D01*
X053495Y061956D02*
X053802Y061956D01*
X053648Y061956D02*
X053648Y062416D01*
X053495Y062263D01*
X053571Y062956D02*
X053495Y063033D01*
X053571Y062956D02*
X053725Y062956D01*
X053802Y063033D01*
X053802Y063110D01*
X053725Y063186D01*
X053648Y063186D01*
X053725Y063186D02*
X053802Y063263D01*
X053802Y063340D01*
X053725Y063416D01*
X053571Y063416D01*
X053495Y063340D01*
X053341Y063416D02*
X053188Y063340D01*
X053034Y063186D01*
X053265Y063186D01*
X053341Y063110D01*
X053341Y063033D01*
X053265Y062956D01*
X053111Y062956D01*
X053034Y063033D01*
X053034Y063186D01*
X052881Y063186D02*
X052804Y063110D01*
X052574Y063110D01*
X052727Y063110D02*
X052881Y062956D01*
X052881Y063186D02*
X052881Y063340D01*
X052804Y063416D01*
X052574Y063416D01*
X052574Y062956D01*
X052302Y064456D02*
X051995Y064456D01*
X052302Y064763D01*
X052302Y064840D01*
X052225Y064916D01*
X052071Y064916D01*
X051995Y064840D01*
X051841Y064840D02*
X051534Y064533D01*
X051611Y064456D01*
X051765Y064456D01*
X051841Y064533D01*
X051841Y064840D01*
X051765Y064916D01*
X051611Y064916D01*
X051534Y064840D01*
X051534Y064533D01*
X051381Y064456D02*
X051074Y064456D01*
X051227Y064456D02*
X051227Y064916D01*
X051074Y064763D01*
X050921Y064686D02*
X050844Y064610D01*
X050614Y064610D01*
X050495Y064533D02*
X050802Y064840D01*
X050802Y064533D01*
X050725Y064456D01*
X050571Y064456D01*
X050495Y064533D01*
X050495Y064840D01*
X050571Y064916D01*
X050725Y064916D01*
X050802Y064840D01*
X050844Y064916D02*
X050921Y064840D01*
X050921Y064686D01*
X050767Y064610D02*
X050921Y064456D01*
X050614Y064456D02*
X050614Y064916D01*
X050844Y064916D01*
X050341Y064840D02*
X050034Y064533D01*
X050111Y064456D01*
X050265Y064456D01*
X050341Y064533D01*
X050341Y064840D01*
X050265Y064916D01*
X050111Y064916D01*
X050034Y064840D01*
X050034Y064533D01*
X049881Y064456D02*
X049574Y064456D01*
X049606Y064416D02*
X049376Y064186D01*
X049683Y064186D01*
X049606Y063956D02*
X049606Y064416D01*
X049727Y064456D02*
X049727Y064916D01*
X049574Y064763D01*
X049421Y064686D02*
X049344Y064610D01*
X049114Y064610D01*
X049267Y064610D02*
X049421Y064456D01*
X049222Y064416D02*
X048916Y064416D01*
X048916Y064186D01*
X049069Y064263D01*
X049146Y064263D01*
X049222Y064186D01*
X049222Y064033D01*
X049146Y063956D01*
X048992Y063956D01*
X048916Y064033D01*
X048762Y063956D02*
X048609Y064110D01*
X048685Y064110D02*
X048455Y064110D01*
X048455Y063956D02*
X048455Y064416D01*
X048685Y064416D01*
X048762Y064340D01*
X048762Y064186D01*
X048685Y064110D01*
X049114Y064456D02*
X049114Y064916D01*
X049344Y064916D01*
X049421Y064840D01*
X049421Y064686D01*
X049453Y063416D02*
X049606Y063416D01*
X049683Y063340D01*
X049683Y063263D01*
X049606Y063186D01*
X049453Y063186D01*
X049376Y063263D01*
X049376Y063340D01*
X049453Y063416D01*
X049453Y063186D02*
X049376Y063110D01*
X049376Y063033D01*
X049453Y062956D01*
X049606Y062956D01*
X049683Y063033D01*
X049683Y063110D01*
X049606Y063186D01*
X049222Y062956D02*
X048916Y062956D01*
X049069Y062956D02*
X049069Y063416D01*
X048916Y063263D01*
X048762Y063340D02*
X048685Y063416D01*
X048532Y063416D01*
X048455Y063340D01*
X048455Y063033D01*
X048532Y062956D01*
X048685Y062956D01*
X048762Y063033D01*
X049032Y062416D02*
X048955Y062340D01*
X048955Y062033D01*
X049032Y061956D01*
X049185Y061956D01*
X049262Y062033D01*
X049416Y062186D02*
X049722Y062186D01*
X049876Y062340D02*
X049953Y062416D01*
X050106Y062416D01*
X050183Y062340D01*
X050183Y062263D01*
X049876Y061956D01*
X050183Y061956D01*
X049646Y061956D02*
X049646Y062416D01*
X049416Y062186D01*
X049262Y062340D02*
X049185Y062416D01*
X049032Y062416D01*
X049032Y061416D02*
X048955Y061340D01*
X048955Y061033D01*
X049032Y060956D01*
X049185Y060956D01*
X049262Y061033D01*
X049416Y061186D02*
X049722Y061186D01*
X049876Y061263D02*
X050029Y061416D01*
X050029Y060956D01*
X049876Y060956D02*
X050183Y060956D01*
X049646Y060956D02*
X049646Y061416D01*
X049416Y061186D01*
X049262Y061340D02*
X049185Y061416D01*
X049032Y061416D01*
X049032Y060184D02*
X049108Y060184D01*
X049185Y060107D01*
X049262Y060184D01*
X049339Y060184D01*
X049415Y060107D01*
X049415Y059954D01*
X049339Y059877D01*
X049339Y059723D02*
X049415Y059647D01*
X049415Y059493D01*
X049339Y059416D01*
X049185Y059416D02*
X049108Y059570D01*
X049108Y059647D01*
X049185Y059723D01*
X049339Y059723D01*
X049185Y059416D02*
X048955Y059416D01*
X048955Y059723D01*
X049032Y059877D02*
X048955Y059954D01*
X048955Y060107D01*
X049032Y060184D01*
X049185Y060107D02*
X049185Y060030D01*
X049185Y059263D02*
X049262Y059186D01*
X049262Y058956D01*
X049415Y058956D02*
X048955Y058956D01*
X048955Y059186D01*
X049032Y059263D01*
X049185Y059263D01*
X049262Y059110D02*
X049415Y059263D01*
X049415Y058684D02*
X049415Y058377D01*
X049108Y058684D01*
X049032Y058684D01*
X048955Y058607D01*
X048955Y058454D01*
X049032Y058377D01*
X048955Y058223D02*
X048955Y057916D01*
X049185Y057916D01*
X049108Y058070D01*
X049108Y058147D01*
X049185Y058223D01*
X049339Y058223D01*
X049415Y058147D01*
X049415Y057993D01*
X049339Y057916D01*
X049415Y057763D02*
X049262Y057610D01*
X049262Y057686D02*
X049262Y057456D01*
X049415Y057456D02*
X048955Y057456D01*
X048955Y057686D01*
X049032Y057763D01*
X049185Y057763D01*
X049262Y057686D01*
X048302Y056840D02*
X048225Y056916D01*
X048071Y056916D01*
X047995Y056840D01*
X047995Y056763D01*
X048071Y056686D01*
X048302Y056686D01*
X048302Y056533D02*
X048302Y056840D01*
X048302Y056533D02*
X048225Y056456D01*
X048071Y056456D01*
X047995Y056533D01*
X047841Y056533D02*
X047765Y056456D01*
X047611Y056456D01*
X047534Y056533D01*
X047381Y056456D02*
X047227Y056610D01*
X047304Y056610D02*
X047074Y056610D01*
X047074Y056456D02*
X047074Y056916D01*
X047304Y056916D01*
X047381Y056840D01*
X047381Y056686D01*
X047304Y056610D01*
X047534Y056763D02*
X047611Y056686D01*
X047841Y056686D01*
X047841Y056533D02*
X047841Y056840D01*
X047765Y056916D01*
X047611Y056916D01*
X047534Y056840D01*
X047534Y056763D01*
X046802Y056763D02*
X046725Y056686D01*
X046571Y056686D01*
X046495Y056763D01*
X046495Y056840D01*
X046571Y056916D01*
X046725Y056916D01*
X046802Y056840D01*
X046802Y056763D01*
X046725Y056686D02*
X046802Y056610D01*
X046802Y056533D01*
X046725Y056456D01*
X046571Y056456D01*
X046495Y056533D01*
X046495Y056610D01*
X046571Y056686D01*
X046341Y056686D02*
X046111Y056686D01*
X046034Y056763D01*
X046034Y056840D01*
X046111Y056916D01*
X046265Y056916D01*
X046341Y056840D01*
X046341Y056533D01*
X046265Y056456D01*
X046111Y056456D01*
X046034Y056533D01*
X045881Y056456D02*
X045727Y056610D01*
X045804Y056610D02*
X045574Y056610D01*
X045574Y056456D02*
X045574Y056916D01*
X045804Y056916D01*
X045881Y056840D01*
X045881Y056686D01*
X045804Y056610D01*
X044415Y057956D02*
X043955Y057956D01*
X043955Y058186D01*
X044032Y058263D01*
X044185Y058263D01*
X044262Y058186D01*
X044262Y057956D01*
X044262Y058110D02*
X044415Y058263D01*
X044185Y058416D02*
X044185Y058723D01*
X044108Y058877D02*
X044185Y058954D01*
X044185Y059184D01*
X044032Y059184D02*
X043955Y059107D01*
X043955Y058954D01*
X044032Y058877D01*
X044108Y058877D01*
X044339Y058877D02*
X044415Y058954D01*
X044415Y059107D01*
X044339Y059184D01*
X044032Y059184D01*
X043955Y059456D02*
X043955Y059686D01*
X044032Y059763D01*
X044185Y059763D01*
X044262Y059686D01*
X044262Y059456D01*
X044415Y059456D02*
X043955Y059456D01*
X044262Y059610D02*
X044415Y059763D01*
X044339Y059916D02*
X044415Y059993D01*
X044415Y060147D01*
X044339Y060223D01*
X044185Y060223D01*
X044108Y060147D01*
X044108Y060070D01*
X044185Y059916D01*
X043955Y059916D01*
X043955Y060223D01*
X044032Y060377D02*
X043955Y060454D01*
X043955Y060607D01*
X044032Y060684D01*
X044339Y060377D01*
X044415Y060454D01*
X044415Y060607D01*
X044339Y060684D01*
X044032Y060684D01*
X044032Y060377D02*
X044339Y060377D01*
X044651Y061956D02*
X044804Y061956D01*
X044881Y062033D01*
X045034Y061956D02*
X045341Y061956D01*
X045188Y061956D02*
X045188Y062416D01*
X045034Y062263D01*
X044881Y062340D02*
X044804Y062416D01*
X044651Y062416D01*
X044574Y062340D01*
X044574Y062033D01*
X044651Y061956D01*
X045495Y061956D02*
X045495Y062033D01*
X045802Y062340D01*
X045802Y062416D01*
X045495Y062416D01*
X045495Y062956D02*
X045802Y062956D01*
X045648Y062956D02*
X045648Y063416D01*
X045495Y063263D01*
X045341Y063186D02*
X045341Y063033D01*
X045265Y062956D01*
X045111Y062956D01*
X045034Y063033D01*
X045034Y063186D02*
X045188Y063263D01*
X045265Y063263D01*
X045341Y063186D01*
X045341Y063416D02*
X045034Y063416D01*
X045034Y063186D01*
X044881Y063186D02*
X044804Y063110D01*
X044574Y063110D01*
X044727Y063110D02*
X044881Y062956D01*
X044881Y063186D02*
X044881Y063340D01*
X044804Y063416D01*
X044574Y063416D01*
X044574Y062956D01*
X043995Y064456D02*
X043995Y064533D01*
X044302Y064840D01*
X044302Y064916D01*
X043995Y064916D01*
X043841Y064840D02*
X043765Y064916D01*
X043611Y064916D01*
X043534Y064840D01*
X043534Y064763D01*
X043611Y064686D01*
X043841Y064686D01*
X043841Y064533D02*
X043841Y064840D01*
X043841Y064533D02*
X043765Y064456D01*
X043611Y064456D01*
X043534Y064533D01*
X043381Y064456D02*
X043227Y064610D01*
X043304Y064610D02*
X043074Y064610D01*
X043074Y064456D02*
X043074Y064916D01*
X043304Y064916D01*
X043381Y064840D01*
X043381Y064686D01*
X043304Y064610D01*
X042802Y064610D02*
X042725Y064686D01*
X042495Y064686D01*
X042495Y064533D01*
X042571Y064456D01*
X042725Y064456D01*
X042802Y064533D01*
X042802Y064610D01*
X042648Y064840D02*
X042495Y064686D01*
X042341Y064686D02*
X042111Y064686D01*
X042034Y064763D01*
X042034Y064840D01*
X042111Y064916D01*
X042265Y064916D01*
X042341Y064840D01*
X042341Y064533D01*
X042265Y064456D01*
X042111Y064456D01*
X042034Y064533D01*
X041881Y064456D02*
X041727Y064610D01*
X041804Y064610D02*
X041574Y064610D01*
X041574Y064456D02*
X041574Y064916D01*
X041804Y064916D01*
X041881Y064840D01*
X041881Y064686D01*
X041804Y064610D01*
X041606Y064416D02*
X041453Y064416D01*
X041376Y064340D01*
X041222Y064186D02*
X040916Y064186D01*
X041146Y064416D01*
X041146Y063956D01*
X041376Y063956D02*
X041683Y064263D01*
X041683Y064340D01*
X041606Y064416D01*
X041683Y063956D02*
X041376Y063956D01*
X041606Y063416D02*
X041376Y063186D01*
X041683Y063186D01*
X041606Y062956D02*
X041606Y063416D01*
X041069Y063416D02*
X041069Y062956D01*
X040916Y062956D02*
X041222Y062956D01*
X040916Y063263D02*
X041069Y063416D01*
X040762Y063340D02*
X040685Y063416D01*
X040532Y063416D01*
X040455Y063340D01*
X040455Y063033D01*
X040532Y062956D01*
X040685Y062956D01*
X040762Y063033D01*
X041032Y062416D02*
X040955Y062340D01*
X040955Y062033D01*
X041032Y061956D01*
X041185Y061956D01*
X041262Y062033D01*
X041416Y062033D02*
X041492Y061956D01*
X041646Y061956D01*
X041722Y062033D01*
X041722Y062110D01*
X041646Y062186D01*
X041569Y062186D01*
X041646Y062186D02*
X041722Y062263D01*
X041722Y062340D01*
X041646Y062416D01*
X041492Y062416D01*
X041416Y062340D01*
X041262Y062340D02*
X041185Y062416D01*
X041032Y062416D01*
X041876Y062340D02*
X041876Y062263D01*
X041953Y062186D01*
X042106Y062186D01*
X042183Y062110D01*
X042183Y062033D01*
X042106Y061956D01*
X041953Y061956D01*
X041876Y062033D01*
X041876Y062110D01*
X041953Y062186D01*
X042106Y062186D02*
X042183Y062263D01*
X042183Y062340D01*
X042106Y062416D01*
X041953Y062416D01*
X041876Y062340D01*
X041876Y061416D02*
X042183Y061416D01*
X042183Y061340D01*
X041876Y061033D01*
X041876Y060956D01*
X041722Y061033D02*
X041646Y060956D01*
X041492Y060956D01*
X041416Y061033D01*
X041262Y061033D02*
X041185Y060956D01*
X041032Y060956D01*
X040955Y061033D01*
X040955Y061340D01*
X041032Y061416D01*
X041185Y061416D01*
X041262Y061340D01*
X041416Y061340D02*
X041492Y061416D01*
X041646Y061416D01*
X041722Y061340D01*
X041722Y061263D01*
X041646Y061186D01*
X041722Y061110D01*
X041722Y061033D01*
X041646Y061186D02*
X041569Y061186D01*
X041415Y060184D02*
X041415Y059877D01*
X041415Y060030D02*
X040955Y060030D01*
X041108Y059877D01*
X041185Y059723D02*
X041185Y059416D01*
X040955Y059647D01*
X041415Y059647D01*
X041415Y059263D02*
X041262Y059110D01*
X041262Y059186D02*
X041262Y058956D01*
X041415Y058956D02*
X040955Y058956D01*
X040955Y059186D01*
X041032Y059263D01*
X041185Y059263D01*
X041262Y059186D01*
X041339Y058684D02*
X041415Y058607D01*
X041415Y058454D01*
X041339Y058377D01*
X041032Y058684D01*
X041339Y058684D01*
X041339Y058377D02*
X041032Y058377D01*
X040955Y058454D01*
X040955Y058607D01*
X041032Y058684D01*
X041185Y058223D02*
X041185Y057916D01*
X040955Y058147D01*
X041415Y058147D01*
X041415Y057763D02*
X041262Y057610D01*
X041262Y057686D02*
X041262Y057456D01*
X041415Y057456D02*
X040955Y057456D01*
X040955Y057686D01*
X041032Y057763D01*
X041185Y057763D01*
X041262Y057686D01*
X040302Y056916D02*
X039995Y056916D01*
X039995Y056686D01*
X040148Y056763D01*
X040225Y056763D01*
X040302Y056686D01*
X040302Y056533D01*
X040225Y056456D01*
X040071Y056456D01*
X039995Y056533D01*
X039841Y056533D02*
X039765Y056456D01*
X039611Y056456D01*
X039534Y056533D01*
X039381Y056456D02*
X039227Y056610D01*
X039304Y056610D02*
X039074Y056610D01*
X039074Y056456D02*
X039074Y056916D01*
X039304Y056916D01*
X039381Y056840D01*
X039381Y056686D01*
X039304Y056610D01*
X039534Y056763D02*
X039611Y056686D01*
X039841Y056686D01*
X039841Y056533D02*
X039841Y056840D01*
X039765Y056916D01*
X039611Y056916D01*
X039534Y056840D01*
X039534Y056763D01*
X038802Y056686D02*
X038495Y056686D01*
X038725Y056916D01*
X038725Y056456D01*
X038341Y056533D02*
X038341Y056840D01*
X038265Y056916D01*
X038111Y056916D01*
X038034Y056840D01*
X038034Y056763D01*
X038111Y056686D01*
X038341Y056686D01*
X038341Y056533D02*
X038265Y056456D01*
X038111Y056456D01*
X038034Y056533D01*
X037881Y056456D02*
X037727Y056610D01*
X037804Y056610D02*
X037574Y056610D01*
X037574Y056456D02*
X037574Y056916D01*
X037804Y056916D01*
X037881Y056840D01*
X037881Y056686D01*
X037804Y056610D01*
X036415Y057956D02*
X035955Y057956D01*
X035955Y058186D01*
X036032Y058263D01*
X036185Y058263D01*
X036262Y058186D01*
X036262Y057956D01*
X036262Y058110D02*
X036415Y058263D01*
X036339Y058416D02*
X036415Y058493D01*
X036415Y058647D01*
X036339Y058723D01*
X036262Y058723D01*
X036185Y058647D01*
X036185Y058570D01*
X036185Y058647D02*
X036108Y058723D01*
X036032Y058723D01*
X035955Y058647D01*
X035955Y058493D01*
X036032Y058416D01*
X035955Y058877D02*
X035955Y059184D01*
X036032Y059184D01*
X036339Y058877D01*
X036415Y058877D01*
X036415Y059456D02*
X035955Y059456D01*
X035955Y059686D01*
X036032Y059763D01*
X036185Y059763D01*
X036262Y059686D01*
X036262Y059456D01*
X036262Y059610D02*
X036415Y059763D01*
X036339Y059916D02*
X036415Y059993D01*
X036415Y060147D01*
X036339Y060223D01*
X036262Y060223D01*
X036185Y060147D01*
X036185Y060070D01*
X036185Y060147D02*
X036108Y060223D01*
X036032Y060223D01*
X035955Y060147D01*
X035955Y059993D01*
X036032Y059916D01*
X036032Y060377D02*
X036108Y060377D01*
X036185Y060454D01*
X036185Y060607D01*
X036262Y060684D01*
X036339Y060684D01*
X036415Y060607D01*
X036415Y060454D01*
X036339Y060377D01*
X036262Y060377D01*
X036185Y060454D01*
X036185Y060607D02*
X036108Y060684D01*
X036032Y060684D01*
X035955Y060607D01*
X035955Y060454D01*
X036032Y060377D01*
X036651Y061956D02*
X036804Y061956D01*
X036881Y062033D01*
X037034Y061956D02*
X037341Y061956D01*
X037188Y061956D02*
X037188Y062416D01*
X037034Y062263D01*
X036881Y062340D02*
X036804Y062416D01*
X036651Y062416D01*
X036574Y062340D01*
X036574Y062033D01*
X036651Y061956D01*
X037495Y062033D02*
X037571Y061956D01*
X037725Y061956D01*
X037802Y062033D01*
X037802Y062110D01*
X037725Y062186D01*
X037648Y062186D01*
X037725Y062186D02*
X037802Y062263D01*
X037802Y062340D01*
X037725Y062416D01*
X037571Y062416D01*
X037495Y062340D01*
X037571Y062956D02*
X037495Y063033D01*
X037571Y062956D02*
X037725Y062956D01*
X037802Y063033D01*
X037802Y063340D01*
X037725Y063416D01*
X037571Y063416D01*
X037495Y063340D01*
X037495Y063263D01*
X037571Y063186D01*
X037802Y063186D01*
X037341Y063110D02*
X037341Y063033D01*
X037265Y062956D01*
X037111Y062956D01*
X037034Y063033D01*
X036881Y062956D02*
X036727Y063110D01*
X036804Y063110D02*
X036574Y063110D01*
X036574Y062956D02*
X036574Y063416D01*
X036804Y063416D01*
X036881Y063340D01*
X036881Y063186D01*
X036804Y063110D01*
X037034Y063340D02*
X037111Y063416D01*
X037265Y063416D01*
X037341Y063340D01*
X037341Y063263D01*
X037265Y063186D01*
X037341Y063110D01*
X037265Y063186D02*
X037188Y063186D01*
X036225Y064456D02*
X036071Y064456D01*
X035995Y064533D01*
X035841Y064533D02*
X035841Y064840D01*
X035765Y064916D01*
X035611Y064916D01*
X035534Y064840D01*
X035534Y064763D01*
X035611Y064686D01*
X035841Y064686D01*
X035841Y064533D02*
X035765Y064456D01*
X035611Y064456D01*
X035534Y064533D01*
X035381Y064456D02*
X035227Y064610D01*
X035304Y064610D02*
X035074Y064610D01*
X035074Y064456D02*
X035074Y064916D01*
X035304Y064916D01*
X035381Y064840D01*
X035381Y064686D01*
X035304Y064610D01*
X034802Y064763D02*
X034802Y064840D01*
X034725Y064916D01*
X034571Y064916D01*
X034495Y064840D01*
X034341Y064840D02*
X034265Y064916D01*
X034111Y064916D01*
X034034Y064840D01*
X034034Y064763D01*
X034111Y064686D01*
X034341Y064686D01*
X034341Y064533D02*
X034341Y064840D01*
X034341Y064533D02*
X034265Y064456D01*
X034111Y064456D01*
X034034Y064533D01*
X033881Y064456D02*
X033727Y064610D01*
X033804Y064610D02*
X033574Y064610D01*
X033574Y064456D02*
X033574Y064916D01*
X033804Y064916D01*
X033881Y064840D01*
X033881Y064686D01*
X033804Y064610D01*
X033606Y064416D02*
X033683Y064340D01*
X033376Y064033D01*
X033453Y063956D01*
X033606Y063956D01*
X033683Y064033D01*
X033683Y064340D01*
X033606Y064416D02*
X033453Y064416D01*
X033376Y064340D01*
X033376Y064033D01*
X033222Y064033D02*
X033146Y063956D01*
X032992Y063956D01*
X032916Y064033D01*
X032762Y063956D02*
X032609Y064110D01*
X032685Y064110D02*
X032455Y064110D01*
X032455Y063956D02*
X032455Y064416D01*
X032685Y064416D01*
X032762Y064340D01*
X032762Y064186D01*
X032685Y064110D01*
X032916Y064340D02*
X032992Y064416D01*
X033146Y064416D01*
X033222Y064340D01*
X033222Y064263D01*
X033146Y064186D01*
X033222Y064110D01*
X033222Y064033D01*
X033146Y064186D02*
X033069Y064186D01*
X033069Y063416D02*
X033069Y062956D01*
X032916Y062956D02*
X033222Y062956D01*
X033376Y063033D02*
X033683Y063340D01*
X033683Y063033D01*
X033606Y062956D01*
X033453Y062956D01*
X033376Y063033D01*
X033376Y063340D01*
X033453Y063416D01*
X033606Y063416D01*
X033683Y063340D01*
X033069Y063416D02*
X032916Y063263D01*
X032762Y063340D02*
X032685Y063416D01*
X032532Y063416D01*
X032455Y063340D01*
X032455Y063033D01*
X032532Y062956D01*
X032685Y062956D01*
X032762Y063033D01*
X033032Y062416D02*
X032955Y062340D01*
X032955Y062033D01*
X033032Y061956D01*
X033185Y061956D01*
X033262Y062033D01*
X033416Y062033D02*
X033492Y061956D01*
X033646Y061956D01*
X033722Y062033D01*
X033722Y062110D01*
X033646Y062186D01*
X033569Y062186D01*
X033646Y062186D02*
X033722Y062263D01*
X033722Y062340D01*
X033646Y062416D01*
X033492Y062416D01*
X033416Y062340D01*
X033262Y062340D02*
X033185Y062416D01*
X033032Y062416D01*
X033876Y062340D02*
X033953Y062416D01*
X034106Y062416D01*
X034183Y062340D01*
X034183Y062263D01*
X034106Y062186D01*
X034183Y062110D01*
X034183Y062033D01*
X034106Y061956D01*
X033953Y061956D01*
X033876Y062033D01*
X034029Y062186D02*
X034106Y062186D01*
X034106Y061416D02*
X033876Y061186D01*
X034183Y061186D01*
X034106Y060956D02*
X034106Y061416D01*
X033722Y061340D02*
X033722Y061263D01*
X033646Y061186D01*
X033722Y061110D01*
X033722Y061033D01*
X033646Y060956D01*
X033492Y060956D01*
X033416Y061033D01*
X033262Y061033D02*
X033185Y060956D01*
X033032Y060956D01*
X032955Y061033D01*
X032955Y061340D01*
X033032Y061416D01*
X033185Y061416D01*
X033262Y061340D01*
X033416Y061340D02*
X033492Y061416D01*
X033646Y061416D01*
X033722Y061340D01*
X033646Y061186D02*
X033569Y061186D01*
X033339Y060184D02*
X033032Y060184D01*
X032955Y060107D01*
X032955Y059954D01*
X033032Y059877D01*
X033108Y059877D01*
X033185Y059954D01*
X033185Y060184D01*
X033339Y060184D02*
X033415Y060107D01*
X033415Y059954D01*
X033339Y059877D01*
X033415Y059723D02*
X033415Y059416D01*
X033108Y059723D01*
X033032Y059723D01*
X032955Y059647D01*
X032955Y059493D01*
X033032Y059416D01*
X033032Y059263D02*
X033185Y059263D01*
X033262Y059186D01*
X033262Y058956D01*
X033415Y058956D02*
X032955Y058956D01*
X032955Y059186D01*
X033032Y059263D01*
X033262Y059110D02*
X033415Y059263D01*
X033339Y058684D02*
X033415Y058607D01*
X033415Y058454D01*
X033339Y058377D01*
X033262Y058377D01*
X033185Y058454D01*
X033185Y058607D01*
X033262Y058684D01*
X033339Y058684D01*
X033185Y058607D02*
X033108Y058684D01*
X033032Y058684D01*
X032955Y058607D01*
X032955Y058454D01*
X033032Y058377D01*
X033108Y058377D01*
X033185Y058454D01*
X033108Y058223D02*
X033032Y058223D01*
X032955Y058147D01*
X032955Y057993D01*
X033032Y057916D01*
X033032Y057763D02*
X033185Y057763D01*
X033262Y057686D01*
X033262Y057456D01*
X033415Y057456D02*
X032955Y057456D01*
X032955Y057686D01*
X033032Y057763D01*
X033262Y057610D02*
X033415Y057763D01*
X033415Y057916D02*
X033108Y058223D01*
X033415Y058223D02*
X033415Y057916D01*
X032148Y056916D02*
X032148Y056456D01*
X031995Y056456D02*
X032302Y056456D01*
X031995Y056763D02*
X032148Y056916D01*
X031841Y056840D02*
X031765Y056916D01*
X031611Y056916D01*
X031534Y056840D01*
X031534Y056763D01*
X031611Y056686D01*
X031841Y056686D01*
X031841Y056533D02*
X031841Y056840D01*
X031841Y056533D02*
X031765Y056456D01*
X031611Y056456D01*
X031534Y056533D01*
X031381Y056456D02*
X031227Y056610D01*
X031304Y056610D02*
X031074Y056610D01*
X031074Y056456D02*
X031074Y056916D01*
X031304Y056916D01*
X031381Y056840D01*
X031381Y056686D01*
X031304Y056610D01*
X030802Y056533D02*
X030725Y056456D01*
X030571Y056456D01*
X030495Y056533D01*
X030802Y056840D01*
X030802Y056533D01*
X030802Y056840D02*
X030725Y056916D01*
X030571Y056916D01*
X030495Y056840D01*
X030495Y056533D01*
X030341Y056533D02*
X030265Y056456D01*
X030111Y056456D01*
X030034Y056533D01*
X029881Y056456D02*
X029727Y056610D01*
X029804Y056610D02*
X029574Y056610D01*
X029574Y056456D02*
X029574Y056916D01*
X029804Y056916D01*
X029881Y056840D01*
X029881Y056686D01*
X029804Y056610D01*
X030034Y056763D02*
X030111Y056686D01*
X030341Y056686D01*
X030341Y056533D02*
X030341Y056840D01*
X030265Y056916D01*
X030111Y056916D01*
X030034Y056840D01*
X030034Y056763D01*
X028415Y057956D02*
X027955Y057956D01*
X027955Y058186D01*
X028032Y058263D01*
X028185Y058263D01*
X028262Y058186D01*
X028262Y057956D01*
X028262Y058110D02*
X028415Y058263D01*
X028415Y058416D02*
X028108Y058723D01*
X028032Y058723D01*
X027955Y058647D01*
X027955Y058493D01*
X028032Y058416D01*
X028415Y058416D02*
X028415Y058723D01*
X028339Y058877D02*
X028415Y058954D01*
X028415Y059107D01*
X028339Y059184D01*
X028185Y059184D01*
X028108Y059107D01*
X028108Y059030D01*
X028185Y058877D01*
X027955Y058877D01*
X027955Y059184D01*
X027955Y059456D02*
X027955Y059686D01*
X028032Y059763D01*
X028185Y059763D01*
X028262Y059686D01*
X028262Y059456D01*
X028415Y059456D02*
X027955Y059456D01*
X028262Y059610D02*
X028415Y059763D01*
X028415Y059916D02*
X028108Y060223D01*
X028032Y060223D01*
X027955Y060147D01*
X027955Y059993D01*
X028032Y059916D01*
X028415Y059916D02*
X028415Y060223D01*
X028339Y060377D02*
X028415Y060454D01*
X028415Y060607D01*
X028339Y060684D01*
X028262Y060684D01*
X028185Y060607D01*
X028185Y060377D01*
X028339Y060377D01*
X028185Y060377D02*
X028032Y060530D01*
X027955Y060684D01*
X029111Y061956D02*
X029265Y061956D01*
X029341Y062033D01*
X029495Y062033D02*
X029571Y061956D01*
X029725Y061956D01*
X029802Y062033D01*
X029802Y062340D01*
X029725Y062416D01*
X029571Y062416D01*
X029495Y062340D01*
X029495Y062263D01*
X029571Y062186D01*
X029802Y062186D01*
X029341Y062340D02*
X029265Y062416D01*
X029111Y062416D01*
X029034Y062340D01*
X029034Y062033D01*
X029111Y061956D01*
X029034Y062956D02*
X029341Y063263D01*
X029341Y063340D01*
X029265Y063416D01*
X029111Y063416D01*
X029034Y063340D01*
X028881Y063340D02*
X028881Y063186D01*
X028804Y063110D01*
X028574Y063110D01*
X028727Y063110D02*
X028881Y062956D01*
X029034Y062956D02*
X029341Y062956D01*
X029495Y062956D02*
X029495Y063033D01*
X029802Y063340D01*
X029802Y063416D01*
X029495Y063416D01*
X028881Y063340D02*
X028804Y063416D01*
X028574Y063416D01*
X028574Y062956D01*
X028225Y064456D02*
X028302Y064533D01*
X028302Y064840D01*
X028225Y064916D01*
X028071Y064916D01*
X027995Y064840D01*
X027995Y064763D01*
X028071Y064686D01*
X028302Y064686D01*
X028225Y064456D02*
X028071Y064456D01*
X027995Y064533D01*
X027841Y064533D02*
X027765Y064456D01*
X027611Y064456D01*
X027534Y064533D01*
X027534Y064610D01*
X027611Y064686D01*
X027765Y064686D01*
X027841Y064610D01*
X027841Y064533D01*
X027765Y064686D02*
X027841Y064763D01*
X027841Y064840D01*
X027765Y064916D01*
X027611Y064916D01*
X027534Y064840D01*
X027534Y064763D01*
X027611Y064686D01*
X027381Y064686D02*
X027304Y064610D01*
X027074Y064610D01*
X027227Y064610D02*
X027381Y064456D01*
X027381Y064686D02*
X027381Y064840D01*
X027304Y064916D01*
X027074Y064916D01*
X027074Y064456D01*
X026802Y064533D02*
X026725Y064456D01*
X026571Y064456D01*
X026495Y064533D01*
X026495Y064610D01*
X026571Y064686D01*
X026725Y064686D01*
X026802Y064610D01*
X026802Y064533D01*
X026725Y064686D02*
X026802Y064763D01*
X026802Y064840D01*
X026725Y064916D01*
X026571Y064916D01*
X026495Y064840D01*
X026495Y064763D01*
X026571Y064686D01*
X026341Y064610D02*
X026341Y064533D01*
X026265Y064456D01*
X026111Y064456D01*
X026034Y064533D01*
X026034Y064610D01*
X026111Y064686D01*
X026265Y064686D01*
X026341Y064610D01*
X026265Y064686D02*
X026341Y064763D01*
X026341Y064840D01*
X026265Y064916D01*
X026111Y064916D01*
X026034Y064840D01*
X026034Y064763D01*
X026111Y064686D01*
X025881Y064686D02*
X025804Y064610D01*
X025574Y064610D01*
X025727Y064610D02*
X025881Y064456D01*
X025683Y064340D02*
X025683Y064263D01*
X025606Y064186D01*
X025453Y064186D01*
X025376Y064263D01*
X025376Y064340D01*
X025453Y064416D01*
X025606Y064416D01*
X025683Y064340D01*
X025574Y064456D02*
X025574Y064916D01*
X025804Y064916D01*
X025881Y064840D01*
X025881Y064686D01*
X025606Y064186D02*
X025683Y064110D01*
X025683Y064033D01*
X025606Y063956D01*
X025453Y063956D01*
X025376Y064033D01*
X025376Y064110D01*
X025453Y064186D01*
X025222Y063956D02*
X024916Y063956D01*
X025069Y063956D02*
X025069Y064416D01*
X024916Y064263D01*
X024762Y064186D02*
X024685Y064110D01*
X024455Y064110D01*
X024609Y064110D02*
X024762Y063956D01*
X024762Y064186D02*
X024762Y064340D01*
X024685Y064416D01*
X024455Y064416D01*
X024455Y063956D01*
X024532Y063416D02*
X024455Y063340D01*
X024455Y063033D01*
X024532Y062956D01*
X024685Y062956D01*
X024762Y063033D01*
X024916Y063033D02*
X024992Y062956D01*
X025146Y062956D01*
X025222Y063033D01*
X025222Y063110D01*
X025146Y063186D01*
X024916Y063186D01*
X024916Y063033D01*
X024916Y063186D02*
X025069Y063340D01*
X025222Y063416D01*
X024762Y063340D02*
X024685Y063416D01*
X024532Y063416D01*
X025032Y062416D02*
X024955Y062340D01*
X024955Y062033D01*
X025032Y061956D01*
X025185Y061956D01*
X025262Y062033D01*
X025416Y061956D02*
X025722Y062263D01*
X025722Y062340D01*
X025646Y062416D01*
X025492Y062416D01*
X025416Y062340D01*
X025262Y062340D02*
X025185Y062416D01*
X025032Y062416D01*
X025416Y061956D02*
X025722Y061956D01*
X025876Y062033D02*
X025953Y061956D01*
X026106Y061956D01*
X026183Y062033D01*
X026183Y062340D01*
X026106Y062416D01*
X025953Y062416D01*
X025876Y062340D01*
X025876Y062263D01*
X025953Y062186D01*
X026183Y062186D01*
X026106Y061416D02*
X026183Y061340D01*
X025876Y061033D01*
X025953Y060956D01*
X026106Y060956D01*
X026183Y061033D01*
X026183Y061340D01*
X026106Y061416D02*
X025953Y061416D01*
X025876Y061340D01*
X025876Y061033D01*
X025722Y061033D02*
X025646Y060956D01*
X025492Y060956D01*
X025416Y061033D01*
X025262Y061033D02*
X025185Y060956D01*
X025032Y060956D01*
X024955Y061033D01*
X024955Y061340D01*
X025032Y061416D01*
X025185Y061416D01*
X025262Y061340D01*
X025416Y061340D02*
X025492Y061416D01*
X025646Y061416D01*
X025722Y061340D01*
X025722Y061263D01*
X025646Y061186D01*
X025722Y061110D01*
X025722Y061033D01*
X025646Y061186D02*
X025569Y061186D01*
X025032Y060184D02*
X025339Y059877D01*
X025415Y059877D01*
X025415Y059723D02*
X025415Y059416D01*
X025415Y059263D02*
X025262Y059110D01*
X025262Y059186D02*
X025262Y058956D01*
X025415Y058956D02*
X024955Y058956D01*
X024955Y059186D01*
X025032Y059263D01*
X025185Y059263D01*
X025262Y059186D01*
X025108Y059416D02*
X024955Y059570D01*
X025415Y059570D01*
X024955Y059877D02*
X024955Y060184D01*
X025032Y060184D01*
X023683Y060333D02*
X023606Y060256D01*
X023453Y060256D01*
X023376Y060333D01*
X023222Y060333D02*
X023222Y060410D01*
X023146Y060486D01*
X022992Y060486D01*
X022916Y060563D01*
X022916Y060640D01*
X022992Y060716D01*
X023146Y060716D01*
X023222Y060640D01*
X023376Y060640D02*
X023453Y060716D01*
X023606Y060716D01*
X023683Y060640D01*
X023683Y060563D01*
X023606Y060486D01*
X023683Y060410D01*
X023683Y060333D01*
X023606Y060486D02*
X023529Y060486D01*
X023222Y060333D02*
X023146Y060256D01*
X022992Y060256D01*
X022916Y060333D01*
X022762Y060333D02*
X022762Y060716D01*
X022455Y060716D02*
X022455Y060333D01*
X022532Y060256D01*
X022685Y060256D01*
X022762Y060333D01*
X023069Y060179D02*
X023069Y060793D01*
X021802Y062033D02*
X021725Y061956D01*
X021571Y061956D01*
X021495Y062033D01*
X021495Y062186D02*
X021648Y062263D01*
X021725Y062263D01*
X021802Y062186D01*
X021802Y062033D01*
X021495Y062186D02*
X021495Y062416D01*
X021802Y062416D01*
X021341Y062340D02*
X021265Y062416D01*
X021111Y062416D01*
X021034Y062340D01*
X021034Y062033D01*
X021111Y061956D01*
X021265Y061956D01*
X021341Y062033D01*
X021341Y062956D02*
X021034Y062956D01*
X020881Y062956D02*
X020727Y063110D01*
X020804Y063110D02*
X020574Y063110D01*
X020574Y062956D02*
X020574Y063416D01*
X020804Y063416D01*
X020881Y063340D01*
X020881Y063186D01*
X020804Y063110D01*
X021034Y063263D02*
X021188Y063416D01*
X021188Y062956D01*
X021495Y063033D02*
X021571Y062956D01*
X021725Y062956D01*
X021802Y063033D01*
X021802Y063186D01*
X021725Y063263D01*
X021648Y063263D01*
X021495Y063186D01*
X021495Y063416D01*
X021802Y063416D01*
X020302Y064533D02*
X020225Y064456D01*
X020071Y064456D01*
X019995Y064533D01*
X019995Y064686D02*
X020148Y064763D01*
X020225Y064763D01*
X020302Y064686D01*
X020302Y064533D01*
X019995Y064686D02*
X019995Y064916D01*
X020302Y064916D01*
X019841Y064840D02*
X019841Y064763D01*
X019765Y064686D01*
X019611Y064686D01*
X019534Y064763D01*
X019534Y064840D01*
X019611Y064916D01*
X019765Y064916D01*
X019841Y064840D01*
X019765Y064686D02*
X019841Y064610D01*
X019841Y064533D01*
X019765Y064456D01*
X019611Y064456D01*
X019534Y064533D01*
X019534Y064610D01*
X019611Y064686D01*
X019381Y064686D02*
X019304Y064610D01*
X019074Y064610D01*
X019227Y064610D02*
X019381Y064456D01*
X019381Y064686D02*
X019381Y064840D01*
X019304Y064916D01*
X019074Y064916D01*
X019074Y064456D01*
X018725Y064456D02*
X018725Y064916D01*
X018495Y064686D01*
X018802Y064686D01*
X018341Y064610D02*
X018341Y064533D01*
X018265Y064456D01*
X018111Y064456D01*
X018034Y064533D01*
X018034Y064610D01*
X018111Y064686D01*
X018265Y064686D01*
X018341Y064610D01*
X018265Y064686D02*
X018341Y064763D01*
X018341Y064840D01*
X018265Y064916D01*
X018111Y064916D01*
X018034Y064840D01*
X018034Y064763D01*
X018111Y064686D01*
X017881Y064686D02*
X017804Y064610D01*
X017574Y064610D01*
X017727Y064610D02*
X017881Y064456D01*
X017881Y064686D02*
X017881Y064840D01*
X017804Y064916D01*
X017574Y064916D01*
X017574Y064456D01*
X017222Y064416D02*
X017069Y064340D01*
X016916Y064186D01*
X017146Y064186D01*
X017222Y064110D01*
X017222Y064033D01*
X017146Y063956D01*
X016992Y063956D01*
X016916Y064033D01*
X016916Y064186D01*
X016762Y064186D02*
X016685Y064110D01*
X016455Y064110D01*
X016609Y064110D02*
X016762Y063956D01*
X016762Y064186D02*
X016762Y064340D01*
X016685Y064416D01*
X016455Y064416D01*
X016455Y063956D01*
X016532Y063416D02*
X016455Y063340D01*
X016455Y063033D01*
X016532Y062956D01*
X016685Y062956D01*
X016762Y063033D01*
X016916Y062956D02*
X017222Y063263D01*
X017222Y063340D01*
X017146Y063416D01*
X016992Y063416D01*
X016916Y063340D01*
X016762Y063340D02*
X016685Y063416D01*
X016532Y063416D01*
X016916Y062956D02*
X017222Y062956D01*
X017185Y062416D02*
X017032Y062416D01*
X016955Y062340D01*
X016955Y062033D01*
X017032Y061956D01*
X017185Y061956D01*
X017262Y062033D01*
X017416Y061956D02*
X017722Y062263D01*
X017722Y062340D01*
X017646Y062416D01*
X017492Y062416D01*
X017416Y062340D01*
X017262Y062340D02*
X017185Y062416D01*
X017416Y061956D02*
X017722Y061956D01*
X017876Y062033D02*
X017953Y061956D01*
X018106Y061956D01*
X018183Y062033D01*
X018183Y062110D01*
X018106Y062186D01*
X017876Y062186D01*
X017876Y062033D01*
X017876Y062186D02*
X018029Y062340D01*
X018183Y062416D01*
X018183Y061416D02*
X017876Y061416D01*
X017876Y061186D01*
X018029Y061263D01*
X018106Y061263D01*
X018183Y061186D01*
X018183Y061033D01*
X018106Y060956D01*
X017953Y060956D01*
X017876Y061033D01*
X017722Y060956D02*
X017416Y060956D01*
X017722Y061263D01*
X017722Y061340D01*
X017646Y061416D01*
X017492Y061416D01*
X017416Y061340D01*
X017262Y061340D02*
X017185Y061416D01*
X017032Y061416D01*
X016955Y061340D01*
X016955Y061033D01*
X017032Y060956D01*
X017185Y060956D01*
X017262Y061033D01*
X017339Y059723D02*
X017415Y059647D01*
X017415Y059493D01*
X017339Y059416D01*
X017185Y059416D02*
X017108Y059570D01*
X017108Y059647D01*
X017185Y059723D01*
X017339Y059723D01*
X017185Y059416D02*
X016955Y059416D01*
X016955Y059723D01*
X017032Y059263D02*
X017185Y059263D01*
X017262Y059186D01*
X017262Y058956D01*
X017415Y058956D02*
X016955Y058956D01*
X016955Y059186D01*
X017032Y059263D01*
X017262Y059110D02*
X017415Y059263D01*
X017185Y058223D02*
X017185Y057916D01*
X016955Y058147D01*
X017415Y058147D01*
X017415Y057763D02*
X017262Y057610D01*
X017262Y057686D02*
X017262Y057456D01*
X017415Y057456D02*
X016955Y057456D01*
X016955Y057686D01*
X017032Y057763D01*
X017185Y057763D01*
X017262Y057686D01*
X016302Y056840D02*
X016302Y056763D01*
X016225Y056686D01*
X016302Y056610D01*
X016302Y056533D01*
X016225Y056456D01*
X016071Y056456D01*
X015995Y056533D01*
X015841Y056533D02*
X015765Y056456D01*
X015611Y056456D01*
X015534Y056533D01*
X015534Y056610D01*
X015611Y056686D01*
X015765Y056686D01*
X015841Y056610D01*
X015841Y056533D01*
X015765Y056686D02*
X015841Y056763D01*
X015841Y056840D01*
X015765Y056916D01*
X015611Y056916D01*
X015534Y056840D01*
X015534Y056763D01*
X015611Y056686D01*
X015381Y056686D02*
X015304Y056610D01*
X015074Y056610D01*
X015227Y056610D02*
X015381Y056456D01*
X015381Y056686D02*
X015381Y056840D01*
X015304Y056916D01*
X015074Y056916D01*
X015074Y056456D01*
X014802Y056456D02*
X014495Y056456D01*
X014802Y056763D01*
X014802Y056840D01*
X014725Y056916D01*
X014571Y056916D01*
X014495Y056840D01*
X014341Y056840D02*
X014341Y056763D01*
X014265Y056686D01*
X014111Y056686D01*
X014034Y056763D01*
X014034Y056840D01*
X014111Y056916D01*
X014265Y056916D01*
X014341Y056840D01*
X014265Y056686D02*
X014341Y056610D01*
X014341Y056533D01*
X014265Y056456D01*
X014111Y056456D01*
X014034Y056533D01*
X014034Y056610D01*
X014111Y056686D01*
X013881Y056686D02*
X013804Y056610D01*
X013574Y056610D01*
X013727Y056610D02*
X013881Y056456D01*
X013881Y056686D02*
X013881Y056840D01*
X013804Y056916D01*
X013574Y056916D01*
X013574Y056456D01*
X012415Y057956D02*
X011955Y057956D01*
X011955Y058186D01*
X012032Y058263D01*
X012185Y058263D01*
X012262Y058186D01*
X012262Y057956D01*
X012262Y058110D02*
X012415Y058263D01*
X012415Y058416D02*
X012415Y058723D01*
X012415Y058570D02*
X011955Y058570D01*
X012108Y058416D01*
X011606Y057916D02*
X011683Y057840D01*
X011376Y057533D01*
X011453Y057456D01*
X011606Y057456D01*
X011683Y057533D01*
X011683Y057840D01*
X011606Y057916D02*
X011453Y057916D01*
X011376Y057840D01*
X011376Y057533D01*
X011222Y057533D02*
X011146Y057456D01*
X010992Y057456D01*
X010916Y057533D01*
X010916Y057610D01*
X010992Y057686D01*
X011146Y057686D01*
X011222Y057610D01*
X011222Y057533D01*
X011146Y057686D02*
X011222Y057763D01*
X011222Y057840D01*
X011146Y057916D01*
X010992Y057916D01*
X010916Y057840D01*
X010916Y057763D01*
X010992Y057686D01*
X010762Y057533D02*
X010685Y057456D01*
X010532Y057456D01*
X010455Y057533D01*
X010455Y057840D01*
X010532Y057916D01*
X010685Y057916D01*
X010762Y057840D01*
X010495Y057956D02*
X010495Y058033D01*
X010802Y058340D01*
X010802Y058416D01*
X010495Y058416D01*
X010341Y058340D02*
X010341Y058263D01*
X010265Y058186D01*
X010341Y058110D01*
X010341Y058033D01*
X010265Y057956D01*
X010111Y057956D01*
X010034Y058033D01*
X009881Y057956D02*
X009574Y057956D01*
X009727Y057956D02*
X009727Y058416D01*
X009574Y058263D01*
X009421Y058340D02*
X009421Y058186D01*
X009344Y058110D01*
X009114Y058110D01*
X009267Y058110D02*
X009421Y057956D01*
X009114Y057956D02*
X009114Y058416D01*
X009344Y058416D01*
X009421Y058340D01*
X010034Y058340D02*
X010111Y058416D01*
X010265Y058416D01*
X010341Y058340D01*
X010265Y058186D02*
X010188Y058186D01*
X010227Y059379D02*
X010227Y059993D01*
X010151Y059916D02*
X010304Y059916D01*
X010381Y059840D01*
X010534Y059840D02*
X010611Y059916D01*
X010765Y059916D01*
X010841Y059840D01*
X010841Y059763D01*
X010765Y059686D01*
X010841Y059610D01*
X010841Y059533D01*
X010765Y059456D01*
X010611Y059456D01*
X010534Y059533D01*
X010381Y059533D02*
X010381Y059610D01*
X010304Y059686D01*
X010151Y059686D01*
X010074Y059763D01*
X010074Y059840D01*
X010151Y059916D01*
X009921Y059916D02*
X009921Y059533D01*
X009844Y059456D01*
X009690Y059456D01*
X009614Y059533D01*
X009614Y059916D01*
X010074Y059533D02*
X010151Y059456D01*
X010304Y059456D01*
X010381Y059533D01*
X010688Y059686D02*
X010765Y059686D01*
X010995Y059763D02*
X011148Y059916D01*
X011148Y059456D01*
X010995Y059456D02*
X011302Y059456D01*
X011955Y059456D02*
X011955Y059686D01*
X012032Y059763D01*
X012185Y059763D01*
X012262Y059686D01*
X012262Y059456D01*
X012415Y059456D02*
X011955Y059456D01*
X012262Y059610D02*
X012415Y059763D01*
X012415Y059916D02*
X012108Y060223D01*
X012032Y060223D01*
X011955Y060147D01*
X011955Y059993D01*
X012032Y059916D01*
X012415Y059916D02*
X012415Y060223D01*
X013111Y061956D02*
X013265Y061956D01*
X013341Y062033D01*
X013495Y061956D02*
X013802Y061956D01*
X013648Y061956D02*
X013648Y062416D01*
X013495Y062263D01*
X013341Y062340D02*
X013265Y062416D01*
X013111Y062416D01*
X013034Y062340D01*
X013034Y062033D01*
X013111Y061956D01*
X013034Y062956D02*
X013034Y063416D01*
X013265Y063416D01*
X013341Y063340D01*
X013341Y063186D01*
X013265Y063110D01*
X013034Y063110D01*
X013188Y063110D02*
X013341Y062956D01*
X013495Y063033D02*
X013571Y062956D01*
X013725Y062956D01*
X013802Y063033D01*
X013802Y063110D01*
X013725Y063186D01*
X013648Y063186D01*
X013725Y063186D02*
X013802Y063263D01*
X013802Y063340D01*
X013725Y063416D01*
X013571Y063416D01*
X013495Y063340D01*
X012183Y062956D02*
X011876Y062956D01*
X012029Y062956D02*
X012029Y063416D01*
X011876Y063263D01*
X011722Y063340D02*
X011416Y063033D01*
X011416Y062956D01*
X011262Y063033D02*
X011185Y062956D01*
X011032Y062956D01*
X010955Y063033D01*
X010955Y063340D01*
X011032Y063416D01*
X011185Y063416D01*
X011262Y063340D01*
X011416Y063416D02*
X011722Y063416D01*
X011722Y063340D01*
X011683Y064956D02*
X011376Y064956D01*
X011683Y065263D01*
X011683Y065340D01*
X011606Y065416D01*
X011453Y065416D01*
X011376Y065340D01*
X011222Y065340D02*
X010916Y065033D01*
X010916Y064956D01*
X010762Y065033D02*
X010685Y064956D01*
X010532Y064956D01*
X010455Y065033D01*
X010455Y065340D01*
X010532Y065416D01*
X010685Y065416D01*
X010762Y065340D01*
X010916Y065416D02*
X011222Y065416D01*
X011222Y065340D01*
X011955Y067035D02*
X012415Y067035D01*
X012415Y067342D01*
X012415Y067496D02*
X012415Y067803D01*
X012415Y067649D02*
X011955Y067649D01*
X012108Y067496D01*
X015955Y067456D02*
X015955Y067686D01*
X016032Y067763D01*
X016185Y067763D01*
X016262Y067686D01*
X016262Y067456D01*
X016415Y067456D02*
X015955Y067456D01*
X016262Y067610D02*
X016415Y067763D01*
X016339Y067916D02*
X016262Y067916D01*
X016185Y067993D01*
X016185Y068147D01*
X016262Y068223D01*
X016339Y068223D01*
X016415Y068147D01*
X016415Y067993D01*
X016339Y067916D01*
X016185Y067993D02*
X016108Y067916D01*
X016032Y067916D01*
X015955Y067993D01*
X015955Y068147D01*
X016032Y068223D01*
X016108Y068223D01*
X016185Y068147D01*
X016032Y066723D02*
X015955Y066723D01*
X015955Y066416D01*
X016032Y066263D02*
X015955Y066186D01*
X015955Y065956D01*
X016415Y065956D01*
X016262Y065956D02*
X016262Y066186D01*
X016185Y066263D01*
X016032Y066263D01*
X016262Y066110D02*
X016415Y066263D01*
X016415Y066416D02*
X016339Y066416D01*
X016032Y066723D01*
X018455Y068333D02*
X018532Y068256D01*
X018685Y068256D01*
X018762Y068333D01*
X018762Y068716D01*
X018916Y068640D02*
X018992Y068716D01*
X019146Y068716D01*
X019222Y068640D01*
X019376Y068640D02*
X019453Y068716D01*
X019606Y068716D01*
X019683Y068640D01*
X019683Y068563D01*
X019376Y068256D01*
X019683Y068256D01*
X019222Y068333D02*
X019222Y068410D01*
X019146Y068486D01*
X018992Y068486D01*
X018916Y068563D01*
X018916Y068640D01*
X019069Y068793D02*
X019069Y068179D01*
X019146Y068256D02*
X019222Y068333D01*
X019146Y068256D02*
X018992Y068256D01*
X018916Y068333D01*
X018455Y068333D02*
X018455Y068716D01*
X017725Y069956D02*
X017571Y069956D01*
X017495Y070033D01*
X017341Y070033D02*
X017265Y069956D01*
X017111Y069956D01*
X017034Y070033D01*
X017034Y070340D01*
X017111Y070416D01*
X017265Y070416D01*
X017341Y070340D01*
X017495Y070340D02*
X017571Y070416D01*
X017725Y070416D01*
X017802Y070340D01*
X017802Y070263D01*
X017725Y070186D01*
X017802Y070110D01*
X017802Y070033D01*
X017725Y069956D01*
X017725Y070186D02*
X017648Y070186D01*
X017571Y070956D02*
X017725Y070956D01*
X017802Y071033D01*
X017802Y071340D01*
X017725Y071416D01*
X017571Y071416D01*
X017495Y071340D01*
X017495Y071263D01*
X017571Y071186D01*
X017802Y071186D01*
X017571Y070956D02*
X017495Y071033D01*
X017341Y070956D02*
X017188Y071110D01*
X017265Y071110D02*
X017034Y071110D01*
X017034Y070956D02*
X017034Y071416D01*
X017265Y071416D01*
X017341Y071340D01*
X017341Y071186D01*
X017265Y071110D01*
X020455Y071033D02*
X020532Y070956D01*
X020685Y070956D01*
X020762Y071033D01*
X020916Y071186D02*
X021222Y071186D01*
X021146Y070956D02*
X021146Y071416D01*
X020916Y071186D01*
X020762Y071340D02*
X020685Y071416D01*
X020532Y071416D01*
X020455Y071340D01*
X020455Y071033D01*
X021032Y070416D02*
X020955Y070340D01*
X020955Y070033D01*
X021032Y069956D01*
X021185Y069956D01*
X021262Y070033D01*
X021416Y069956D02*
X021722Y070263D01*
X021722Y070340D01*
X021646Y070416D01*
X021492Y070416D01*
X021416Y070340D01*
X021262Y070340D02*
X021185Y070416D01*
X021032Y070416D01*
X021416Y069956D02*
X021722Y069956D01*
X021876Y070033D02*
X021953Y069956D01*
X022106Y069956D01*
X022183Y070033D01*
X022183Y070110D01*
X022106Y070186D01*
X021953Y070186D01*
X021876Y070263D01*
X021876Y070340D01*
X021953Y070416D01*
X022106Y070416D01*
X022183Y070340D01*
X022183Y070263D01*
X022106Y070186D01*
X021953Y070186D02*
X021876Y070110D01*
X021876Y070033D01*
X021876Y069416D02*
X022183Y069416D01*
X022183Y069340D01*
X021876Y069033D01*
X021876Y068956D01*
X021722Y068956D02*
X021416Y068956D01*
X021722Y069263D01*
X021722Y069340D01*
X021646Y069416D01*
X021492Y069416D01*
X021416Y069340D01*
X021262Y069340D02*
X021185Y069416D01*
X021032Y069416D01*
X020955Y069340D01*
X020955Y069033D01*
X021032Y068956D01*
X021185Y068956D01*
X021262Y069033D01*
X021415Y068184D02*
X021415Y067877D01*
X021415Y068030D02*
X020955Y068030D01*
X021108Y067877D01*
X020955Y067570D02*
X021415Y067570D01*
X021415Y067723D02*
X021415Y067416D01*
X021415Y067263D02*
X021262Y067110D01*
X021262Y067186D02*
X021262Y066956D01*
X021415Y066956D02*
X020955Y066956D01*
X020955Y067186D01*
X021032Y067263D01*
X021185Y067263D01*
X021262Y067186D01*
X021108Y067416D02*
X020955Y067570D01*
X021032Y066684D02*
X021339Y066377D01*
X021415Y066454D01*
X021415Y066607D01*
X021339Y066684D01*
X021032Y066684D01*
X020955Y066607D01*
X020955Y066454D01*
X021032Y066377D01*
X021339Y066377D01*
X021415Y066223D02*
X021415Y065916D01*
X021415Y065763D02*
X021262Y065610D01*
X021262Y065686D02*
X021262Y065456D01*
X021415Y065456D02*
X020955Y065456D01*
X020955Y065686D01*
X021032Y065763D01*
X021185Y065763D01*
X021262Y065686D01*
X021108Y065916D02*
X020955Y066070D01*
X021415Y066070D01*
X023955Y065956D02*
X023955Y066186D01*
X024032Y066263D01*
X024185Y066263D01*
X024262Y066186D01*
X024262Y065956D01*
X024415Y065956D02*
X023955Y065956D01*
X024262Y066110D02*
X024415Y066263D01*
X024415Y066416D02*
X024415Y066723D01*
X024415Y066570D02*
X023955Y066570D01*
X024108Y066416D01*
X024108Y066877D02*
X024185Y066954D01*
X024185Y067184D01*
X024032Y067184D02*
X023955Y067107D01*
X023955Y066954D01*
X024032Y066877D01*
X024108Y066877D01*
X024339Y066877D02*
X024415Y066954D01*
X024415Y067107D01*
X024339Y067184D01*
X024032Y067184D01*
X023955Y067456D02*
X024415Y067456D01*
X024262Y067456D02*
X024262Y067686D01*
X024185Y067763D01*
X024032Y067763D01*
X023955Y067686D01*
X023955Y067456D01*
X024262Y067610D02*
X024415Y067763D01*
X024415Y067916D02*
X024108Y068223D01*
X024032Y068223D01*
X023955Y068147D01*
X023955Y067993D01*
X024032Y067916D01*
X024415Y067916D02*
X024415Y068223D01*
X024339Y068377D02*
X024032Y068684D01*
X024339Y068684D01*
X024415Y068607D01*
X024415Y068454D01*
X024339Y068377D01*
X024032Y068377D01*
X023955Y068454D01*
X023955Y068607D01*
X024032Y068684D01*
X025111Y069956D02*
X025265Y069956D01*
X025341Y070033D01*
X025495Y070033D02*
X025495Y069956D01*
X025495Y070033D02*
X025802Y070340D01*
X025802Y070416D01*
X025495Y070416D01*
X025341Y070340D02*
X025265Y070416D01*
X025111Y070416D01*
X025034Y070340D01*
X025034Y070033D01*
X025111Y069956D01*
X025034Y070956D02*
X025341Y071263D01*
X025341Y071340D01*
X025265Y071416D01*
X025111Y071416D01*
X025034Y071340D01*
X024881Y071340D02*
X024881Y071186D01*
X024804Y071110D01*
X024574Y071110D01*
X024727Y071110D02*
X024881Y070956D01*
X025034Y070956D02*
X025341Y070956D01*
X025495Y070956D02*
X025802Y070956D01*
X025648Y070956D02*
X025648Y071416D01*
X025495Y071263D01*
X024881Y071340D02*
X024804Y071416D01*
X024574Y071416D01*
X024574Y070956D01*
X026455Y068716D02*
X026455Y068333D01*
X026532Y068256D01*
X026685Y068256D01*
X026762Y068333D01*
X026762Y068716D01*
X026916Y068640D02*
X026992Y068716D01*
X027146Y068716D01*
X027222Y068640D01*
X027146Y068486D02*
X027222Y068410D01*
X027222Y068333D01*
X027146Y068256D01*
X026992Y068256D01*
X026916Y068333D01*
X026992Y068486D02*
X026916Y068563D01*
X026916Y068640D01*
X026992Y068486D02*
X027146Y068486D01*
X027376Y068486D02*
X027683Y068486D01*
X027606Y068256D02*
X027606Y068716D01*
X027376Y068486D01*
X027069Y068793D02*
X027069Y068179D01*
X028955Y068107D02*
X029032Y068184D01*
X029108Y068184D01*
X029185Y068107D01*
X029262Y068184D01*
X029339Y068184D01*
X029415Y068107D01*
X029415Y067954D01*
X029339Y067877D01*
X029415Y067723D02*
X029415Y067416D01*
X029108Y067723D01*
X029032Y067723D01*
X028955Y067647D01*
X028955Y067493D01*
X029032Y067416D01*
X029032Y067263D02*
X029185Y067263D01*
X029262Y067186D01*
X029262Y066956D01*
X029415Y066956D02*
X028955Y066956D01*
X028955Y067186D01*
X029032Y067263D01*
X029262Y067110D02*
X029415Y067263D01*
X029415Y066684D02*
X029415Y066377D01*
X029108Y066684D01*
X029032Y066684D01*
X028955Y066607D01*
X028955Y066454D01*
X029032Y066377D01*
X029032Y066223D02*
X028955Y066147D01*
X028955Y065993D01*
X029032Y065916D01*
X029032Y065763D02*
X029185Y065763D01*
X029262Y065686D01*
X029262Y065456D01*
X029415Y065456D02*
X028955Y065456D01*
X028955Y065686D01*
X029032Y065763D01*
X029262Y065610D02*
X029415Y065763D01*
X029415Y065916D02*
X029108Y066223D01*
X029032Y066223D01*
X029415Y066223D02*
X029415Y065916D01*
X029032Y067877D02*
X028955Y067954D01*
X028955Y068107D01*
X029185Y068107D02*
X029185Y068030D01*
X029185Y068956D02*
X029262Y069033D01*
X029185Y068956D02*
X029032Y068956D01*
X028955Y069033D01*
X028955Y069340D01*
X029032Y069416D01*
X029185Y069416D01*
X029262Y069340D01*
X029416Y069340D02*
X029492Y069416D01*
X029646Y069416D01*
X029722Y069340D01*
X029722Y069263D01*
X029646Y069186D01*
X029722Y069110D01*
X029722Y069033D01*
X029646Y068956D01*
X029492Y068956D01*
X029416Y069033D01*
X029569Y069186D02*
X029646Y069186D01*
X029876Y069340D02*
X029953Y069416D01*
X030106Y069416D01*
X030183Y069340D01*
X030183Y069263D01*
X029876Y068956D01*
X030183Y068956D01*
X030183Y069956D02*
X029876Y069956D01*
X030029Y069956D02*
X030029Y070416D01*
X029876Y070263D01*
X029722Y070263D02*
X029646Y070186D01*
X029722Y070110D01*
X029722Y070033D01*
X029646Y069956D01*
X029492Y069956D01*
X029416Y070033D01*
X029262Y070033D02*
X029185Y069956D01*
X029032Y069956D01*
X028955Y070033D01*
X028955Y070340D01*
X029032Y070416D01*
X029185Y070416D01*
X029262Y070340D01*
X029416Y070340D02*
X029492Y070416D01*
X029646Y070416D01*
X029722Y070340D01*
X029722Y070263D01*
X029646Y070186D02*
X029569Y070186D01*
X029146Y070956D02*
X028992Y070956D01*
X028916Y071033D01*
X028916Y071110D01*
X028992Y071186D01*
X029146Y071186D01*
X029222Y071110D01*
X029222Y071033D01*
X029146Y070956D01*
X029146Y071186D02*
X029222Y071263D01*
X029222Y071340D01*
X029146Y071416D01*
X028992Y071416D01*
X028916Y071340D01*
X028916Y071263D01*
X028992Y071186D01*
X028762Y071033D02*
X028685Y070956D01*
X028532Y070956D01*
X028455Y071033D01*
X028455Y071340D01*
X028532Y071416D01*
X028685Y071416D01*
X028762Y071340D01*
X028762Y071956D02*
X028609Y072110D01*
X028685Y072110D02*
X028455Y072110D01*
X028455Y071956D02*
X028455Y072416D01*
X028685Y072416D01*
X028762Y072340D01*
X028762Y072186D01*
X028685Y072110D01*
X028916Y071956D02*
X029222Y072263D01*
X029222Y072340D01*
X029146Y072416D01*
X028992Y072416D01*
X028916Y072340D01*
X028916Y071956D02*
X029222Y071956D01*
X029376Y072186D02*
X029683Y072186D01*
X029606Y071956D02*
X029606Y072416D01*
X029376Y072186D01*
X032574Y071416D02*
X032804Y071416D01*
X032881Y071340D01*
X032881Y071186D01*
X032804Y071110D01*
X032574Y071110D01*
X032727Y071110D02*
X032881Y070956D01*
X033034Y071033D02*
X033111Y070956D01*
X033265Y070956D01*
X033341Y071033D01*
X033341Y071110D01*
X033265Y071186D01*
X033188Y071186D01*
X033265Y071186D02*
X033341Y071263D01*
X033341Y071340D01*
X033265Y071416D01*
X033111Y071416D01*
X033034Y071340D01*
X033495Y071340D02*
X033571Y071416D01*
X033725Y071416D01*
X033802Y071340D01*
X033802Y071263D01*
X033725Y071186D01*
X033802Y071110D01*
X033802Y071033D01*
X033725Y070956D01*
X033571Y070956D01*
X033495Y071033D01*
X033648Y071186D02*
X033725Y071186D01*
X033648Y070416D02*
X033495Y070263D01*
X033648Y070416D02*
X033648Y069956D01*
X033495Y069956D02*
X033802Y069956D01*
X033341Y069956D02*
X033034Y069956D01*
X033188Y069956D02*
X033188Y070416D01*
X033034Y070263D01*
X032881Y070340D02*
X032804Y070416D01*
X032651Y070416D01*
X032574Y070340D01*
X032574Y070033D01*
X032651Y069956D01*
X032804Y069956D01*
X032881Y070033D01*
X032574Y070956D02*
X032574Y071416D01*
X032415Y068684D02*
X032415Y068377D01*
X032108Y068684D01*
X032032Y068684D01*
X031955Y068607D01*
X031955Y068454D01*
X032032Y068377D01*
X032032Y068223D02*
X032108Y068223D01*
X032185Y068147D01*
X032262Y068223D01*
X032339Y068223D01*
X032415Y068147D01*
X032415Y067993D01*
X032339Y067916D01*
X032415Y067763D02*
X032262Y067610D01*
X032262Y067686D02*
X032262Y067456D01*
X032415Y067456D02*
X031955Y067456D01*
X031955Y067686D01*
X032032Y067763D01*
X032185Y067763D01*
X032262Y067686D01*
X032032Y067916D02*
X031955Y067993D01*
X031955Y068147D01*
X032032Y068223D01*
X032185Y068147D02*
X032185Y068070D01*
X032415Y067184D02*
X032415Y066877D01*
X032415Y067030D02*
X031955Y067030D01*
X032108Y066877D01*
X032108Y066723D02*
X032185Y066647D01*
X032262Y066723D01*
X032339Y066723D01*
X032415Y066647D01*
X032415Y066493D01*
X032339Y066416D01*
X032415Y066263D02*
X032262Y066110D01*
X032262Y066186D02*
X032262Y065956D01*
X032415Y065956D02*
X031955Y065956D01*
X031955Y066186D01*
X032032Y066263D01*
X032185Y066263D01*
X032262Y066186D01*
X032032Y066416D02*
X031955Y066493D01*
X031955Y066647D01*
X032032Y066723D01*
X032108Y066723D01*
X032185Y066647D02*
X032185Y066570D01*
X034455Y068333D02*
X034455Y068716D01*
X034762Y068716D02*
X034762Y068333D01*
X034685Y068256D01*
X034532Y068256D01*
X034455Y068333D01*
X034916Y068333D02*
X034992Y068256D01*
X035146Y068256D01*
X035222Y068333D01*
X035222Y068410D01*
X035146Y068486D01*
X034992Y068486D01*
X034916Y068563D01*
X034916Y068640D01*
X034992Y068716D01*
X035146Y068716D01*
X035222Y068640D01*
X035069Y068793D02*
X035069Y068179D01*
X035376Y068333D02*
X035376Y068486D01*
X035606Y068486D01*
X035683Y068410D01*
X035683Y068333D01*
X035606Y068256D01*
X035453Y068256D01*
X035376Y068333D01*
X035376Y068486D02*
X035529Y068640D01*
X035683Y068716D01*
X036955Y069033D02*
X037032Y068956D01*
X037185Y068956D01*
X037262Y069033D01*
X037416Y069033D02*
X037492Y068956D01*
X037646Y068956D01*
X037722Y069033D01*
X037722Y069110D01*
X037646Y069186D01*
X037569Y069186D01*
X037646Y069186D02*
X037722Y069263D01*
X037722Y069340D01*
X037646Y069416D01*
X037492Y069416D01*
X037416Y069340D01*
X037262Y069340D02*
X037185Y069416D01*
X037032Y069416D01*
X036955Y069340D01*
X036955Y069033D01*
X036955Y068184D02*
X036955Y067877D01*
X037185Y067877D01*
X037108Y068030D01*
X037108Y068107D01*
X037185Y068184D01*
X037339Y068184D01*
X037415Y068107D01*
X037415Y067954D01*
X037339Y067877D01*
X037339Y067723D02*
X037415Y067647D01*
X037415Y067493D01*
X037339Y067416D01*
X037415Y067263D02*
X037262Y067110D01*
X037262Y067186D02*
X037262Y066956D01*
X037415Y066956D02*
X036955Y066956D01*
X036955Y067186D01*
X037032Y067263D01*
X037185Y067263D01*
X037262Y067186D01*
X037032Y067416D02*
X036955Y067493D01*
X036955Y067647D01*
X037032Y067723D01*
X037108Y067723D01*
X037185Y067647D01*
X037262Y067723D01*
X037339Y067723D01*
X037185Y067647D02*
X037185Y067570D01*
X037185Y066684D02*
X037185Y066377D01*
X036955Y066607D01*
X037415Y066607D01*
X037339Y066223D02*
X037415Y066147D01*
X037415Y065993D01*
X037339Y065916D01*
X037415Y065763D02*
X037262Y065610D01*
X037262Y065686D02*
X037262Y065456D01*
X037415Y065456D02*
X036955Y065456D01*
X036955Y065686D01*
X037032Y065763D01*
X037185Y065763D01*
X037262Y065686D01*
X037032Y065916D02*
X036955Y065993D01*
X036955Y066147D01*
X037032Y066223D01*
X037108Y066223D01*
X037185Y066147D01*
X037262Y066223D01*
X037339Y066223D01*
X037185Y066147D02*
X037185Y066070D01*
X036225Y064916D02*
X036302Y064840D01*
X036302Y064763D01*
X036225Y064686D01*
X036302Y064610D01*
X036302Y064533D01*
X036225Y064456D01*
X036225Y064686D02*
X036148Y064686D01*
X035995Y064840D02*
X036071Y064916D01*
X036225Y064916D01*
X034802Y064763D02*
X034495Y064456D01*
X034802Y064456D01*
X031683Y060716D02*
X031376Y060716D01*
X031376Y060486D01*
X031529Y060563D01*
X031606Y060563D01*
X031683Y060486D01*
X031683Y060333D01*
X031606Y060256D01*
X031453Y060256D01*
X031376Y060333D01*
X031222Y060333D02*
X031222Y060410D01*
X031146Y060486D01*
X030992Y060486D01*
X030916Y060563D01*
X030916Y060640D01*
X030992Y060716D01*
X031146Y060716D01*
X031222Y060640D01*
X031069Y060793D02*
X031069Y060179D01*
X031146Y060256D02*
X031222Y060333D01*
X031146Y060256D02*
X030992Y060256D01*
X030916Y060333D01*
X030762Y060333D02*
X030762Y060716D01*
X030455Y060716D02*
X030455Y060333D01*
X030532Y060256D01*
X030685Y060256D01*
X030762Y060333D01*
X025415Y058607D02*
X025339Y058684D01*
X025262Y058684D01*
X025185Y058607D01*
X025185Y058377D01*
X025339Y058377D01*
X025415Y058454D01*
X025415Y058607D01*
X025185Y058377D02*
X025032Y058530D01*
X024955Y058684D01*
X024955Y058070D02*
X025415Y058070D01*
X025415Y058223D02*
X025415Y057916D01*
X025415Y057763D02*
X025262Y057610D01*
X025262Y057686D02*
X025262Y057456D01*
X025415Y057456D02*
X024955Y057456D01*
X024955Y057686D01*
X025032Y057763D01*
X025185Y057763D01*
X025262Y057686D01*
X025108Y057916D02*
X024955Y058070D01*
X024302Y056916D02*
X024302Y056840D01*
X023995Y056533D01*
X023995Y056456D01*
X023841Y056533D02*
X023765Y056456D01*
X023611Y056456D01*
X023534Y056533D01*
X023534Y056610D01*
X023611Y056686D01*
X023765Y056686D01*
X023841Y056610D01*
X023841Y056533D01*
X023765Y056686D02*
X023841Y056763D01*
X023841Y056840D01*
X023765Y056916D01*
X023611Y056916D01*
X023534Y056840D01*
X023534Y056763D01*
X023611Y056686D01*
X023381Y056686D02*
X023304Y056610D01*
X023074Y056610D01*
X023227Y056610D02*
X023381Y056456D01*
X023381Y056686D02*
X023381Y056840D01*
X023304Y056916D01*
X023074Y056916D01*
X023074Y056456D01*
X022802Y056533D02*
X022725Y056456D01*
X022571Y056456D01*
X022495Y056533D01*
X022495Y056686D01*
X022725Y056686D01*
X022802Y056610D01*
X022802Y056533D01*
X022648Y056840D02*
X022495Y056686D01*
X022341Y056610D02*
X022341Y056533D01*
X022265Y056456D01*
X022111Y056456D01*
X022034Y056533D01*
X022034Y056610D01*
X022111Y056686D01*
X022265Y056686D01*
X022341Y056610D01*
X022265Y056686D02*
X022341Y056763D01*
X022341Y056840D01*
X022265Y056916D01*
X022111Y056916D01*
X022034Y056840D01*
X022034Y056763D01*
X022111Y056686D01*
X021881Y056686D02*
X021804Y056610D01*
X021574Y056610D01*
X021727Y056610D02*
X021881Y056456D01*
X021881Y056686D02*
X021881Y056840D01*
X021804Y056916D01*
X021574Y056916D01*
X021574Y056456D01*
X022648Y056840D02*
X022802Y056916D01*
X023995Y056916D02*
X024302Y056916D01*
X020415Y057956D02*
X019955Y057956D01*
X019955Y058186D01*
X020032Y058263D01*
X020185Y058263D01*
X020262Y058186D01*
X020262Y057956D01*
X020262Y058110D02*
X020415Y058263D01*
X020415Y058416D02*
X020415Y058723D01*
X020415Y058570D02*
X019955Y058570D01*
X020108Y058416D01*
X020032Y058877D02*
X019955Y058954D01*
X019955Y059107D01*
X020032Y059184D01*
X020108Y059184D01*
X020185Y059107D01*
X020262Y059184D01*
X020339Y059184D01*
X020415Y059107D01*
X020415Y058954D01*
X020339Y058877D01*
X020185Y059030D02*
X020185Y059107D01*
X020262Y059456D02*
X020262Y059686D01*
X020185Y059763D01*
X020032Y059763D01*
X019955Y059686D01*
X019955Y059456D01*
X020415Y059456D01*
X020262Y059610D02*
X020415Y059763D01*
X020415Y059916D02*
X020415Y060223D01*
X020415Y060070D02*
X019955Y060070D01*
X020108Y059916D01*
X020185Y060377D02*
X020185Y060684D01*
X019955Y060607D02*
X020185Y060377D01*
X020415Y060607D02*
X019955Y060607D01*
X016225Y056916D02*
X016302Y056840D01*
X016225Y056916D02*
X016071Y056916D01*
X015995Y056840D01*
X016148Y056686D02*
X016225Y056686D01*
X015683Y060256D02*
X015376Y060256D01*
X015529Y060256D02*
X015529Y060716D01*
X015376Y060563D01*
X015222Y060640D02*
X015146Y060716D01*
X014992Y060716D01*
X014916Y060640D01*
X014916Y060563D01*
X014992Y060486D01*
X015146Y060486D01*
X015222Y060410D01*
X015222Y060333D01*
X015146Y060256D01*
X014992Y060256D01*
X014916Y060333D01*
X014762Y060333D02*
X014762Y060716D01*
X014455Y060716D02*
X014455Y060333D01*
X014532Y060256D01*
X014685Y060256D01*
X014762Y060333D01*
X015069Y060179D02*
X015069Y060793D01*
X011106Y056416D02*
X010953Y056416D01*
X010876Y056340D01*
X010876Y056263D01*
X010953Y056186D01*
X011183Y056186D01*
X011183Y056033D02*
X011183Y056340D01*
X011106Y056416D01*
X010722Y056416D02*
X010722Y056340D01*
X010416Y056033D01*
X010416Y055956D01*
X010262Y056033D02*
X010185Y055956D01*
X010032Y055956D01*
X009955Y056033D01*
X009955Y056340D01*
X010032Y056416D01*
X010185Y056416D01*
X010262Y056340D01*
X010416Y056416D02*
X010722Y056416D01*
X010876Y056033D02*
X010953Y055956D01*
X011106Y055956D01*
X011183Y056033D01*
X008495Y059956D02*
X008495Y060033D01*
X008802Y060340D01*
X008802Y060416D01*
X008495Y060416D01*
X008341Y060340D02*
X008341Y060263D01*
X008265Y060186D01*
X008111Y060186D01*
X008034Y060263D01*
X008034Y060340D01*
X008111Y060416D01*
X008265Y060416D01*
X008341Y060340D01*
X008265Y060186D02*
X008341Y060110D01*
X008341Y060033D01*
X008265Y059956D01*
X008111Y059956D01*
X008034Y060033D01*
X008034Y060110D01*
X008111Y060186D01*
X007881Y060033D02*
X007804Y059956D01*
X007651Y059956D01*
X007574Y060033D01*
X007574Y060340D01*
X007651Y060416D01*
X007804Y060416D01*
X007881Y060340D01*
X005302Y059840D02*
X005302Y059763D01*
X005225Y059686D01*
X005071Y059686D01*
X004995Y059763D01*
X004995Y059840D01*
X005071Y059916D01*
X005225Y059916D01*
X005302Y059840D01*
X005225Y059686D02*
X005302Y059610D01*
X005302Y059533D01*
X005225Y059456D01*
X005071Y059456D01*
X004995Y059533D01*
X004995Y059610D01*
X005071Y059686D01*
X004841Y059763D02*
X004841Y059840D01*
X004765Y059916D01*
X004611Y059916D01*
X004534Y059840D01*
X004381Y059840D02*
X004304Y059916D01*
X004151Y059916D01*
X004074Y059840D01*
X004074Y059763D01*
X004151Y059686D01*
X004304Y059686D01*
X004381Y059610D01*
X004381Y059533D01*
X004304Y059456D01*
X004151Y059456D01*
X004074Y059533D01*
X003921Y059533D02*
X003921Y059916D01*
X003614Y059916D02*
X003614Y059533D01*
X003690Y059456D01*
X003844Y059456D01*
X003921Y059533D01*
X004227Y059379D02*
X004227Y059993D01*
X004534Y059456D02*
X004841Y059763D01*
X004841Y059456D02*
X004534Y059456D01*
X004725Y058416D02*
X004495Y058186D01*
X004802Y058186D01*
X004725Y057956D02*
X004725Y058416D01*
X004341Y058416D02*
X004341Y058340D01*
X004034Y058033D01*
X004034Y057956D01*
X003881Y058033D02*
X003804Y057956D01*
X003651Y057956D01*
X003574Y058033D01*
X003574Y058340D01*
X003651Y058416D01*
X003804Y058416D01*
X003881Y058340D01*
X004034Y058416D02*
X004341Y058416D01*
X004304Y056416D02*
X004151Y056416D01*
X004074Y056340D01*
X004074Y056033D01*
X004151Y055956D01*
X004304Y055956D01*
X004381Y056033D01*
X004534Y056033D02*
X004534Y055956D01*
X004534Y056033D02*
X004841Y056340D01*
X004841Y056416D01*
X004534Y056416D01*
X004381Y056340D02*
X004304Y056416D01*
X004995Y056340D02*
X005071Y056416D01*
X005225Y056416D01*
X005302Y056340D01*
X005302Y056263D01*
X005225Y056186D01*
X005302Y056110D01*
X005302Y056033D01*
X005225Y055956D01*
X005071Y055956D01*
X004995Y056033D01*
X005148Y056186D02*
X005225Y056186D01*
X005185Y062956D02*
X005262Y063033D01*
X005185Y062956D02*
X005032Y062956D01*
X004955Y063033D01*
X004955Y063340D01*
X005032Y063416D01*
X005185Y063416D01*
X005262Y063340D01*
X005416Y063186D02*
X005569Y063340D01*
X005722Y063416D01*
X005876Y063416D02*
X005876Y063186D01*
X006029Y063263D01*
X006106Y063263D01*
X006183Y063186D01*
X006183Y063033D01*
X006106Y062956D01*
X005953Y062956D01*
X005876Y063033D01*
X005722Y063033D02*
X005722Y063110D01*
X005646Y063186D01*
X005416Y063186D01*
X005416Y063033D01*
X005492Y062956D01*
X005646Y062956D01*
X005722Y063033D01*
X005876Y063416D02*
X006183Y063416D01*
X005606Y064956D02*
X005453Y064956D01*
X005376Y065033D01*
X005376Y065186D01*
X005606Y065186D01*
X005683Y065110D01*
X005683Y065033D01*
X005606Y064956D01*
X005376Y065186D02*
X005529Y065340D01*
X005683Y065416D01*
X005222Y065416D02*
X005069Y065340D01*
X004916Y065186D01*
X005146Y065186D01*
X005222Y065110D01*
X005222Y065033D01*
X005146Y064956D01*
X004992Y064956D01*
X004916Y065033D01*
X004916Y065186D01*
X004762Y065033D02*
X004685Y064956D01*
X004532Y064956D01*
X004455Y065033D01*
X004455Y065340D01*
X004532Y065416D01*
X004685Y065416D01*
X004762Y065340D01*
X005955Y067035D02*
X006415Y067035D01*
X006415Y067342D01*
X006185Y067496D02*
X006185Y067803D01*
X005955Y067726D02*
X006185Y067496D01*
X006415Y067726D02*
X005955Y067726D01*
X008032Y070456D02*
X007955Y070533D01*
X007955Y070840D01*
X008032Y070916D01*
X008185Y070916D01*
X008262Y070840D01*
X008416Y070686D02*
X008646Y070686D01*
X008722Y070610D01*
X008722Y070533D01*
X008646Y070456D01*
X008492Y070456D01*
X008416Y070533D01*
X008416Y070686D01*
X008569Y070840D01*
X008722Y070916D01*
X008876Y070686D02*
X009183Y070686D01*
X009106Y070456D02*
X009106Y070916D01*
X008876Y070686D01*
X008262Y070533D02*
X008185Y070456D01*
X008032Y070456D01*
X008032Y072456D02*
X007955Y072533D01*
X007955Y072840D01*
X008032Y072916D01*
X008185Y072916D01*
X008262Y072840D01*
X008416Y072686D02*
X008646Y072686D01*
X008722Y072610D01*
X008722Y072533D01*
X008646Y072456D01*
X008492Y072456D01*
X008416Y072533D01*
X008416Y072686D01*
X008569Y072840D01*
X008722Y072916D01*
X008876Y072840D02*
X008953Y072916D01*
X009106Y072916D01*
X009183Y072840D01*
X009183Y072763D01*
X009106Y072686D01*
X009183Y072610D01*
X009183Y072533D01*
X009106Y072456D01*
X008953Y072456D01*
X008876Y072533D01*
X009029Y072686D02*
X009106Y072686D01*
X009576Y072543D02*
X009576Y072850D01*
X009653Y072926D01*
X009806Y072926D01*
X009883Y072850D01*
X010036Y072696D02*
X010267Y072696D01*
X010343Y072619D01*
X010343Y072543D01*
X010267Y072466D01*
X010113Y072466D01*
X010036Y072543D01*
X010036Y072696D01*
X010190Y072850D01*
X010343Y072926D01*
X010497Y072850D02*
X010573Y072926D01*
X010727Y072926D01*
X010804Y072850D01*
X010804Y072773D01*
X010497Y072466D01*
X010804Y072466D01*
X009883Y072543D02*
X009806Y072466D01*
X009653Y072466D01*
X009576Y072543D01*
X008262Y072533D02*
X008185Y072456D01*
X008032Y072456D01*
X009653Y075466D02*
X009576Y075543D01*
X009576Y075850D01*
X009653Y075926D01*
X009806Y075926D01*
X009883Y075850D01*
X010036Y075696D02*
X010267Y075696D01*
X010343Y075619D01*
X010343Y075543D01*
X010267Y075466D01*
X010113Y075466D01*
X010036Y075543D01*
X010036Y075696D01*
X010190Y075850D01*
X010343Y075926D01*
X010497Y075773D02*
X010650Y075926D01*
X010650Y075466D01*
X010497Y075466D02*
X010804Y075466D01*
X009883Y075543D02*
X009806Y075466D01*
X009653Y075466D01*
X020455Y072416D02*
X020685Y072416D01*
X020762Y072340D01*
X020762Y072186D01*
X020685Y072110D01*
X020455Y072110D01*
X020609Y072110D02*
X020762Y071956D01*
X020916Y071956D02*
X021222Y071956D01*
X021069Y071956D02*
X021069Y072416D01*
X020916Y072263D01*
X021376Y072340D02*
X021453Y072416D01*
X021606Y072416D01*
X021683Y072340D01*
X021683Y072263D01*
X021376Y071956D01*
X021683Y071956D01*
X020455Y071956D02*
X020455Y072416D01*
X036455Y072416D02*
X036685Y072416D01*
X036762Y072340D01*
X036762Y072186D01*
X036685Y072110D01*
X036455Y072110D01*
X036609Y072110D02*
X036762Y071956D01*
X036916Y072033D02*
X036992Y071956D01*
X037146Y071956D01*
X037222Y072033D01*
X037222Y072110D01*
X037146Y072186D01*
X037069Y072186D01*
X037146Y072186D02*
X037222Y072263D01*
X037222Y072340D01*
X037146Y072416D01*
X036992Y072416D01*
X036916Y072340D01*
X036455Y072416D02*
X036455Y071956D01*
X036532Y071416D02*
X036455Y071340D01*
X036455Y071033D01*
X036532Y070956D01*
X036685Y070956D01*
X036762Y071033D01*
X036916Y070956D02*
X037222Y070956D01*
X037069Y070956D02*
X037069Y071416D01*
X036916Y071263D01*
X036762Y071340D02*
X036685Y071416D01*
X036532Y071416D01*
X037376Y071340D02*
X037453Y071416D01*
X037606Y071416D01*
X037683Y071340D01*
X037683Y071263D01*
X037376Y070956D01*
X037683Y070956D01*
X037646Y070416D02*
X037492Y070416D01*
X037416Y070340D01*
X037262Y070340D02*
X037185Y070416D01*
X037032Y070416D01*
X036955Y070340D01*
X036955Y070033D01*
X037032Y069956D01*
X037185Y069956D01*
X037262Y070033D01*
X037416Y070033D02*
X037492Y069956D01*
X037646Y069956D01*
X037722Y070033D01*
X037722Y070110D01*
X037646Y070186D01*
X037569Y070186D01*
X037646Y070186D02*
X037722Y070263D01*
X037722Y070340D01*
X037646Y070416D01*
X037876Y070416D02*
X037876Y070186D01*
X038029Y070263D01*
X038106Y070263D01*
X038183Y070186D01*
X038183Y070033D01*
X038106Y069956D01*
X037953Y069956D01*
X037876Y070033D01*
X037876Y070416D02*
X038183Y070416D01*
X038183Y069416D02*
X038029Y069340D01*
X037876Y069186D01*
X038106Y069186D01*
X038183Y069110D01*
X038183Y069033D01*
X038106Y068956D01*
X037953Y068956D01*
X037876Y069033D01*
X037876Y069186D01*
X039955Y068607D02*
X040185Y068377D01*
X040185Y068684D01*
X040415Y068607D02*
X039955Y068607D01*
X040185Y068223D02*
X040185Y067916D01*
X039955Y068147D01*
X040415Y068147D01*
X040415Y067763D02*
X040262Y067610D01*
X040262Y067686D02*
X040262Y067456D01*
X040415Y067456D02*
X039955Y067456D01*
X039955Y067686D01*
X040032Y067763D01*
X040185Y067763D01*
X040262Y067686D01*
X040262Y067184D02*
X040339Y067184D01*
X040415Y067107D01*
X040415Y066954D01*
X040339Y066877D01*
X040185Y067030D02*
X040185Y067107D01*
X040262Y067184D01*
X040185Y067107D02*
X040108Y067184D01*
X040032Y067184D01*
X039955Y067107D01*
X039955Y066954D01*
X040032Y066877D01*
X040185Y066723D02*
X040185Y066416D01*
X039955Y066647D01*
X040415Y066647D01*
X040415Y066263D02*
X040262Y066110D01*
X040262Y066186D02*
X040262Y065956D01*
X040415Y065956D02*
X039955Y065956D01*
X039955Y066186D01*
X040032Y066263D01*
X040185Y066263D01*
X040262Y066186D01*
X040455Y064416D02*
X040685Y064416D01*
X040762Y064340D01*
X040762Y064186D01*
X040685Y064110D01*
X040455Y064110D01*
X040609Y064110D02*
X040762Y063956D01*
X040455Y063956D02*
X040455Y064416D01*
X042648Y064840D02*
X042802Y064916D01*
X044955Y065456D02*
X044955Y065686D01*
X045032Y065763D01*
X045185Y065763D01*
X045262Y065686D01*
X045262Y065456D01*
X045415Y065456D02*
X044955Y065456D01*
X045262Y065610D02*
X045415Y065763D01*
X045185Y065916D02*
X045185Y066223D01*
X045185Y066377D02*
X045185Y066607D01*
X045262Y066684D01*
X045339Y066684D01*
X045415Y066607D01*
X045415Y066454D01*
X045339Y066377D01*
X045185Y066377D01*
X045032Y066530D01*
X044955Y066684D01*
X044955Y066956D02*
X044955Y067186D01*
X045032Y067263D01*
X045185Y067263D01*
X045262Y067186D01*
X045262Y066956D01*
X045415Y066956D02*
X044955Y066956D01*
X045262Y067110D02*
X045415Y067263D01*
X045185Y067416D02*
X045185Y067723D01*
X045339Y067877D02*
X045415Y067877D01*
X045339Y067877D02*
X045032Y068184D01*
X044955Y068184D01*
X044955Y067877D01*
X044955Y067647D02*
X045185Y067416D01*
X045415Y067647D02*
X044955Y067647D01*
X045032Y068956D02*
X045185Y068956D01*
X045262Y069033D01*
X045416Y069033D02*
X045492Y068956D01*
X045646Y068956D01*
X045722Y069033D01*
X045722Y069110D01*
X045646Y069186D01*
X045569Y069186D01*
X045646Y069186D02*
X045722Y069263D01*
X045722Y069340D01*
X045646Y069416D01*
X045492Y069416D01*
X045416Y069340D01*
X045262Y069340D02*
X045185Y069416D01*
X045032Y069416D01*
X044955Y069340D01*
X044955Y069033D01*
X045032Y068956D01*
X045876Y069033D02*
X045953Y068956D01*
X046106Y068956D01*
X046183Y069033D01*
X046183Y069340D01*
X046106Y069416D01*
X045953Y069416D01*
X045876Y069340D01*
X045876Y069263D01*
X045953Y069186D01*
X046183Y069186D01*
X046106Y069956D02*
X045953Y069956D01*
X045876Y070033D01*
X046183Y070340D01*
X046183Y070033D01*
X046106Y069956D01*
X045876Y070033D02*
X045876Y070340D01*
X045953Y070416D01*
X046106Y070416D01*
X046183Y070340D01*
X045722Y070186D02*
X045416Y070186D01*
X045646Y070416D01*
X045646Y069956D01*
X045262Y070033D02*
X045185Y069956D01*
X045032Y069956D01*
X044955Y070033D01*
X044955Y070340D01*
X045032Y070416D01*
X045185Y070416D01*
X045262Y070340D01*
X045222Y070956D02*
X044916Y070956D01*
X045069Y070956D02*
X045069Y071416D01*
X044916Y071263D01*
X044762Y071340D02*
X044685Y071416D01*
X044532Y071416D01*
X044455Y071340D01*
X044455Y071033D01*
X044532Y070956D01*
X044685Y070956D01*
X044762Y071033D01*
X045376Y071033D02*
X045453Y070956D01*
X045606Y070956D01*
X045683Y071033D01*
X045683Y071110D01*
X045606Y071186D01*
X045376Y071186D01*
X045376Y071033D01*
X045376Y071186D02*
X045529Y071340D01*
X045683Y071416D01*
X045606Y071956D02*
X045453Y071956D01*
X045376Y072033D01*
X045376Y072110D01*
X045453Y072186D01*
X045606Y072186D01*
X045683Y072110D01*
X045683Y072033D01*
X045606Y071956D01*
X045606Y072186D02*
X045683Y072263D01*
X045683Y072340D01*
X045606Y072416D01*
X045453Y072416D01*
X045376Y072340D01*
X045376Y072263D01*
X045453Y072186D01*
X045222Y072186D02*
X044916Y072186D01*
X045146Y072416D01*
X045146Y071956D01*
X044762Y071956D02*
X044609Y072110D01*
X044685Y072110D02*
X044455Y072110D01*
X044455Y071956D02*
X044455Y072416D01*
X044685Y072416D01*
X044762Y072340D01*
X044762Y072186D01*
X044685Y072110D01*
X041802Y071416D02*
X041495Y071416D01*
X041495Y071186D01*
X041648Y071263D01*
X041725Y071263D01*
X041802Y071186D01*
X041802Y071033D01*
X041725Y070956D01*
X041571Y070956D01*
X041495Y071033D01*
X041341Y071186D02*
X041034Y071186D01*
X041265Y071416D01*
X041265Y070956D01*
X040881Y070956D02*
X040727Y071110D01*
X040804Y071110D02*
X040574Y071110D01*
X040574Y070956D02*
X040574Y071416D01*
X040804Y071416D01*
X040881Y071340D01*
X040881Y071186D01*
X040804Y071110D01*
X040804Y070416D02*
X040651Y070416D01*
X040574Y070340D01*
X040574Y070033D01*
X040651Y069956D01*
X040804Y069956D01*
X040881Y070033D01*
X041034Y069956D02*
X041341Y069956D01*
X041188Y069956D02*
X041188Y070416D01*
X041034Y070263D01*
X040881Y070340D02*
X040804Y070416D01*
X041495Y070416D02*
X041495Y070186D01*
X041648Y070263D01*
X041725Y070263D01*
X041802Y070186D01*
X041802Y070033D01*
X041725Y069956D01*
X041571Y069956D01*
X041495Y070033D01*
X041495Y070416D02*
X041802Y070416D01*
X042455Y068716D02*
X042455Y068333D01*
X042532Y068256D01*
X042685Y068256D01*
X042762Y068333D01*
X042762Y068716D01*
X042916Y068640D02*
X042992Y068716D01*
X043146Y068716D01*
X043222Y068640D01*
X043376Y068640D02*
X043376Y068563D01*
X043453Y068486D01*
X043606Y068486D01*
X043683Y068410D01*
X043683Y068333D01*
X043606Y068256D01*
X043453Y068256D01*
X043376Y068333D01*
X043376Y068410D01*
X043453Y068486D01*
X043606Y068486D02*
X043683Y068563D01*
X043683Y068640D01*
X043606Y068716D01*
X043453Y068716D01*
X043376Y068640D01*
X043146Y068486D02*
X042992Y068486D01*
X042916Y068563D01*
X042916Y068640D01*
X043069Y068793D02*
X043069Y068179D01*
X042992Y068256D02*
X043146Y068256D01*
X043222Y068333D01*
X043222Y068410D01*
X043146Y068486D01*
X042916Y068333D02*
X042992Y068256D01*
X044955Y066147D02*
X045185Y065916D01*
X045415Y066147D02*
X044955Y066147D01*
X047955Y066186D02*
X048032Y066263D01*
X048185Y066263D01*
X048262Y066186D01*
X048262Y065956D01*
X048415Y065956D02*
X047955Y065956D01*
X047955Y066186D01*
X047955Y066416D02*
X048185Y066416D01*
X048108Y066570D01*
X048108Y066647D01*
X048185Y066723D01*
X048339Y066723D01*
X048415Y066647D01*
X048415Y066493D01*
X048339Y066416D01*
X048415Y066263D02*
X048262Y066110D01*
X047955Y066416D02*
X047955Y066723D01*
X047955Y066877D02*
X048185Y066877D01*
X048108Y067030D01*
X048108Y067107D01*
X048185Y067184D01*
X048339Y067184D01*
X048415Y067107D01*
X048415Y066954D01*
X048339Y066877D01*
X047955Y066877D02*
X047955Y067184D01*
X047955Y067456D02*
X047955Y067686D01*
X048032Y067763D01*
X048185Y067763D01*
X048262Y067686D01*
X048262Y067456D01*
X048415Y067456D02*
X047955Y067456D01*
X048262Y067610D02*
X048415Y067763D01*
X048339Y067916D02*
X048415Y067993D01*
X048415Y068147D01*
X048339Y068223D01*
X048185Y068223D01*
X048108Y068147D01*
X048108Y068070D01*
X048185Y067916D01*
X047955Y067916D01*
X047955Y068223D01*
X048185Y068377D02*
X048185Y068607D01*
X048262Y068684D01*
X048339Y068684D01*
X048415Y068607D01*
X048415Y068454D01*
X048339Y068377D01*
X048185Y068377D01*
X048032Y068530D01*
X047955Y068684D01*
X048651Y069956D02*
X048804Y069956D01*
X048881Y070033D01*
X049034Y069956D02*
X049341Y069956D01*
X049188Y069956D02*
X049188Y070416D01*
X049034Y070263D01*
X048881Y070340D02*
X048804Y070416D01*
X048651Y070416D01*
X048574Y070340D01*
X048574Y070033D01*
X048651Y069956D01*
X049495Y070033D02*
X049571Y069956D01*
X049725Y069956D01*
X049802Y070033D01*
X049802Y070340D01*
X049725Y070416D01*
X049571Y070416D01*
X049495Y070340D01*
X049495Y070263D01*
X049571Y070186D01*
X049802Y070186D01*
X049495Y070956D02*
X049495Y071033D01*
X049802Y071340D01*
X049802Y071416D01*
X049495Y071416D01*
X049341Y071416D02*
X049034Y071416D01*
X049034Y071186D01*
X049188Y071263D01*
X049265Y071263D01*
X049341Y071186D01*
X049341Y071033D01*
X049265Y070956D01*
X049111Y070956D01*
X049034Y071033D01*
X048881Y070956D02*
X048727Y071110D01*
X048804Y071110D02*
X048574Y071110D01*
X048574Y070956D02*
X048574Y071416D01*
X048804Y071416D01*
X048881Y071340D01*
X048881Y071186D01*
X048804Y071110D01*
X050455Y068716D02*
X050455Y068333D01*
X050532Y068256D01*
X050685Y068256D01*
X050762Y068333D01*
X050762Y068716D01*
X050916Y068640D02*
X050992Y068716D01*
X051146Y068716D01*
X051222Y068640D01*
X051146Y068486D02*
X050992Y068486D01*
X050916Y068563D01*
X050916Y068640D01*
X051069Y068793D02*
X051069Y068179D01*
X050992Y068256D02*
X051146Y068256D01*
X051222Y068333D01*
X051222Y068410D01*
X051146Y068486D01*
X051376Y068563D02*
X051529Y068716D01*
X051529Y068256D01*
X051376Y068256D02*
X051683Y068256D01*
X051836Y068333D02*
X052143Y068640D01*
X052143Y068333D01*
X052066Y068256D01*
X051913Y068256D01*
X051836Y068333D01*
X051836Y068640D01*
X051913Y068716D01*
X052066Y068716D01*
X052143Y068640D01*
X052955Y069033D02*
X052955Y069340D01*
X053032Y069416D01*
X053185Y069416D01*
X053262Y069340D01*
X053416Y069186D02*
X053722Y069186D01*
X053876Y069033D02*
X053953Y068956D01*
X054106Y068956D01*
X054183Y069033D01*
X054183Y069110D01*
X054106Y069186D01*
X054029Y069186D01*
X054106Y069186D02*
X054183Y069263D01*
X054183Y069340D01*
X054106Y069416D01*
X053953Y069416D01*
X053876Y069340D01*
X053646Y069416D02*
X053416Y069186D01*
X053262Y069033D02*
X053185Y068956D01*
X053032Y068956D01*
X052955Y069033D01*
X053646Y068956D02*
X053646Y069416D01*
X053646Y069956D02*
X053646Y070416D01*
X053416Y070186D01*
X053722Y070186D01*
X053876Y070186D02*
X054183Y070186D01*
X054106Y069956D02*
X054106Y070416D01*
X053876Y070186D01*
X053262Y070033D02*
X053185Y069956D01*
X053032Y069956D01*
X052955Y070033D01*
X052955Y070340D01*
X053032Y070416D01*
X053185Y070416D01*
X053262Y070340D01*
X053222Y070956D02*
X052916Y070956D01*
X053222Y071263D01*
X053222Y071340D01*
X053146Y071416D01*
X052992Y071416D01*
X052916Y071340D01*
X052762Y071340D02*
X052685Y071416D01*
X052532Y071416D01*
X052455Y071340D01*
X052455Y071033D01*
X052532Y070956D01*
X052685Y070956D01*
X052762Y071033D01*
X053376Y071033D02*
X053683Y071340D01*
X053683Y071033D01*
X053606Y070956D01*
X053453Y070956D01*
X053376Y071033D01*
X053376Y071340D01*
X053453Y071416D01*
X053606Y071416D01*
X053683Y071340D01*
X053606Y071956D02*
X053453Y071956D01*
X053376Y072033D01*
X053683Y072340D01*
X053683Y072033D01*
X053606Y071956D01*
X053376Y072033D02*
X053376Y072340D01*
X053453Y072416D01*
X053606Y072416D01*
X053683Y072340D01*
X053222Y072416D02*
X053069Y072340D01*
X052916Y072186D01*
X053146Y072186D01*
X053222Y072110D01*
X053222Y072033D01*
X053146Y071956D01*
X052992Y071956D01*
X052916Y072033D01*
X052916Y072186D01*
X052762Y072186D02*
X052685Y072110D01*
X052455Y072110D01*
X052609Y072110D02*
X052762Y071956D01*
X052762Y072186D02*
X052762Y072340D01*
X052685Y072416D01*
X052455Y072416D01*
X052455Y071956D01*
X053032Y068184D02*
X052955Y068107D01*
X052955Y067954D01*
X053032Y067877D01*
X053108Y067877D01*
X053185Y067954D01*
X053185Y068184D01*
X053032Y068184D02*
X053339Y068184D01*
X053415Y068107D01*
X053415Y067954D01*
X053339Y067877D01*
X053339Y067723D02*
X053415Y067647D01*
X053415Y067493D01*
X053339Y067416D01*
X053185Y067416D02*
X053108Y067570D01*
X053108Y067647D01*
X053185Y067723D01*
X053339Y067723D01*
X053185Y067416D02*
X052955Y067416D01*
X052955Y067723D01*
X053032Y067263D02*
X053185Y067263D01*
X053262Y067186D01*
X053262Y066956D01*
X053415Y066956D02*
X052955Y066956D01*
X052955Y067186D01*
X053032Y067263D01*
X053262Y067110D02*
X053415Y067263D01*
X053339Y066684D02*
X053415Y066607D01*
X053415Y066454D01*
X053339Y066377D01*
X053262Y066377D01*
X053185Y066454D01*
X053185Y066607D01*
X053262Y066684D01*
X053339Y066684D01*
X053185Y066607D02*
X053108Y066684D01*
X053032Y066684D01*
X052955Y066607D01*
X052955Y066454D01*
X053032Y066377D01*
X053108Y066377D01*
X053185Y066454D01*
X053185Y066223D02*
X053339Y066223D01*
X053415Y066147D01*
X053415Y065993D01*
X053339Y065916D01*
X053185Y065916D02*
X053108Y066070D01*
X053108Y066147D01*
X053185Y066223D01*
X052955Y066223D02*
X052955Y065916D01*
X053185Y065916D01*
X053185Y065763D02*
X053262Y065686D01*
X053262Y065456D01*
X053415Y065456D02*
X052955Y065456D01*
X052955Y065686D01*
X053032Y065763D01*
X053185Y065763D01*
X053262Y065610D02*
X053415Y065763D01*
X050992Y068256D02*
X050916Y068333D01*
X057114Y064916D02*
X057114Y064456D01*
X057222Y064416D02*
X057069Y064340D01*
X058034Y064533D02*
X058111Y064456D01*
X058265Y064456D01*
X058341Y064533D01*
X058341Y064610D01*
X058265Y064686D01*
X058188Y064686D01*
X058265Y064686D02*
X058341Y064763D01*
X058341Y064840D01*
X058265Y064916D01*
X058111Y064916D01*
X058034Y064840D01*
X058495Y064916D02*
X058495Y064686D01*
X058648Y064763D01*
X058725Y064763D01*
X058802Y064686D01*
X058802Y064533D01*
X058725Y064456D01*
X058571Y064456D01*
X058495Y064533D01*
X058614Y064610D02*
X058844Y064610D01*
X058921Y064686D01*
X058921Y064840D01*
X058844Y064916D01*
X058614Y064916D01*
X058614Y064456D01*
X058767Y064610D02*
X058921Y064456D01*
X059074Y064456D02*
X059381Y064456D01*
X059227Y064456D02*
X059227Y064916D01*
X059074Y064763D01*
X058802Y064916D02*
X058495Y064916D01*
X059534Y064840D02*
X059611Y064916D01*
X059765Y064916D01*
X059841Y064840D01*
X059841Y064763D01*
X059765Y064686D01*
X059841Y064610D01*
X059841Y064533D01*
X059765Y064456D01*
X059611Y064456D01*
X059534Y064533D01*
X059688Y064686D02*
X059765Y064686D01*
X059995Y064686D02*
X060225Y064686D01*
X060302Y064610D01*
X060302Y064533D01*
X060225Y064456D01*
X060071Y064456D01*
X059995Y064533D01*
X059995Y064686D01*
X060148Y064840D01*
X060302Y064916D01*
X061032Y066377D02*
X061339Y066377D01*
X055990Y060716D02*
X055836Y060563D01*
X055990Y060716D02*
X055990Y060256D01*
X056143Y060256D02*
X055836Y060256D01*
X055683Y060256D02*
X055376Y060256D01*
X055529Y060256D02*
X055529Y060716D01*
X055376Y060563D01*
X055222Y060640D02*
X055146Y060716D01*
X054992Y060716D01*
X054916Y060640D01*
X054916Y060563D01*
X054992Y060486D01*
X055146Y060486D01*
X055222Y060410D01*
X055222Y060333D01*
X055146Y060256D01*
X054992Y060256D01*
X054916Y060333D01*
X054762Y060333D02*
X054762Y060716D01*
X054455Y060716D02*
X054455Y060333D01*
X054532Y060256D01*
X054685Y060256D01*
X054762Y060333D01*
X055069Y060179D02*
X055069Y060793D01*
X047683Y060640D02*
X047606Y060716D01*
X047453Y060716D01*
X047376Y060640D01*
X047376Y060563D01*
X047453Y060486D01*
X047683Y060486D01*
X047683Y060333D02*
X047683Y060640D01*
X047683Y060333D02*
X047606Y060256D01*
X047453Y060256D01*
X047376Y060333D01*
X047222Y060333D02*
X047222Y060410D01*
X047146Y060486D01*
X046992Y060486D01*
X046916Y060563D01*
X046916Y060640D01*
X046992Y060716D01*
X047146Y060716D01*
X047222Y060640D01*
X047069Y060793D02*
X047069Y060179D01*
X046992Y060256D02*
X047146Y060256D01*
X047222Y060333D01*
X046992Y060256D02*
X046916Y060333D01*
X046762Y060333D02*
X046762Y060716D01*
X046455Y060716D02*
X046455Y060333D01*
X046532Y060256D01*
X046685Y060256D01*
X046762Y060333D01*
X044415Y058647D02*
X043955Y058647D01*
X044185Y058416D01*
X039683Y060640D02*
X039376Y060333D01*
X039376Y060256D01*
X039222Y060333D02*
X039222Y060410D01*
X039146Y060486D01*
X038992Y060486D01*
X038916Y060563D01*
X038916Y060640D01*
X038992Y060716D01*
X039146Y060716D01*
X039222Y060640D01*
X039376Y060716D02*
X039683Y060716D01*
X039683Y060640D01*
X039222Y060333D02*
X039146Y060256D01*
X038992Y060256D01*
X038916Y060333D01*
X038762Y060333D02*
X038762Y060716D01*
X038455Y060716D02*
X038455Y060333D01*
X038532Y060256D01*
X038685Y060256D01*
X038762Y060333D01*
X039069Y060179D02*
X039069Y060793D01*
X037606Y071956D02*
X037453Y071956D01*
X037376Y072033D01*
X037376Y072186D01*
X037606Y072186D01*
X037683Y072110D01*
X037683Y072033D01*
X037606Y071956D01*
X037376Y072186D02*
X037529Y072340D01*
X037683Y072416D01*
X027819Y051416D02*
X027819Y050956D01*
X027666Y050956D02*
X027972Y050956D01*
X027666Y051263D02*
X027819Y051416D01*
X027512Y051416D02*
X027359Y051416D01*
X027435Y051416D02*
X027435Y051033D01*
X027359Y050956D01*
X027282Y050956D01*
X027205Y051033D01*
X031955Y043530D02*
X032415Y043530D01*
X032415Y043377D02*
X032415Y043684D01*
X032108Y043377D02*
X031955Y043530D01*
X031955Y043223D02*
X031955Y042916D01*
X032185Y042916D01*
X032108Y043070D01*
X032108Y043147D01*
X032185Y043223D01*
X032339Y043223D01*
X032415Y043147D01*
X032415Y042993D01*
X032339Y042916D01*
X032339Y042763D02*
X032415Y042686D01*
X032415Y042533D01*
X032339Y042456D01*
X032032Y042456D01*
X031955Y042533D01*
X031955Y042686D01*
X032032Y042763D01*
X032955Y042686D02*
X032955Y042533D01*
X033032Y042456D01*
X033339Y042456D01*
X033415Y042533D01*
X033415Y042686D01*
X033339Y042763D01*
X033339Y042916D02*
X033415Y042993D01*
X033415Y043147D01*
X033339Y043223D01*
X033185Y043223D01*
X033108Y043147D01*
X033108Y043070D01*
X033185Y042916D01*
X032955Y042916D01*
X032955Y043223D01*
X033032Y043377D02*
X032955Y043454D01*
X032955Y043607D01*
X033032Y043684D01*
X033108Y043684D01*
X033415Y043377D01*
X033415Y043684D01*
X033032Y042763D02*
X032955Y042686D01*
X026225Y035416D02*
X026302Y035340D01*
X026302Y035263D01*
X026225Y035186D01*
X026302Y035110D01*
X026302Y035033D01*
X026225Y034956D01*
X026071Y034956D01*
X025995Y035033D01*
X025841Y035033D02*
X025765Y034956D01*
X025611Y034956D01*
X025534Y035033D01*
X025381Y035033D02*
X025304Y034956D01*
X025151Y034956D01*
X025074Y035033D01*
X025074Y035340D01*
X025151Y035416D01*
X025304Y035416D01*
X025381Y035340D01*
X025534Y035416D02*
X025534Y035186D01*
X025688Y035263D01*
X025765Y035263D01*
X025841Y035186D01*
X025841Y035033D01*
X025995Y035340D02*
X026071Y035416D01*
X026225Y035416D01*
X026225Y035186D02*
X026148Y035186D01*
X025841Y035416D02*
X025534Y035416D01*
X025534Y034416D02*
X025534Y034186D01*
X025688Y034263D01*
X025765Y034263D01*
X025841Y034186D01*
X025841Y034033D01*
X025765Y033956D01*
X025611Y033956D01*
X025534Y034033D01*
X025381Y034033D02*
X025304Y033956D01*
X025151Y033956D01*
X025074Y034033D01*
X025074Y034340D01*
X025151Y034416D01*
X025304Y034416D01*
X025381Y034340D01*
X025534Y034416D02*
X025841Y034416D01*
X025995Y034186D02*
X026302Y034186D01*
X026225Y033956D02*
X026225Y034416D01*
X025995Y034186D01*
X016415Y041362D02*
X016339Y041285D01*
X016415Y041362D02*
X016415Y041439D01*
X016339Y041516D01*
X015955Y041516D01*
X015955Y041592D02*
X015955Y041439D01*
X016185Y041746D02*
X015955Y041976D01*
X016415Y041976D01*
X016185Y042053D02*
X016185Y041746D01*
X005488Y041257D02*
X005335Y041180D01*
X005181Y041027D01*
X005411Y041027D01*
X005488Y040950D01*
X005488Y040873D01*
X005411Y040797D01*
X005258Y040797D01*
X005181Y040873D01*
X005181Y041027D01*
X005028Y040950D02*
X005028Y040873D01*
X004951Y040797D01*
X004798Y040797D01*
X004721Y040873D01*
X004798Y041027D02*
X004721Y041104D01*
X004721Y041180D01*
X004798Y041257D01*
X004951Y041257D01*
X005028Y041180D01*
X004951Y041027D02*
X005028Y040950D01*
X004951Y041027D02*
X004798Y041027D01*
X004798Y045297D02*
X004721Y045373D01*
X004798Y045297D02*
X004951Y045297D01*
X005028Y045373D01*
X005028Y045450D01*
X004951Y045527D01*
X004798Y045527D01*
X004721Y045604D01*
X004721Y045680D01*
X004798Y045757D01*
X004951Y045757D01*
X005028Y045680D01*
X005181Y045757D02*
X005488Y045757D01*
X005488Y045680D01*
X005181Y045373D01*
X005181Y045297D01*
X004975Y046206D02*
X004821Y046206D01*
X004745Y046283D01*
X005052Y046590D01*
X005052Y046283D01*
X004975Y046206D01*
X004745Y046283D02*
X004745Y046590D01*
X004821Y046666D01*
X004975Y046666D01*
X005052Y046590D01*
X004591Y046436D02*
X004284Y046436D01*
X004515Y046666D01*
X004515Y046206D01*
X004131Y046206D02*
X003824Y046206D01*
X003977Y046206D02*
X003977Y046666D01*
X003824Y046513D01*
X003671Y046436D02*
X003594Y046360D01*
X003364Y046360D01*
X003517Y046360D02*
X003671Y046206D01*
X003671Y046436D02*
X003671Y046590D01*
X003594Y046666D01*
X003364Y046666D01*
X003364Y046206D01*
X004798Y027757D02*
X004721Y027680D01*
X004721Y027604D01*
X004798Y027527D01*
X004951Y027527D01*
X005028Y027450D01*
X005028Y027373D01*
X004951Y027297D01*
X004798Y027297D01*
X004721Y027373D01*
X004798Y027757D02*
X004951Y027757D01*
X005028Y027680D01*
X005181Y027757D02*
X005181Y027527D01*
X005335Y027604D01*
X005411Y027604D01*
X005488Y027527D01*
X005488Y027373D01*
X005411Y027297D01*
X005258Y027297D01*
X005181Y027373D01*
X005181Y027757D02*
X005488Y027757D01*
X005475Y018166D02*
X005321Y018166D01*
X005245Y018090D01*
X005245Y018013D01*
X005321Y017936D01*
X005552Y017936D01*
X005552Y017783D02*
X005552Y018090D01*
X005475Y018166D01*
X005552Y017783D02*
X005475Y017706D01*
X005321Y017706D01*
X005245Y017783D01*
X005091Y017783D02*
X005015Y017706D01*
X004861Y017706D01*
X004784Y017783D01*
X004631Y017706D02*
X004324Y017706D01*
X004477Y017706D02*
X004477Y018166D01*
X004324Y018013D01*
X004171Y017936D02*
X004094Y017860D01*
X003864Y017860D01*
X004017Y017860D02*
X004171Y017706D01*
X004171Y017936D02*
X004171Y018090D01*
X004094Y018166D01*
X003864Y018166D01*
X003864Y017706D01*
X004784Y018090D02*
X004861Y018166D01*
X005015Y018166D01*
X005091Y018090D01*
X005091Y018013D01*
X005015Y017936D01*
X005091Y017860D01*
X005091Y017783D01*
X005015Y017936D02*
X004938Y017936D01*
X019205Y005476D02*
X019282Y005553D01*
X019358Y005553D01*
X019435Y005476D01*
X019435Y005322D01*
X019358Y005246D01*
X019282Y005246D01*
X019205Y005322D01*
X019205Y005476D01*
X019435Y005476D02*
X019512Y005553D01*
X019589Y005553D01*
X019665Y005476D01*
X019665Y005322D01*
X019589Y005246D01*
X019512Y005246D01*
X019435Y005322D01*
X019358Y005092D02*
X019435Y005015D01*
X019512Y005092D01*
X019589Y005092D01*
X019665Y005015D01*
X019665Y004862D01*
X019589Y004785D01*
X019665Y004632D02*
X019665Y004325D01*
X019665Y004478D02*
X019205Y004478D01*
X019358Y004325D01*
X019282Y004171D02*
X019435Y004171D01*
X019512Y004095D01*
X019512Y003865D01*
X019512Y004018D02*
X019665Y004171D01*
X019665Y003865D02*
X019205Y003865D01*
X019205Y004095D01*
X019282Y004171D01*
X019282Y004785D02*
X019205Y004862D01*
X019205Y005015D01*
X019282Y005092D01*
X019358Y005092D01*
X019435Y005015D02*
X019435Y004939D01*
X027282Y015956D02*
X027359Y015956D01*
X027435Y016033D01*
X027435Y016416D01*
X027359Y016416D02*
X027512Y016416D01*
X027666Y016340D02*
X027742Y016416D01*
X027896Y016416D01*
X027972Y016340D01*
X027972Y016263D01*
X027896Y016186D01*
X027972Y016110D01*
X027972Y016033D01*
X027896Y015956D01*
X027742Y015956D01*
X027666Y016033D01*
X027819Y016186D02*
X027896Y016186D01*
X027282Y015956D02*
X027205Y016033D01*
X038114Y008836D02*
X038575Y008836D01*
X038575Y008989D02*
X038575Y008682D01*
X038498Y008529D02*
X038575Y008452D01*
X038575Y008299D01*
X038498Y008222D01*
X038344Y008299D02*
X038344Y008452D01*
X038421Y008529D01*
X038498Y008529D01*
X038268Y008682D02*
X038114Y008836D01*
X038191Y008529D02*
X038114Y008452D01*
X038114Y008299D01*
X038191Y008222D01*
X038268Y008222D01*
X038344Y008299D01*
X044811Y005580D02*
X045118Y005580D01*
X044965Y005580D02*
X044965Y005120D01*
X045272Y005120D02*
X045272Y005580D01*
X045502Y005580D01*
X045579Y005503D01*
X045579Y005350D01*
X045502Y005273D01*
X045272Y005273D01*
X045732Y005120D02*
X046039Y005120D01*
X045886Y005120D02*
X045886Y005580D01*
X045732Y005426D01*
X046455Y005416D02*
X046455Y004956D01*
X046455Y005110D02*
X046685Y005110D01*
X046762Y005186D01*
X046762Y005340D01*
X046685Y005416D01*
X046455Y005416D01*
X046609Y005110D02*
X046762Y004956D01*
X046916Y004956D02*
X047222Y004956D01*
X047069Y004956D02*
X047069Y005416D01*
X046916Y005263D01*
X047376Y005340D02*
X047453Y005416D01*
X047606Y005416D01*
X047683Y005340D01*
X047683Y005263D01*
X047376Y004956D01*
X047683Y004956D01*
X047836Y004956D02*
X047836Y005033D01*
X048143Y005340D01*
X048143Y005416D01*
X047836Y005416D01*
X047811Y005580D02*
X048118Y005580D01*
X047965Y005580D02*
X047965Y005120D01*
X048272Y005120D02*
X048272Y005580D01*
X048502Y005580D01*
X048579Y005503D01*
X048579Y005350D01*
X048502Y005273D01*
X048272Y005273D01*
X048732Y005120D02*
X049039Y005426D01*
X049039Y005503D01*
X048962Y005580D01*
X048809Y005580D01*
X048732Y005503D01*
X048732Y005120D02*
X049039Y005120D01*
X049455Y005110D02*
X049685Y005110D01*
X049762Y005186D01*
X049762Y005340D01*
X049685Y005416D01*
X049455Y005416D01*
X049455Y004956D01*
X049609Y005110D02*
X049762Y004956D01*
X049916Y004956D02*
X050222Y004956D01*
X050069Y004956D02*
X050069Y005416D01*
X049916Y005263D01*
X050376Y005340D02*
X050453Y005416D01*
X050606Y005416D01*
X050683Y005340D01*
X050683Y005263D01*
X050376Y004956D01*
X050683Y004956D01*
X050836Y005033D02*
X050836Y005110D01*
X050913Y005186D01*
X051066Y005186D01*
X051143Y005110D01*
X051143Y005033D01*
X051066Y004956D01*
X050913Y004956D01*
X050836Y005033D01*
X050965Y005120D02*
X050965Y005580D01*
X051118Y005580D02*
X050811Y005580D01*
X050913Y005416D02*
X051066Y005416D01*
X051143Y005340D01*
X051143Y005263D01*
X051066Y005186D01*
X050913Y005186D02*
X050836Y005263D01*
X050836Y005340D01*
X050913Y005416D01*
X051272Y005273D02*
X051502Y005273D01*
X051579Y005350D01*
X051579Y005503D01*
X051502Y005580D01*
X051272Y005580D01*
X051272Y005120D01*
X051732Y005196D02*
X051809Y005120D01*
X051962Y005120D01*
X052039Y005196D01*
X052039Y005273D01*
X051962Y005350D01*
X051886Y005350D01*
X051962Y005350D02*
X052039Y005426D01*
X052039Y005503D01*
X051962Y005580D01*
X051809Y005580D01*
X051732Y005503D01*
X052455Y005416D02*
X052455Y004956D01*
X052455Y005110D02*
X052685Y005110D01*
X052762Y005186D01*
X052762Y005340D01*
X052685Y005416D01*
X052455Y005416D01*
X052609Y005110D02*
X052762Y004956D01*
X052916Y004956D02*
X053222Y004956D01*
X053069Y004956D02*
X053069Y005416D01*
X052916Y005263D01*
X053376Y005340D02*
X053453Y005416D01*
X053606Y005416D01*
X053683Y005340D01*
X053683Y005263D01*
X053376Y004956D01*
X053683Y004956D01*
X053836Y005033D02*
X053913Y004956D01*
X054066Y004956D01*
X054143Y005033D01*
X054143Y005340D01*
X054066Y005416D01*
X053913Y005416D01*
X053836Y005340D01*
X053836Y005263D01*
X053913Y005186D01*
X054143Y005186D01*
X055630Y005074D02*
X055784Y005074D01*
X055630Y004844D02*
X055937Y004844D01*
X056091Y004997D02*
X056244Y004844D01*
X056398Y004997D01*
X056398Y005304D01*
X056551Y005228D02*
X056628Y005304D01*
X056781Y005304D01*
X056858Y005228D01*
X056858Y004921D01*
X056781Y004844D01*
X056628Y004844D01*
X056551Y004921D01*
X056551Y005228D01*
X056705Y004997D02*
X056858Y004844D01*
X057011Y004844D02*
X057011Y005304D01*
X057242Y005304D01*
X057318Y005228D01*
X057318Y005074D01*
X057242Y004997D01*
X057011Y004997D01*
X057472Y005074D02*
X057779Y005074D01*
X057779Y005151D02*
X057779Y004844D01*
X057779Y005151D02*
X057625Y005304D01*
X057472Y005151D01*
X057472Y004844D01*
X056091Y004997D02*
X056091Y005304D01*
X055937Y005304D02*
X055630Y005304D01*
X055630Y004844D01*
X055707Y009076D02*
X055630Y009153D01*
X055707Y009076D02*
X055861Y009076D01*
X055937Y009153D01*
X055937Y009230D01*
X055861Y009306D01*
X055707Y009306D01*
X055630Y009383D01*
X055630Y009460D01*
X055707Y009537D01*
X055861Y009537D01*
X055937Y009460D01*
X056091Y009460D02*
X056167Y009537D01*
X056321Y009537D01*
X056398Y009460D01*
X056398Y009383D01*
X056091Y009076D01*
X056398Y009076D01*
X062074Y008840D02*
X062074Y008533D01*
X062151Y008456D01*
X062304Y008456D01*
X062381Y008533D01*
X062534Y008533D02*
X062611Y008456D01*
X062765Y008456D01*
X062841Y008533D01*
X062841Y008840D01*
X062765Y008916D01*
X062611Y008916D01*
X062534Y008840D01*
X062534Y008763D01*
X062611Y008686D01*
X062841Y008686D01*
X062995Y008686D02*
X063148Y008763D01*
X063225Y008763D01*
X063302Y008686D01*
X063302Y008533D01*
X063225Y008456D01*
X063071Y008456D01*
X062995Y008533D01*
X062995Y008686D02*
X062995Y008916D01*
X063302Y008916D01*
X062381Y008840D02*
X062304Y008916D01*
X062151Y008916D01*
X062074Y008840D01*
X062190Y009956D02*
X062344Y009956D01*
X062421Y010033D01*
X062421Y010416D01*
X062574Y010340D02*
X062651Y010416D01*
X062804Y010416D01*
X062881Y010340D01*
X063034Y010263D02*
X063188Y010416D01*
X063188Y009956D01*
X063341Y009956D02*
X063034Y009956D01*
X062881Y010033D02*
X062881Y010110D01*
X062804Y010186D01*
X062651Y010186D01*
X062574Y010263D01*
X062574Y010340D01*
X062727Y010493D02*
X062727Y009879D01*
X062651Y009956D02*
X062804Y009956D01*
X062881Y010033D01*
X062651Y009956D02*
X062574Y010033D01*
X062190Y009956D02*
X062114Y010033D01*
X062114Y010416D01*
X063495Y010186D02*
X063802Y010186D01*
X063725Y009956D02*
X063725Y010416D01*
X063495Y010186D01*
X065114Y010033D02*
X065190Y009956D01*
X065344Y009956D01*
X065421Y010033D01*
X065421Y010416D01*
X065574Y010340D02*
X065651Y010416D01*
X065804Y010416D01*
X065881Y010340D01*
X066034Y010263D02*
X066188Y010416D01*
X066188Y009956D01*
X066341Y009956D02*
X066034Y009956D01*
X065881Y010033D02*
X065881Y010110D01*
X065804Y010186D01*
X065651Y010186D01*
X065574Y010263D01*
X065574Y010340D01*
X065727Y010493D02*
X065727Y009879D01*
X065651Y009956D02*
X065804Y009956D01*
X065881Y010033D01*
X065651Y009956D02*
X065574Y010033D01*
X065114Y010033D02*
X065114Y010416D01*
X066495Y010416D02*
X066495Y010186D01*
X066648Y010263D01*
X066725Y010263D01*
X066802Y010186D01*
X066802Y010033D01*
X066725Y009956D01*
X066571Y009956D01*
X066495Y010033D01*
X066532Y009916D02*
X066455Y009840D01*
X066455Y009533D01*
X066532Y009456D01*
X066685Y009456D01*
X066762Y009533D01*
X066916Y009533D02*
X066992Y009456D01*
X067146Y009456D01*
X067222Y009533D01*
X067222Y009840D01*
X067146Y009916D01*
X066992Y009916D01*
X066916Y009840D01*
X066916Y009763D01*
X066992Y009686D01*
X067222Y009686D01*
X067376Y009533D02*
X067376Y009456D01*
X067376Y009533D02*
X067683Y009840D01*
X067683Y009916D01*
X067376Y009916D01*
X066762Y009840D02*
X066685Y009916D01*
X066532Y009916D01*
X066495Y010416D02*
X066802Y010416D01*
X066683Y008916D02*
X066529Y008840D01*
X066376Y008686D01*
X066606Y008686D01*
X066683Y008610D01*
X066683Y008533D01*
X066606Y008456D01*
X066453Y008456D01*
X066376Y008533D01*
X066376Y008686D01*
X066222Y008686D02*
X065992Y008686D01*
X065916Y008763D01*
X065916Y008840D01*
X065992Y008916D01*
X066146Y008916D01*
X066222Y008840D01*
X066222Y008533D01*
X066146Y008456D01*
X065992Y008456D01*
X065916Y008533D01*
X065762Y008533D02*
X065685Y008456D01*
X065532Y008456D01*
X065455Y008533D01*
X065455Y008840D01*
X065532Y008916D01*
X065685Y008916D01*
X065762Y008840D01*
X063725Y006916D02*
X063495Y006686D01*
X063802Y006686D01*
X063725Y006456D02*
X063725Y006916D01*
X063341Y006840D02*
X063265Y006916D01*
X063111Y006916D01*
X063034Y006840D01*
X063034Y006763D01*
X063111Y006686D01*
X063341Y006686D01*
X063341Y006533D02*
X063341Y006840D01*
X063341Y006533D02*
X063265Y006456D01*
X063111Y006456D01*
X063034Y006533D01*
X062881Y006533D02*
X062804Y006456D01*
X062651Y006456D01*
X062574Y006533D01*
X062574Y006840D01*
X062651Y006916D01*
X062804Y006916D01*
X062881Y006840D01*
X062802Y012956D02*
X062495Y012956D01*
X062802Y013263D01*
X062802Y013340D01*
X062725Y013416D01*
X062571Y013416D01*
X062495Y013340D01*
X062341Y013340D02*
X062341Y013263D01*
X062265Y013186D01*
X062111Y013186D01*
X062034Y013263D01*
X062034Y013340D01*
X062111Y013416D01*
X062265Y013416D01*
X062341Y013340D01*
X062265Y013186D02*
X062341Y013110D01*
X062341Y013033D01*
X062265Y012956D01*
X062111Y012956D01*
X062034Y013033D01*
X062034Y013110D01*
X062111Y013186D01*
X061881Y013033D02*
X061804Y012956D01*
X061651Y012956D01*
X061574Y013033D01*
X061574Y013340D01*
X061651Y013416D01*
X061804Y013416D01*
X061881Y013340D01*
X062151Y013956D02*
X062304Y013956D01*
X062381Y014033D01*
X062534Y014033D02*
X062534Y014110D01*
X062611Y014186D01*
X062765Y014186D01*
X062841Y014110D01*
X062841Y014033D01*
X062765Y013956D01*
X062611Y013956D01*
X062534Y014033D01*
X062611Y014186D02*
X062534Y014263D01*
X062534Y014340D01*
X062611Y014416D01*
X062765Y014416D01*
X062841Y014340D01*
X062841Y014263D01*
X062765Y014186D01*
X062995Y014186D02*
X063148Y014263D01*
X063225Y014263D01*
X063302Y014186D01*
X063302Y014033D01*
X063225Y013956D01*
X063071Y013956D01*
X062995Y014033D01*
X062995Y014186D02*
X062995Y014416D01*
X063302Y014416D01*
X062381Y014340D02*
X062304Y014416D01*
X062151Y014416D01*
X062074Y014340D01*
X062074Y014033D01*
X062151Y013956D01*
X063955Y017535D02*
X064415Y017535D01*
X064415Y017842D01*
X064339Y017996D02*
X064415Y018072D01*
X064415Y018226D01*
X064339Y018303D01*
X064262Y018303D01*
X064185Y018226D01*
X064185Y017996D01*
X064339Y017996D01*
X064185Y017996D02*
X064032Y018149D01*
X063955Y018303D01*
X066455Y015840D02*
X066455Y015533D01*
X066532Y015456D01*
X066685Y015456D01*
X066762Y015533D01*
X066916Y015533D02*
X066916Y015610D01*
X066992Y015686D01*
X067146Y015686D01*
X067222Y015610D01*
X067222Y015533D01*
X067146Y015456D01*
X066992Y015456D01*
X066916Y015533D01*
X066992Y015686D02*
X066916Y015763D01*
X066916Y015840D01*
X066992Y015916D01*
X067146Y015916D01*
X067222Y015840D01*
X067222Y015763D01*
X067146Y015686D01*
X067376Y015686D02*
X067606Y015686D01*
X067683Y015610D01*
X067683Y015533D01*
X067606Y015456D01*
X067453Y015456D01*
X067376Y015533D01*
X067376Y015686D01*
X067529Y015840D01*
X067683Y015916D01*
X066762Y015840D02*
X066685Y015916D01*
X066532Y015916D01*
X066455Y015840D01*
X066532Y013916D02*
X066455Y013840D01*
X066455Y013533D01*
X066532Y013456D01*
X066685Y013456D01*
X066762Y013533D01*
X066916Y013533D02*
X066916Y013610D01*
X066992Y013686D01*
X067146Y013686D01*
X067222Y013610D01*
X067222Y013533D01*
X067146Y013456D01*
X066992Y013456D01*
X066916Y013533D01*
X066992Y013686D02*
X066916Y013763D01*
X066916Y013840D01*
X066992Y013916D01*
X067146Y013916D01*
X067222Y013840D01*
X067222Y013763D01*
X067146Y013686D01*
X067376Y013533D02*
X067453Y013456D01*
X067606Y013456D01*
X067683Y013533D01*
X067683Y013610D01*
X067606Y013686D01*
X067529Y013686D01*
X067606Y013686D02*
X067683Y013763D01*
X067683Y013840D01*
X067606Y013916D01*
X067453Y013916D01*
X067376Y013840D01*
X066762Y013840D02*
X066685Y013916D01*
X066532Y013916D01*
X067455Y017535D02*
X067915Y017535D01*
X067915Y017842D01*
X067839Y017996D02*
X067915Y018072D01*
X067915Y018226D01*
X067839Y018303D01*
X067685Y018303D01*
X067608Y018226D01*
X067608Y018149D01*
X067685Y017996D01*
X067455Y017996D01*
X067455Y018303D01*
X067339Y022456D02*
X067032Y022456D01*
X066955Y022533D01*
X066955Y022686D01*
X067032Y022763D01*
X067108Y022916D02*
X066955Y023070D01*
X067415Y023070D01*
X067415Y023223D02*
X067415Y022916D01*
X067339Y022763D02*
X067415Y022686D01*
X067415Y022533D01*
X067339Y022456D01*
X067339Y023377D02*
X067032Y023377D01*
X066955Y023454D01*
X066955Y023607D01*
X067032Y023684D01*
X067339Y023377D01*
X067415Y023454D01*
X067415Y023607D01*
X067339Y023684D01*
X067032Y023684D01*
X067032Y023837D02*
X066955Y023914D01*
X066955Y024067D01*
X067032Y024144D01*
X067339Y023837D01*
X067415Y023914D01*
X067415Y024067D01*
X067339Y024144D01*
X067032Y024144D01*
X067032Y023837D02*
X067339Y023837D01*
X065415Y023837D02*
X065415Y024144D01*
X065415Y023991D02*
X064955Y023991D01*
X065108Y023837D01*
X065032Y023684D02*
X065339Y023377D01*
X065415Y023454D01*
X065415Y023607D01*
X065339Y023684D01*
X065032Y023684D01*
X064955Y023607D01*
X064955Y023454D01*
X065032Y023377D01*
X065339Y023377D01*
X065415Y023223D02*
X065415Y022916D01*
X065415Y023070D02*
X064955Y023070D01*
X065108Y022916D01*
X065032Y022763D02*
X064955Y022686D01*
X064955Y022533D01*
X065032Y022456D01*
X065339Y022456D01*
X065415Y022533D01*
X065415Y022686D01*
X065339Y022763D01*
X071945Y024654D02*
X072022Y024577D01*
X072329Y024577D01*
X072405Y024654D01*
X072405Y024807D01*
X072329Y024884D01*
X072329Y025037D02*
X072405Y025114D01*
X072405Y025267D01*
X072329Y025344D01*
X072022Y025344D01*
X071945Y025267D01*
X071945Y025114D01*
X072022Y025037D01*
X072098Y025037D01*
X072175Y025114D01*
X072175Y025344D01*
X072098Y025498D02*
X072175Y025574D01*
X072175Y025805D01*
X072022Y025805D02*
X071945Y025728D01*
X071945Y025574D01*
X072022Y025498D01*
X072098Y025498D01*
X072329Y025498D02*
X072405Y025574D01*
X072405Y025728D01*
X072329Y025805D01*
X072022Y025805D01*
X072022Y024884D02*
X071945Y024807D01*
X071945Y024654D01*
X074945Y024654D02*
X075022Y024577D01*
X075329Y024577D01*
X075405Y024654D01*
X075405Y024807D01*
X075329Y024884D01*
X075329Y025037D02*
X075405Y025114D01*
X075405Y025267D01*
X075329Y025344D01*
X075022Y025344D01*
X074945Y025267D01*
X074945Y025114D01*
X075022Y025037D01*
X075098Y025037D01*
X075175Y025114D01*
X075175Y025344D01*
X075098Y025498D02*
X075022Y025498D01*
X074945Y025574D01*
X074945Y025728D01*
X075022Y025805D01*
X075098Y025805D01*
X075175Y025728D01*
X075175Y025574D01*
X075098Y025498D01*
X075175Y025574D02*
X075252Y025498D01*
X075329Y025498D01*
X075405Y025574D01*
X075405Y025728D01*
X075329Y025805D01*
X075252Y025805D01*
X075175Y025728D01*
X075022Y024884D02*
X074945Y024807D01*
X074945Y024654D01*
X072183Y030956D02*
X071876Y030956D01*
X072183Y031263D01*
X072183Y031340D01*
X072106Y031416D01*
X071953Y031416D01*
X071876Y031340D01*
X071722Y031340D02*
X071646Y031416D01*
X071492Y031416D01*
X071416Y031340D01*
X071416Y031263D01*
X071492Y031186D01*
X071722Y031186D01*
X071722Y031033D02*
X071722Y031340D01*
X071722Y031033D02*
X071646Y030956D01*
X071492Y030956D01*
X071416Y031033D01*
X071262Y031033D02*
X071185Y030956D01*
X071032Y030956D01*
X070955Y031033D01*
X070955Y031340D01*
X071032Y031416D01*
X071185Y031416D01*
X071262Y031340D01*
X072032Y032456D02*
X072185Y032456D01*
X072262Y032533D01*
X072416Y032533D02*
X072492Y032456D01*
X072646Y032456D01*
X072722Y032533D01*
X072722Y032840D01*
X072646Y032916D01*
X072492Y032916D01*
X072416Y032840D01*
X072416Y032763D01*
X072492Y032686D01*
X072722Y032686D01*
X072876Y032533D02*
X072953Y032456D01*
X073106Y032456D01*
X073183Y032533D01*
X073183Y032610D01*
X073106Y032686D01*
X073029Y032686D01*
X073106Y032686D02*
X073183Y032763D01*
X073183Y032840D01*
X073106Y032916D01*
X072953Y032916D01*
X072876Y032840D01*
X072262Y032840D02*
X072185Y032916D01*
X072032Y032916D01*
X071955Y032840D01*
X071955Y032533D01*
X072032Y032456D01*
X071727Y033879D02*
X071727Y034493D01*
X071651Y034416D02*
X071804Y034416D01*
X071881Y034340D01*
X072034Y034263D02*
X072188Y034416D01*
X072188Y033956D01*
X072341Y033956D02*
X072034Y033956D01*
X071881Y034033D02*
X071881Y034110D01*
X071804Y034186D01*
X071651Y034186D01*
X071574Y034263D01*
X071574Y034340D01*
X071651Y034416D01*
X071421Y034416D02*
X071421Y034033D01*
X071344Y033956D01*
X071190Y033956D01*
X071114Y034033D01*
X071114Y034416D01*
X071574Y034033D02*
X071651Y033956D01*
X071804Y033956D01*
X071881Y034033D01*
X072495Y034033D02*
X072571Y033956D01*
X072725Y033956D01*
X072802Y034033D01*
X072802Y034110D01*
X072725Y034186D01*
X072648Y034186D01*
X072725Y034186D02*
X072802Y034263D01*
X072802Y034340D01*
X072725Y034416D01*
X072571Y034416D01*
X072495Y034340D01*
X072532Y037456D02*
X072685Y037456D01*
X072762Y037533D01*
X072916Y037533D02*
X072916Y037610D01*
X072992Y037686D01*
X073146Y037686D01*
X073222Y037610D01*
X073222Y037533D01*
X073146Y037456D01*
X072992Y037456D01*
X072916Y037533D01*
X072992Y037686D02*
X072916Y037763D01*
X072916Y037840D01*
X072992Y037916D01*
X073146Y037916D01*
X073222Y037840D01*
X073222Y037763D01*
X073146Y037686D01*
X073376Y037763D02*
X073529Y037916D01*
X073529Y037456D01*
X073376Y037456D02*
X073683Y037456D01*
X072762Y037840D02*
X072685Y037916D01*
X072532Y037916D01*
X072455Y037840D01*
X072455Y037533D01*
X072532Y037456D01*
X072492Y039456D02*
X072416Y039533D01*
X072416Y039610D01*
X072492Y039686D01*
X072646Y039686D01*
X072722Y039610D01*
X072722Y039533D01*
X072646Y039456D01*
X072492Y039456D01*
X072492Y039686D02*
X072416Y039763D01*
X072416Y039840D01*
X072492Y039916D01*
X072646Y039916D01*
X072722Y039840D01*
X072722Y039763D01*
X072646Y039686D01*
X072876Y039686D02*
X073183Y039686D01*
X073106Y039456D02*
X073106Y039916D01*
X072876Y039686D01*
X072262Y039533D02*
X072185Y039456D01*
X072032Y039456D01*
X071955Y039533D01*
X071955Y039840D01*
X072032Y039916D01*
X072185Y039916D01*
X072262Y039840D01*
X073534Y039916D02*
X073534Y039456D01*
X073841Y039456D01*
X073995Y039456D02*
X073995Y039533D01*
X074302Y039840D01*
X074302Y039916D01*
X073995Y039916D01*
X066911Y042797D02*
X066911Y043257D01*
X066681Y043027D01*
X066988Y043027D01*
X066528Y042950D02*
X066451Y043027D01*
X066298Y043027D01*
X066221Y043104D01*
X066221Y043180D01*
X066298Y043257D01*
X066451Y043257D01*
X066528Y043180D01*
X066528Y042950D02*
X066528Y042873D01*
X066451Y042797D01*
X066298Y042797D01*
X066221Y042873D01*
X061339Y048785D02*
X061415Y048862D01*
X061415Y048939D01*
X061339Y049016D01*
X060955Y049016D01*
X060955Y049092D02*
X060955Y048939D01*
X061032Y049246D02*
X060955Y049322D01*
X060955Y049476D01*
X061032Y049553D01*
X061108Y049553D01*
X061415Y049246D01*
X061415Y049553D01*
X041802Y034840D02*
X041802Y034533D01*
X041725Y034456D01*
X041571Y034456D01*
X041495Y034533D01*
X041571Y034686D02*
X041495Y034763D01*
X041495Y034840D01*
X041571Y034916D01*
X041725Y034916D01*
X041802Y034840D01*
X041802Y034686D02*
X041571Y034686D01*
X041341Y034686D02*
X041034Y034686D01*
X041265Y034916D01*
X041265Y034456D01*
X040881Y034533D02*
X040804Y034456D01*
X040651Y034456D01*
X040574Y034533D01*
X040574Y034840D01*
X040651Y034916D01*
X040804Y034916D01*
X040881Y034840D01*
X040804Y033916D02*
X040651Y033916D01*
X040574Y033840D01*
X040574Y033533D01*
X040651Y033456D01*
X040804Y033456D01*
X040881Y033533D01*
X041034Y033533D02*
X041111Y033456D01*
X041265Y033456D01*
X041341Y033533D01*
X041341Y033686D01*
X041265Y033763D01*
X041188Y033763D01*
X041034Y033686D01*
X041034Y033916D01*
X041341Y033916D01*
X041495Y033840D02*
X041571Y033916D01*
X041725Y033916D01*
X041802Y033840D01*
X041495Y033533D01*
X041571Y033456D01*
X041725Y033456D01*
X041802Y033533D01*
X041802Y033840D01*
X041495Y033840D02*
X041495Y033533D01*
X040881Y033840D02*
X040804Y033916D01*
X045032Y019916D02*
X044955Y019840D01*
X044955Y019533D01*
X045032Y019456D01*
X045185Y019456D01*
X045262Y019533D01*
X045416Y019533D02*
X045492Y019456D01*
X045646Y019456D01*
X045722Y019533D01*
X045722Y019610D01*
X045646Y019686D01*
X045416Y019686D01*
X045416Y019533D01*
X045416Y019686D02*
X045569Y019840D01*
X045722Y019916D01*
X045876Y019840D02*
X045953Y019916D01*
X046106Y019916D01*
X046183Y019840D01*
X045876Y019533D01*
X045953Y019456D01*
X046106Y019456D01*
X046183Y019533D01*
X046183Y019840D01*
X045876Y019840D02*
X045876Y019533D01*
X045606Y018916D02*
X045453Y018916D01*
X045376Y018840D01*
X045376Y018763D01*
X045453Y018686D01*
X045683Y018686D01*
X045683Y018533D02*
X045683Y018840D01*
X045606Y018916D01*
X045222Y018916D02*
X044916Y018916D01*
X044916Y018686D01*
X045069Y018763D01*
X045146Y018763D01*
X045222Y018686D01*
X045222Y018533D01*
X045146Y018456D01*
X044992Y018456D01*
X044916Y018533D01*
X044762Y018533D02*
X044685Y018456D01*
X044532Y018456D01*
X044455Y018533D01*
X044455Y018840D01*
X044532Y018916D01*
X044685Y018916D01*
X044762Y018840D01*
X045376Y018533D02*
X045453Y018456D01*
X045606Y018456D01*
X045683Y018533D01*
X045262Y019840D02*
X045185Y019916D01*
X045032Y019916D01*
X043302Y018840D02*
X043302Y018763D01*
X043225Y018686D01*
X043071Y018686D01*
X042995Y018763D01*
X042995Y018840D01*
X043071Y018916D01*
X043225Y018916D01*
X043302Y018840D01*
X043225Y018686D02*
X043302Y018610D01*
X043302Y018533D01*
X043225Y018456D01*
X043071Y018456D01*
X042995Y018533D01*
X042995Y018610D01*
X043071Y018686D01*
X042841Y018686D02*
X042841Y018533D01*
X042765Y018456D01*
X042611Y018456D01*
X042534Y018533D01*
X042381Y018533D02*
X042304Y018456D01*
X042151Y018456D01*
X042074Y018533D01*
X042074Y018840D01*
X042151Y018916D01*
X042304Y018916D01*
X042381Y018840D01*
X042534Y018916D02*
X042534Y018686D01*
X042688Y018763D01*
X042765Y018763D01*
X042841Y018686D01*
X042841Y018916D02*
X042534Y018916D01*
X042651Y016916D02*
X042574Y016840D01*
X042574Y016533D01*
X042651Y016456D01*
X042804Y016456D01*
X042881Y016533D01*
X043034Y016533D02*
X043111Y016456D01*
X043265Y016456D01*
X043341Y016533D01*
X043341Y016686D01*
X043265Y016763D01*
X043188Y016763D01*
X043034Y016686D01*
X043034Y016916D01*
X043341Y016916D01*
X043495Y016916D02*
X043802Y016916D01*
X043802Y016840D01*
X043495Y016533D01*
X043495Y016456D01*
X042881Y016840D02*
X042804Y016916D01*
X042651Y016916D01*
X040802Y016916D02*
X040495Y016916D01*
X040495Y016686D01*
X040648Y016763D01*
X040725Y016763D01*
X040802Y016686D01*
X040802Y016533D01*
X040725Y016456D01*
X040571Y016456D01*
X040495Y016533D01*
X040341Y016533D02*
X040265Y016456D01*
X040111Y016456D01*
X040034Y016533D01*
X039881Y016533D02*
X039804Y016456D01*
X039651Y016456D01*
X039574Y016533D01*
X039574Y016840D01*
X039651Y016916D01*
X039804Y016916D01*
X039881Y016840D01*
X040034Y016916D02*
X040034Y016686D01*
X040188Y016763D01*
X040265Y016763D01*
X040341Y016686D01*
X040341Y016533D01*
X040341Y016916D02*
X040034Y016916D01*
X040071Y018456D02*
X040225Y018456D01*
X040302Y018533D01*
X040302Y018610D01*
X040225Y018686D01*
X039995Y018686D01*
X039995Y018533D01*
X040071Y018456D01*
X039841Y018533D02*
X039841Y018686D01*
X039765Y018763D01*
X039688Y018763D01*
X039534Y018686D01*
X039534Y018916D01*
X039841Y018916D01*
X039995Y018686D02*
X040148Y018840D01*
X040302Y018916D01*
X039841Y018533D02*
X039765Y018456D01*
X039611Y018456D01*
X039534Y018533D01*
X039381Y018533D02*
X039304Y018456D01*
X039151Y018456D01*
X039074Y018533D01*
X039074Y018840D01*
X039151Y018916D01*
X039304Y018916D01*
X039381Y018840D01*
X070955Y073035D02*
X071415Y073035D01*
X071415Y073342D01*
X071339Y073496D02*
X071415Y073572D01*
X071415Y073726D01*
X071339Y073803D01*
X071262Y073803D01*
X071185Y073726D01*
X071185Y073649D01*
X071185Y073726D02*
X071108Y073803D01*
X071032Y073803D01*
X070955Y073726D01*
X070955Y073572D01*
X071032Y073496D01*
X068839Y077075D02*
X068532Y077075D01*
X068455Y077152D01*
X068455Y077305D01*
X068532Y077382D01*
X068532Y077535D02*
X068608Y077535D01*
X068685Y077612D01*
X068685Y077842D01*
X068532Y077842D02*
X068455Y077766D01*
X068455Y077612D01*
X068532Y077535D01*
X068839Y077535D02*
X068915Y077612D01*
X068915Y077766D01*
X068839Y077842D01*
X068532Y077842D01*
X068608Y077996D02*
X068455Y078149D01*
X068915Y078149D01*
X068915Y077996D02*
X068915Y078303D01*
X068839Y077382D02*
X068915Y077305D01*
X068915Y077152D01*
X068839Y077075D01*
X066915Y077152D02*
X066915Y077305D01*
X066839Y077382D01*
X066839Y077535D02*
X066915Y077612D01*
X066915Y077766D01*
X066839Y077842D01*
X066532Y077842D01*
X066455Y077766D01*
X066455Y077612D01*
X066532Y077535D01*
X066608Y077535D01*
X066685Y077612D01*
X066685Y077842D01*
X066532Y077996D02*
X066455Y078072D01*
X066455Y078226D01*
X066532Y078303D01*
X066839Y077996D01*
X066915Y078072D01*
X066915Y078226D01*
X066839Y078303D01*
X066532Y078303D01*
X066532Y077996D02*
X066839Y077996D01*
X066532Y077382D02*
X066455Y077305D01*
X066455Y077152D01*
X066532Y077075D01*
X066839Y077075D01*
X066915Y077152D01*
D13*
X066245Y067005D02*
X066208Y067005D01*
X066245Y067005D02*
X066245Y066367D01*
X066208Y066367D01*
X065891Y066367D02*
X065480Y066367D01*
X065162Y066367D02*
X065125Y066367D01*
X065125Y067005D01*
X065162Y067005D01*
X065480Y067005D02*
X065517Y067005D01*
X065854Y067005D02*
X065891Y067005D01*
X069125Y067005D02*
X069125Y066367D01*
X069162Y066367D01*
X069480Y066367D02*
X069891Y066367D01*
X070208Y066367D02*
X070245Y066367D01*
X070245Y067005D01*
X070208Y067005D01*
X069891Y067005D02*
X069854Y067005D01*
X069517Y067005D02*
X069480Y067005D01*
X069162Y067005D02*
X069125Y067005D01*
X065685Y059186D02*
X065685Y058186D01*
X073685Y058186D01*
X073685Y057586D01*
X073646Y057584D01*
X073607Y057578D01*
X073569Y057569D01*
X073532Y057556D01*
X073496Y057539D01*
X073463Y057519D01*
X073431Y057495D01*
X073402Y057469D01*
X073376Y057440D01*
X073352Y057408D01*
X073332Y057375D01*
X073315Y057339D01*
X073302Y057302D01*
X073293Y057264D01*
X073287Y057225D01*
X073285Y057186D01*
X073287Y057147D01*
X073293Y057108D01*
X073302Y057070D01*
X073315Y057033D01*
X073332Y056997D01*
X073352Y056964D01*
X073376Y056932D01*
X073402Y056903D01*
X073431Y056877D01*
X073463Y056853D01*
X073496Y056833D01*
X073532Y056816D01*
X073569Y056803D01*
X073607Y056794D01*
X073646Y056788D01*
X073685Y056786D01*
X073685Y056186D01*
X065685Y056186D01*
X065685Y058186D01*
X065685Y059186D02*
X073685Y059186D01*
X073685Y058186D01*
X073685Y056186D02*
X073685Y055186D01*
X065685Y055186D01*
X065685Y056186D01*
X063935Y058186D02*
X063435Y058186D01*
X063185Y058436D01*
X062935Y058186D01*
X062435Y058186D01*
X062185Y058436D01*
X061935Y058186D01*
X061435Y058186D01*
X061185Y058436D01*
X060935Y058186D01*
X060435Y058186D01*
X060185Y058436D01*
X060185Y058936D01*
X060435Y059186D01*
X060935Y059186D01*
X061185Y058936D01*
X061435Y059186D01*
X061935Y059186D01*
X062185Y058936D01*
X062185Y058436D01*
X062185Y058936D02*
X062435Y059186D01*
X062935Y059186D01*
X063185Y058936D01*
X063435Y059186D01*
X063935Y059186D01*
X064185Y058936D01*
X064185Y058436D01*
X063935Y058186D01*
X063185Y058436D02*
X063185Y058936D01*
X061185Y058936D02*
X061185Y058436D01*
X055185Y075186D02*
X047185Y075186D01*
X047185Y076186D01*
X047185Y078186D01*
X047185Y079186D01*
X055185Y079186D01*
X055185Y078186D01*
X055185Y077586D01*
X055146Y077584D01*
X055107Y077578D01*
X055069Y077569D01*
X055032Y077556D01*
X054996Y077539D01*
X054963Y077519D01*
X054931Y077495D01*
X054902Y077469D01*
X054876Y077440D01*
X054852Y077408D01*
X054832Y077375D01*
X054815Y077339D01*
X054802Y077302D01*
X054793Y077264D01*
X054787Y077225D01*
X054785Y077186D01*
X054787Y077147D01*
X054793Y077108D01*
X054802Y077070D01*
X054815Y077033D01*
X054832Y076997D01*
X054852Y076964D01*
X054876Y076932D01*
X054902Y076903D01*
X054931Y076877D01*
X054963Y076853D01*
X054996Y076833D01*
X055032Y076816D01*
X055069Y076803D01*
X055107Y076794D01*
X055146Y076788D01*
X055185Y076786D01*
X055185Y076186D01*
X047185Y076186D01*
X047185Y078186D02*
X055185Y078186D01*
X055185Y076186D02*
X055185Y075186D01*
X039185Y075186D02*
X039185Y076186D01*
X039185Y076786D01*
X039146Y076788D01*
X039107Y076794D01*
X039069Y076803D01*
X039032Y076816D01*
X038996Y076833D01*
X038963Y076853D01*
X038931Y076877D01*
X038902Y076903D01*
X038876Y076932D01*
X038852Y076964D01*
X038832Y076997D01*
X038815Y077033D01*
X038802Y077070D01*
X038793Y077108D01*
X038787Y077147D01*
X038785Y077186D01*
X038787Y077225D01*
X038793Y077264D01*
X038802Y077302D01*
X038815Y077339D01*
X038832Y077375D01*
X038852Y077408D01*
X038876Y077440D01*
X038902Y077469D01*
X038931Y077495D01*
X038963Y077519D01*
X038996Y077539D01*
X039032Y077556D01*
X039069Y077569D01*
X039107Y077578D01*
X039146Y077584D01*
X039185Y077586D01*
X039185Y078186D01*
X031185Y078186D01*
X031185Y079186D01*
X039185Y079186D01*
X039185Y078186D01*
X039185Y076186D02*
X031185Y076186D01*
X031185Y078186D01*
X031185Y076186D02*
X031185Y075186D01*
X039185Y075186D01*
X023185Y075186D02*
X023185Y076186D01*
X023185Y076786D01*
X023146Y076788D01*
X023107Y076794D01*
X023069Y076803D01*
X023032Y076816D01*
X022996Y076833D01*
X022963Y076853D01*
X022931Y076877D01*
X022902Y076903D01*
X022876Y076932D01*
X022852Y076964D01*
X022832Y076997D01*
X022815Y077033D01*
X022802Y077070D01*
X022793Y077108D01*
X022787Y077147D01*
X022785Y077186D01*
X022787Y077225D01*
X022793Y077264D01*
X022802Y077302D01*
X022815Y077339D01*
X022832Y077375D01*
X022852Y077408D01*
X022876Y077440D01*
X022902Y077469D01*
X022931Y077495D01*
X022963Y077519D01*
X022996Y077539D01*
X023032Y077556D01*
X023069Y077569D01*
X023107Y077578D01*
X023146Y077584D01*
X023185Y077586D01*
X023185Y078186D01*
X015185Y078186D01*
X015185Y079186D01*
X023185Y079186D01*
X023185Y078186D01*
X023185Y076186D02*
X015185Y076186D01*
X015185Y078186D01*
X015185Y076186D02*
X015185Y075186D01*
X023185Y075186D01*
X011245Y061005D02*
X011208Y061005D01*
X011245Y061005D02*
X011245Y060367D01*
X011208Y060367D01*
X010891Y060367D02*
X010480Y060367D01*
X010162Y060367D02*
X010125Y060367D01*
X010125Y061005D01*
X010162Y061005D01*
X010480Y061005D02*
X010517Y061005D01*
X010854Y061005D02*
X010891Y061005D01*
X009055Y059436D02*
X008735Y059436D01*
X009055Y059436D02*
X009055Y056936D01*
X008735Y056936D01*
X008735Y057086D02*
X008735Y057686D01*
X008885Y057686D01*
X008935Y057636D01*
X008535Y057636D01*
X008585Y057686D01*
X008735Y057686D01*
X008735Y057836D01*
X008685Y057786D01*
X008635Y057736D01*
X008585Y057686D01*
X008635Y057736D02*
X008835Y057736D01*
X008785Y057786D01*
X008685Y057786D01*
X008735Y057836D02*
X008785Y057786D01*
X008835Y057736D02*
X008885Y057686D01*
X007635Y056936D02*
X007385Y056936D01*
X007385Y059436D01*
X007635Y059436D01*
X005245Y060367D02*
X005208Y060367D01*
X005245Y060367D02*
X005245Y061005D01*
X005208Y061005D01*
X004891Y061005D02*
X004854Y061005D01*
X004517Y061005D02*
X004480Y061005D01*
X004162Y061005D02*
X004125Y061005D01*
X004125Y060367D01*
X004162Y060367D01*
X004480Y060367D02*
X004891Y060367D01*
X005435Y051686D02*
X005935Y051686D01*
X006185Y051436D01*
X006435Y051686D01*
X006935Y051686D01*
X007185Y051436D01*
X007435Y051686D01*
X007935Y051686D01*
X008185Y051436D01*
X008435Y051686D01*
X008935Y051686D01*
X009185Y051436D01*
X009185Y050936D01*
X008935Y050686D01*
X008435Y050686D01*
X008185Y050936D01*
X007935Y050686D01*
X007435Y050686D01*
X007185Y050936D01*
X007185Y051436D01*
X007185Y050936D02*
X006935Y050686D01*
X006435Y050686D01*
X006185Y050936D01*
X005935Y050686D01*
X005435Y050686D01*
X005185Y050936D01*
X005185Y051436D01*
X005435Y051686D01*
X006185Y051436D02*
X006185Y050936D01*
X008185Y050936D02*
X008185Y051436D01*
X027365Y041746D02*
X030005Y041746D01*
X030028Y041744D01*
X030051Y041739D01*
X030073Y041730D01*
X030093Y041717D01*
X030111Y041702D01*
X030126Y041684D01*
X030139Y041664D01*
X030148Y041642D01*
X030153Y041619D01*
X030155Y041596D01*
X027365Y041746D02*
X027342Y041744D01*
X027319Y041739D01*
X027297Y041730D01*
X027277Y041717D01*
X027259Y041702D01*
X027244Y041684D01*
X027231Y041664D01*
X027222Y041642D01*
X027217Y041619D01*
X027215Y041596D01*
X027215Y036776D02*
X027217Y036753D01*
X027222Y036730D01*
X027231Y036708D01*
X027244Y036688D01*
X027259Y036670D01*
X027277Y036655D01*
X027297Y036642D01*
X027319Y036633D01*
X027342Y036628D01*
X027365Y036626D01*
X028185Y036626D01*
X029185Y036626D01*
X030005Y036626D01*
X030028Y036628D01*
X030051Y036633D01*
X030073Y036642D01*
X030093Y036655D01*
X030111Y036670D01*
X030126Y036688D01*
X030139Y036708D01*
X030148Y036730D01*
X030153Y036753D01*
X030155Y036776D01*
X029185Y036626D02*
X029183Y036670D01*
X029177Y036713D01*
X029168Y036755D01*
X029155Y036797D01*
X029138Y036837D01*
X029118Y036876D01*
X029095Y036913D01*
X029068Y036947D01*
X029039Y036980D01*
X029006Y037009D01*
X028972Y037036D01*
X028935Y037059D01*
X028896Y037079D01*
X028856Y037096D01*
X028814Y037109D01*
X028772Y037118D01*
X028729Y037124D01*
X028685Y037126D01*
X028641Y037124D01*
X028598Y037118D01*
X028556Y037109D01*
X028514Y037096D01*
X028474Y037079D01*
X028435Y037059D01*
X028398Y037036D01*
X028364Y037009D01*
X028331Y036980D01*
X028302Y036947D01*
X028275Y036913D01*
X028252Y036876D01*
X028232Y036837D01*
X028215Y036797D01*
X028202Y036755D01*
X028193Y036713D01*
X028187Y036670D01*
X028185Y036626D01*
X036915Y041586D02*
X036915Y044786D01*
X036917Y044809D01*
X036922Y044832D01*
X036931Y044854D01*
X036944Y044874D01*
X036959Y044892D01*
X036977Y044907D01*
X036997Y044920D01*
X037019Y044929D01*
X037042Y044934D01*
X037065Y044936D01*
X038305Y044936D01*
X038328Y044934D01*
X038351Y044929D01*
X038373Y044920D01*
X038393Y044907D01*
X038411Y044892D01*
X038426Y044874D01*
X038439Y044854D01*
X038448Y044832D01*
X038453Y044809D01*
X038455Y044786D01*
X038455Y041586D01*
X038453Y041563D01*
X038448Y041540D01*
X038439Y041518D01*
X038426Y041498D01*
X038411Y041480D01*
X038393Y041465D01*
X038373Y041452D01*
X038351Y041443D01*
X038328Y041438D01*
X038305Y041436D01*
X037885Y041436D01*
X037485Y041436D01*
X037065Y041436D01*
X037042Y041438D01*
X037019Y041443D01*
X036997Y041452D01*
X036977Y041465D01*
X036959Y041480D01*
X036944Y041498D01*
X036931Y041518D01*
X036922Y041540D01*
X036917Y041563D01*
X036915Y041586D01*
X037485Y041436D02*
X037487Y041463D01*
X037492Y041490D01*
X037502Y041516D01*
X037514Y041540D01*
X037530Y041562D01*
X037548Y041582D01*
X037570Y041599D01*
X037593Y041614D01*
X037618Y041624D01*
X037644Y041632D01*
X037671Y041636D01*
X037699Y041636D01*
X037726Y041632D01*
X037752Y041624D01*
X037777Y041614D01*
X037800Y041599D01*
X037822Y041582D01*
X037840Y041562D01*
X037856Y041540D01*
X037868Y041516D01*
X037878Y041490D01*
X037883Y041463D01*
X037885Y041436D01*
X042865Y041246D02*
X045505Y041246D01*
X045528Y041244D01*
X045551Y041239D01*
X045573Y041230D01*
X045593Y041217D01*
X045611Y041202D01*
X045626Y041184D01*
X045639Y041164D01*
X045648Y041142D01*
X045653Y041119D01*
X045655Y041096D01*
X042865Y041246D02*
X042842Y041244D01*
X042819Y041239D01*
X042797Y041230D01*
X042777Y041217D01*
X042759Y041202D01*
X042744Y041184D01*
X042731Y041164D01*
X042722Y041142D01*
X042717Y041119D01*
X042715Y041096D01*
X042715Y036276D02*
X042717Y036253D01*
X042722Y036230D01*
X042731Y036208D01*
X042744Y036188D01*
X042759Y036170D01*
X042777Y036155D01*
X042797Y036142D01*
X042819Y036133D01*
X042842Y036128D01*
X042865Y036126D01*
X043685Y036126D01*
X044685Y036126D01*
X045505Y036126D01*
X045528Y036128D01*
X045551Y036133D01*
X045573Y036142D01*
X045593Y036155D01*
X045611Y036170D01*
X045626Y036188D01*
X045639Y036208D01*
X045648Y036230D01*
X045653Y036253D01*
X045655Y036276D01*
X044685Y036126D02*
X044683Y036170D01*
X044677Y036213D01*
X044668Y036255D01*
X044655Y036297D01*
X044638Y036337D01*
X044618Y036376D01*
X044595Y036413D01*
X044568Y036447D01*
X044539Y036480D01*
X044506Y036509D01*
X044472Y036536D01*
X044435Y036559D01*
X044396Y036579D01*
X044356Y036596D01*
X044314Y036609D01*
X044272Y036618D01*
X044229Y036624D01*
X044185Y036626D01*
X044141Y036624D01*
X044098Y036618D01*
X044056Y036609D01*
X044014Y036596D01*
X043974Y036579D01*
X043935Y036559D01*
X043898Y036536D01*
X043864Y036509D01*
X043831Y036480D01*
X043802Y036447D01*
X043775Y036413D01*
X043752Y036376D01*
X043732Y036337D01*
X043715Y036297D01*
X043702Y036255D01*
X043693Y036213D01*
X043687Y036170D01*
X043685Y036126D01*
X066685Y030436D02*
X066685Y029936D01*
X066935Y029686D01*
X067435Y029686D01*
X067685Y029936D01*
X067685Y030436D01*
X067435Y030686D01*
X066935Y030686D01*
X066685Y030436D01*
X066935Y029686D02*
X066685Y029436D01*
X066685Y028936D01*
X066935Y028686D01*
X067435Y028686D01*
X067685Y028936D01*
X067685Y029436D01*
X067435Y029686D01*
X071625Y034867D02*
X071662Y034867D01*
X071625Y034867D02*
X071625Y035505D01*
X071662Y035505D01*
X071980Y035505D02*
X072017Y035505D01*
X072354Y035505D02*
X072391Y035505D01*
X072708Y035505D02*
X072745Y035505D01*
X072745Y034867D01*
X072708Y034867D01*
X072391Y034867D02*
X071980Y034867D01*
X066745Y011505D02*
X066708Y011505D01*
X066745Y011505D02*
X066745Y010867D01*
X066708Y010867D01*
X066391Y010867D02*
X065980Y010867D01*
X065662Y010867D02*
X065625Y010867D01*
X065625Y011505D01*
X065662Y011505D01*
X065980Y011505D02*
X066017Y011505D01*
X066354Y011505D02*
X066391Y011505D01*
X063745Y011505D02*
X063745Y010867D01*
X063708Y010867D01*
X063391Y010867D02*
X062980Y010867D01*
X062662Y010867D02*
X062625Y010867D01*
X062625Y011505D01*
X062662Y011505D01*
X062980Y011505D02*
X063017Y011505D01*
X063354Y011505D02*
X063391Y011505D01*
X063708Y011505D02*
X063745Y011505D01*
X063935Y005186D02*
X063435Y005186D01*
X063185Y004936D01*
X063185Y004436D01*
X063435Y004186D01*
X063935Y004186D01*
X064185Y004436D01*
X064435Y004186D01*
X064935Y004186D01*
X065185Y004436D01*
X065435Y004186D01*
X065935Y004186D01*
X066185Y004436D01*
X066185Y004936D01*
X065935Y005186D01*
X065435Y005186D01*
X065185Y004936D01*
X065185Y004436D01*
X065185Y004936D02*
X064935Y005186D01*
X064435Y005186D01*
X064185Y004936D01*
X064185Y004436D01*
X064185Y004936D02*
X063935Y005186D01*
X053435Y006386D02*
X053435Y006636D01*
X053435Y006386D02*
X050935Y006386D01*
X050935Y006636D01*
X050435Y006636D02*
X050435Y006386D01*
X047935Y006386D01*
X047935Y006636D01*
X047435Y006636D02*
X047435Y006386D01*
X044935Y006386D01*
X044935Y006636D01*
X044935Y007736D02*
X044935Y008056D01*
X047435Y008056D01*
X047435Y007736D01*
X047285Y007736D02*
X046685Y007736D01*
X046685Y007886D01*
X046735Y007936D01*
X046735Y007536D01*
X046685Y007586D01*
X046685Y007736D01*
X046535Y007736D01*
X046585Y007686D01*
X046635Y007636D01*
X046685Y007586D01*
X046635Y007636D02*
X046635Y007836D01*
X046585Y007786D01*
X046585Y007686D01*
X046535Y007736D02*
X046585Y007786D01*
X046635Y007836D02*
X046685Y007886D01*
X047935Y007736D02*
X047935Y008056D01*
X050435Y008056D01*
X050435Y007736D01*
X050285Y007736D02*
X049685Y007736D01*
X049685Y007886D01*
X049735Y007936D01*
X049735Y007536D01*
X049685Y007586D01*
X049685Y007736D01*
X049535Y007736D01*
X049585Y007686D01*
X049635Y007636D01*
X049685Y007586D01*
X049635Y007636D02*
X049635Y007836D01*
X049585Y007786D01*
X049585Y007686D01*
X049535Y007736D02*
X049585Y007786D01*
X049635Y007836D02*
X049685Y007886D01*
X050935Y007736D02*
X050935Y008056D01*
X053435Y008056D01*
X053435Y007736D01*
X053285Y007736D02*
X052685Y007736D01*
X052685Y007886D01*
X052735Y007936D01*
X052735Y007536D01*
X052685Y007586D01*
X052685Y007736D01*
X052535Y007736D01*
X052585Y007686D01*
X052635Y007636D01*
X052685Y007586D01*
X052635Y007636D02*
X052635Y007836D01*
X052585Y007786D01*
X052585Y007686D01*
X052535Y007736D02*
X052585Y007786D01*
X052635Y007836D02*
X052685Y007886D01*
X040685Y004936D02*
X040435Y005186D01*
X039935Y005186D01*
X039685Y004936D01*
X039435Y005186D01*
X038935Y005186D01*
X038685Y004936D01*
X038685Y004436D01*
X038935Y004186D01*
X039435Y004186D01*
X039685Y004436D01*
X039685Y004936D01*
X039685Y004436D02*
X039935Y004186D01*
X040435Y004186D01*
X040685Y004436D01*
X040685Y004936D01*
X038685Y004936D02*
X038435Y005186D01*
X037935Y005186D01*
X037685Y004936D01*
X037435Y005186D01*
X036935Y005186D01*
X036685Y004936D01*
X036435Y005186D01*
X035935Y005186D01*
X035685Y004936D01*
X035685Y004436D01*
X035935Y004186D01*
X036435Y004186D01*
X036685Y004436D01*
X036685Y004936D01*
X036685Y004436D02*
X036935Y004186D01*
X037435Y004186D01*
X037685Y004436D01*
X037685Y004936D01*
X037685Y004436D02*
X037935Y004186D01*
X038435Y004186D01*
X038685Y004436D01*
X035685Y004436D02*
X035435Y004186D01*
X034935Y004186D01*
X034685Y004436D01*
X034435Y004186D01*
X033935Y004186D01*
X033685Y004436D01*
X033685Y004936D01*
X033935Y005186D01*
X034435Y005186D01*
X034685Y004936D01*
X034935Y005186D01*
X035435Y005186D01*
X035685Y004936D01*
X034685Y004936D02*
X034685Y004436D01*
X033685Y004436D02*
X033685Y005936D01*
X033435Y006186D01*
X032935Y006186D01*
X032685Y005936D01*
X032685Y004436D01*
X032935Y004186D01*
X033435Y004186D01*
X033685Y004436D01*
X032685Y004436D02*
X032435Y004186D01*
X031935Y004186D01*
X031685Y004436D01*
X031685Y005936D01*
X031935Y006186D01*
X032435Y006186D01*
X032685Y005936D01*
X031685Y005936D02*
X031435Y006186D01*
X030935Y006186D01*
X030685Y005936D01*
X030685Y004436D01*
X030435Y004186D01*
X029935Y004186D01*
X029685Y004436D01*
X029685Y005936D01*
X029935Y006186D01*
X030435Y006186D01*
X030685Y005936D01*
X029685Y005936D02*
X029435Y006186D01*
X028935Y006186D01*
X028685Y005936D01*
X028685Y004436D01*
X028435Y004186D01*
X027935Y004186D01*
X027685Y004436D01*
X027685Y005936D01*
X027935Y006186D01*
X028435Y006186D01*
X028685Y005936D01*
X027685Y005936D02*
X027435Y006186D01*
X026935Y006186D01*
X026685Y005936D01*
X026685Y004436D01*
X026935Y004186D01*
X027435Y004186D01*
X027685Y004436D01*
X026685Y004436D02*
X026435Y004186D01*
X025935Y004186D01*
X025685Y004436D01*
X025685Y005936D01*
X025935Y006186D01*
X026435Y006186D01*
X026685Y005936D01*
X025685Y005936D02*
X025435Y006186D01*
X024935Y006186D01*
X024685Y005936D01*
X024685Y004436D01*
X024935Y004186D01*
X025435Y004186D01*
X025685Y004436D01*
X024685Y004436D02*
X024435Y004186D01*
X023935Y004186D01*
X023685Y004436D01*
X023685Y005936D01*
X023935Y006186D01*
X024435Y006186D01*
X024685Y005936D01*
X023685Y005936D02*
X023435Y006186D01*
X022935Y006186D01*
X022685Y005936D01*
X022685Y004436D01*
X022935Y004186D01*
X023435Y004186D01*
X023685Y004436D01*
X022685Y004436D02*
X022435Y004186D01*
X021935Y004186D01*
X021685Y004436D01*
X021685Y005936D01*
X021935Y006186D01*
X022435Y006186D01*
X022685Y005936D01*
X021685Y005936D02*
X021435Y006186D01*
X020935Y006186D01*
X020685Y005936D01*
X020685Y004436D01*
X020935Y004186D01*
X021435Y004186D01*
X021685Y004436D01*
X028685Y004436D02*
X028935Y004186D01*
X029435Y004186D01*
X029685Y004436D01*
X030685Y004436D02*
X030935Y004186D01*
X031435Y004186D01*
X031685Y004436D01*
X006685Y014436D02*
X006435Y014186D01*
X005935Y014186D01*
X005685Y014436D01*
X005435Y014186D01*
X004935Y014186D01*
X004685Y014436D01*
X004685Y014936D01*
X004935Y015186D01*
X005435Y015186D01*
X005685Y014936D01*
X005935Y015186D01*
X006435Y015186D01*
X006685Y014936D01*
X006685Y014436D01*
X005685Y014436D02*
X005685Y014936D01*
X004935Y075186D02*
X004435Y075186D01*
X004185Y075436D01*
X004185Y075936D01*
X004435Y076186D01*
X004185Y076436D01*
X004185Y076936D01*
X004435Y077186D01*
X004935Y077186D01*
X005185Y076936D01*
X005185Y076436D01*
X004935Y076186D01*
X005185Y075936D01*
X005185Y075436D01*
X004935Y075186D01*
X004935Y076186D02*
X004435Y076186D01*
X004435Y077186D02*
X004185Y077436D01*
X004185Y077936D01*
X004435Y078186D01*
X004185Y078436D01*
X004185Y078936D01*
X004435Y079186D01*
X004935Y079186D01*
X005185Y078936D01*
X005185Y078436D01*
X004935Y078186D01*
X005185Y077936D01*
X005185Y077436D01*
X004935Y077186D01*
X004935Y078186D02*
X004435Y078186D01*
D14*
X006591Y044319D02*
X006811Y044319D01*
X006591Y044172D01*
X006811Y044172D01*
X006774Y044098D02*
X006627Y044098D01*
X006591Y044061D01*
X006591Y043988D01*
X006627Y043951D01*
X006774Y043951D01*
X006811Y043988D01*
X006811Y044061D01*
X006774Y044098D01*
X004793Y044127D02*
X004573Y044127D01*
X004646Y044054D01*
X004793Y044054D02*
X004793Y044201D01*
X004793Y043201D02*
X004793Y043054D01*
X004646Y043201D01*
X004610Y043201D01*
X004573Y043164D01*
X004573Y043091D01*
X004610Y043054D01*
X004610Y042201D02*
X004646Y042201D01*
X004683Y042164D01*
X004720Y042201D01*
X004756Y042201D01*
X004793Y042164D01*
X004793Y042091D01*
X004756Y042054D01*
X004683Y042127D02*
X004683Y042164D01*
X004610Y042201D02*
X004573Y042164D01*
X004573Y042091D01*
X004610Y042054D01*
X004793Y039701D02*
X004793Y039554D01*
X004793Y039627D02*
X004573Y039627D01*
X004646Y039554D01*
X004646Y038701D02*
X004610Y038701D01*
X004573Y038664D01*
X004573Y038591D01*
X004610Y038554D01*
X004646Y038701D02*
X004793Y038554D01*
X004793Y038701D01*
X004756Y037701D02*
X004793Y037664D01*
X004793Y037591D01*
X004756Y037554D01*
X004683Y037627D02*
X004683Y037664D01*
X004720Y037701D01*
X004756Y037701D01*
X004683Y037664D02*
X004646Y037701D01*
X004610Y037701D01*
X004573Y037664D01*
X004573Y037591D01*
X004610Y037554D01*
X004683Y036701D02*
X004683Y036554D01*
X004573Y036664D01*
X004793Y036664D01*
X004756Y035701D02*
X004793Y035664D01*
X004793Y035591D01*
X004756Y035554D01*
X004683Y035554D02*
X004646Y035627D01*
X004646Y035664D01*
X004683Y035701D01*
X004756Y035701D01*
X004683Y035554D02*
X004573Y035554D01*
X004573Y035701D01*
X004573Y034701D02*
X004610Y034627D01*
X004683Y034554D01*
X004683Y034664D01*
X004720Y034701D01*
X004756Y034701D01*
X004793Y034664D01*
X004793Y034591D01*
X004756Y034554D01*
X004683Y034554D01*
X004610Y033701D02*
X004756Y033554D01*
X004793Y033554D01*
X004573Y033554D02*
X004573Y033701D01*
X004610Y033701D01*
X004610Y032701D02*
X004646Y032701D01*
X004683Y032664D01*
X004683Y032591D01*
X004646Y032554D01*
X004610Y032554D01*
X004573Y032591D01*
X004573Y032664D01*
X004610Y032701D01*
X004683Y032664D02*
X004720Y032701D01*
X004756Y032701D01*
X004793Y032664D01*
X004793Y032591D01*
X004756Y032554D01*
X004720Y032554D01*
X004683Y032591D01*
X004683Y031701D02*
X004683Y031591D01*
X004646Y031554D01*
X004610Y031554D01*
X004573Y031591D01*
X004573Y031664D01*
X004610Y031701D01*
X004756Y031701D01*
X004793Y031664D01*
X004793Y031591D01*
X004756Y031554D01*
X004756Y030701D02*
X004793Y030664D01*
X004793Y030591D01*
X004756Y030554D01*
X004610Y030701D01*
X004756Y030701D01*
X004610Y030701D02*
X004573Y030664D01*
X004573Y030591D01*
X004610Y030554D01*
X004756Y030554D01*
X004793Y030480D02*
X004793Y030333D01*
X004793Y030406D02*
X004573Y030406D01*
X004646Y030333D01*
X004793Y029701D02*
X004793Y029554D01*
X004793Y029627D02*
X004573Y029627D01*
X004646Y029554D01*
X004573Y029406D02*
X004793Y029406D01*
X004793Y029333D02*
X004793Y029480D01*
X004646Y029333D02*
X004573Y029406D01*
X004610Y028701D02*
X004573Y028664D01*
X004573Y028591D01*
X004610Y028554D01*
X004610Y028701D02*
X004646Y028701D01*
X004793Y028554D01*
X004793Y028701D01*
X004793Y028480D02*
X004793Y028333D01*
X004793Y028406D02*
X004573Y028406D01*
X004646Y028333D01*
X004793Y026201D02*
X004793Y026054D01*
X004793Y026127D02*
X004573Y026127D01*
X004646Y026054D01*
X004646Y025201D02*
X004610Y025201D01*
X004573Y025164D01*
X004573Y025091D01*
X004610Y025054D01*
X004646Y025201D02*
X004793Y025054D01*
X004793Y025201D01*
X004756Y024201D02*
X004793Y024164D01*
X004793Y024091D01*
X004756Y024054D01*
X004683Y024127D02*
X004683Y024164D01*
X004720Y024201D01*
X004756Y024201D01*
X004683Y024164D02*
X004646Y024201D01*
X004610Y024201D01*
X004573Y024164D01*
X004573Y024091D01*
X004610Y024054D01*
X004683Y023201D02*
X004683Y023054D01*
X004573Y023164D01*
X004793Y023164D01*
X004756Y022201D02*
X004793Y022164D01*
X004793Y022091D01*
X004756Y022054D01*
X004683Y022054D02*
X004646Y022127D01*
X004646Y022164D01*
X004683Y022201D01*
X004756Y022201D01*
X004683Y022054D02*
X004573Y022054D01*
X004573Y022201D01*
X004573Y021201D02*
X004610Y021127D01*
X004683Y021054D01*
X004683Y021164D01*
X004720Y021201D01*
X004756Y021201D01*
X004793Y021164D01*
X004793Y021091D01*
X004756Y021054D01*
X004683Y021054D01*
X006627Y025951D02*
X006774Y025951D01*
X006811Y025988D01*
X006811Y026061D01*
X006774Y026098D01*
X006627Y026098D01*
X006591Y026061D01*
X006591Y025988D01*
X006627Y025951D01*
X006591Y026172D02*
X006811Y026319D01*
X006591Y026319D01*
X006591Y026172D02*
X006811Y026172D01*
X006774Y039451D02*
X006811Y039488D01*
X006811Y039561D01*
X006774Y039598D01*
X006627Y039598D01*
X006591Y039561D01*
X006591Y039488D01*
X006627Y039451D01*
X006774Y039451D01*
X006811Y039672D02*
X006591Y039672D01*
X006811Y039819D01*
X006591Y039819D01*
X030015Y041736D02*
X030015Y036636D01*
X038315Y041436D02*
X038315Y044936D01*
X045515Y041236D02*
X045515Y036136D01*
X066073Y035701D02*
X066110Y035701D01*
X066256Y035554D01*
X066293Y035554D01*
X066073Y035554D02*
X066073Y035701D01*
X066183Y036554D02*
X066183Y036664D01*
X066220Y036701D01*
X066256Y036701D01*
X066293Y036664D01*
X066293Y036591D01*
X066256Y036554D01*
X066183Y036554D01*
X066110Y036627D01*
X066073Y036701D01*
X066073Y037554D02*
X066183Y037554D01*
X066146Y037627D01*
X066146Y037664D01*
X066183Y037701D01*
X066256Y037701D01*
X066293Y037664D01*
X066293Y037591D01*
X066256Y037554D01*
X066073Y037554D02*
X066073Y037701D01*
X066183Y038554D02*
X066183Y038701D01*
X066073Y038664D02*
X066183Y038554D01*
X066293Y038664D02*
X066073Y038664D01*
X066110Y039554D02*
X066073Y039591D01*
X066073Y039664D01*
X066110Y039701D01*
X066146Y039701D01*
X066183Y039664D01*
X066220Y039701D01*
X066256Y039701D01*
X066293Y039664D01*
X066293Y039591D01*
X066256Y039554D01*
X066183Y039627D02*
X066183Y039664D01*
X066110Y040554D02*
X066073Y040591D01*
X066073Y040664D01*
X066110Y040701D01*
X066146Y040701D01*
X066293Y040554D01*
X066293Y040701D01*
X066293Y041554D02*
X066293Y041701D01*
X066293Y041627D02*
X066073Y041627D01*
X066146Y041554D01*
X068091Y041561D02*
X068127Y041598D01*
X068274Y041598D01*
X068311Y041561D01*
X068311Y041488D01*
X068274Y041451D01*
X068127Y041451D01*
X068091Y041488D01*
X068091Y041561D01*
X068091Y041672D02*
X068311Y041819D01*
X068091Y041819D01*
X068091Y041672D02*
X068311Y041672D01*
X066256Y034701D02*
X066293Y034664D01*
X066293Y034591D01*
X066256Y034554D01*
X066220Y034554D01*
X066183Y034591D01*
X066183Y034664D01*
X066220Y034701D01*
X066256Y034701D01*
X066183Y034664D02*
X066146Y034701D01*
X066110Y034701D01*
X066073Y034664D01*
X066073Y034591D01*
X066110Y034554D01*
X066146Y034554D01*
X066183Y034591D01*
X066183Y033701D02*
X066183Y033591D01*
X066146Y033554D01*
X066110Y033554D01*
X066073Y033591D01*
X066073Y033664D01*
X066110Y033701D01*
X066256Y033701D01*
X066293Y033664D01*
X066293Y033591D01*
X066256Y033554D01*
X040763Y008258D02*
X040727Y008294D01*
X040653Y008294D01*
X040616Y008258D01*
X040763Y008258D02*
X040763Y008221D01*
X040616Y008074D01*
X040763Y008074D01*
X039763Y008074D02*
X039616Y008074D01*
X039690Y008074D02*
X039690Y008294D01*
X039616Y008221D01*
X039608Y010092D02*
X039645Y010129D01*
X039645Y010275D01*
X039608Y010312D01*
X039535Y010312D01*
X039498Y010275D01*
X039498Y010129D01*
X039535Y010092D01*
X039608Y010092D01*
X039719Y010092D02*
X039719Y010312D01*
X039866Y010092D01*
X039866Y010312D01*
D15*
X040154Y010456D02*
X040207Y010456D01*
X040390Y009974D02*
X040390Y008399D01*
X040980Y008399D01*
X040980Y009974D01*
X040390Y009974D01*
X039980Y009974D02*
X039980Y008399D01*
X039390Y008399D01*
X039390Y009974D01*
X039980Y009974D01*
X039154Y010456D02*
X038935Y010456D01*
X038935Y007916D01*
X039427Y007916D01*
X038945Y008399D01*
X039154Y007916D02*
X039427Y007916D01*
X040154Y007916D02*
X040207Y007916D01*
X041207Y007916D02*
X041425Y007916D01*
X041425Y010456D01*
X041207Y010456D01*
X065916Y032946D02*
X065916Y033164D01*
X065916Y032946D02*
X068455Y032946D01*
X068455Y033164D01*
X067973Y033391D02*
X066398Y033391D01*
X066398Y033981D01*
X067973Y033981D01*
X067973Y033391D01*
X068455Y034164D02*
X068455Y034218D01*
X067973Y034391D02*
X066398Y034391D01*
X066398Y034981D01*
X067973Y034981D01*
X067973Y034391D01*
X068455Y035164D02*
X068455Y035218D01*
X067973Y035391D02*
X066398Y035391D01*
X066398Y035981D01*
X067973Y035981D01*
X067973Y035391D01*
X068455Y036164D02*
X068455Y036218D01*
X067973Y036391D02*
X066398Y036391D01*
X066398Y036981D01*
X067973Y036981D01*
X067973Y036391D01*
X068455Y037164D02*
X068455Y037218D01*
X067973Y037391D02*
X066398Y037391D01*
X066398Y037981D01*
X067973Y037981D01*
X067973Y037391D01*
X068455Y038164D02*
X068455Y038218D01*
X067973Y038391D02*
X066398Y038391D01*
X066398Y038981D01*
X067973Y038981D01*
X067973Y038391D01*
X068455Y039164D02*
X068455Y039218D01*
X067973Y039391D02*
X066398Y039391D01*
X066398Y039981D01*
X067973Y039981D01*
X067973Y039391D01*
X068455Y040164D02*
X068455Y040218D01*
X067973Y040391D02*
X066398Y040391D01*
X066398Y040981D01*
X067973Y040981D01*
X067973Y040391D01*
X068455Y041164D02*
X068455Y041218D01*
X067973Y041391D02*
X066398Y041391D01*
X066398Y041981D01*
X067973Y041981D01*
X067973Y041391D01*
X068455Y042218D02*
X068455Y042436D01*
X065916Y042436D01*
X065916Y041944D01*
X066398Y042426D01*
X065916Y042218D02*
X065916Y041944D01*
X065916Y041218D02*
X065916Y041164D01*
X065916Y040218D02*
X065916Y040164D01*
X065916Y039218D02*
X065916Y039164D01*
X065916Y038218D02*
X065916Y038164D01*
X065916Y037218D02*
X065916Y037164D01*
X065916Y036218D02*
X065916Y036164D01*
X065916Y035218D02*
X065916Y035164D01*
X065916Y034218D02*
X065916Y034164D01*
X006955Y034164D02*
X006955Y034218D01*
X006473Y034391D02*
X004898Y034391D01*
X004898Y034981D01*
X006473Y034981D01*
X006473Y034391D01*
X006473Y033981D02*
X004898Y033981D01*
X004898Y033391D01*
X006473Y033391D01*
X006473Y033981D01*
X006955Y033218D02*
X006955Y033164D01*
X006473Y032981D02*
X004898Y032981D01*
X004898Y032391D01*
X006473Y032391D01*
X006473Y032981D01*
X006955Y032218D02*
X006955Y032164D01*
X006473Y031981D02*
X004898Y031981D01*
X004898Y031391D01*
X006473Y031391D01*
X006473Y031981D01*
X006955Y031218D02*
X006955Y031164D01*
X006473Y030981D02*
X004898Y030981D01*
X004898Y030391D01*
X006473Y030391D01*
X006473Y030981D01*
X006955Y030218D02*
X006955Y030164D01*
X006473Y029981D02*
X004898Y029981D01*
X004898Y029391D01*
X006473Y029391D01*
X006473Y029981D01*
X006955Y029218D02*
X006955Y029164D01*
X006473Y028981D02*
X004898Y028981D01*
X004898Y028391D01*
X006473Y028391D01*
X006473Y028981D01*
X006955Y028164D02*
X006955Y027946D01*
X004416Y027946D01*
X004416Y028164D01*
X004416Y029164D02*
X004416Y029218D01*
X004416Y030164D02*
X004416Y030218D01*
X004416Y031164D02*
X004416Y031218D01*
X004416Y032164D02*
X004416Y032218D01*
X004416Y033164D02*
X004416Y033218D01*
X004416Y034164D02*
X004416Y034218D01*
X004416Y035164D02*
X004416Y035218D01*
X004898Y035391D02*
X004898Y035981D01*
X006473Y035981D01*
X006473Y035391D01*
X004898Y035391D01*
X004416Y036164D02*
X004416Y036218D01*
X004898Y036391D02*
X004898Y036981D01*
X006473Y036981D01*
X006473Y036391D01*
X004898Y036391D01*
X004416Y037164D02*
X004416Y037218D01*
X004898Y037391D02*
X004898Y037981D01*
X006473Y037981D01*
X006473Y037391D01*
X004898Y037391D01*
X004416Y038164D02*
X004416Y038218D01*
X004898Y038391D02*
X004898Y038981D01*
X006473Y038981D01*
X006473Y038391D01*
X004898Y038391D01*
X004416Y039164D02*
X004416Y039218D01*
X004898Y039391D02*
X004898Y039981D01*
X006473Y039981D01*
X006473Y039391D01*
X004898Y039391D01*
X004416Y039944D02*
X004898Y040426D01*
X004416Y040436D02*
X004416Y039944D01*
X004416Y040218D01*
X004416Y040436D02*
X006955Y040436D01*
X006955Y040218D01*
X006955Y039218D02*
X006955Y039164D01*
X006955Y038218D02*
X006955Y038164D01*
X006955Y037218D02*
X006955Y037164D01*
X006955Y036218D02*
X006955Y036164D01*
X006955Y035218D02*
X006955Y035164D01*
X006955Y041446D02*
X004416Y041446D01*
X004416Y041664D01*
X004898Y041891D02*
X004898Y042481D01*
X006473Y042481D01*
X006473Y041891D01*
X004898Y041891D01*
X004416Y042664D02*
X004416Y042718D01*
X004898Y042891D02*
X004898Y043481D01*
X006473Y043481D01*
X006473Y042891D01*
X004898Y042891D01*
X004416Y043664D02*
X004416Y043718D01*
X004898Y043891D02*
X004898Y044481D01*
X006473Y044481D01*
X006473Y043891D01*
X004898Y043891D01*
X004416Y044444D02*
X004416Y044936D01*
X006955Y044936D01*
X006955Y044718D01*
X006955Y043718D02*
X006955Y043664D01*
X006955Y042718D02*
X006955Y042664D01*
X006955Y041664D02*
X006955Y041446D01*
X004416Y044444D02*
X004898Y044926D01*
X004416Y044718D02*
X004416Y044444D01*
X004416Y026936D02*
X004416Y026444D01*
X004898Y026926D01*
X004898Y026481D02*
X006473Y026481D01*
X006473Y025891D01*
X004898Y025891D01*
X004898Y026481D01*
X004416Y026444D02*
X004416Y026718D01*
X004416Y026936D02*
X006955Y026936D01*
X006955Y026718D01*
X006955Y025718D02*
X006955Y025664D01*
X006473Y025481D02*
X004898Y025481D01*
X004898Y024891D01*
X006473Y024891D01*
X006473Y025481D01*
X006955Y024718D02*
X006955Y024664D01*
X006473Y024481D02*
X004898Y024481D01*
X004898Y023891D01*
X006473Y023891D01*
X006473Y024481D01*
X006955Y023718D02*
X006955Y023664D01*
X006473Y023481D02*
X004898Y023481D01*
X004898Y022891D01*
X006473Y022891D01*
X006473Y023481D01*
X006955Y022718D02*
X006955Y022664D01*
X006473Y022481D02*
X004898Y022481D01*
X004898Y021891D01*
X006473Y021891D01*
X006473Y022481D01*
X006955Y021718D02*
X006955Y021664D01*
X006473Y021481D02*
X004898Y021481D01*
X004898Y020891D01*
X006473Y020891D01*
X006473Y021481D01*
X006955Y020664D02*
X006955Y020446D01*
X004416Y020446D01*
X004416Y020664D01*
X004416Y021664D02*
X004416Y021718D01*
X004416Y022664D02*
X004416Y022718D01*
X004416Y023664D02*
X004416Y023718D01*
X004416Y024664D02*
X004416Y024718D01*
X004416Y025664D02*
X004416Y025718D01*
D16*
X005193Y026186D03*
X005193Y025186D03*
X005193Y024186D03*
X005193Y023186D03*
X005193Y022186D03*
X005193Y021186D03*
X005193Y028686D03*
X005193Y029686D03*
X005193Y030686D03*
X005193Y031686D03*
X005193Y032686D03*
X005193Y033686D03*
X005193Y034686D03*
X005193Y035686D03*
X005193Y036686D03*
X005193Y037686D03*
X005193Y038686D03*
X005193Y039686D03*
X005193Y042186D03*
X005193Y043186D03*
X005193Y044186D03*
X039685Y008694D03*
X040685Y008694D03*
X066693Y033686D03*
X066693Y034686D03*
X066693Y035686D03*
X066693Y036686D03*
X066693Y037686D03*
X066693Y038686D03*
X066693Y039686D03*
X066693Y040686D03*
X066693Y041686D03*
D17*
X033185Y005686D03*
X032185Y005686D03*
X031185Y005686D03*
X031185Y004686D03*
X032185Y004686D03*
X033185Y004686D03*
X030185Y004686D03*
X029185Y004686D03*
X028185Y004686D03*
X027185Y004686D03*
X027185Y005686D03*
X028185Y005686D03*
X029185Y005686D03*
X030185Y005686D03*
X026185Y005686D03*
X025185Y005686D03*
X024185Y005686D03*
X023185Y005686D03*
X023185Y004686D03*
X024185Y004686D03*
X025185Y004686D03*
X026185Y004686D03*
X022185Y004686D03*
X021185Y004686D03*
X021185Y005686D03*
X022185Y005686D03*
M02*
