G75*
G70*
%OFA0B0*%
%FSLAX24Y24*%
%IPPOS*%
%LPD*%
%AMOC8*
5,1,8,0,0,1.08239X$1,22.5*
%
%ADD10C,0.0160*%
%ADD11C,0.0030*%
%ADD12C,0.0080*%
%ADD13C,0.0060*%
D10*
X000653Y000651D02*
X013153Y000651D01*
X013153Y011651D01*
X000653Y011651D01*
X000653Y000651D01*
D11*
X002081Y002895D02*
X002081Y003040D01*
X002129Y003088D01*
X002226Y003088D01*
X002274Y003040D01*
X002274Y002895D01*
X002371Y002895D02*
X002081Y002895D01*
X002081Y003189D02*
X002371Y003189D01*
X002274Y003286D01*
X002371Y003383D01*
X002081Y003383D01*
X002081Y003484D02*
X002081Y003629D01*
X002129Y003677D01*
X002226Y003677D01*
X002274Y003629D01*
X002274Y003484D01*
X002274Y003581D02*
X002371Y003677D01*
X002371Y003779D02*
X002371Y003924D01*
X002323Y003972D01*
X002129Y003972D01*
X002081Y003924D01*
X002081Y003779D01*
X002371Y003779D01*
X002371Y003484D02*
X002081Y003484D01*
X002081Y004073D02*
X002371Y004073D01*
X002274Y004170D01*
X002371Y004267D01*
X002081Y004267D01*
X002081Y004368D02*
X002371Y004561D01*
X002081Y004561D01*
X002081Y004368D02*
X002371Y004368D01*
X003120Y004420D02*
X003362Y004420D01*
X003411Y004468D01*
X003411Y004565D01*
X003362Y004613D01*
X003120Y004613D01*
X003120Y004714D02*
X003120Y004908D01*
X003120Y004811D02*
X003411Y004811D01*
X003362Y004319D02*
X003169Y004319D01*
X003120Y004270D01*
X003120Y004173D01*
X003169Y004125D01*
X003362Y004125D01*
X003411Y004173D01*
X003411Y004270D01*
X003362Y004319D01*
X003120Y004024D02*
X003120Y003830D01*
X003411Y003830D01*
X003411Y003729D02*
X003411Y003536D01*
X003120Y003536D01*
X003120Y003729D01*
X003265Y003632D02*
X003265Y003536D01*
X003265Y003435D02*
X003169Y003435D01*
X003120Y003386D01*
X003120Y003241D01*
X003411Y003241D01*
X003314Y003241D02*
X003314Y003386D01*
X003265Y003435D01*
X003314Y003338D02*
X003411Y003435D01*
X003314Y003140D02*
X003120Y003140D01*
X003120Y002946D02*
X003314Y002946D01*
X003411Y003043D01*
X003314Y003140D01*
X003986Y003186D02*
X004180Y003186D01*
X004277Y003090D01*
X004180Y002993D01*
X003986Y002993D01*
X003986Y003288D02*
X003986Y003433D01*
X004035Y003481D01*
X004132Y003481D01*
X004180Y003433D01*
X004180Y003288D01*
X004180Y003384D02*
X004277Y003481D01*
X004277Y003582D02*
X004277Y003776D01*
X004277Y003877D02*
X003986Y003877D01*
X003986Y004070D01*
X003986Y004171D02*
X003986Y004268D01*
X003986Y004220D02*
X004277Y004220D01*
X004277Y004268D02*
X004277Y004171D01*
X004132Y003974D02*
X004132Y003877D01*
X003986Y003776D02*
X003986Y003582D01*
X004277Y003582D01*
X004132Y003582D02*
X004132Y003679D01*
X004277Y003288D02*
X003986Y003288D01*
X003265Y003830D02*
X003265Y003927D01*
X003986Y004368D02*
X004277Y004561D01*
X003986Y004561D01*
X003986Y004368D02*
X004277Y004368D01*
X005026Y003820D02*
X005026Y003675D01*
X005316Y003675D01*
X005316Y003820D01*
X005268Y003868D01*
X005074Y003868D01*
X005026Y003820D01*
X005026Y003574D02*
X005316Y003574D01*
X005026Y003380D01*
X005316Y003380D01*
X005268Y003279D02*
X005171Y003279D01*
X005171Y003182D01*
X005074Y003086D02*
X005268Y003086D01*
X005316Y003134D01*
X005316Y003231D01*
X005268Y003279D01*
X005074Y003279D02*
X005026Y003231D01*
X005026Y003134D01*
X005074Y003086D01*
X006065Y003207D02*
X006259Y003207D01*
X006355Y003304D01*
X006259Y003401D01*
X006065Y003401D01*
X006065Y003502D02*
X006065Y003647D01*
X006114Y003695D01*
X006307Y003695D01*
X006355Y003647D01*
X006355Y003502D01*
X006065Y003502D01*
X006931Y003454D02*
X006931Y003357D01*
X006931Y003406D02*
X007222Y003406D01*
X007222Y003454D02*
X007222Y003357D01*
X007222Y003256D02*
X007028Y003256D01*
X006931Y003159D01*
X007028Y003063D01*
X007222Y003063D01*
X007076Y003063D02*
X007076Y003256D01*
X006931Y003554D02*
X007222Y003747D01*
X006931Y003747D01*
X007076Y003848D02*
X007076Y004042D01*
X007222Y003554D02*
X006931Y003554D01*
X007971Y003554D02*
X008261Y003747D01*
X007971Y003747D01*
X008116Y003848D02*
X008116Y004042D01*
X008019Y003945D02*
X008213Y003945D01*
X008261Y003554D02*
X007971Y003554D01*
X007971Y003454D02*
X007971Y003357D01*
X007971Y003406D02*
X008261Y003406D01*
X008261Y003454D02*
X008261Y003357D01*
X008261Y003256D02*
X008067Y003256D01*
X007971Y003159D01*
X008067Y003063D01*
X008261Y003063D01*
X008116Y003063D02*
X008116Y003256D01*
X009010Y003227D02*
X009204Y003227D01*
X009300Y003131D01*
X009204Y003034D01*
X009010Y003034D01*
X009010Y003329D02*
X009010Y003474D01*
X009058Y003522D01*
X009252Y003522D01*
X009300Y003474D01*
X009300Y003329D01*
X009010Y003329D01*
X009876Y003380D02*
X010166Y003574D01*
X009876Y003574D01*
X009876Y003675D02*
X009876Y003820D01*
X009925Y003868D01*
X010118Y003868D01*
X010166Y003820D01*
X010166Y003675D01*
X009876Y003675D01*
X009876Y003380D02*
X010166Y003380D01*
X010118Y003279D02*
X010021Y003279D01*
X010021Y003182D01*
X009925Y003086D02*
X010118Y003086D01*
X010166Y003134D01*
X010166Y003231D01*
X010118Y003279D01*
X009925Y003279D02*
X009876Y003231D01*
X009876Y003134D01*
X009925Y003086D01*
X010916Y003068D02*
X011206Y003068D01*
X011206Y003261D01*
X011206Y003363D02*
X010916Y003363D01*
X011206Y003556D01*
X010916Y003556D01*
X010964Y003657D02*
X011157Y003657D01*
X011206Y003706D01*
X011206Y003802D01*
X011157Y003851D01*
X011157Y003952D02*
X010964Y003952D01*
X010916Y004000D01*
X010916Y004097D01*
X010964Y004145D01*
X011157Y004145D01*
X011206Y004097D01*
X011206Y004000D01*
X011157Y003952D01*
X010964Y003851D02*
X010916Y003802D01*
X010916Y003706D01*
X010964Y003657D01*
X010916Y003261D02*
X010916Y003068D01*
X011061Y003068D02*
X011061Y003165D01*
X010916Y004246D02*
X011206Y004246D01*
X011206Y004392D01*
X011157Y004440D01*
X010964Y004440D01*
X010916Y004392D01*
X010916Y004246D01*
X010916Y004541D02*
X011206Y004541D01*
X011206Y004735D01*
X011061Y004638D02*
X011061Y004541D01*
X010916Y004541D02*
X010916Y004735D01*
X011089Y008750D02*
X011089Y008896D01*
X011137Y008944D01*
X011331Y008944D01*
X011379Y008896D01*
X011379Y008750D01*
X011089Y008750D01*
X011089Y009045D02*
X011089Y009239D01*
X011137Y009239D01*
X011331Y009045D01*
X011379Y009045D01*
X010340Y009093D02*
X010340Y009190D01*
X010291Y009239D01*
X010243Y009239D01*
X010195Y009190D01*
X010195Y009045D01*
X010291Y009045D01*
X010340Y009093D01*
X010195Y009045D02*
X010098Y009142D01*
X010049Y009239D01*
X010098Y008944D02*
X010049Y008896D01*
X010049Y008750D01*
X010340Y008750D01*
X010340Y008896D01*
X010291Y008944D01*
X010098Y008944D01*
X009300Y008896D02*
X009300Y008750D01*
X009010Y008750D01*
X009010Y008896D01*
X009058Y008944D01*
X009252Y008944D01*
X009300Y008896D01*
X009252Y009045D02*
X009300Y009093D01*
X009300Y009190D01*
X009252Y009239D01*
X009155Y009239D01*
X009107Y009190D01*
X009107Y009142D01*
X009155Y009045D01*
X009010Y009045D01*
X009010Y009239D01*
X008261Y009190D02*
X007971Y009190D01*
X008116Y009045D01*
X008116Y009239D01*
X008213Y008944D02*
X008019Y008944D01*
X007971Y008896D01*
X007971Y008750D01*
X008261Y008750D01*
X008261Y008896D01*
X008213Y008944D01*
X007222Y008847D02*
X007125Y008944D01*
X006931Y008944D01*
X006931Y009045D02*
X006931Y009190D01*
X006980Y009239D01*
X007173Y009239D01*
X007222Y009190D01*
X007222Y009045D01*
X006931Y009045D01*
X006931Y008750D02*
X007125Y008750D01*
X007222Y008847D01*
X006355Y008750D02*
X006065Y008750D01*
X006355Y008944D01*
X006065Y008944D01*
X006065Y009045D02*
X006065Y009190D01*
X006114Y009239D01*
X006307Y009239D01*
X006355Y009190D01*
X006355Y009045D01*
X006065Y009045D01*
X006114Y008649D02*
X006065Y008601D01*
X006065Y008504D01*
X006114Y008456D01*
X006307Y008456D01*
X006355Y008504D01*
X006355Y008601D01*
X006307Y008649D01*
X006210Y008649D01*
X006210Y008553D01*
X005316Y008750D02*
X005316Y008896D01*
X005268Y008944D01*
X005074Y008944D01*
X005026Y008896D01*
X005026Y008750D01*
X005316Y008750D01*
X005268Y009045D02*
X005316Y009093D01*
X005316Y009190D01*
X005268Y009239D01*
X005219Y009239D01*
X005171Y009190D01*
X005171Y009142D01*
X005171Y009190D02*
X005123Y009239D01*
X005074Y009239D01*
X005026Y009190D01*
X005026Y009093D01*
X005074Y009045D01*
X004277Y009045D02*
X004083Y009239D01*
X004035Y009239D01*
X003986Y009190D01*
X003986Y009093D01*
X004035Y009045D01*
X004035Y008944D02*
X003986Y008896D01*
X003986Y008750D01*
X004277Y008750D01*
X004277Y008896D01*
X004228Y008944D01*
X004035Y008944D01*
X004277Y009045D02*
X004277Y009239D01*
X003237Y009239D02*
X003237Y009045D01*
X003237Y009142D02*
X002947Y009142D01*
X003044Y009045D01*
X002995Y008944D02*
X002947Y008896D01*
X002947Y008750D01*
X003237Y008750D01*
X003237Y008896D01*
X003189Y008944D01*
X002995Y008944D01*
X002198Y008896D02*
X002198Y008750D01*
X001908Y008750D01*
X001908Y008896D01*
X001956Y008944D01*
X002150Y008944D01*
X002198Y008896D01*
X002150Y009045D02*
X001956Y009045D01*
X001908Y009093D01*
X001908Y009190D01*
X001956Y009239D01*
X002150Y009045D01*
X002198Y009093D01*
X002198Y009190D01*
X002150Y009239D01*
X001956Y009239D01*
X008168Y011215D02*
X008216Y011166D01*
X008264Y011166D01*
X008313Y011215D01*
X008313Y011457D01*
X008361Y011457D02*
X008264Y011457D01*
X008511Y011360D02*
X008608Y011360D01*
X008656Y011312D01*
X008656Y011166D01*
X008511Y011166D01*
X008462Y011215D01*
X008511Y011263D01*
X008656Y011263D01*
X008757Y011312D02*
X008805Y011360D01*
X008951Y011360D01*
X008902Y011263D02*
X008805Y011263D01*
X008757Y011312D01*
X008757Y011166D02*
X008902Y011166D01*
X008951Y011215D01*
X008902Y011263D01*
X009052Y011215D02*
X009100Y011166D01*
X009197Y011166D01*
X009245Y011215D01*
X009245Y011312D01*
X009197Y011360D01*
X009100Y011360D01*
X009052Y011312D01*
X009052Y011215D01*
X009346Y011166D02*
X009346Y011360D01*
X009491Y011360D01*
X009540Y011312D01*
X009540Y011166D01*
X009788Y011166D02*
X009933Y011166D01*
X009982Y011215D01*
X009933Y011263D01*
X009837Y011263D01*
X009788Y011312D01*
X009837Y011360D01*
X009982Y011360D01*
X009689Y011408D02*
X009641Y011360D01*
X009689Y011408D02*
X009689Y011505D01*
X010378Y011457D02*
X010378Y011166D01*
X010378Y011312D02*
X010474Y011312D01*
X010378Y011457D02*
X010571Y011457D01*
X010672Y011360D02*
X010721Y011360D01*
X010721Y011166D01*
X010769Y011166D02*
X010672Y011166D01*
X010869Y011166D02*
X010869Y011360D01*
X010965Y011360D02*
X010869Y011263D01*
X010965Y011360D02*
X011014Y011360D01*
X011114Y011312D02*
X011163Y011360D01*
X011308Y011360D01*
X011409Y011360D02*
X011506Y011360D01*
X011457Y011408D02*
X011457Y011215D01*
X011506Y011166D01*
X011308Y011215D02*
X011259Y011166D01*
X011114Y011166D01*
X011163Y011263D02*
X011114Y011312D01*
X011163Y011263D02*
X011259Y011263D01*
X011308Y011215D01*
X010721Y011457D02*
X010721Y011505D01*
X011900Y011457D02*
X011900Y011166D01*
X011900Y011263D02*
X012045Y011263D01*
X012093Y011312D01*
X012093Y011408D01*
X012045Y011457D01*
X011900Y011457D01*
X012195Y011408D02*
X012195Y011215D01*
X012243Y011166D01*
X012340Y011166D01*
X012388Y011215D01*
X012489Y011166D02*
X012634Y011166D01*
X012683Y011215D01*
X012683Y011263D01*
X012634Y011312D01*
X012489Y011312D01*
X012388Y011408D02*
X012340Y011457D01*
X012243Y011457D01*
X012195Y011408D01*
X012489Y011457D02*
X012489Y011166D01*
X012634Y011312D02*
X012683Y011360D01*
X012683Y011408D01*
X012634Y011457D01*
X012489Y011457D01*
D12*
X007653Y006901D02*
X007653Y005551D01*
X004903Y005551D02*
X004903Y006901D01*
D13*
X004903Y009651D02*
X005403Y009651D01*
X005653Y009901D01*
X005903Y009651D01*
X006403Y009651D01*
X006653Y009901D01*
X006653Y010401D01*
X006403Y010651D01*
X005903Y010651D01*
X005653Y010401D01*
X005653Y009901D01*
X005653Y010401D02*
X005403Y010651D01*
X004903Y010651D01*
X004653Y010401D01*
X004653Y009901D01*
X004903Y009651D01*
X004653Y009901D02*
X004403Y009651D01*
X003903Y009651D01*
X003653Y009901D01*
X003403Y009651D01*
X002903Y009651D01*
X002653Y009901D01*
X002403Y009651D01*
X001903Y009651D01*
X001653Y009901D01*
X001653Y010401D01*
X001903Y010651D01*
X002403Y010651D01*
X002653Y010401D01*
X002903Y010651D01*
X003403Y010651D01*
X003653Y010401D01*
X003653Y009901D01*
X003653Y010401D02*
X003903Y010651D01*
X004403Y010651D01*
X004653Y010401D01*
X002653Y010401D02*
X002653Y009901D01*
X006653Y009901D02*
X006903Y009651D01*
X007403Y009651D01*
X007653Y009901D01*
X007903Y009651D01*
X008403Y009651D01*
X008653Y009901D01*
X008903Y009651D01*
X009403Y009651D01*
X009653Y009901D01*
X009653Y010401D01*
X009403Y010651D01*
X008903Y010651D01*
X008653Y010401D01*
X008653Y009901D01*
X008653Y010401D02*
X008403Y010651D01*
X007903Y010651D01*
X007653Y010401D01*
X007653Y009901D01*
X007653Y010401D02*
X007403Y010651D01*
X006903Y010651D01*
X006653Y010401D01*
X009653Y010401D02*
X009903Y010651D01*
X010403Y010651D01*
X010653Y010401D01*
X010903Y010651D01*
X011403Y010651D01*
X011653Y010401D01*
X011653Y009901D01*
X011403Y009651D01*
X010903Y009651D01*
X010653Y009901D01*
X010403Y009651D01*
X009903Y009651D01*
X009653Y009901D01*
X010653Y009901D02*
X010653Y010401D01*
X010403Y002651D02*
X009903Y002651D01*
X009653Y002401D01*
X009653Y001901D01*
X009903Y001651D01*
X010403Y001651D01*
X010653Y001901D01*
X010653Y002401D01*
X010403Y002651D01*
X010653Y002401D02*
X010903Y002651D01*
X011403Y002651D01*
X011653Y002401D01*
X011653Y001901D01*
X011403Y001651D01*
X010903Y001651D01*
X010653Y001901D01*
X009653Y001901D02*
X009403Y001651D01*
X008903Y001651D01*
X008653Y001901D01*
X008403Y001651D01*
X007903Y001651D01*
X007653Y001901D01*
X007403Y001651D01*
X006903Y001651D01*
X006653Y001901D01*
X006653Y002401D01*
X006903Y002651D01*
X007403Y002651D01*
X007653Y002401D01*
X007903Y002651D01*
X008403Y002651D01*
X008653Y002401D01*
X008903Y002651D01*
X009403Y002651D01*
X009653Y002401D01*
X008653Y002401D02*
X008653Y001901D01*
X007653Y001901D02*
X007653Y002401D01*
X006653Y002401D02*
X006403Y002651D01*
X005903Y002651D01*
X005653Y002401D01*
X005403Y002651D01*
X004903Y002651D01*
X004653Y002401D01*
X004403Y002651D01*
X003903Y002651D01*
X003653Y002401D01*
X003653Y001901D01*
X003903Y001651D01*
X004403Y001651D01*
X004653Y001901D01*
X004653Y002401D01*
X004653Y001901D02*
X004903Y001651D01*
X005403Y001651D01*
X005653Y001901D01*
X005653Y002401D01*
X005653Y001901D02*
X005903Y001651D01*
X006403Y001651D01*
X006653Y001901D01*
X003653Y001901D02*
X003403Y001651D01*
X002903Y001651D01*
X002653Y001901D01*
X002403Y001651D01*
X001903Y001651D01*
X001653Y001901D01*
X001653Y002401D01*
X001903Y002651D01*
X002403Y002651D01*
X002653Y002401D01*
X002903Y002651D01*
X003403Y002651D01*
X003653Y002401D01*
X002653Y002401D02*
X002653Y001901D01*
M02*
