G75*
G70*
%OFA0B0*%
%FSLAX24Y24*%
%IPPOS*%
%LPD*%
%AMOC8*
5,1,8,0,0,1.08239X$1,22.5*
%
%ADD10C,0.0160*%
%ADD11R,0.0080X0.0256*%
%ADD12R,0.0080X0.0257*%
%ADD13C,0.0600*%
%ADD14C,0.0100*%
D10*
X000653Y000651D02*
X013153Y000651D01*
X013153Y011651D01*
X000653Y011651D01*
X000653Y000651D01*
D11*
X005129Y005187D03*
X005385Y005187D03*
X005641Y005187D03*
X005897Y005187D03*
X006409Y005187D03*
X006665Y005187D03*
X006920Y005187D03*
X007176Y005187D03*
X007432Y005187D03*
X007432Y007175D03*
X007176Y007175D03*
X006920Y007175D03*
X006665Y007175D03*
X006409Y007175D03*
X006153Y007175D03*
X005897Y007175D03*
X005641Y007175D03*
X005385Y007175D03*
X005129Y007175D03*
D12*
X006153Y005187D03*
D13*
X006153Y002451D02*
X006153Y001851D01*
X007153Y001851D02*
X007153Y002451D01*
X008153Y002451D02*
X008153Y001851D01*
X009153Y001851D02*
X009153Y002451D01*
X010153Y002451D02*
X010153Y001851D01*
X011153Y001851D02*
X011153Y002451D01*
X005153Y002451D02*
X005153Y001851D01*
X004153Y001851D02*
X004153Y002451D01*
X003153Y002451D02*
X003153Y001851D01*
X002153Y001851D02*
X002153Y002451D01*
X002153Y009851D02*
X002153Y010451D01*
X003153Y010451D02*
X003153Y009851D01*
X004153Y009851D02*
X004153Y010451D01*
X005153Y010451D02*
X005153Y009851D01*
X006153Y009851D02*
X006153Y010451D01*
X007153Y010451D02*
X007153Y009851D01*
X008153Y009851D02*
X008153Y010451D01*
X009153Y010451D02*
X009153Y009851D01*
X010153Y009851D02*
X010153Y010451D01*
X011153Y010451D02*
X011153Y009851D01*
D14*
X000576Y000151D02*
X000153Y000151D01*
X000153Y000152D02*
X000153Y000584D01*
X000153Y000978D02*
X000153Y001411D01*
X000153Y001804D02*
X000153Y002237D01*
X000153Y002631D02*
X000153Y003063D01*
X000153Y003457D02*
X000153Y003889D01*
X000153Y004283D02*
X000153Y004716D01*
X000153Y005109D02*
X000153Y005542D01*
X000153Y005935D02*
X000153Y006368D01*
X000153Y006762D02*
X000153Y007194D01*
X000153Y007588D02*
X000153Y008020D01*
X000153Y008414D02*
X000153Y008847D01*
X000153Y009240D02*
X000153Y009673D01*
X000153Y010067D02*
X000153Y010499D01*
X000153Y010893D02*
X000153Y011325D01*
X000153Y011719D02*
X000153Y012151D01*
X000577Y012151D01*
X000971Y012151D02*
X001394Y012151D01*
X001788Y012151D02*
X002211Y012151D01*
X002605Y012151D02*
X003029Y012151D01*
X003422Y012151D02*
X003846Y012151D01*
X004240Y012151D02*
X004663Y012151D01*
X005057Y012151D02*
X005480Y012151D01*
X005874Y012151D02*
X006298Y012151D01*
X006691Y012151D02*
X007115Y012151D01*
X007509Y012151D02*
X007932Y012151D01*
X008326Y012151D02*
X008749Y012151D01*
X009143Y012151D02*
X009567Y012151D01*
X009960Y012151D02*
X010384Y012151D01*
X010777Y012151D02*
X011201Y012151D01*
X011595Y012151D02*
X012018Y012151D01*
X012412Y012151D02*
X012836Y012151D01*
X013229Y012151D02*
X013653Y012151D01*
X013653Y011719D01*
X013653Y011325D02*
X013653Y010892D01*
X013653Y010499D02*
X013653Y010066D01*
X013653Y009672D02*
X013653Y009240D01*
X013653Y008846D02*
X013653Y008414D01*
X013653Y008020D02*
X013653Y007587D01*
X013653Y007194D02*
X013653Y006761D01*
X013653Y006368D02*
X013653Y005935D01*
X013653Y005541D02*
X013653Y005109D01*
X013653Y004715D02*
X013653Y004283D01*
X013653Y003889D02*
X013653Y003456D01*
X013653Y003063D02*
X013653Y002630D01*
X013653Y002236D02*
X013653Y001804D01*
X013653Y001410D02*
X013653Y000978D01*
X013653Y000584D02*
X013653Y000151D01*
X013652Y000151D02*
X013229Y000151D01*
X012835Y000151D02*
X012411Y000151D01*
X012018Y000151D02*
X011594Y000151D01*
X011200Y000151D02*
X010777Y000151D01*
X010383Y000151D02*
X009960Y000151D01*
X009566Y000151D02*
X009142Y000151D01*
X008749Y000151D02*
X008325Y000151D01*
X007931Y000151D02*
X007508Y000151D01*
X007114Y000151D02*
X006691Y000151D01*
X006297Y000151D02*
X005873Y000151D01*
X005480Y000151D02*
X005056Y000151D01*
X004663Y000151D02*
X004239Y000151D01*
X003845Y000151D02*
X003422Y000151D01*
X003028Y000151D02*
X002604Y000151D01*
X002211Y000151D02*
X001787Y000151D01*
X001394Y000151D02*
X000970Y000151D01*
X002153Y002151D02*
X005129Y005128D01*
X005129Y005187D01*
X005385Y005187D02*
X005385Y004384D01*
X003153Y002151D01*
X004153Y002151D02*
X005641Y003640D01*
X005641Y005187D01*
X005897Y005187D02*
X005897Y002896D01*
X005153Y002151D01*
X006153Y002151D02*
X006153Y005187D01*
X006409Y005187D02*
X006409Y002896D01*
X007153Y002151D01*
X008153Y002151D02*
X006665Y003640D01*
X006665Y005187D01*
X006920Y005187D02*
X006920Y004384D01*
X009153Y002151D01*
X010153Y002151D02*
X008153Y004151D01*
X007653Y004151D01*
X007153Y004651D01*
X007176Y004675D01*
X007176Y005187D01*
X007432Y005187D02*
X009468Y003151D01*
X010153Y003151D01*
X011153Y002151D01*
X008153Y007151D02*
X007456Y007151D01*
X007432Y007175D01*
X007176Y007175D02*
X007153Y007199D01*
X007153Y007651D01*
X008653Y009151D01*
X009153Y009151D01*
X010153Y010151D01*
X010106Y010151D01*
X009153Y010151D02*
X006920Y007919D01*
X006920Y007175D01*
X006665Y007175D02*
X006665Y008663D01*
X008153Y010151D01*
X007153Y010151D02*
X006409Y009407D01*
X006409Y007175D01*
X006153Y007175D02*
X006153Y010151D01*
X005897Y009407D02*
X005897Y007175D01*
X006153Y007175D02*
X006153Y007151D01*
X005641Y007175D02*
X005641Y008663D01*
X004153Y010151D01*
X005153Y010151D02*
X005897Y009407D01*
X005385Y007919D02*
X005385Y007175D01*
X005129Y007175D02*
X002153Y010151D01*
X003153Y010151D02*
X005385Y007919D01*
X008153Y007151D02*
X011153Y010151D01*
M02*
