G75*
G70*
%OFA0B0*%
%FSLAX24Y24*%
%IPPOS*%
%LPD*%
%AMOC8*
5,1,8,0,0,1.08239X$1,22.5*
%
%ADD10C,0.0000*%
%ADD11C,0.0040*%
%ADD12C,0.0050*%
%ADD13C,0.0080*%
%ADD14C,0.0060*%
%ADD15C,0.0300*%
%ADD16R,0.0200X0.0300*%
%ADD17R,0.0400X0.0300*%
%ADD18R,0.0180X0.0300*%
%ADD19C,0.0220*%
D10*
X003000Y000100D02*
X003000Y006470D01*
X017242Y006470D01*
X017242Y000100D01*
X003000Y000100D01*
D11*
X003520Y000620D02*
X003520Y000927D01*
X003673Y001080D01*
X003827Y000927D01*
X003827Y000620D01*
X003980Y000697D02*
X004057Y000620D01*
X004211Y000620D01*
X004287Y000697D01*
X004287Y000773D01*
X004211Y000850D01*
X004057Y000850D01*
X003980Y000927D01*
X003980Y001004D01*
X004057Y001080D01*
X004211Y001080D01*
X004287Y001004D01*
X004441Y001080D02*
X004671Y001080D01*
X004748Y001004D01*
X004748Y000850D01*
X004671Y000773D01*
X004441Y000773D01*
X004441Y000620D02*
X004441Y001080D01*
X003827Y000850D02*
X003520Y000850D01*
X005362Y000620D02*
X005668Y000620D01*
X005822Y000620D02*
X005822Y001080D01*
X006129Y001080D01*
X006282Y001004D02*
X006282Y000697D01*
X006359Y000620D01*
X006513Y000620D01*
X006589Y000697D01*
X005975Y000850D02*
X005822Y000850D01*
X006282Y001004D02*
X006359Y001080D01*
X006513Y001080D01*
X006589Y001004D01*
X007203Y001004D02*
X007203Y000697D01*
X007280Y000620D01*
X007433Y000620D01*
X007510Y000697D01*
X007664Y000620D02*
X007817Y000620D01*
X007740Y000620D02*
X007740Y001080D01*
X007664Y001080D01*
X007510Y001004D02*
X007433Y001080D01*
X007280Y001080D01*
X007203Y001004D01*
X007970Y000850D02*
X007970Y000697D01*
X008047Y000620D01*
X008201Y000620D01*
X008277Y000697D01*
X008277Y000850D01*
X008201Y000927D01*
X008047Y000927D01*
X007970Y000850D01*
X008431Y000850D02*
X008431Y000697D01*
X008508Y000620D01*
X008738Y000620D01*
X008891Y000620D02*
X008891Y001080D01*
X008738Y000927D02*
X008508Y000927D01*
X008431Y000850D01*
X008891Y000773D02*
X009121Y000927D01*
X008891Y000773D02*
X009121Y000620D01*
X009735Y000620D02*
X009735Y001080D01*
X009965Y001080D01*
X010042Y001004D01*
X010042Y000850D01*
X009965Y000773D01*
X009735Y000773D01*
X009889Y000773D02*
X010042Y000620D01*
X010196Y000697D02*
X010196Y000850D01*
X010272Y000927D01*
X010426Y000927D01*
X010503Y000850D01*
X010503Y000773D01*
X010196Y000773D01*
X010196Y000697D02*
X010272Y000620D01*
X010426Y000620D01*
X010810Y000620D02*
X010963Y000927D01*
X010656Y000927D02*
X010810Y000620D01*
X011577Y000620D02*
X011577Y000927D01*
X011730Y001080D01*
X011884Y000927D01*
X011884Y000620D01*
X011884Y000850D02*
X011577Y000850D01*
X006498Y002447D02*
X006498Y002754D01*
X006421Y002830D01*
X006191Y002830D01*
X006191Y002370D01*
X006421Y002370D01*
X006498Y002447D01*
X006037Y002370D02*
X006037Y002830D01*
X005730Y002830D02*
X006037Y002370D01*
X005730Y002370D02*
X005730Y002830D01*
X005577Y002754D02*
X005500Y002830D01*
X005347Y002830D01*
X005270Y002754D01*
X005270Y002447D01*
X005347Y002370D01*
X005500Y002370D01*
X005577Y002447D01*
X005577Y002600D01*
X005423Y002600D01*
X005347Y003370D02*
X005270Y003447D01*
X005347Y003370D02*
X005500Y003370D01*
X005577Y003447D01*
X005577Y003523D01*
X005500Y003600D01*
X005423Y003600D01*
X005500Y003600D02*
X005577Y003677D01*
X005577Y003754D01*
X005500Y003830D01*
X005347Y003830D01*
X005270Y003754D01*
X005730Y003447D02*
X005807Y003447D01*
X005807Y003370D01*
X005730Y003370D01*
X005730Y003447D01*
X005961Y003447D02*
X006037Y003370D01*
X006191Y003370D01*
X006268Y003447D01*
X006268Y003523D01*
X006191Y003600D01*
X006114Y003600D01*
X006191Y003600D02*
X006268Y003677D01*
X006268Y003754D01*
X006191Y003830D01*
X006037Y003830D01*
X005961Y003754D01*
X006421Y003830D02*
X006421Y003523D01*
X006574Y003370D01*
X006728Y003523D01*
X006728Y003830D01*
X010520Y005620D02*
X010827Y005620D01*
X010673Y005620D02*
X010673Y006080D01*
X010520Y005927D01*
X010980Y006004D02*
X010980Y005697D01*
X011287Y006004D01*
X011287Y005697D01*
X011211Y005620D01*
X011057Y005620D01*
X010980Y005697D01*
X010980Y006004D02*
X011057Y006080D01*
X011211Y006080D01*
X011287Y006004D01*
X011901Y006080D02*
X012055Y005927D01*
X012208Y006080D01*
X012208Y005620D01*
X012362Y005620D02*
X012362Y006080D01*
X012668Y006080D02*
X012668Y005620D01*
X012822Y005620D02*
X013129Y005620D01*
X013282Y005467D02*
X013436Y005620D01*
X013359Y005620D01*
X013359Y005697D01*
X013436Y005697D01*
X013436Y005620D01*
X013129Y005927D02*
X012822Y005620D01*
X012668Y005850D02*
X012362Y005850D01*
X012822Y005927D02*
X013129Y005927D01*
X014050Y006004D02*
X014050Y005697D01*
X014357Y006004D01*
X014357Y005697D01*
X014280Y005620D01*
X014126Y005620D01*
X014050Y005697D01*
X014510Y005697D02*
X014510Y005620D01*
X014587Y005620D01*
X014587Y005697D01*
X014510Y005697D01*
X014740Y005697D02*
X014817Y005620D01*
X014970Y005620D01*
X015047Y005697D01*
X015047Y006004D01*
X014970Y006080D01*
X014817Y006080D01*
X014740Y006004D01*
X014740Y005927D01*
X014817Y005850D01*
X015047Y005850D01*
X015201Y005773D02*
X015354Y005620D01*
X015508Y005773D01*
X015508Y006080D01*
X015201Y006080D02*
X015201Y005773D01*
X014357Y006004D02*
X014280Y006080D01*
X014126Y006080D01*
X014050Y006004D01*
X011901Y006080D02*
X011901Y005620D01*
X006998Y005947D02*
X006998Y006254D01*
X006921Y006330D01*
X006691Y006330D01*
X006691Y005870D01*
X006921Y005870D01*
X006998Y005947D01*
X006537Y005870D02*
X006537Y006330D01*
X006230Y006330D02*
X006537Y005870D01*
X006230Y005870D02*
X006230Y006330D01*
X006077Y006254D02*
X006000Y006330D01*
X005847Y006330D01*
X005770Y006254D01*
X005770Y005947D01*
X005847Y005870D01*
X006000Y005870D01*
X006077Y005947D01*
X006077Y006100D01*
X005923Y006100D01*
X005228Y006023D02*
X005228Y006330D01*
X004921Y006330D02*
X004921Y006023D01*
X005074Y005870D01*
X005228Y006023D01*
X004768Y006023D02*
X004768Y005947D01*
X004691Y005870D01*
X004537Y005870D01*
X004461Y005947D01*
X004307Y005947D02*
X004307Y005870D01*
X004230Y005870D01*
X004230Y005947D01*
X004307Y005947D01*
X004077Y005947D02*
X004000Y005870D01*
X003847Y005870D01*
X003770Y005947D01*
X004000Y006100D02*
X004077Y006023D01*
X004077Y005947D01*
X004000Y006100D02*
X003923Y006100D01*
X004000Y006100D02*
X004077Y006177D01*
X004077Y006254D01*
X004000Y006330D01*
X003847Y006330D01*
X003770Y006254D01*
X004461Y006254D02*
X004537Y006330D01*
X004691Y006330D01*
X004768Y006254D01*
X004768Y006177D01*
X004691Y006100D01*
X004768Y006023D01*
X004691Y006100D02*
X004614Y006100D01*
X005362Y001080D02*
X005362Y000620D01*
D12*
X007260Y003548D02*
X007339Y003548D01*
X007260Y003548D02*
X007262Y003560D01*
X007267Y003571D01*
X007276Y003580D01*
X007287Y003585D01*
X007299Y003587D01*
X007311Y003585D01*
X007322Y003580D01*
X007331Y003571D01*
X007336Y003560D01*
X007338Y003548D01*
X007336Y003536D01*
X007331Y003525D01*
X007322Y003516D01*
X007311Y003511D01*
X007299Y003509D01*
X007287Y003511D01*
X007276Y003516D01*
X007267Y003525D01*
X007262Y003536D01*
X007260Y003548D01*
X007211Y003548D02*
X007213Y003566D01*
X007219Y003584D01*
X007228Y003600D01*
X007240Y003613D01*
X007255Y003624D01*
X007272Y003632D01*
X007290Y003636D01*
X007308Y003636D01*
X007326Y003632D01*
X007343Y003624D01*
X007358Y003613D01*
X007370Y003600D01*
X007379Y003584D01*
X007385Y003566D01*
X007387Y003548D01*
X007385Y003530D01*
X007379Y003512D01*
X007370Y003496D01*
X007358Y003483D01*
X007343Y003472D01*
X007326Y003464D01*
X007308Y003460D01*
X007290Y003460D01*
X007272Y003464D01*
X007255Y003472D01*
X007240Y003483D01*
X007228Y003496D01*
X007219Y003512D01*
X007213Y003530D01*
X007211Y003548D01*
X007181Y003548D02*
X007183Y003569D01*
X007189Y003589D01*
X007198Y003609D01*
X007210Y003626D01*
X007225Y003640D01*
X007243Y003652D01*
X007263Y003660D01*
X007283Y003665D01*
X007304Y003666D01*
X007325Y003663D01*
X007345Y003657D01*
X007364Y003646D01*
X007381Y003633D01*
X007394Y003617D01*
X007405Y003599D01*
X007413Y003579D01*
X007417Y003559D01*
X007417Y003537D01*
X007413Y003517D01*
X007405Y003497D01*
X007394Y003479D01*
X007381Y003463D01*
X007364Y003450D01*
X007345Y003439D01*
X007325Y003433D01*
X007304Y003430D01*
X007283Y003431D01*
X007263Y003436D01*
X007243Y003444D01*
X007225Y003456D01*
X007210Y003470D01*
X007198Y003487D01*
X007189Y003507D01*
X007183Y003527D01*
X007181Y003548D01*
X013000Y005300D02*
X016000Y005300D01*
X016000Y000900D01*
X013000Y000900D01*
X013000Y005300D01*
D13*
X009550Y003650D02*
X009550Y002550D01*
X008650Y001750D02*
X008000Y001750D01*
X007100Y002550D02*
X007100Y003650D01*
X008000Y004450D02*
X008650Y004450D01*
D14*
X006500Y004850D02*
X006250Y004600D01*
X005750Y004600D01*
X005500Y004850D01*
X005250Y004600D01*
X004750Y004600D01*
X004500Y004850D01*
X004500Y005350D01*
X004750Y005600D01*
X005250Y005600D01*
X005500Y005350D01*
X005750Y005600D01*
X006250Y005600D01*
X006500Y005350D01*
X006500Y004850D01*
X005500Y004850D02*
X005500Y005350D01*
X003750Y004100D02*
X002750Y004100D01*
X002750Y003100D01*
X002750Y002100D01*
X003750Y002100D01*
X003750Y003100D01*
X003750Y004100D01*
X003750Y003100D02*
X002750Y003100D01*
D15*
X002500Y002600D02*
X000250Y002600D01*
X000250Y003600D02*
X002500Y003600D01*
D16*
X002650Y003600D03*
X002650Y002600D03*
D17*
X003950Y002600D03*
X003950Y003600D03*
D18*
X011000Y004100D03*
X011000Y002100D03*
D19*
X008500Y005088D02*
X008500Y005112D01*
M02*
