G75*
G70*
%OFA0B0*%
%FSLAX24Y24*%
%IPPOS*%
%LPD*%
%AMOC8*
5,1,8,0,0,1.08239X$1,22.5*
%
%ADD10C,0.0000*%
%ADD11C,0.0600*%
%ADD12R,0.2000X0.1000*%
%ADD13C,0.0100*%
D10*
X003000Y000100D02*
X003000Y006470D01*
X017242Y006470D01*
X017242Y000100D01*
X003000Y000100D01*
D11*
X004200Y002600D02*
X004800Y002600D01*
X004800Y003600D02*
X004200Y003600D01*
X005000Y004800D02*
X005000Y005400D01*
X006000Y005400D02*
X006000Y004800D01*
D12*
X015000Y004800D03*
X015000Y001400D03*
D13*
X015050Y001366D02*
X016750Y001366D01*
X016750Y001267D02*
X016150Y001267D01*
X016150Y001350D02*
X015050Y001350D01*
X015050Y001450D01*
X014950Y001450D01*
X014950Y002050D01*
X013980Y002050D01*
X013942Y002040D01*
X013908Y002020D01*
X013880Y001992D01*
X013860Y001958D01*
X013850Y001920D01*
X013850Y001450D01*
X014950Y001450D01*
X014950Y001350D01*
X015050Y001350D01*
X015050Y000750D01*
X016020Y000750D01*
X016058Y000760D01*
X016092Y000780D01*
X016120Y000808D01*
X016140Y000842D01*
X016150Y000880D01*
X016150Y001350D01*
X016150Y001450D02*
X016150Y001920D01*
X016140Y001958D01*
X016120Y001992D01*
X016092Y002020D01*
X016058Y002040D01*
X016020Y002050D01*
X015050Y002050D01*
X015050Y001450D01*
X016150Y001450D01*
X016150Y001464D02*
X016750Y001464D01*
X016750Y001563D02*
X016150Y001563D01*
X016150Y001661D02*
X016750Y001661D01*
X016750Y001760D02*
X016150Y001760D01*
X016150Y001858D02*
X016750Y001858D01*
X016750Y001957D02*
X016140Y001957D01*
X016750Y002055D02*
X003500Y002055D01*
X003500Y002154D02*
X004142Y002154D01*
X004165Y002150D02*
X004095Y002161D01*
X004027Y002183D01*
X003964Y002215D01*
X003907Y002257D01*
X003857Y002307D01*
X003815Y002364D01*
X003783Y002427D01*
X003761Y002495D01*
X003752Y002550D01*
X004450Y002550D01*
X004550Y002550D01*
X004550Y002650D01*
X004450Y002650D01*
X004450Y003050D01*
X004165Y003050D01*
X004095Y003039D01*
X004027Y003017D01*
X003964Y002985D01*
X003907Y002943D01*
X003857Y002893D01*
X003815Y002836D01*
X003783Y002773D01*
X003761Y002705D01*
X003752Y002650D01*
X004450Y002650D01*
X004450Y002550D01*
X004450Y002150D01*
X004165Y002150D01*
X004450Y002154D02*
X004550Y002154D01*
X004550Y002150D02*
X004835Y002150D01*
X004905Y002161D01*
X004973Y002183D01*
X005036Y002215D01*
X005093Y002257D01*
X005143Y002307D01*
X005185Y002364D01*
X005217Y002427D01*
X005239Y002495D01*
X005248Y002550D01*
X004550Y002550D01*
X004550Y002150D01*
X004550Y002252D02*
X004450Y002252D01*
X004450Y002351D02*
X004550Y002351D01*
X004550Y002449D02*
X004450Y002449D01*
X004450Y002548D02*
X004550Y002548D01*
X004550Y002646D02*
X016750Y002646D01*
X016750Y002548D02*
X005247Y002548D01*
X005224Y002449D02*
X016750Y002449D01*
X016750Y002351D02*
X005175Y002351D01*
X005087Y002252D02*
X016750Y002252D01*
X016750Y002154D02*
X004858Y002154D01*
X003913Y002252D02*
X003500Y002252D01*
X003500Y002351D02*
X003825Y002351D01*
X003776Y002449D02*
X003500Y002449D01*
X003500Y002548D02*
X003753Y002548D01*
X003500Y002646D02*
X004450Y002646D01*
X004550Y002650D02*
X004550Y003050D01*
X004835Y003050D01*
X004905Y003039D01*
X004973Y003017D01*
X005036Y002985D01*
X005093Y002943D01*
X005143Y002893D01*
X005185Y002836D01*
X005217Y002773D01*
X005239Y002705D01*
X005248Y002650D01*
X004550Y002650D01*
X004550Y002745D02*
X004450Y002745D01*
X004450Y002843D02*
X004550Y002843D01*
X004550Y002942D02*
X004450Y002942D01*
X004450Y003040D02*
X004550Y003040D01*
X004898Y003040D02*
X016750Y003040D01*
X016750Y002942D02*
X005095Y002942D01*
X005180Y002843D02*
X016750Y002843D01*
X016750Y002745D02*
X005226Y002745D01*
X005044Y003235D02*
X004886Y003170D01*
X004114Y003170D01*
X003956Y003235D01*
X003835Y003356D01*
X003770Y003514D01*
X003770Y003686D01*
X003835Y003844D01*
X003956Y003965D01*
X004114Y004030D01*
X004886Y004030D01*
X005044Y003965D01*
X005165Y003844D01*
X005230Y003686D01*
X005230Y003514D01*
X005165Y003356D01*
X005044Y003235D01*
X005045Y003237D02*
X016750Y003237D01*
X016750Y003139D02*
X003500Y003139D01*
X003500Y003237D02*
X003955Y003237D01*
X003856Y003336D02*
X003500Y003336D01*
X003500Y003434D02*
X003803Y003434D01*
X003770Y003533D02*
X003500Y003533D01*
X003500Y003631D02*
X003770Y003631D01*
X003788Y003730D02*
X003500Y003730D01*
X003500Y003828D02*
X003829Y003828D01*
X003918Y003927D02*
X003500Y003927D01*
X003500Y004025D02*
X004102Y004025D01*
X003500Y004124D02*
X016750Y004124D01*
X016750Y004222D02*
X016128Y004222D01*
X016120Y004208D02*
X016140Y004242D01*
X016150Y004280D01*
X016150Y004750D01*
X015050Y004750D01*
X015050Y004850D01*
X014950Y004850D01*
X014950Y005450D01*
X013980Y005450D01*
X013942Y005440D01*
X013908Y005420D01*
X013880Y005392D01*
X013860Y005358D01*
X013850Y005320D01*
X013850Y004850D01*
X014950Y004850D01*
X014950Y004750D01*
X015050Y004750D01*
X015050Y004150D01*
X016020Y004150D01*
X016058Y004160D01*
X016092Y004180D01*
X016120Y004208D01*
X016150Y004321D02*
X016750Y004321D01*
X016750Y004419D02*
X016150Y004419D01*
X016150Y004518D02*
X016750Y004518D01*
X016750Y004616D02*
X016150Y004616D01*
X016150Y004715D02*
X016750Y004715D01*
X016750Y004813D02*
X015050Y004813D01*
X015050Y004850D02*
X016150Y004850D01*
X016150Y005320D01*
X016140Y005358D01*
X016120Y005392D01*
X016092Y005420D01*
X016058Y005440D01*
X016020Y005450D01*
X015050Y005450D01*
X015050Y004850D01*
X015050Y004912D02*
X014950Y004912D01*
X014950Y005010D02*
X015050Y005010D01*
X015050Y005109D02*
X014950Y005109D01*
X014950Y005207D02*
X015050Y005207D01*
X015050Y005306D02*
X014950Y005306D01*
X014950Y005404D02*
X015050Y005404D01*
X016108Y005404D02*
X016750Y005404D01*
X016750Y005306D02*
X016150Y005306D01*
X016150Y005207D02*
X016750Y005207D01*
X016750Y005109D02*
X016150Y005109D01*
X016150Y005010D02*
X016750Y005010D01*
X016750Y004912D02*
X016150Y004912D01*
X015050Y004715D02*
X014950Y004715D01*
X014950Y004750D02*
X014950Y004150D01*
X013980Y004150D01*
X013942Y004160D01*
X013908Y004180D01*
X013880Y004208D01*
X013860Y004242D01*
X013850Y004280D01*
X013850Y004750D01*
X014950Y004750D01*
X014950Y004813D02*
X006430Y004813D01*
X006430Y004715D02*
X013850Y004715D01*
X013850Y004616D02*
X006389Y004616D01*
X006365Y004556D02*
X006430Y004714D01*
X006430Y005486D01*
X006365Y005644D01*
X006244Y005765D01*
X006086Y005830D01*
X005914Y005830D01*
X005756Y005765D01*
X005635Y005644D01*
X005570Y005486D01*
X005570Y004714D01*
X005635Y004556D01*
X005756Y004435D01*
X005914Y004370D01*
X006086Y004370D01*
X006244Y004435D01*
X006365Y004556D01*
X006326Y004518D02*
X013850Y004518D01*
X013850Y004419D02*
X006204Y004419D01*
X005796Y004419D02*
X005241Y004419D01*
X005236Y004415D02*
X005293Y004457D01*
X005343Y004507D01*
X005385Y004564D01*
X005417Y004627D01*
X005439Y004695D01*
X005450Y004765D01*
X005450Y005050D01*
X005050Y005050D01*
X005050Y005150D01*
X005450Y005150D01*
X005450Y005435D01*
X005439Y005505D01*
X005417Y005573D01*
X005385Y005636D01*
X005343Y005693D01*
X005293Y005743D01*
X005236Y005785D01*
X005173Y005817D01*
X005105Y005839D01*
X005050Y005848D01*
X005050Y005150D01*
X004950Y005150D01*
X004950Y005848D01*
X004895Y005839D01*
X004827Y005817D01*
X004764Y005785D01*
X004707Y005743D01*
X004657Y005693D01*
X004615Y005636D01*
X004583Y005573D01*
X004561Y005505D01*
X004550Y005435D01*
X004550Y005150D01*
X004950Y005150D01*
X004950Y005050D01*
X005050Y005050D01*
X005050Y004352D01*
X005105Y004361D01*
X005173Y004383D01*
X005236Y004415D01*
X005050Y004419D02*
X004950Y004419D01*
X004950Y004352D02*
X004950Y005050D01*
X004550Y005050D01*
X004550Y004765D01*
X004561Y004695D01*
X004583Y004627D01*
X004615Y004564D01*
X004657Y004507D01*
X004707Y004457D01*
X004764Y004415D01*
X004827Y004383D01*
X004895Y004361D01*
X004950Y004352D01*
X004759Y004419D02*
X003500Y004419D01*
X003500Y004321D02*
X013850Y004321D01*
X013872Y004222D02*
X003500Y004222D01*
X003500Y004518D02*
X004649Y004518D01*
X004589Y004616D02*
X003500Y004616D01*
X003500Y004715D02*
X004558Y004715D01*
X004550Y004813D02*
X003500Y004813D01*
X003500Y004912D02*
X004550Y004912D01*
X004550Y005010D02*
X003500Y005010D01*
X003500Y005109D02*
X004950Y005109D01*
X004950Y005207D02*
X005050Y005207D01*
X005050Y005109D02*
X005570Y005109D01*
X005570Y005207D02*
X005450Y005207D01*
X005450Y005306D02*
X005570Y005306D01*
X005570Y005404D02*
X005450Y005404D01*
X005439Y005503D02*
X005577Y005503D01*
X005618Y005601D02*
X005403Y005601D01*
X005337Y005700D02*
X005691Y005700D01*
X005837Y005798D02*
X005210Y005798D01*
X005050Y005798D02*
X004950Y005798D01*
X004950Y005700D02*
X005050Y005700D01*
X005050Y005601D02*
X004950Y005601D01*
X004950Y005503D02*
X005050Y005503D01*
X005050Y005404D02*
X004950Y005404D01*
X004950Y005306D02*
X005050Y005306D01*
X004550Y005306D02*
X003500Y005306D01*
X003500Y005404D02*
X004550Y005404D01*
X004561Y005503D02*
X003500Y005503D01*
X003500Y005601D02*
X004597Y005601D01*
X004663Y005700D02*
X003500Y005700D01*
X003500Y005798D02*
X004790Y005798D01*
X003500Y005897D02*
X016750Y005897D01*
X016750Y005995D02*
X003500Y005995D01*
X003500Y006020D02*
X016750Y006020D01*
X016750Y000550D01*
X003500Y000550D01*
X003500Y006020D01*
X003500Y005207D02*
X004550Y005207D01*
X004950Y005010D02*
X005050Y005010D01*
X005050Y004912D02*
X004950Y004912D01*
X004950Y004813D02*
X005050Y004813D01*
X005050Y004715D02*
X004950Y004715D01*
X004950Y004616D02*
X005050Y004616D01*
X005050Y004518D02*
X004950Y004518D01*
X005351Y004518D02*
X005674Y004518D01*
X005611Y004616D02*
X005411Y004616D01*
X005442Y004715D02*
X005570Y004715D01*
X005570Y004813D02*
X005450Y004813D01*
X005450Y004912D02*
X005570Y004912D01*
X005570Y005010D02*
X005450Y005010D01*
X006430Y005010D02*
X013850Y005010D01*
X013850Y004912D02*
X006430Y004912D01*
X006430Y005109D02*
X013850Y005109D01*
X013850Y005207D02*
X006430Y005207D01*
X006430Y005306D02*
X013850Y005306D01*
X013892Y005404D02*
X006430Y005404D01*
X006423Y005503D02*
X016750Y005503D01*
X016750Y005601D02*
X006382Y005601D01*
X006309Y005700D02*
X016750Y005700D01*
X016750Y005798D02*
X006163Y005798D01*
X004898Y004025D02*
X016750Y004025D01*
X016750Y003927D02*
X005082Y003927D01*
X005171Y003828D02*
X016750Y003828D01*
X016750Y003730D02*
X005212Y003730D01*
X005230Y003631D02*
X016750Y003631D01*
X016750Y003533D02*
X005230Y003533D01*
X005197Y003434D02*
X016750Y003434D01*
X016750Y003336D02*
X005144Y003336D01*
X004102Y003040D02*
X003500Y003040D01*
X003500Y002942D02*
X003905Y002942D01*
X003820Y002843D02*
X003500Y002843D01*
X003500Y002745D02*
X003774Y002745D01*
X003500Y001957D02*
X013860Y001957D01*
X013850Y001858D02*
X003500Y001858D01*
X003500Y001760D02*
X013850Y001760D01*
X013850Y001661D02*
X003500Y001661D01*
X003500Y001563D02*
X013850Y001563D01*
X013850Y001464D02*
X003500Y001464D01*
X003500Y001366D02*
X014950Y001366D01*
X014950Y001350D02*
X013850Y001350D01*
X013850Y000880D01*
X013860Y000842D01*
X013880Y000808D01*
X013908Y000780D01*
X013942Y000760D01*
X013980Y000750D01*
X014950Y000750D01*
X014950Y001350D01*
X014950Y001267D02*
X015050Y001267D01*
X015050Y001169D02*
X014950Y001169D01*
X014950Y001070D02*
X015050Y001070D01*
X015050Y000972D02*
X014950Y000972D01*
X014950Y000873D02*
X015050Y000873D01*
X015050Y000775D02*
X014950Y000775D01*
X013917Y000775D02*
X003500Y000775D01*
X003500Y000676D02*
X016750Y000676D01*
X016750Y000775D02*
X016083Y000775D01*
X016148Y000873D02*
X016750Y000873D01*
X016750Y000972D02*
X016150Y000972D01*
X016150Y001070D02*
X016750Y001070D01*
X016750Y001169D02*
X016150Y001169D01*
X015050Y001464D02*
X014950Y001464D01*
X014950Y001563D02*
X015050Y001563D01*
X015050Y001661D02*
X014950Y001661D01*
X014950Y001760D02*
X015050Y001760D01*
X015050Y001858D02*
X014950Y001858D01*
X014950Y001957D02*
X015050Y001957D01*
X013850Y001267D02*
X003500Y001267D01*
X003500Y001169D02*
X013850Y001169D01*
X013850Y001070D02*
X003500Y001070D01*
X003500Y000972D02*
X013850Y000972D01*
X013852Y000873D02*
X003500Y000873D01*
X003500Y000578D02*
X016750Y000578D01*
X015050Y004222D02*
X014950Y004222D01*
X014950Y004321D02*
X015050Y004321D01*
X015050Y004419D02*
X014950Y004419D01*
X014950Y004518D02*
X015050Y004518D01*
X015050Y004616D02*
X014950Y004616D01*
M02*
